<?xml version="1.0" encoding="utf-8"?>
<!-- Generator: Adobe Illustrator 16.0.0, SVG Export Plug-In . SVG Version: 6.00 Build 0)  -->
<!DOCTYPE svg PUBLIC "-//W3C//DTD SVG 1.1//EN" "http://www.w3.org/Graphics/SVG/1.1/DTD/svg11.dtd">
<svg version="1.1" id="Ebene_1" xmlns="http://www.w3.org/2000/svg" xmlns:xlink="http://www.w3.org/1999/xlink" x="0px" y="0px"
	 width="283.46px" height="91.613px" viewBox="0 0 283.46 91.613" enable-background="new 0 0 283.46 91.613" xml:space="preserve">
<g>
	<g>
		<path fill-rule="evenodd" clip-rule="evenodd" fill="#3E372C" d="M276.328,48.692c-23.925,0.003-47.85,0.005-71.773,0.007
			c-0.139-0.152-0.277-0.152-0.416,0c-32.627-0.002-65.254-0.004-97.881-0.006c-0.248-0.204-0.498-0.204-0.749-0.007
			c-8.238,0.005-16.476,0.01-24.714,0.015c-0.137-0.151-0.276-0.153-0.415-0.003c-3.301-0.001-6.602-0.003-9.903-0.004
			c-0.245-0.17-0.492-0.202-0.742-0.009c-3.188,0.006-6.377,0.011-9.566,0.016c-0.138-0.152-0.276-0.153-0.415-0.001
			c-3.408-0.002-6.815-0.004-10.222-0.005c-0.139-0.159-0.278-0.162-0.418-0.002c-1.471-0.003-2.941-0.007-4.412-0.011
			c-0.145-0.172-0.285-0.152-0.42,0.013c-6.736,0.001-13.473,0.002-20.21,0.003c-0.138-0.151-0.275-0.153-0.413,0
			c-6.739,0-13.477,0-20.215,0.001c-0.122-0.09-0.244-0.18-0.366-0.27c0-0.107,0-0.215,0-0.322c0.49-0.51,1.113-0.234,1.663-0.235
			c14.792-0.025,29.584-0.027,44.376-0.033c0.138,0.156,0.277,0.157,0.417,0.003c10.282,0.001,20.564,0.002,30.846,0.003
			c0.141,0.151,0.281,0.147,0.419-0.004c35.955,0.003,71.91,0.006,107.865,0.009c0.142,0.157,0.282,0.151,0.422-0.003
			c1.044,0,2.087,0,3.131,0c0.245,0.187,0.49,0.186,0.735,0c3.729-0.001,7.458-0.002,11.187-0.003c0.14,0.154,0.279,0.154,0.42,0
			c23.924,0.001,47.848,0.003,71.771,0.005c0.666,0.08,1.331,0.16,1.997,0.24c0,0.12,0,0.24,0,0.361
			C277.66,48.53,276.994,48.612,276.328,48.692z"/>
		<path fill-rule="evenodd" clip-rule="evenodd" fill="#B0AB9F" d="M3.077,48.43c0.122,0.09,0.244,0.18,0.366,0.27
			c-0.122,0.018-0.244,0.035-0.366,0.053C3.077,48.645,3.077,48.538,3.077,48.43z"/>
		<path fill-rule="evenodd" clip-rule="evenodd" fill="#B0AB9F" d="M276.328,48.692c0.666-0.08,1.332-0.162,1.998-0.242
			C277.735,49.153,277.01,48.741,276.328,48.692z"/>
		<path fill-rule="evenodd" clip-rule="evenodd" fill="#B0AB9F" d="M278.326,48.089c-0.666-0.08-1.331-0.16-1.997-0.24
			C277.009,47.808,277.735,47.386,278.326,48.089z"/>
		<path fill-rule="evenodd" clip-rule="evenodd" fill="#B0AB9F" d="M69.735,48.686c0.25-0.193,0.497-0.161,0.742,0.009
			C70.23,48.691,69.982,48.688,69.735,48.686z"/>
		<path fill-rule="evenodd" clip-rule="evenodd" fill="#B0AB9F" d="M192.951,47.847c-0.245,0.186-0.49,0.187-0.735,0
			C192.461,47.847,192.706,47.847,192.951,47.847z"/>
		<path fill-rule="evenodd" clip-rule="evenodd" fill="#B0AB9F" d="M105.509,48.687c0.251-0.197,0.5-0.197,0.749,0.007
			C106.008,48.69,105.759,48.688,105.509,48.687z"/>
		<path fill-rule="evenodd" clip-rule="evenodd" fill="#B0AB9F" d="M204.558,47.844c-0.141,0.154-0.28,0.154-0.42,0
			C204.277,47.844,204.417,47.844,204.558,47.844z"/>
		<path fill-rule="evenodd" clip-rule="evenodd" fill="#B0AB9F" d="M189.085,47.847c-0.14,0.154-0.28,0.16-0.422,0.003
			C188.804,47.849,188.944,47.848,189.085,47.847z"/>
		<path fill-rule="evenodd" clip-rule="evenodd" fill="#B0AB9F" d="M80.38,48.698c0.139-0.15,0.278-0.148,0.415,0.003
			C80.657,48.7,80.519,48.699,80.38,48.698z"/>
		<path fill-rule="evenodd" clip-rule="evenodd" fill="#B0AB9F" d="M80.798,47.841c-0.139,0.151-0.278,0.155-0.419,0.004
			C80.519,47.844,80.659,47.842,80.798,47.841z"/>
		<path fill-rule="evenodd" clip-rule="evenodd" fill="#B0AB9F" d="M49.533,47.842c-0.14,0.154-0.278,0.153-0.417-0.003
			C49.255,47.84,49.395,47.841,49.533,47.842z"/>
		<path fill-rule="evenodd" clip-rule="evenodd" fill="#B0AB9F" d="M59.754,48.7c0.139-0.152,0.277-0.151,0.415,0.001
			C60.03,48.701,59.892,48.7,59.754,48.7z"/>
		<path fill-rule="evenodd" clip-rule="evenodd" fill="#B0AB9F" d="M49.114,48.693c0.14-0.16,0.279-0.157,0.418,0.002
			C49.393,48.694,49.253,48.694,49.114,48.693z"/>
		<path fill-rule="evenodd" clip-rule="evenodd" fill="#B0AB9F" d="M44.282,48.695c0.136-0.165,0.275-0.185,0.42-0.013
			C44.562,48.688,44.422,48.69,44.282,48.695z"/>
		<path fill-rule="evenodd" clip-rule="evenodd" fill="#B0AB9F" d="M23.659,48.698c0.138-0.153,0.275-0.151,0.413,0
			C23.934,48.698,23.796,48.698,23.659,48.698z"/>
		<path fill-rule="evenodd" clip-rule="evenodd" fill="#B0AB9F" d="M170.605,64.917c-0.149-0.143-0.143-0.282,0.006-0.421
			C170.609,64.637,170.608,64.776,170.605,64.917z"/>
		<path fill-rule="evenodd" clip-rule="evenodd" fill="#B0AB9F" d="M204.139,48.699c0.139-0.152,0.277-0.152,0.416,0
			C204.416,48.699,204.277,48.699,204.139,48.699z"/>
	</g>
	<g>
		<path fill="#B0AB9F" d="M9.694,38.407c-0.131,0-0.184,0.057-0.236,0.228l-1.417,4.069c-0.262,0.711-0.393,1.395-0.393,1.736
			c0,0.512,0.236,0.882,1.049,0.882H9.09c0.315,0,0.394,0.057,0.394,0.228c0,0.228-0.157,0.285-0.446,0.285
			c-0.839,0-1.967-0.085-2.781-0.085c-0.288,0-1.731,0.085-3.095,0.085c-0.341,0-0.499-0.057-0.499-0.285
			c0-0.171,0.105-0.228,0.315-0.228c0.236,0,0.603-0.028,0.813-0.057c1.207-0.17,1.705-1.138,2.229-2.561l6.583-17.872
			c0.315-0.825,0.472-1.138,0.735-1.138c0.236,0,0.393,0.256,0.655,0.911c0.63,1.565,4.827,13.176,6.505,17.501
			c0.997,2.561,1.757,2.959,2.308,3.102c0.394,0.085,0.787,0.114,1.102,0.114c0.21,0,0.341,0.028,0.341,0.228
			c0,0.228-0.236,0.285-1.207,0.285c-0.944,0-2.859,0-4.957-0.057c-0.472-0.028-0.787-0.028-0.787-0.228
			c0-0.171,0.105-0.228,0.367-0.256c0.184-0.057,0.367-0.313,0.236-0.655l-2.099-6.033c-0.052-0.142-0.131-0.199-0.262-0.199H9.694z
			 M15.044,36.984c0.131,0,0.158-0.085,0.131-0.17l-2.361-7.029c-0.026-0.114-0.052-0.256-0.131-0.256
			c-0.079,0-0.131,0.142-0.158,0.256l-2.413,7c-0.026,0.114,0,0.199,0.105,0.199H15.044z"/>
		<path fill="#B0AB9F" d="M27.007,32.573c0-4.326,0-5.123-0.053-6.033c-0.052-0.967-0.262-1.423-1.127-1.622
			c-0.21-0.057-0.656-0.085-1.023-0.085c-0.289,0-0.446-0.057-0.446-0.256s0.184-0.256,0.577-0.256c1.39,0,3.042,0.085,3.567,0.085
			c1.285,0,2.308-0.085,3.2-0.085c4.748,0,5.587,2.761,5.587,4.269c0,2.333-1.233,3.728-2.676,4.98
			c2.151,0.797,4.774,2.817,4.774,6.146c0,3.045-2.177,6.204-7.003,6.204c-0.314,0-1.075-0.057-1.836-0.085
			c-0.787-0.057-1.574-0.085-1.967-0.085c-0.289,0-0.866,0-1.495,0.028c-0.603,0-1.285,0.057-1.81,0.057
			c-0.341,0-0.524-0.085-0.524-0.285c0-0.142,0.105-0.228,0.42-0.228c0.393,0,0.708-0.057,0.944-0.114
			c0.525-0.114,0.656-0.74,0.761-1.565c0.131-1.195,0.131-3.443,0.131-6.062V32.573z M30.154,33.057
			c0,0.228,0.079,0.284,0.184,0.313c0.236,0.057,0.629,0.085,1.233,0.085c0.866,0,1.442-0.114,1.889-0.541
			c0.682-0.598,1.075-1.622,1.075-3.017c0-1.907-1.023-4.411-3.279-4.411c-0.367,0-0.603,0-0.865,0.057
			c-0.184,0.057-0.236,0.171-0.236,0.484V33.057z M33.617,35.333c-0.551-0.427-1.154-0.626-2.177-0.683
			c-0.472-0.028-0.734-0.028-1.128-0.028c-0.104,0-0.157,0.057-0.157,0.199v6.745c0,1.878,0.079,2.362,0.918,2.732
			c0.708,0.313,1.312,0.341,1.915,0.341c1.18,0,3.174-0.683,3.174-3.643C36.161,39.232,35.61,36.842,33.617,35.333z"/>
		<path fill="#B0AB9F" d="M44.109,45.493c-0.419-0.199-0.498-0.341-0.498-0.967c0-1.565,0.105-3.272,0.131-3.728
			c0.026-0.427,0.105-0.74,0.315-0.74c0.236,0,0.262,0.256,0.262,0.484c0,0.37,0.105,0.967,0.236,1.451
			c0.577,2.106,2.125,2.874,3.75,2.874c2.361,0,3.515-1.736,3.515-3.244c0-1.395-0.394-2.704-2.571-4.553l-1.207-1.024
			c-2.885-2.447-3.882-4.439-3.882-6.745c0-3.13,2.413-5.378,6.059-5.378c1.705,0,2.807,0.285,3.488,0.484
			c0.236,0.057,0.367,0.142,0.367,0.341c0,0.37-0.104,1.195-0.104,3.415c0,0.626-0.079,0.854-0.289,0.854
			c-0.184,0-0.263-0.171-0.263-0.512c0-0.256-0.131-1.139-0.682-1.878c-0.394-0.541-1.154-1.395-2.859-1.395
			c-1.941,0-3.121,1.224-3.121,2.931c0,1.309,0.603,2.305,2.78,4.098l0.734,0.598c3.174,2.589,4.302,4.553,4.302,7.256
			c0,1.651-0.577,3.614-2.465,4.952c-1.312,0.911-2.781,1.167-4.171,1.167C46.418,46.232,45.237,46.034,44.109,45.493z"/>
		<path fill="#B0AB9F" d="M57.96,35.078c0-4.867,2.964-11.156,10.833-11.156c6.531,0,10.597,4.126,10.597,10.643
			c0,6.517-4.197,11.667-10.859,11.667C61.002,46.232,57.96,40.114,57.96,35.078z M75.717,35.618c0-6.375-3.384-10.33-7.685-10.33
			c-3.017,0-6.453,1.821-6.453,8.907c0,5.919,3.016,10.615,8.052,10.615C71.468,44.81,75.717,43.842,75.717,35.618z"/>
		<path fill="#B0AB9F" d="M88.152,37.582c0,3.643,0,5.606,0.551,6.119c0.446,0.427,1.128,0.626,3.174,0.626
			c1.39,0,2.413-0.028,3.069-0.797c0.314-0.37,0.629-1.167,0.682-1.708c0.026-0.256,0.079-0.427,0.288-0.427
			c0.184,0,0.21,0.142,0.21,0.484c0,0.313-0.184,2.447-0.394,3.272c-0.157,0.626-0.288,0.769-1.652,0.769
			c-1.889,0-3.252-0.057-4.433-0.085c-1.181-0.057-2.125-0.085-3.2-0.085c-0.289,0-0.866,0-1.495,0.028
			c-0.603,0-1.285,0.057-1.81,0.057c-0.341,0-0.524-0.085-0.524-0.285c0-0.142,0.105-0.228,0.42-0.228
			c0.393,0,0.708-0.057,0.944-0.114c0.525-0.114,0.656-0.74,0.761-1.565c0.131-1.195,0.131-3.443,0.131-6.062v-5.008
			c0-4.326,0-5.123-0.053-6.033c-0.052-0.967-0.262-1.423-1.127-1.622c-0.21-0.057-0.525-0.085-0.866-0.085
			c-0.289,0-0.446-0.057-0.446-0.256s0.184-0.256,0.577-0.256c1.233,0,2.885,0.085,3.594,0.085c0.629,0,2.544-0.085,3.567-0.085
			c0.367,0,0.551,0.057,0.551,0.256s-0.158,0.256-0.472,0.256c-0.289,0-0.708,0.029-1.023,0.085
			c-0.708,0.143-0.918,0.626-0.971,1.622c-0.052,0.911-0.052,1.708-0.052,6.033V37.582z"/>
		<path fill="#B0AB9F" d="M97.019,27.109c-0.604-1.565-1.049-1.878-1.994-2.163c-0.394-0.114-0.813-0.114-1.023-0.114
			c-0.236,0-0.315-0.085-0.315-0.256c0-0.228,0.289-0.256,0.682-0.256c1.39,0,2.885,0.085,3.803,0.085
			c0.656,0,1.915-0.085,3.227-0.085c0.314,0,0.603,0.057,0.603,0.256s-0.157,0.256-0.393,0.256c-0.42,0-0.813,0.029-1.023,0.199
			c-0.184,0.143-0.263,0.342-0.263,0.598c0,0.37,0.236,1.167,0.604,2.191l4.511,12.919h0.105c1.128-3.13,4.538-12.293,5.167-14.172
			c0.131-0.37,0.236-0.796,0.236-1.053c0-0.228-0.104-0.455-0.341-0.541c-0.315-0.114-0.708-0.143-1.049-0.143
			c-0.236,0-0.446-0.028-0.446-0.228c0-0.228,0.236-0.285,0.734-0.285c1.312,0,2.413,0.085,2.754,0.085
			c0.446,0,1.679-0.085,2.465-0.085c0.341,0,0.551,0.057,0.551,0.256s-0.157,0.256-0.419,0.256s-0.813,0-1.285,0.342
			c-0.341,0.256-0.735,0.74-1.443,2.561c-1.023,2.675-1.731,4.212-3.147,7.712c-1.679,4.155-2.912,7.257-3.489,8.68
			c-0.682,1.65-0.839,2.105-1.207,2.105c-0.341,0-0.498-0.398-0.997-1.735L97.019,27.109z"/>
		<path fill="#B0AB9F" d="M118.424,32.573c0-4.326,0-5.123-0.053-6.033c-0.052-0.967-0.262-1.423-1.127-1.622
			c-0.21-0.057-0.656-0.085-1.023-0.085c-0.289,0-0.446-0.057-0.446-0.256s0.184-0.256,0.577-0.256c0.708,0,1.469,0.028,2.125,0.028
			c0.682,0.029,1.286,0.057,1.653,0.057c0.839,0,6.059,0,6.557-0.028c0.499-0.057,0.918-0.114,1.128-0.171
			c0.131-0.028,0.289-0.114,0.42-0.114c0.131,0,0.157,0.114,0.157,0.256c0,0.199-0.131,0.541-0.21,1.85
			c-0.026,0.285-0.079,1.537-0.131,1.878c-0.026,0.143-0.079,0.313-0.263,0.313c-0.184,0-0.236-0.142-0.236-0.398
			c0-0.199-0.026-0.683-0.157-1.024c-0.184-0.512-0.446-0.854-1.757-1.024c-0.446-0.057-3.2-0.114-3.725-0.114
			c-0.131,0-0.184,0.085-0.184,0.285v7.2c0,0.199,0.026,0.313,0.184,0.313c0.577,0,3.594,0,4.197-0.057
			c0.63-0.057,1.023-0.143,1.259-0.427c0.184-0.228,0.289-0.37,0.419-0.37c0.105,0,0.184,0.057,0.184,0.228s-0.105,0.626-0.21,2.078
			c-0.026,0.569-0.105,1.707-0.105,1.906c0,0.228,0,0.541-0.236,0.541c-0.184,0-0.236-0.114-0.236-0.256
			c-0.026-0.285-0.026-0.654-0.105-1.024c-0.131-0.569-0.499-0.996-1.469-1.11c-0.499-0.057-3.095-0.085-3.725-0.085
			c-0.131,0-0.158,0.114-0.158,0.285v2.248c0,0.968-0.026,3.586,0,4.411c0.053,1.963,0.472,2.39,3.148,2.39
			c0.682,0,1.784,0,2.465-0.341c0.682-0.341,0.997-0.939,1.181-2.106c0.052-0.313,0.104-0.427,0.288-0.427
			c0.21,0,0.21,0.228,0.21,0.512c0,0.655-0.21,2.59-0.341,3.159c-0.184,0.74-0.42,0.74-1.417,0.74c-1.967,0-3.41-0.057-4.538-0.085
			c-1.128-0.057-1.941-0.085-2.728-0.085c-0.289,0-0.866,0-1.495,0.028c-0.603,0-1.285,0.057-1.81,0.057
			c-0.341,0-0.524-0.085-0.524-0.285c0-0.142,0.105-0.228,0.42-0.228c0.393,0,0.708-0.057,0.944-0.114
			c0.525-0.114,0.656-0.74,0.761-1.565c0.131-1.195,0.131-3.443,0.131-6.062V32.573z"/>
		<path fill="#B0AB9F" d="M136.471,41.964c0.053,2.22,0.394,2.959,0.918,3.159c0.446,0.171,0.944,0.199,1.364,0.199
			c0.289,0,0.446,0.057,0.446,0.228c0,0.228-0.236,0.285-0.604,0.285c-1.705,0-2.754-0.085-3.252-0.085
			c-0.236,0-1.469,0.085-2.833,0.085c-0.341,0-0.577-0.028-0.577-0.285c0-0.171,0.157-0.228,0.419-0.228
			c0.341,0,0.813-0.028,1.181-0.143c0.682-0.228,0.787-1.053,0.813-3.528l0.236-16.847c0-0.569,0.079-0.968,0.341-0.968
			c0.289,0,0.524,0.37,0.97,0.882c0.315,0.37,4.302,5.009,8.132,9.135c1.783,1.936,5.324,6.033,5.771,6.489h0.131l-0.263-12.778
			c-0.026-1.736-0.262-2.276-0.892-2.561c-0.394-0.171-1.022-0.171-1.39-0.171c-0.315,0-0.42-0.085-0.42-0.256
			c0-0.228,0.288-0.256,0.682-0.256c1.364,0,2.623,0.085,3.174,0.085c0.289,0,1.285-0.085,2.57-0.085
			c0.342,0,0.604,0.028,0.604,0.256c0,0.17-0.157,0.256-0.472,0.256c-0.263,0-0.473,0-0.787,0.085
			c-0.734,0.228-0.944,0.825-0.971,2.419l-0.288,17.957c0,0.626-0.105,0.882-0.342,0.882c-0.288,0-0.603-0.313-0.892-0.626
			c-1.652-1.708-5.01-5.436-7.738-8.367c-2.859-3.073-5.771-6.63-6.243-7.171h-0.079L136.471,41.964z"/>
		<path fill="#B0AB9F" d="M163.331,25.914l-3.908,0.114c-1.521,0.057-2.15,0.199-2.544,0.825c-0.263,0.427-0.394,0.769-0.446,0.996
			c-0.052,0.228-0.131,0.341-0.288,0.341c-0.184,0-0.236-0.142-0.236-0.455c0-0.456,0.498-3.045,0.551-3.272
			c0.079-0.37,0.157-0.541,0.314-0.541c0.21,0,0.473,0.285,1.128,0.342c0.761,0.085,1.758,0.142,2.623,0.142h10.388
			c0.839,0,1.416-0.085,1.81-0.142c0.394-0.085,0.604-0.143,0.708-0.143c0.184,0,0.21,0.171,0.21,0.598
			c0,0.598-0.079,2.561-0.079,3.301c-0.025,0.285-0.078,0.455-0.235,0.455c-0.21,0-0.263-0.142-0.289-0.569l-0.026-0.313
			c-0.052-0.74-0.761-1.537-3.095-1.594l-3.305-0.085v11.667c0,2.618,0,4.866,0.131,6.09c0.079,0.797,0.236,1.423,1.022,1.537
			c0.367,0.057,0.944,0.114,1.338,0.114c0.289,0,0.42,0.085,0.42,0.228c0,0.199-0.21,0.285-0.498,0.285
			c-1.731,0-3.384-0.085-4.118-0.085c-0.604,0-2.256,0.085-3.305,0.085c-0.342,0-0.525-0.085-0.525-0.285
			c0-0.142,0.105-0.228,0.42-0.228c0.394,0,0.708-0.057,0.944-0.114c0.524-0.114,0.682-0.74,0.761-1.565
			c0.131-1.195,0.131-3.443,0.131-6.062V25.914z"/>
		<path fill="#B0AB9F" d="M177.34,32.573c0-4.326,0-5.123-0.053-6.033c-0.052-0.967-0.262-1.423-1.128-1.622
			c-0.21-0.057-0.655-0.085-1.022-0.085c-0.289,0-0.446-0.057-0.446-0.256s0.184-0.256,0.577-0.256c1.391,0,3.043,0.085,3.83,0.085
			c0.629,0,2.281-0.085,3.226-0.085c0.394,0,0.577,0.057,0.577,0.256s-0.157,0.256-0.42,0.256c-0.288,0-0.445,0.029-0.76,0.085
			c-0.709,0.143-0.919,0.626-0.971,1.622c-0.053,0.911-0.053,1.708-0.053,6.033v3.984c0,4.126,0.761,5.862,2.046,7
			c1.181,1.053,2.387,1.167,3.278,1.167c1.154,0,2.571-0.398,3.62-1.537c1.442-1.565,1.521-4.126,1.521-7.058v-3.557
			c0-4.326,0-5.123-0.053-6.033c-0.053-0.967-0.262-1.423-1.128-1.622c-0.21-0.057-0.655-0.085-0.944-0.085
			c-0.288,0-0.445-0.057-0.445-0.256s0.184-0.256,0.551-0.256c1.338,0,2.99,0.085,3.017,0.085c0.314,0,1.967-0.085,2.99-0.085
			c0.367,0,0.551,0.057,0.551,0.256s-0.158,0.256-0.473,0.256c-0.288,0-0.446,0.029-0.761,0.085
			c-0.708,0.143-0.918,0.626-0.971,1.622c-0.052,0.911-0.052,1.708-0.052,6.033v3.045c0,3.159-0.289,6.517-2.492,8.566
			c-1.862,1.736-3.751,2.048-5.456,2.048c-1.39,0-3.908-0.085-5.823-1.963c-1.337-1.309-2.334-3.415-2.334-7.541V32.573z"/>
		<path fill="#B0AB9F" d="M201.368,24.434c0.078-0.483,0.235-0.74,0.445-0.74s0.367,0.142,0.709,0.882l7.16,16.05l7.135-16.249
			c0.21-0.456,0.341-0.683,0.577-0.683s0.394,0.285,0.472,0.882l2.387,17.587c0.236,1.792,0.499,2.618,1.286,2.874
			c0.761,0.256,1.285,0.285,1.626,0.285c0.236,0,0.42,0.028,0.42,0.199c0,0.228-0.315,0.313-0.683,0.313
			c-0.655,0-4.275-0.085-5.324-0.171c-0.604-0.057-0.761-0.142-0.761-0.313c0-0.142,0.104-0.228,0.288-0.313
			c0.158-0.057,0.236-0.427,0.132-1.224l-1.574-12.521h-0.104l-5.719,12.92c-0.603,1.337-0.734,1.594-0.97,1.594
			c-0.236,0-0.499-0.569-0.919-1.423c-0.629-1.309-2.701-5.663-3.016-6.459c-0.236-0.598-1.811-4.184-2.729-6.318h-0.104
			l-1.364,11.326c-0.053,0.512-0.078,0.882-0.078,1.337c0,0.541,0.341,0.797,0.786,0.911c0.473,0.114,0.84,0.143,1.102,0.143
			c0.21,0,0.394,0.057,0.394,0.199c0,0.256-0.235,0.313-0.629,0.313c-1.102,0-2.282-0.085-2.755-0.085
			c-0.498,0-1.757,0.085-2.597,0.085c-0.262,0-0.472-0.057-0.472-0.313c0-0.143,0.157-0.199,0.42-0.199c0.21,0,0.394,0,0.786-0.085
			c0.734-0.171,0.944-1.281,1.076-2.248L201.368,24.434z"/>
	</g>
	<g>
		<path fill="#3E372C" d="M65.541,58.109c0-3.866,0-4.578-0.046-5.393c-0.046-0.864-0.229-1.271-0.986-1.449
			c-0.184-0.051-0.574-0.076-0.895-0.076c-0.252,0-0.39-0.052-0.39-0.229s0.161-0.229,0.505-0.229c1.215,0,2.66,0.076,3.348,0.076
			c0.55,0,1.995-0.076,2.821-0.076c0.344,0,0.505,0.051,0.505,0.229s-0.138,0.229-0.367,0.229c-0.252,0-0.39,0.025-0.665,0.076
			c-0.619,0.127-0.803,0.56-0.849,1.449c-0.046,0.814-0.046,1.526-0.046,5.393v3.562c0,3.688,0.665,5.24,1.789,6.257
			c1.032,0.941,2.087,1.043,2.867,1.043c1.009,0,2.248-0.355,3.165-1.373c1.261-1.399,1.33-3.688,1.33-6.309v-3.18
			c0-3.866,0-4.578-0.046-5.393c-0.046-0.864-0.229-1.271-0.986-1.449c-0.184-0.051-0.573-0.076-0.826-0.076
			c-0.252,0-0.39-0.052-0.39-0.229s0.161-0.229,0.481-0.229c1.17,0,2.615,0.076,2.638,0.076c0.275,0,1.72-0.076,2.614-0.076
			c0.321,0,0.481,0.051,0.481,0.229s-0.137,0.229-0.413,0.229c-0.252,0-0.39,0.025-0.665,0.076c-0.619,0.127-0.803,0.56-0.849,1.449
			c-0.046,0.814-0.046,1.526-0.046,5.393v2.722c0,2.824-0.252,5.825-2.179,7.656c-1.628,1.552-3.28,1.832-4.771,1.832
			c-1.215,0-3.417-0.076-5.091-1.755c-1.169-1.171-2.041-3.053-2.041-6.741V58.109z"/>
		<path fill="#3E372C" d="M87.354,66.504c0.046,1.983,0.344,2.646,0.803,2.823c0.39,0.152,0.826,0.178,1.192,0.178
			c0.252,0,0.39,0.051,0.39,0.204c0,0.203-0.207,0.254-0.527,0.254c-1.491,0-2.408-0.076-2.844-0.076
			c-0.206,0-1.284,0.076-2.477,0.076c-0.298,0-0.504-0.025-0.504-0.254c0-0.153,0.137-0.204,0.367-0.204
			c0.298,0,0.711-0.025,1.032-0.127c0.596-0.203,0.688-0.941,0.711-3.154l0.206-15.058c0-0.509,0.069-0.865,0.298-0.865
			c0.252,0,0.458,0.331,0.849,0.788c0.275,0.331,3.761,4.478,7.109,8.165c1.56,1.73,4.656,5.393,5.045,5.8h0.115L98.89,53.633
			c-0.023-1.552-0.229-2.035-0.78-2.289c-0.344-0.152-0.894-0.152-1.215-0.152c-0.275,0-0.367-0.077-0.367-0.229
			c0-0.203,0.252-0.229,0.596-0.229c1.192,0,2.293,0.076,2.775,0.076c0.252,0,1.124-0.076,2.248-0.076
			c0.298,0,0.527,0.025,0.527,0.229c0,0.152-0.138,0.229-0.413,0.229c-0.229,0-0.413,0-0.688,0.076
			c-0.642,0.203-0.826,0.737-0.849,2.162l-0.252,16.05c0,0.56-0.092,0.789-0.298,0.789c-0.252,0-0.528-0.28-0.78-0.56
			c-1.445-1.526-4.38-4.858-6.766-7.479c-2.5-2.747-5.045-5.927-5.458-6.41h-0.069L87.354,66.504z"/>
		<path fill="#3E372C" d="M107.793,58.109c0-3.866,0-4.578-0.046-5.393c-0.046-0.864-0.275-1.297-0.78-1.424
			c-0.252-0.076-0.55-0.102-0.826-0.102c-0.229,0-0.367-0.052-0.367-0.255c0-0.152,0.183-0.203,0.55-0.203
			c0.872,0,2.316,0.076,2.981,0.076c0.573,0,1.926-0.076,2.798-0.076c0.298,0,0.481,0.051,0.481,0.203
			c0,0.203-0.137,0.255-0.367,0.255s-0.413,0.025-0.688,0.076c-0.619,0.127-0.803,0.56-0.849,1.449
			c-0.046,0.814-0.046,1.526-0.046,5.393v4.478c0,2.467,0,4.477,0.092,5.57c0.069,0.687,0.229,1.145,0.917,1.246
			c0.321,0.051,0.826,0.102,1.169,0.102c0.252,0,0.367,0.076,0.367,0.204c0,0.178-0.184,0.254-0.436,0.254
			c-1.514,0-2.958-0.076-3.578-0.076c-0.527,0-1.972,0.076-2.89,0.076c-0.298,0-0.458-0.076-0.458-0.254
			c0-0.128,0.091-0.204,0.367-0.204c0.344,0,0.619-0.051,0.826-0.102c0.458-0.102,0.596-0.534,0.665-1.271
			c0.115-1.068,0.115-3.078,0.115-5.545V58.109z"/>
		<path fill="#3E372C" d="M122.634,58.874c0.413,0,0.734,0.051,0.734,0.356c0,0.356-0.39,0.433-1.032,0.56
			c-2.263,0.377-4.083,0.64-5.917,1.221c-0.458,0.127-0.826,0.407-1.009,0.407c-0.184,0-0.229-0.203-0.184-0.458l0.344-1.755
			c0.069-0.306,0.161-0.331,0.551-0.331H122.634z"/>
		<path fill="#3E372C" d="M128.759,50.835c0.069-0.433,0.206-0.661,0.39-0.661s0.321,0.127,0.619,0.788l6.261,14.347l6.238-14.524
			c0.184-0.407,0.298-0.61,0.505-0.61c0.206,0,0.344,0.254,0.413,0.788l2.087,15.72c0.206,1.603,0.436,2.34,1.123,2.569
			c0.665,0.229,1.124,0.254,1.422,0.254c0.207,0,0.367,0.025,0.367,0.179c0,0.203-0.275,0.279-0.596,0.279
			c-0.574,0-3.738-0.076-4.656-0.152c-0.527-0.051-0.665-0.127-0.665-0.28c0-0.127,0.092-0.203,0.252-0.279
			c0.138-0.051,0.207-0.382,0.115-1.094l-1.376-11.192h-0.092l-5,11.548c-0.528,1.196-0.642,1.425-0.849,1.425
			s-0.436-0.509-0.803-1.271c-0.55-1.17-2.362-5.062-2.638-5.774c-0.206-0.534-1.582-3.739-2.385-5.646h-0.092l-1.193,10.123
			c-0.045,0.458-0.068,0.789-0.068,1.196c0,0.482,0.298,0.712,0.688,0.813c0.413,0.102,0.734,0.127,0.963,0.127
			c0.184,0,0.344,0.051,0.344,0.179c0,0.229-0.207,0.279-0.55,0.279c-0.963,0-1.996-0.076-2.408-0.076
			c-0.436,0-1.537,0.076-2.271,0.076c-0.229,0-0.413-0.051-0.413-0.279c0-0.128,0.137-0.179,0.367-0.179
			c0.184,0,0.344,0,0.688-0.076c0.642-0.152,0.826-1.145,0.94-2.01L128.759,50.835z"/>
		<path fill="#3E372C" d="M152.981,63.324c-0.115,0-0.161,0.051-0.207,0.203l-1.238,3.638c-0.229,0.636-0.344,1.246-0.344,1.552
			c0,0.458,0.206,0.788,0.917,0.788h0.345c0.274,0,0.344,0.051,0.344,0.204c0,0.203-0.138,0.254-0.39,0.254
			c-0.734,0-1.721-0.076-2.432-0.076c-0.252,0-1.514,0.076-2.706,0.076c-0.298,0-0.436-0.051-0.436-0.254
			c0-0.153,0.092-0.204,0.275-0.204c0.206,0,0.527-0.025,0.711-0.051c1.055-0.152,1.49-1.018,1.949-2.289l5.757-15.974
			c0.274-0.738,0.412-1.018,0.642-1.018c0.206,0,0.344,0.229,0.573,0.813c0.551,1.399,4.22,11.777,5.688,15.644
			c0.872,2.289,1.537,2.646,2.019,2.772c0.344,0.076,0.688,0.102,0.963,0.102c0.184,0,0.299,0.025,0.299,0.204
			c0,0.203-0.207,0.254-1.056,0.254c-0.825,0-2.499,0-4.334-0.051c-0.413-0.025-0.688-0.025-0.688-0.203
			c0-0.153,0.092-0.204,0.321-0.229c0.16-0.051,0.321-0.279,0.206-0.585l-1.834-5.393c-0.046-0.127-0.115-0.178-0.229-0.178H152.981
			z M157.66,62.053c0.114,0,0.138-0.077,0.114-0.153l-2.064-6.282c-0.022-0.102-0.046-0.229-0.114-0.229s-0.114,0.128-0.138,0.229
			l-2.109,6.257c-0.023,0.102,0,0.179,0.091,0.179H157.66z"/>
		<path fill="#3E372C" d="M169.406,66.504c0.046,1.983,0.344,2.646,0.803,2.823c0.39,0.152,0.825,0.178,1.192,0.178
			c0.252,0,0.39,0.051,0.39,0.204c0,0.203-0.206,0.254-0.527,0.254c-1.491,0-2.408-0.076-2.844-0.076
			c-0.207,0-1.284,0.076-2.478,0.076c-0.298,0-0.504-0.025-0.504-0.254c0-0.153,0.138-0.204,0.367-0.204
			c0.298,0,0.711-0.025,1.031-0.127c0.597-0.203,0.688-0.941,0.711-3.154l0.207-15.058c0-0.509,0.068-0.865,0.298-0.865
			c0.252,0,0.459,0.331,0.849,0.788c0.275,0.331,3.761,4.478,7.109,8.165c1.56,1.73,4.655,5.393,5.046,5.8h0.114l-0.229-11.421
			c-0.022-1.552-0.229-2.035-0.779-2.289c-0.345-0.152-0.895-0.152-1.216-0.152c-0.275,0-0.367-0.077-0.367-0.229
			c0-0.203,0.253-0.229,0.597-0.229c1.192,0,2.293,0.076,2.775,0.076c0.252,0,1.123-0.076,2.247-0.076
			c0.298,0,0.527,0.025,0.527,0.229c0,0.152-0.138,0.229-0.413,0.229c-0.229,0-0.412,0-0.688,0.076
			c-0.643,0.203-0.826,0.737-0.849,2.162l-0.252,16.05c0,0.56-0.092,0.789-0.299,0.789c-0.252,0-0.527-0.28-0.779-0.56
			c-1.445-1.526-4.381-4.858-6.766-7.479c-2.5-2.747-5.046-5.927-5.458-6.41h-0.069L169.406,66.504z"/>
		<path fill="#3E372C" d="M191.129,66.504c0.046,1.983,0.344,2.646,0.803,2.823c0.39,0.152,0.825,0.178,1.192,0.178
			c0.252,0,0.39,0.051,0.39,0.204c0,0.203-0.206,0.254-0.527,0.254c-1.491,0-2.408-0.076-2.844-0.076
			c-0.207,0-1.284,0.076-2.478,0.076c-0.298,0-0.504-0.025-0.504-0.254c0-0.153,0.138-0.204,0.367-0.204
			c0.298,0,0.711-0.025,1.031-0.127c0.597-0.203,0.688-0.941,0.711-3.154l0.207-15.058c0-0.509,0.068-0.865,0.298-0.865
			c0.252,0,0.459,0.331,0.849,0.788c0.275,0.331,3.761,4.478,7.109,8.165c1.56,1.73,4.655,5.393,5.046,5.8h0.114l-0.229-11.421
			c-0.022-1.552-0.229-2.035-0.779-2.289c-0.345-0.152-0.895-0.152-1.216-0.152c-0.275,0-0.367-0.077-0.367-0.229
			c0-0.203,0.253-0.229,0.597-0.229c1.192,0,2.293,0.076,2.775,0.076c0.252,0,1.123-0.076,2.247-0.076
			c0.298,0,0.527,0.025,0.527,0.229c0,0.152-0.138,0.229-0.413,0.229c-0.229,0-0.412,0-0.688,0.076
			c-0.643,0.203-0.826,0.737-0.849,2.162l-0.252,16.05c0,0.56-0.092,0.789-0.299,0.789c-0.252,0-0.527-0.28-0.779-0.56
			c-1.445-1.526-4.381-4.858-6.766-7.479c-2.5-2.747-5.046-5.927-5.458-6.41h-0.069L191.129,66.504z"/>
		<path fill="#3E372C" d="M223.332,58.822c0.068,0,0.138-0.051,0.138-0.179v-0.534c0-3.866,0-4.578-0.046-5.393
			c-0.046-0.864-0.229-1.271-0.986-1.449c-0.184-0.051-0.573-0.076-0.895-0.076c-0.252,0-0.39-0.052-0.39-0.229
			s0.16-0.229,0.481-0.229c1.238,0,2.684,0.076,3.303,0.076c0.55,0,1.995-0.076,2.89-0.076c0.321,0,0.481,0.051,0.481,0.229
			s-0.138,0.229-0.413,0.229c-0.184,0-0.39,0.025-0.665,0.076c-0.619,0.127-0.803,0.56-0.849,1.449
			c-0.046,0.814-0.046,1.526-0.046,5.393v4.478c0,2.34,0,4.35,0.115,5.443c0.068,0.712,0.206,1.271,0.895,1.373
			c0.32,0.051,0.825,0.102,1.169,0.102c0.253,0,0.367,0.076,0.367,0.204c0,0.178-0.184,0.254-0.459,0.254
			c-1.49,0-2.936-0.076-3.577-0.076c-0.527,0-1.973,0.076-2.867,0.076c-0.32,0-0.481-0.076-0.481-0.254
			c0-0.128,0.092-0.204,0.367-0.204c0.344,0,0.619-0.051,0.825-0.102c0.459-0.102,0.573-0.661,0.665-1.398
			c0.115-1.068,0.115-3.078,0.115-5.418v-2.239c0-0.102-0.069-0.152-0.138-0.152h-8.761c-0.069,0-0.138,0.025-0.138,0.152v2.239
			c0,2.34,0,4.35,0.114,5.443c0.069,0.712,0.207,1.271,0.895,1.373c0.321,0.051,0.826,0.102,1.17,0.102
			c0.252,0,0.367,0.076,0.367,0.204c0,0.178-0.184,0.254-0.459,0.254c-1.49,0-2.936-0.076-3.577-0.076
			c-0.528,0-1.973,0.076-2.891,0.076c-0.298,0-0.458-0.076-0.458-0.254c0-0.128,0.092-0.204,0.367-0.204
			c0.344,0,0.619-0.051,0.825-0.102c0.459-0.102,0.573-0.661,0.665-1.398c0.114-1.068,0.114-3.078,0.114-5.418v-4.478
			c0-3.866,0-4.578-0.046-5.393c-0.046-0.864-0.229-1.271-0.985-1.449c-0.184-0.051-0.573-0.076-0.895-0.076
			c-0.253,0-0.39-0.052-0.39-0.229s0.16-0.229,0.481-0.229c1.238,0,2.683,0.076,3.302,0.076c0.551,0,1.996-0.076,2.89-0.076
			c0.321,0,0.482,0.051,0.482,0.229s-0.138,0.229-0.413,0.229c-0.184,0-0.39,0.025-0.665,0.076c-0.619,0.127-0.803,0.56-0.849,1.449
			c-0.046,0.814-0.046,1.526-0.046,5.393v0.534c0,0.128,0.068,0.179,0.138,0.179H223.332z"/>
		<path fill="#3E372C" d="M233.862,58.109c0-3.866,0-4.578-0.046-5.393c-0.045-0.864-0.229-1.271-0.985-1.449
			c-0.184-0.051-0.573-0.076-0.895-0.076c-0.253,0-0.39-0.052-0.39-0.229s0.16-0.229,0.504-0.229c0.619,0,1.284,0.025,1.857,0.025
			c0.597,0.025,1.124,0.051,1.445,0.051c0.733,0,5.298,0,5.733-0.025c0.436-0.051,0.803-0.102,0.986-0.152
			c0.114-0.026,0.252-0.103,0.367-0.103c0.114,0,0.138,0.103,0.138,0.229c0,0.178-0.115,0.483-0.184,1.653
			c-0.023,0.254-0.069,1.373-0.115,1.679c-0.022,0.127-0.068,0.279-0.229,0.279c-0.16,0-0.206-0.127-0.206-0.355
			c0-0.179-0.022-0.61-0.138-0.916c-0.16-0.458-0.39-0.763-1.536-0.916c-0.391-0.051-2.798-0.102-3.257-0.102
			c-0.115,0-0.161,0.076-0.161,0.255v6.436c0,0.178,0.023,0.279,0.161,0.279c0.505,0,3.142,0,3.669-0.051
			c0.551-0.051,0.895-0.127,1.102-0.382c0.16-0.203,0.252-0.33,0.366-0.33c0.092,0,0.161,0.051,0.161,0.203s-0.092,0.56-0.184,1.856
			c-0.023,0.509-0.092,1.526-0.092,1.705c0,0.203,0,0.482-0.206,0.482c-0.161,0-0.207-0.102-0.207-0.229
			c-0.022-0.254-0.022-0.585-0.092-0.916c-0.114-0.509-0.436-0.89-1.284-0.991c-0.436-0.052-2.706-0.077-3.257-0.077
			c-0.114,0-0.138,0.103-0.138,0.255v2.01c0,0.864-0.022,3.204,0,3.942c0.046,1.755,0.413,2.137,2.753,2.137
			c0.596,0,1.56,0,2.155-0.306c0.597-0.305,0.872-0.839,1.032-1.882c0.046-0.28,0.092-0.382,0.252-0.382
			c0.184,0,0.184,0.203,0.184,0.458c0,0.585-0.184,2.314-0.298,2.823c-0.161,0.661-0.367,0.661-1.238,0.661
			c-1.721,0-2.981-0.051-3.968-0.076c-0.986-0.051-1.697-0.076-2.386-0.076c-0.252,0-0.756,0-1.307,0.025
			c-0.527,0-1.124,0.051-1.583,0.051c-0.298,0-0.458-0.076-0.458-0.254c0-0.128,0.092-0.204,0.367-0.204
			c0.344,0,0.619-0.051,0.825-0.102c0.459-0.102,0.573-0.661,0.665-1.398c0.114-1.068,0.114-3.078,0.114-5.418V58.109z"/>
		<path fill="#3E372C" d="M248.359,58.109c0-3.866,0-4.578-0.046-5.393c-0.046-0.864-0.274-1.297-0.779-1.424
			c-0.252-0.076-0.551-0.102-0.825-0.102c-0.229,0-0.367-0.052-0.367-0.255c0-0.152,0.184-0.203,0.55-0.203
			c0.872,0,2.316,0.076,2.981,0.076c0.574,0,1.927-0.076,2.799-0.076c0.298,0,0.481,0.051,0.481,0.203
			c0,0.203-0.138,0.255-0.367,0.255s-0.413,0.025-0.688,0.076c-0.619,0.127-0.803,0.56-0.849,1.449
			c-0.046,0.814-0.046,1.526-0.046,5.393v4.478c0,2.467,0,4.477,0.092,5.57c0.069,0.687,0.229,1.145,0.918,1.246
			c0.321,0.051,0.825,0.102,1.17,0.102c0.252,0,0.366,0.076,0.366,0.204c0,0.178-0.184,0.254-0.436,0.254
			c-1.514,0-2.958-0.076-3.577-0.076c-0.528,0-1.973,0.076-2.891,0.076c-0.298,0-0.458-0.076-0.458-0.254
			c0-0.128,0.092-0.204,0.367-0.204c0.344,0,0.619-0.051,0.825-0.102c0.459-0.102,0.597-0.534,0.665-1.271
			c0.114-1.068,0.114-3.078,0.114-5.545V58.109z"/>
		<path fill="#3E372C" d="M259.576,50.835c0.069-0.433,0.207-0.661,0.391-0.661c0.183,0,0.32,0.127,0.619,0.788l6.261,14.347
			l6.238-14.524c0.184-0.407,0.298-0.61,0.504-0.61c0.207,0,0.345,0.254,0.413,0.788l2.087,15.72
			c0.206,1.603,0.436,2.34,1.124,2.569c0.665,0.229,1.124,0.254,1.422,0.254c0.206,0,0.367,0.025,0.367,0.179
			c0,0.203-0.275,0.279-0.597,0.279c-0.573,0-3.738-0.076-4.655-0.152c-0.527-0.051-0.665-0.127-0.665-0.28
			c0-0.127,0.092-0.203,0.252-0.279c0.138-0.051,0.206-0.382,0.114-1.094l-1.376-11.192h-0.092l-4.999,11.548
			c-0.527,1.196-0.643,1.425-0.849,1.425s-0.436-0.509-0.803-1.271c-0.551-1.17-2.362-5.062-2.638-5.774
			c-0.206-0.534-1.582-3.739-2.385-5.646h-0.092l-1.192,10.123c-0.046,0.458-0.069,0.789-0.069,1.196
			c0,0.482,0.299,0.712,0.688,0.813c0.413,0.102,0.733,0.127,0.963,0.127c0.184,0,0.344,0.051,0.344,0.179
			c0,0.229-0.206,0.279-0.55,0.279c-0.964,0-1.995-0.076-2.408-0.076c-0.436,0-1.537,0.076-2.271,0.076
			c-0.229,0-0.413-0.051-0.413-0.279c0-0.128,0.138-0.179,0.367-0.179c0.184,0,0.344,0,0.688-0.076
			c0.642-0.152,0.825-1.145,0.939-2.01L259.576,50.835z"/>
	</g>
</g>
</svg>
