<?xml version="1.0" encoding="utf-8"?>
<!-- Generator: Adobe Illustrator 16.0.0, SVG Export Plug-In . SVG Version: 6.00 Build 0)  -->
<!DOCTYPE svg PUBLIC "-//W3C//DTD SVG 1.1//EN" "http://www.w3.org/Graphics/SVG/1.1/DTD/svg11.dtd">
<svg version="1.1" id="Ebene_1" xmlns="http://www.w3.org/2000/svg" xmlns:xlink="http://www.w3.org/1999/xlink" x="0px" y="0px"
	 width="283.46px" height="155.484px" viewBox="0 0 283.46 155.484" enable-background="new 0 0 283.46 155.484"
	 xml:space="preserve">
<g>
	<path fill="#E1151C" d="M5.171,23.996c5.906,0.001,11.811-0.028,17.716,0.02c2.923,0.022,5.795,0.444,8.489,1.683
		c3.767,1.73,5.897,4.657,6.328,8.78c0.336,3.227-0.106,6.297-2.081,8.992c-1.333,1.82-3.184,2.975-5.2,3.895
		c-0.377,0.172-0.763,0.324-1.147,0.482c-0.14,0.058-0.312,0.101-0.297,0.287c0.015,0.207,0.216,0.181,0.354,0.206
		c1.696,0.31,3.342,0.771,4.886,1.56c3.432,1.752,5.386,4.575,6.01,8.34c0.453,2.734,0.394,5.456-0.396,8.132
		c-1.044,3.541-3.349,5.976-6.674,7.477c-2.669,1.205-5.505,1.678-8.408,1.852c-3.096,0.185-6.194,0.075-9.291,0.094
		c-3.306,0.021-6.612,0.005-9.917,0.007c-0.136,0-0.311-0.095-0.373,0.129C5.171,58.616,5.171,41.306,5.171,23.996z M14.6,60.523
		c0,2.814,0.009,5.631-0.009,8.445c-0.003,0.448,0.132,0.608,0.582,0.591c0.716-0.028,1.435-0.009,2.153-0.01
		c2.421-0.003,4.837-0.061,7.192-0.722c2.248-0.631,4.205-1.685,5.436-3.778c1.011-1.72,1.19-3.607,1.006-5.535
		c-0.216-2.272-1.104-4.224-2.978-5.635c-1.581-1.189-3.405-1.76-5.324-2.088c-2.511-0.429-5.046-0.312-7.576-0.343
		c-0.484-0.005-0.487,0.272-0.486,0.626C14.602,54.893,14.599,57.708,14.6,60.523z M14.6,37.658c0,2.152-0.004,4.305,0.002,6.457
		c0.003,1.228-0.239,1.148,1.143,1.133c2.544-0.026,5.097,0.1,7.61-0.488c2.353-0.549,3.95-1.883,4.591-4.256
		c0.544-2.019,0.525-4.04-0.112-6.028c-0.489-1.53-1.48-2.65-2.984-3.285c-1.125-0.476-2.31-0.689-3.514-0.813
		c-2.033-0.209-4.074-0.128-6.112-0.166c-0.516-0.01-0.638,0.166-0.634,0.65C14.612,33.126,14.6,35.392,14.6,37.658z"/>
	<path fill="#2B2B2A" d="M278.317,32.726c-0.258,0.003-0.192,0.23-0.239,0.364c-1.785,5.125-8.082,6.668-11.863,2.903
		c-3.869-3.854-2.2-10.331,3.082-11.979c0.143-0.044,0.416,0.068,0.404-0.245c0.943,0,1.889,0,2.834,0
		c0.09,0.146,0.25,0.154,0.391,0.192c2.439,0.665,4.115,2.172,5.048,4.526c0.096,0.242,0.032,0.58,0.345,0.723
		C278.317,30.383,278.317,31.554,278.317,32.726z M271.311,24.857c-3.36-0.028-6.106,2.677-6.129,6.036
		c-0.021,3.305,2.72,6.077,6.028,6.097c3.313,0.02,6.062-2.698,6.093-6.025C277.332,27.628,274.64,24.884,271.311,24.857z"/>
	<path fill="#2B2B2A" d="M5.171,134.093c0.358,0.129,0.333-0.18,0.308-0.334c-0.199-1.207,0.188-2.389,0.128-3.604
		c-0.046-0.931-0.128-1.911,0.075-2.834c0.106-0.479-0.021-1.087,0.523-1.434c0.17-0.108,0.3-0.22,0.505-0.105
		c0.185,0.102,0.165,0.244,0.156,0.43c-0.042,0.898,0.033,1.812-0.222,2.685c-0.167,0.569-0.276,1.153-0.347,1.731
		c-0.051,0.413-0.082,0.853-0.071,1.271c0.032,1.273-0.108,2.541-0.102,3.812c0.003,0.754-0.063,1.534,0.386,2.207
		c0.134,0.2,0.15,0.365,0.043,0.614c-0.695-0.691-0.933-1.529-1.019-2.421c-0.045-0.465-0.026-0.481-0.364-0.544
		c0-0.075,0-0.15,0-0.228c0.475,0.11,0.322-0.264,0.327-0.462c0.005-0.172-0.012-0.459-0.327-0.219
		C5.171,134.47,5.171,134.282,5.171,134.093z"/>
	<path fill="#FCFBFC" d="M5.171,134.66c0.315-0.24,0.333,0.047,0.327,0.219c-0.005,0.198,0.147,0.572-0.327,0.462
		C5.171,135.114,5.171,134.887,5.171,134.66z"/>
	<path fill="#E1151C" d="M248.639,35.29c-0.632,1.752-1.237,3.434-1.845,5.113c-2.271,6.302-4.545,12.604-6.816,18.907
		c-1.913,5.31-3.828,10.619-5.727,15.933c-0.139,0.386-0.32,0.529-0.73,0.526c-2.438-0.016-4.875-0.012-7.312-0.001
		c-0.352,0.001-0.539-0.11-0.664-0.46c-2.324-6.485-4.662-12.966-6.998-19.446c-2.322-6.446-4.645-12.894-6.965-19.339
		c-0.14-0.386-0.271-0.775-0.426-1.225c-0.201,0.23-0.16,0.438-0.16,0.632c0.002,13.038,0.004,26.077,0.006,39.116
		c0,0.724,0.002,0.719-0.719,0.718c-2.25-0.004-4.498-0.022-6.746,0.012c-0.591,0.009-0.727-0.181-0.726-0.742
		c0.015-16.573,0.012-33.146,0.012-49.719c0-1.302,0-1.301,1.317-1.302c3.42,0,6.841,0.008,10.261-0.01
		c0.481-0.003,0.713,0.119,0.89,0.618c1.787,5.092,3.61,10.172,5.426,15.255c1.871,5.243,3.746,10.485,5.615,15.729
		c1.092,3.059,2.174,6.12,3.269,9.177c0.063,0.177,0.044,0.485,0.317,0.465c0.209-0.015,0.199-0.293,0.26-0.462
		c1.595-4.438,3.186-8.881,4.775-13.322c1.809-5.047,3.612-10.094,5.42-15.141c1.412-3.944,2.828-7.886,4.232-11.833
		c0.129-0.363,0.326-0.483,0.709-0.482c3.686,0.014,7.37,0.016,11.055-0.002c0.485-0.002,0.598,0.162,0.596,0.624
		c-0.01,16.801-0.008,33.601-0.008,50.399c0,0.734,0,0.733-0.709,0.733c-2.287,0-4.574-0.013-6.86,0.012
		c-0.478,0.004-0.62-0.147-0.62-0.614c0.012-13.058,0.014-26.116,0.016-39.174C248.781,35.78,248.826,35.568,248.639,35.29z"/>
	<path fill="#E1151C" d="M194.134,75.778c-1.321,0-2.646-0.021-3.967,0.011c-0.451,0.01-0.629-0.167-0.756-0.568
		c-1.371-4.317-2.766-8.628-4.13-12.946c-0.126-0.396-0.286-0.543-0.7-0.542c-5.856,0.011-11.715,0.01-17.572,0.001
		c-0.365,0-0.523,0.125-0.635,0.475c-1.354,4.265-2.742,8.519-4.08,12.787c-0.193,0.615-0.463,0.811-1.106,0.799
		c-2.55-0.041-5.103-0.015-7.651-0.015c-0.598,0-0.642-0.068-0.457-0.606c1.592-4.643,3.182-9.285,4.77-13.93
		c1.867-5.464,3.732-10.93,5.598-16.395c1.756-5.145,3.51-10.288,5.266-15.432c0.567-1.661,1.156-3.314,1.709-4.98
		c0.111-0.333,0.277-0.438,0.608-0.438c3.212,0.008,6.425,0.011,9.638-0.002c0.375-0.001,0.517,0.146,0.629,0.483
		c2.033,6.006,4.08,12.009,6.125,18.012c1.807,5.305,3.617,10.609,5.426,15.914c1.918,5.628,3.832,11.257,5.754,16.884
		c0.137,0.397,0.006,0.5-0.382,0.497C196.856,75.77,195.496,75.778,194.134,75.778z M175.817,55.086c2.21,0,4.42-0.005,6.629,0.005
		c0.431,0.001,0.558-0.076,0.403-0.554c-0.85-2.62-1.658-5.253-2.479-7.882c-1.436-4.591-2.867-9.183-4.305-13.772
		c-0.048-0.153-0.041-0.407-0.222-0.423c-0.243-0.019-0.231,0.261-0.283,0.421c-0.397,1.24-0.779,2.484-1.167,3.728
		c-1.863,5.96-3.727,11.92-5.59,17.879c-0.182,0.579-0.174,0.598,0.441,0.598C171.437,55.086,173.626,55.085,175.817,55.086z"/>
	<path fill="#E1151C" d="M118.742,49.904c0-8.408,0.005-16.817-0.011-25.225c-0.001-0.511,0.111-0.681,0.654-0.68
		c9.562,0.018,19.123,0.014,28.684,0.014c0.825,0,0.823,0.001,0.823,0.836c-0.002,1.719-0.021,3.438,0.011,5.157
		c0.011,0.542-0.177,0.667-0.687,0.667c-6.669-0.015-13.34-0.009-20.01-0.009c-0.754,0-0.751,0-0.751,0.745
		c0.001,4.497,0.012,8.994-0.012,13.491c-0.003,0.572,0.144,0.736,0.724,0.733c6.273-0.02,12.546-0.013,18.819-0.013
		c0.783,0,0.782,0.001,0.782,0.771c-0.001,1.737-0.021,3.477,0.013,5.215c0.012,0.535-0.156,0.673-0.675,0.672
		c-6.292-0.016-12.584-0.011-18.877-0.011c-0.778,0-0.773,0-0.773,0.769c0.001,5.121,0.008,10.241-0.013,15.362
		c-0.002,0.542,0.135,0.706,0.689,0.704c6.878-0.019,13.756-0.006,20.634-0.026c0.567-0.001,0.748,0.13,0.735,0.717
		c-0.039,1.756-0.032,3.516-0.002,5.271c0.01,0.538-0.14,0.707-0.696,0.706c-9.788-0.018-19.576-0.018-29.363-0.002
		c-0.544,0.001-0.711-0.146-0.711-0.697C118.746,66.684,118.741,58.294,118.742,49.904z"/>
	<path fill="#E1151C" d="M90.13,53.165c0-7.293-0.004-14.585,0.01-21.878c0.001-0.497-0.129-0.636-0.635-0.633
		c-3.892,0.021-7.784,0.002-11.676,0.022c-0.562,0.004-0.688-0.176-0.676-0.719c0.04-1.756,0.046-3.515-0.001-5.271
		c-0.016-0.594,0.199-0.685,0.711-0.683c3.948,0.017,7.897,0.01,11.846,0.01c7.123,0,14.245,0,21.368,0c0.752,0,0.744,0,0.742,0.745
		c-0.005,1.758-0.021,3.515,0.012,5.271c0.01,0.511-0.147,0.647-0.64,0.645c-3.873-0.016-7.746,0-11.619-0.021
		c-0.539-0.002-0.708,0.133-0.708,0.689c0.015,14.529,0.011,29.058,0.012,43.587c0,0.832,0.002,0.832-0.84,0.832
		c-2.418,0-4.837-0.019-7.255,0.014c-0.543,0.008-0.665-0.167-0.664-0.675c0.013-7.312,0.009-14.623,0.009-21.936
		C90.128,53.165,90.129,53.165,90.13,53.165z"/>
	<path fill="#E1151C" d="M58.271,57.848c0-5.762,0.007-11.522-0.011-17.283c-0.002-0.528,0.149-0.673,0.671-0.666
		c2.19,0.026,4.382,0.025,6.572,0c0.512-0.006,0.633,0.162,0.632,0.648c-0.012,11.521-0.013,23.044,0.002,34.565
		c0,0.525-0.147,0.682-0.673,0.675c-2.171-0.027-4.344-0.023-6.516-0.001c-0.503,0.005-0.691-0.109-0.689-0.658
		C58.279,69.37,58.271,63.608,58.271,57.848z"/>
	<path fill="#2B2B2A" d="M68.428,99.568c0.396-1.223,0.78-2.4,1.161-3.581c0.968-2.997,1.935-5.995,2.896-8.995
		c0.103-0.321,0.288-0.433,0.624-0.439c1.732-0.032,1.725-0.037,2.267,1.654c1.157,3.611,2.323,7.22,3.484,10.83
		c0.044,0.137,0.045,0.337,0.24,0.326c0.201-0.011,0.17-0.216,0.197-0.354c0.752-3.949,1.505-7.899,2.247-11.853
		c0.078-0.413,0.217-0.655,0.697-0.604c0.393,0.042,0.794,0.029,1.189,0.003c0.408-0.027,0.542,0.099,0.459,0.521
		c-0.523,2.688-1.027,5.377-1.542,8.065c-0.479,2.503-0.97,5.004-1.436,7.51c-0.072,0.391-0.215,0.551-0.625,0.526
		c-0.564-0.031-1.136-0.044-1.699,0.005c-0.458,0.037-0.635-0.169-0.76-0.56c-0.522-1.636-1.063-3.265-1.594-4.896
		c-0.753-2.314-1.503-4.629-2.255-6.943c-0.045-0.14-0.065-0.339-0.254-0.322c-0.184,0.018-0.163,0.229-0.207,0.362
		c-1.238,3.824-2.478,7.646-3.708,11.473c-0.28,0.87-0.264,0.874-1.199,0.874c-0.416,0-0.837-0.041-1.246,0.013
		c-0.524,0.065-0.688-0.177-0.774-0.643c-0.359-1.929-0.748-3.854-1.122-5.78c-0.622-3.205-1.233-6.413-1.873-9.615
		c-0.094-0.47,0.006-0.645,0.483-0.584c0.149,0.019,0.302,0.004,0.453,0.004c1.3,0,1.276,0.005,1.517,1.299
		c0.694,3.729,1.41,7.457,2.121,11.185C68.203,99.205,68.19,99.389,68.428,99.568z"/>
	<path fill="#2B2B2A" d="M227,94.856c-0.002-2.55,0.01-5.101-0.011-7.649c-0.004-0.481,0.113-0.688,0.632-0.657
		c0.678,0.04,1.359,0.032,2.039,0.001c0.381-0.018,0.582,0.133,0.75,0.453c2.008,3.828,4.025,7.65,6.039,11.476
		c0.071,0.134,0.133,0.271,0.213,0.399c0.047,0.076,0.102,0.164,0.221,0.129C237,98.973,236.998,98.87,237,98.78
		c0.006-0.208-0.002-0.416-0.002-0.623c0-3.665,0.006-7.329-0.011-10.994c-0.002-0.465,0.127-0.667,0.609-0.605
		c0.532,0.065,1.218-0.233,1.569,0.141c0.326,0.348,0.097,1.014,0.098,1.538c0.009,4.761-0.002,9.521,0.016,14.28
		c0.002,0.514-0.119,0.712-0.664,0.665c-0.6-0.053-1.207-0.03-1.812-0.005c-0.369,0.017-0.587-0.109-0.761-0.441
		c-2.078-3.961-4.17-7.914-6.26-11.869c-0.062-0.117-0.113-0.239-0.182-0.353c-0.046-0.073-0.086-0.177-0.212-0.132
		c-0.089,0.032-0.095,0.11-0.099,0.185c-0.006,0.095-0.002,0.188-0.002,0.283c0.002,3.891-0.009,7.781,0.016,11.673
		c0.004,0.544-0.174,0.668-0.684,0.659c-1.623-0.029-1.623-0.012-1.623-1.639C227,99.314,227,97.085,227,94.856z"/>
	<path fill="#2B2B2A" d="M135.263,94.821c0-2.531,0.013-5.063-0.011-7.594c-0.005-0.519,0.129-0.7,0.667-0.678
		c1.829,0.08,3.666-0.123,5.489,0.124c1.833,0.247,2.998,1.373,3.313,3.146c0.319,1.804-0.425,3.355-2.021,4.228
		c-0.121,0.066-0.332,0.086-0.293,0.283c0.029,0.151,0.215,0.117,0.334,0.156c1.678,0.555,2.613,1.7,2.812,3.466
		c0.323,2.896-1.105,4.74-4.004,5.104c-1.957,0.244-3.925,0.059-5.887,0.115c-0.441,0.014-0.4-0.298-0.4-0.586
		C135.263,99.997,135.263,97.409,135.263,94.821z M139.291,101.232c0.502,0.02,1.12-0.014,1.728-0.182
		c1.125-0.312,1.975-1.293,2.041-2.372c0.09-1.444-0.491-2.438-1.705-2.948c-0.97-0.408-1.991-0.338-3.005-0.376
		c-0.469-0.019-0.58,0.158-0.573,0.588c0.021,1.301,0.009,2.602,0.007,3.9C137.783,101.233,137.782,101.233,139.291,101.232z
		 M137.781,90.964c0,0,0.001,0,0.002,0c0,0.681,0.006,1.359-0.002,2.039c-0.004,0.301,0.095,0.461,0.424,0.446
		c0.584-0.026,1.174,0.007,1.752-0.059c1.922-0.217,2.841-1.851,2.074-3.638c-0.25-0.582-0.683-0.928-1.291-1.082
		c-0.854-0.218-1.724-0.165-2.591-0.182c-0.322-0.007-0.37,0.179-0.369,0.436C137.784,89.606,137.781,90.285,137.781,90.964z"/>
	<path fill="#2B2B2A" d="M33.433,94.782c0.023,1.57-0.132,3.046-0.612,4.479c-0.875,2.615-2.736,3.932-5.438,4.146
		c-0.968,0.076-1.929,0.003-2.867-0.249c-2.209-0.593-3.488-2.13-4.06-4.251c-0.753-2.792-0.772-5.611,0.105-8.386
		c0.824-2.605,2.654-4.018,5.382-4.196c1.913-0.125,3.74,0.14,5.236,1.503c1.174,1.069,1.694,2.474,2,3.979
		C33.385,92.809,33.457,93.827,33.433,94.782z M22.71,94.89c0.023,1.096,0.065,2.189,0.339,3.26
		c0.246,0.965,0.602,1.874,1.379,2.547c1.893,1.638,4.841,0.74,5.66-1.764c0.82-2.505,0.778-5.062,0.178-7.603
		c-0.255-1.08-0.769-2.055-1.798-2.643c-2.014-1.151-4.392-0.171-5.192,2.126C22.816,92.138,22.732,93.508,22.71,94.89z"/>
	<path fill="#2B2B2A" d="M256.895,97.762c0,1.171-0.026,2.343,0.015,3.513c0.016,0.472-0.168,0.719-0.543,0.943
		c-1.527,0.922-3.203,1.188-4.947,1.17c-3.703-0.039-5.848-1.629-6.75-5.215c-0.621-2.464-0.666-4.976,0.072-7.446
		c0.801-2.669,2.734-4.198,5.547-4.4c1.514-0.109,2.983,0.049,4.328,0.824c1.303,0.752,2.018,1.889,2.16,3.391
		c0.035,0.375-0.097,0.518-0.47,0.507c-0.623-0.017-1.247-0.014-1.87,0.001c-0.273,0.008-0.398-0.088-0.463-0.364
		c-0.359-1.557-1.031-2.228-2.371-2.409c-1.632-0.222-3.012,0.425-3.749,1.758c-0.478,0.859-0.671,1.803-0.771,2.764
		c-0.177,1.739-0.119,3.474,0.295,5.18c0.664,2.75,2.494,3.92,5.317,3.422c1.679-0.296,1.679-0.296,1.679-1.986
		c0-1.133-0.016-2.267,0.008-3.398c0.008-0.382-0.135-0.501-0.491-0.496c-0.906,0.013-1.813-0.003-2.722,0.012
		c-0.326,0.005-0.467-0.086-0.479-0.445c-0.048-1.514-0.059-1.513,1.441-1.513c1.418,0,2.834,0.013,4.25-0.01
		c0.402-0.006,0.524,0.127,0.519,0.52C256.882,95.306,256.895,96.535,256.895,97.762z"/>
	<path fill="#2B2B2A" d="M105.563,94.874c0-2.551,0.011-5.102-0.01-7.651c-0.004-0.506,0.115-0.696,0.661-0.674
		c1.961,0.085,3.935-0.147,5.886,0.155c1.575,0.245,2.843,1.018,3.317,2.626c0.465,1.571,0.414,3.113-0.851,4.378
		c-0.449,0.449-1.009,0.725-1.602,0.934c-0.12,0.043-0.278,0.045-0.28,0.223c-0.001,0.145,0.128,0.171,0.232,0.203
		c1.251,0.39,1.808,1.361,2.088,2.536c0.398,1.671,0.754,3.352,1.148,5.022c0.107,0.455-0.052,0.582-0.479,0.548
		c-0.319-0.024-0.649-0.048-0.962,0.003c-0.64,0.105-0.838-0.23-0.985-0.777c-0.394-1.477-0.824-2.941-1.292-4.397
		c-0.424-1.318-1.316-1.906-2.649-1.974c-1.683-0.084-1.683-0.095-1.684,1.562c0,1.662-0.011,3.325,0.009,4.988
		c0.005,0.435-0.112,0.632-0.574,0.596c-0.395-0.029-0.793-0.007-1.19-0.006c-0.783,0.002-0.783,0.003-0.783-0.756
		C105.563,99.9,105.563,97.385,105.563,94.874z M108.102,91.252c0,0-0.001,0-0.002,0c0,0.773,0.003,1.548-0.001,2.321
		c-0.001,0.264,0.007,0.516,0.36,0.514c0.998-0.005,2.003,0.062,2.96-0.327c1.238-0.501,1.809-1.492,1.69-2.945
		c-0.103-1.254-0.749-1.946-2.094-2.227c-0.84-0.175-1.693-0.062-2.54-0.094c-0.354-0.013-0.376,0.227-0.375,0.493
		C108.105,89.743,108.102,90.498,108.102,91.252z"/>
	<path fill="#2B2B2A" d="M164.91,94.864c0-2.55,0.012-5.101-0.011-7.651c-0.005-0.517,0.13-0.687,0.668-0.663
		c1.904,0.08,3.815-0.106,5.718,0.13c2.939,0.366,4.564,3.231,3.373,5.949c-0.465,1.062-1.332,1.656-2.392,2.018
		c-0.122,0.042-0.277,0.052-0.272,0.229c0.004,0.109,0.104,0.15,0.192,0.176c1.289,0.367,1.856,1.354,2.144,2.552
		c0.404,1.688,0.772,3.386,1.162,5.078c0.086,0.381-0.057,0.533-0.438,0.49c-0.112-0.013-0.228-0.001-0.341-0.003
		c-1.779-0.035-1.287,0.309-1.832-1.434c-0.416-1.331-0.739-2.691-1.225-4.003c-0.354-0.962-1.025-1.501-2.039-1.646
		c-0.604-0.086-1.207-0.055-1.812-0.063c-0.438-0.008-0.388,0.316-0.388,0.6c0,1.965-0.02,3.93,0.015,5.896
		c0.01,0.543-0.163,0.708-0.681,0.66c-0.432-0.037-0.871-0.035-1.303,0.003c-0.438,0.037-0.551-0.135-0.548-0.549
		C164.916,100.042,164.91,97.453,164.91,94.864z M167.417,91.237h-0.002c0,0.793,0.002,1.587,0,2.38
		c-0.002,0.249,0.033,0.472,0.348,0.47c1.018-0.005,2.044,0.066,3.017-0.343c1.248-0.526,1.792-1.521,1.648-3.027
		c-0.11-1.167-0.769-1.854-2.073-2.127c-0.857-0.181-1.732-0.069-2.6-0.092c-0.318-0.008-0.34,0.228-0.34,0.473
		C167.419,89.725,167.417,90.481,167.417,91.237z"/>
	<path fill="#2B2B2A" d="M185.891,86.561c1.496,0,1.514-0.007,2.041,1.46c1.741,4.846,3.468,9.694,5.196,14.545
		c0.199,0.558,0.164,0.602-0.442,0.604c-0.49,0.002-0.981-0.021-1.474,0.005c-0.399,0.021-0.606-0.117-0.74-0.517
		c-0.419-1.251-0.893-2.484-1.322-3.732c-0.13-0.378-0.322-0.523-0.74-0.518c-1.681,0.024-3.361,0.026-5.041-0.003
		c-0.445-0.007-0.641,0.157-0.773,0.553c-0.426,1.25-0.891,2.485-1.311,3.736c-0.115,0.343-0.279,0.497-0.646,0.48
		c-0.547-0.021-1.098-0.023-1.643-0.001c-0.439,0.021-0.531-0.132-0.387-0.532c0.615-1.703,1.213-3.411,1.82-5.116
		c1.214-3.411,2.443-6.816,3.628-10.237c0.194-0.563,0.442-0.823,1.041-0.732C185.357,86.593,185.626,86.561,185.891,86.561z
		 M185.805,96.486c0-0.001,0-0.002,0-0.003c0.643,0,1.284-0.015,1.927,0.005c0.424,0.014,0.521-0.105,0.389-0.53
		c-0.692-2.194-1.357-4.399-2.033-6.601c-0.031-0.104-0.031-0.254-0.168-0.264c-0.205-0.015-0.211,0.176-0.256,0.312
		c-0.713,2.189-1.418,4.381-2.14,6.566c-0.122,0.37-0.065,0.527,0.354,0.517C184.52,96.472,185.162,96.486,185.805,96.486z"/>
	<path fill="#2B2B2A" d="M94.109,86.561c1.516,0,1.532-0.006,2.053,1.445c1.738,4.848,3.464,9.699,5.193,14.551
		c0.209,0.588,0.19,0.608-0.414,0.61c-0.51,0.002-1.021-0.02-1.53,0.006c-0.385,0.02-0.578-0.13-0.703-0.494
		c-0.427-1.249-0.897-2.484-1.32-3.735c-0.139-0.411-0.354-0.543-0.784-0.537c-1.662,0.024-3.325,0.031-4.986-0.004
		c-0.478-0.011-0.666,0.181-0.804,0.587c-0.419,1.232-0.878,2.451-1.291,3.686c-0.122,0.363-0.292,0.521-0.686,0.5
		c-0.546-0.028-1.096-0.021-1.643,0.001c-0.425,0.018-0.487-0.164-0.361-0.519c0.749-2.096,1.492-4.194,2.239-6.291
		c1.063-2.984,2.129-5.969,3.192-8.953c0.304-0.853,0.302-0.853,1.219-0.853C93.693,86.561,93.901,86.561,94.109,86.561z
		 M94.204,89.046c-0.238,0.069-0.27,0.223-0.316,0.364c-0.705,2.188-1.404,4.376-2.123,6.559c-0.121,0.366-0.096,0.523,0.335,0.52
		c1.301-0.013,2.604-0.014,3.905,0.001c0.413,0.005,0.474-0.124,0.352-0.507c-0.51-1.598-0.988-3.204-1.481-4.808
		C94.656,90.463,94.428,89.755,94.204,89.046z"/>
	<path fill="#2B2B2A" d="M209.666,92.991c0-1.946,0.014-3.893-0.011-5.838c-0.006-0.482,0.154-0.638,0.62-0.602
		c0.432,0.035,0.872,0.039,1.303-0.002c0.49-0.045,0.607,0.159,0.605,0.616c-0.016,3.382-0.006,6.765-0.012,10.146
		c-0.002,0.682,0.021,1.359,0.172,2.027c0.228,1.004,0.809,1.684,1.82,1.968c0.955,0.268,1.91,0.253,2.846-0.059
		c0.982-0.325,1.555-1.035,1.736-2.051c0.101-0.559,0.123-1.125,0.123-1.693c-0.004-3.42,0.01-6.839-0.015-10.259
		c-0.004-0.556,0.161-0.746,0.708-0.695c0.45,0.041,0.906,0.025,1.359,0.002c0.341-0.018,0.477,0.104,0.476,0.449
		c-0.013,3.931,0.026,7.859-0.044,11.788c-0.038,2.125-1.321,3.666-3.361,4.273c-1.865,0.555-3.734,0.548-5.546-0.218
		c-1.759-0.744-2.671-2.144-2.737-4.02c-0.07-1.943-0.017-3.891-0.017-5.837C209.684,92.991,209.673,92.991,209.666,92.991z"/>
	<path fill="#2B2B2A" d="M120.892,94.854c0-2.568,0.009-5.139-0.008-7.706c-0.003-0.438,0.117-0.601,0.573-0.599
		c2.815,0.018,5.629,0.019,8.444,0.001c0.457-0.003,0.581,0.155,0.577,0.594c-0.012,1.35,0.004,1.351-1.328,1.351
		c-1.719,0-3.438,0.016-5.157-0.011c-0.462-0.008-0.583,0.144-0.575,0.584c0.022,1.321,0.02,2.645-0.001,3.966
		c-0.007,0.401,0.128,0.521,0.521,0.518c1.87-0.017,3.74,0.005,5.609-0.019c0.424-0.004,0.553,0.119,0.55,0.545
		c-0.011,1.43,0.004,1.43-1.413,1.43c-1.549,0-3.099,0.017-4.646-0.009c-0.452-0.007-0.636,0.091-0.625,0.591
		c0.032,1.512,0.034,3.023,0,4.533c-0.011,0.521,0.172,0.626,0.652,0.62c2.021-0.025,4.042,0.002,6.063-0.02
		c0.454-0.007,0.583,0.131,0.568,0.583c-0.042,1.361-0.024,1.36-1.384,1.36c-2.588,0-5.175-0.012-7.763,0.015
		c-0.529,0.005-0.674-0.152-0.668-0.678C120.906,99.956,120.892,97.405,120.892,94.854z"/>
	<path fill="#2B2B2A" d="M150.555,94.877c0-2.568,0.009-5.14-0.009-7.709c-0.004-0.451,0.098-0.624,0.597-0.619
		c2.796,0.024,5.593,0.021,8.389,0.001c0.457-0.004,0.587,0.141,0.585,0.581c-0.009,1.363,0.006,1.363-1.373,1.363
		c-1.664,0-3.326,0.022-4.988-0.013c-0.567-0.014-0.705,0.188-0.69,0.719c0.033,1.265,0.03,2.531,0.002,3.797
		c-0.009,0.436,0.142,0.556,0.552,0.553c1.853-0.015,3.704,0.006,5.555-0.016c0.455-0.005,0.632,0.107,0.619,0.6
		c-0.03,1.373-0.008,1.373-1.371,1.373c-1.567,0-3.137,0.017-4.705-0.008c-0.477-0.007-0.666,0.104-0.653,0.629
		c0.036,1.491,0.03,2.985,0.002,4.479c-0.01,0.508,0.166,0.643,0.653,0.638c2.004-0.024,4.007,0,6.009-0.021
		c0.463-0.006,0.627,0.117,0.612,0.604c-0.036,1.339-0.014,1.339-1.346,1.339c-2.625,0-5.252-0.013-7.879,0.013
		c-0.477,0.004-0.566-0.17-0.564-0.594C150.562,100.017,150.556,97.447,150.555,94.877z"/>
	<path fill="#2B2B2A" d="M9.867,103.395c-1.279-0.045-2.52-0.127-3.728-0.483c-0.346-0.102-0.491-0.266-0.464-0.642
		c0.036-0.488,0.023-0.982,0.005-1.474c-0.015-0.414,0.102-0.507,0.492-0.312c1.409,0.706,2.901,1.062,4.484,0.979
		c0.55-0.026,1.086-0.129,1.584-0.382c1.342-0.68,1.732-2.212,0.88-3.455c-0.351-0.513-0.842-0.86-1.361-1.177
		c-1.516-0.923-3.108-1.716-4.588-2.7c-1.115-0.743-1.729-1.777-1.754-3.125c-0.035-1.889,1.077-3.337,2.985-3.932
		c2.129-0.664,4.258-0.411,6.387,0.005c0.232,0.046,0.315,0.18,0.316,0.395c0.001,0.529,0.001,1.06,0.002,1.589
		c0.001,0.354-0.186,0.337-0.45,0.257c-0.868-0.26-1.75-0.468-2.646-0.612c-0.968-0.156-1.925-0.162-2.81,0.342
		c-1.114,0.636-1.335,1.904-0.516,2.896c0.393,0.477,0.915,0.783,1.432,1.097c1.372,0.833,2.819,1.537,4.149,2.439
		c0.748,0.507,1.382,1.118,1.739,1.969c1.046,2.488-0.327,5.173-3.029,5.968C11.946,103.339,10.895,103.376,9.867,103.395z"/>
	<path fill="#2B2B2A" d="M38.423,94.875c0-2.55,0.012-5.1-0.01-7.647c-0.004-0.512,0.122-0.687,0.665-0.681
		c2.663,0.028,5.325,0.023,7.988,0.003c0.499-0.005,0.655,0.147,0.646,0.646c-0.024,1.299-0.003,1.299-1.326,1.299
		c-1.624,0-3.249,0.019-4.873-0.011c-0.488-0.009-0.608,0.159-0.599,0.619c0.027,1.303,0.028,2.605-0.001,3.909
		c-0.009,0.438,0.14,0.543,0.55,0.538c1.775-0.019,3.55,0.003,5.326-0.018c0.411-0.004,0.561,0.1,0.558,0.536
		c-0.008,1.439,0.009,1.438-1.404,1.438c-1.474-0.002-2.947,0.016-4.419-0.01c-0.46-0.009-0.618,0.108-0.611,0.601
		c0.028,2.134-0.007,4.268,0.026,6.4c0.009,0.563-0.17,0.735-0.707,0.678c-0.392-0.042-0.795-0.039-1.188-0.001
		c-0.52,0.053-0.633-0.17-0.628-0.651C38.434,99.975,38.424,97.425,38.423,94.875z"/>
	<path fill="#E1151C" d="M66.129,28.135c0,1.171-0.015,2.341,0.008,3.51c0.007,0.395-0.118,0.531-0.514,0.528
		c-2.283-0.012-4.565-0.013-6.849,0.002c-0.402,0.003-0.514-0.139-0.511-0.529c0.015-2.377,0.015-4.754,0-7.131
		c-0.002-0.389,0.101-0.529,0.51-0.526c2.283,0.016,4.565,0.014,6.848-0.003c0.406-0.003,0.521,0.14,0.515,0.528
		C66.117,25.721,66.129,26.929,66.129,28.135z"/>
	<path fill="#2B2B2A" d="M54.16,95.815c0-2.209-0.015-4.419,0.011-6.628c0.007-0.528-0.109-0.734-0.682-0.707
		c-1.018,0.05-2.039,0.001-3.059,0.022c-0.423,0.011-0.608-0.087-0.601-0.562c0.021-1.379,0.001-1.379,1.376-1.379
		c3.059,0,6.119,0.01,9.178-0.012c0.476-0.003,0.618,0.141,0.613,0.608c-0.015,1.336,0.003,1.336-1.337,1.336
		c-0.774,0-1.55,0.031-2.322-0.011c-0.532-0.029-0.675,0.156-0.673,0.677c0.019,4.419,0.011,8.838,0.011,13.257
		c0,0.753,0.001,0.753-0.743,0.751c-0.378-0.001-0.76-0.037-1.132,0.009c-0.557,0.069-0.657-0.178-0.652-0.677
		C54.172,100.272,54.159,98.043,54.16,95.815z"/>
	<path fill="#2B2B2A" d="M201.725,95.825c0.001,2.247-0.013,4.494,0.011,6.741c0.006,0.475-0.136,0.646-0.611,0.607
		c-0.431-0.033-0.869-0.033-1.301,0.002c-0.494,0.04-0.652-0.132-0.65-0.638c0.021-3.947,0.013-7.894,0.013-11.841
		c0-0.491,0-0.982,0-1.474c0.001-0.732,0.001-0.731-0.759-0.73c-1.002,0.002-2.004-0.01-3.004,0.01
		c-0.377,0.007-0.534-0.092-0.537-0.506c-0.012-1.438-0.026-1.437,1.416-1.437c3.021-0.001,6.044,0.008,9.064-0.013
		c0.484-0.003,0.668,0.115,0.658,0.629c-0.023,1.316-0.001,1.316-1.307,1.316c-0.756,0-1.514,0.036-2.266-0.012
		c-0.564-0.037-0.752,0.12-0.742,0.713C201.746,91.405,201.725,93.615,201.725,95.825z"/>
	<path fill="#E1151C" d="M78.585,72.118c0,1.038-0.017,2.077,0.009,3.114c0.011,0.433-0.154,0.555-0.561,0.552
		c-2.001-0.012-4.001-0.015-6.002,0.003c-0.455,0.003-0.575-0.164-0.571-0.601c0.02-2.059,0.017-4.115,0.001-6.172
		c-0.003-0.421,0.091-0.611,0.563-0.606c2,0.022,4.002,0.023,6.002,0c0.466-0.005,0.578,0.162,0.567,0.596
		C78.566,70.042,78.584,71.08,78.585,72.118z"/>
	<path fill="#E1151C" d="M45.802,72.099c0-1.02,0.018-2.038-0.008-3.057c-0.011-0.45,0.096-0.634,0.594-0.626
		c1.981,0.027,3.962,0.021,5.943,0.003c0.415-0.003,0.565,0.121,0.561,0.547c-0.017,2.095-0.019,4.188-0.001,6.282
		c0.004,0.437-0.161,0.541-0.568,0.537c-1.98-0.018-3.961-0.019-5.943,0c-0.438,0.004-0.602-0.113-0.587-0.574
		C45.824,74.175,45.802,73.137,45.802,72.099z"/>
	<path fill="#2B2B2A" d="M86.836,132.385c0-0.167,0.004-0.432-0.002-0.694c-0.003-0.135-0.033-0.268-0.186-0.316
		s-0.283,0.033-0.333,0.147c-0.407,0.954-1.146,1.701-1.602,2.635c-0.451,0.925-1.063,1.771-1.64,2.632
		c-0.26,0.388-0.623,0.705-0.898,1.084c-0.188,0.258-0.468,0.359-0.715,0.358c-0.305-0.001-0.272-0.35-0.333-0.579
		c-0.276-1.055-0.344-2.119-0.351-3.214c-0.008-1.261,0.146-2.528-0.071-3.786c-0.068-0.396-0.225-0.759-0.404-1.109
		c-0.146-0.287-0.377-0.272-0.616-0.104c-0.625,0.445-1.065,1.062-1.489,1.684c-0.327,0.479-0.578,1.009-0.867,1.515
		c-0.795,1.39-1.566,2.796-2.471,4.116c-0.275,0.402-0.367,0.918-0.776,1.231c-0.114,0.088-0.211,0.256-0.384,0.165
		c-0.125-0.064-0.127-0.217-0.145-0.35c-0.146-1.079-0.21-2.149-0.109-3.25c0.057-0.614-0.024-1.312,0.105-1.88
		c0.197-0.861,0.051-1.668,0.023-2.496c-0.018-0.524-0.084-1.049-0.14-1.57c-0.023-0.221-0.024-0.479,0.177-0.555
		c0.24-0.093,0.327,0.206,0.429,0.354c0.248,0.363,0.171,0.802,0.133,1.2c-0.028,0.283-0.036,0.555-0.017,0.838
		c0.071,1.066,0,2.128-0.124,3.191c-0.082,0.702-0.246,1.412-0.095,2.129c0.03,0.145,0.028,0.312,0.209,0.365
		c0.21,0.062,0.344-0.088,0.402-0.233c0.506-1.275,1.577-2.196,2.13-3.449c0.513-1.158,1.396-2.081,2.168-3.07
		c0.196-0.251,0.44-0.457,0.623-0.729c0.3-0.446,0.82-0.459,1.049,0.013c0.545,1.124,1.122,2.252,0.73,3.586
		c-0.113,0.388-0.013,0.826,0.014,1.224c0.047,0.691-0.112,1.393,0.098,2.074c0.078,0.253,0.055,0.51-0.004,0.777
		c-0.061,0.283,0.025,0.586,0.32,0.72c0.285,0.128,0.433-0.106,0.598-0.298c0.643-0.746,1.149-1.561,1.567-2.463
		c0.351-0.756,0.966-1.374,1.391-2.111c0.569-0.99,1.23-1.927,1.848-2.889c0.123-0.191,0.226-0.422,0.512-0.334
		c0.368,0.111,0.141,0.377,0.101,0.561c-0.263,1.212-0.268,2.452-0.278,3.672c-0.008,0.883,0.071,1.82,0.444,2.662
		c0.176,0.397,0.402,0.813,0.714,1.104c0.691,0.645,1.826,0.448,2.432-0.389c0.162-0.226,0.389-0.351,0.565-0.543
		c0.068-0.072,0.152-0.123,0.249-0.062c0.097,0.064,0.073,0.159,0.042,0.253c-0.419,1.271-2.159,2.062-3.419,1.568
		c-0.275-0.108-0.418-0.321-0.527-0.562C87.232,135.71,86.872,134.134,86.836,132.385z"/>
	<path fill="#2B2B2A" d="M11.539,127.993c0.496,0.475,0.513,1.078,0.443,1.688c-0.031,0.267-0.055,0.528-0.014,0.787
		c0.168,1.06-0.041,2.102-0.11,3.149c-0.047,0.71-0.202,1.414-0.124,2.131c0.02,0.179-0.043,0.411,0.21,0.466
		c0.2,0.043,0.318-0.119,0.385-0.271c0.582-1.315,1.648-2.323,2.254-3.634c0.487-1.056,1.298-1.92,2.014-2.833
		c0.255-0.326,0.521-0.646,0.809-0.943c0.314-0.324,0.717-0.28,0.933,0.118c0.509,0.942,0.99,1.933,0.837,3.026
		c-0.13,0.938-0.045,1.862-0.073,2.791c-0.021,0.695,0.184,1.381,0.099,2.084c-0.023,0.192,0.072,0.415,0.312,0.49
		c0.244,0.077,0.385-0.074,0.529-0.233c0.647-0.721,1.195-1.504,1.56-2.407c0.229-0.566,0.703-0.969,1-1.495
		c0.379-0.67,0.807-1.312,1.224-1.959c0.396-0.615,0.802-1.223,1.208-1.832c0.087-0.131,0.208-0.229,0.379-0.183
		c0.204,0.058,0.175,0.229,0.141,0.374c-0.291,1.229-0.28,2.493-0.285,3.735c-0.004,1.069-0.012,2.198,0.676,3.168
		c0.235,0.33,0.33,0.751,0.744,0.948c0.722,0.345,1.644,0.081,2.165-0.609c0.206-0.271,0.491-0.776,0.777-0.563
		c0.322,0.239-0.199,0.543-0.359,0.78c-0.646,0.958-1.618,1.384-2.758,1.071c-0.413-0.112-0.653-0.333-0.812-0.699
		c-0.676-1.57-1.071-3.195-1.028-4.921c0.008-0.31,0.174-0.796-0.21-0.901c-0.355-0.099-0.436,0.399-0.595,0.655
		c-0.98,1.574-1.901,3.188-2.93,4.731c-0.36,0.541-0.727,1.144-1.374,1.456c-0.331,0.16-0.46,0.092-0.553-0.262
		c-0.291-1.113-0.401-2.232-0.409-3.392c-0.008-1.282,0.161-2.573-0.064-3.855c-0.069-0.397-0.235-0.758-0.4-1.115
		c-0.134-0.29-0.378-0.256-0.621-0.104c-0.51,0.317-0.838,0.815-1.18,1.278c-0.421,0.572-0.751,1.214-1.115,1.828
		c-0.855,1.447-1.661,2.923-2.601,4.318c-0.252,0.374-0.337,0.846-0.708,1.147c-0.267,0.218-0.451,0.29-0.526-0.155
		c-0.186-1.093-0.222-2.174-0.096-3.285c0.067-0.595,0.148-1.224,0.052-1.838c-0.008-0.057-0.021-0.117-0.007-0.169
		c0.362-1.343,0.023-2.665-0.111-3.992C11.207,128.354,11.201,128.355,11.539,127.993z"/>
	<path fill="#2B2B2A" d="M252.212,144.718c-0.866,0.028-1.633-0.041-2.334-0.271c-0.553-0.183-1.023-0.615-1.522-0.95
		c-0.313-0.211-0.31-0.547-0.261-0.867c0.035-0.241,0.251-0.221,0.445-0.241c0.397-0.047,0.777,0.142,0.799,0.466
		c0.053,0.791,0.625,0.929,1.176,1.086c1.447,0.414,2.855,0.117,4.145-0.529c0.629-0.315,1.131-0.938,1.453-1.621
		c0.672-1.421,0.96-2.95,0.953-4.492c-0.005-1.146-0.095-2.316-0.422-3.449c-0.131-0.454,0.066-0.973-0.178-1.434
		c-0.088-0.169-0.141-0.366-0.372-0.369c-0.203-0.002-0.253,0.173-0.345,0.319c-0.838,1.324-1.906,2.448-3.092,3.463
		c-0.928,0.794-1.849,1.59-2.957,2.144c-1.211,0.603-2.416,0.104-2.757-1.204c-0.179-0.686-0.103-1.357,0.015-2.063
		c0.137-0.839,0.498-1.612,0.578-2.461c0.043-0.448,0.303-0.863,0.569-1.221c0.44-0.588,0.869-1.191,1.265-1.8
		c0.295-0.456,0.758-0.521,1.109-0.812c0.707-0.586,1.518-0.958,2.482-0.853c0.726,0.079,1.088,0.628,1.49,1.113
		c0.115,0.141,0.047,0.385-0.144,0.492c-0.185,0.104-0.265-0.079-0.356-0.187c-0.63-0.736-1.308-0.817-2.209-0.464
		c-1.285,0.502-2.16,1.475-2.943,2.508c-0.469,0.62-0.709,1.432-0.978,2.185c-0.224,0.63-0.392,1.283-0.55,1.938
		c-0.141,0.581-0.109,1.11,0.114,1.644c0.228,0.54,0.62,0.907,1.229,0.725c0.68-0.204,1.393-0.248,1.986-0.812
		c0.654-0.62,1.458-1.095,2.154-1.689c1.238-1.057,2.328-2.195,2.902-3.786c0.287-0.799,0.399-1.472-0.055-2.229
		c-0.143-0.237-0.068-0.625-0.036-0.938c0.026-0.259,0.248-0.248,0.353-0.08c0.144,0.227,0.33,0.41,0.381,0.728
		c0.145,0.899,0.436,1.776,0.58,2.678c0.141,0.877,0.185,1.782,0.354,2.645c0.181,0.906,0.046,1.776,0.089,2.661
		c0.061,1.269-0.076,2.513-0.315,3.75c-0.132,0.682-0.339,1.342-0.671,1.958c-0.6,1.117-1.573,1.74-2.754,2.08
		C253.104,144.61,252.632,144.858,252.212,144.718z"/>
	<path fill="#2B2B2A" d="M208.695,130.829c-0.095,0.153-0.211,0.173-0.32,0.188c-1.797,0.215-3.592,0.539-5.395,0.598
		c-1.137,0.036-2.251,0.278-3.391,0.235c-0.719-0.027-1.004,0.399-0.856,1.119c0.154,0.757,0.099,1.532,0.296,2.289
		c0.381,1.458,1.406,2.503,2.963,2.416c1.062-0.06,2.206-0.334,3.038-1.161c0.278-0.278,0.646-0.366,0.956-0.568
		c0.641-0.419,1.164-0.938,1.676-1.486c0.071-0.076,0.125-0.224,0.266-0.108c0.145,0.118-0.008,0.204-0.064,0.275
		c-0.97,1.213-2.061,2.296-3.494,2.941c-0.437,0.196-0.83,0.458-1.306,0.604c-1.952,0.602-3.748,0.17-4.563-1.953
		c-0.34-0.891-0.596-1.772-0.492-2.767c0.051-0.484-0.059-1.055-0.422-1.493c-0.236-0.288-0.233-0.578,0.041-0.857
		c0.346-0.354,0.533-0.764,0.445-1.274c-0.097-0.574,0.045-1.114,0.229-1.658c0.199-0.594-0.002-0.854-0.608-0.893
		c-0.163-0.01-0.362,0.059-0.442-0.152c-0.08-0.208,0.057-0.36,0.187-0.501c0.185-0.199,0.396-0.35,0.687-0.34
		c0.196,0.007,0.398-0.032,0.528-0.167c0.31-0.323,0.595-0.253,1.005-0.157c0.436,0.103,0.942-0.098,1.418-0.168
		c1.432-0.211,2.86-0.332,4.315-0.333c0.903,0,1.784,0.243,2.685,0.149c0.092-0.01,0.195-0.014,0.28,0.019
		c0.163,0.061,0.464,0.023,0.431,0.258c-0.031,0.224-0.318,0.183-0.486,0.142c-1.375-0.335-2.73,0.08-4.086,0.152
		c-1.289,0.07-2.601,0.257-3.873,0.583c-0.965,0.246-1.248,0.599-1.307,1.888c-0.025,0.563-0.004,1.122-0.178,1.679
		c-0.139,0.439,0.171,0.766,0.665,0.752c1.515-0.04,3.028-0.078,4.539-0.218c0.519-0.048,1.058-0.07,1.567,0.016
		c0.842,0.146,1.629-0.242,2.453-0.161C208.275,130.732,208.492,130.662,208.695,130.829z"/>
	<path fill="#2B2B2A" d="M228.521,130.53c-0.139,0.269-0.419,0.351-0.585,0.307c-0.54-0.146-1.069,0.152-1.597-0.019
		c-0.307-0.101-0.543,0.14-0.784,0.228c-0.618,0.225-1.356-0.066-1.892,0.469c-0.119,0.118-0.318,0.212-0.311,0.382
		c0.038,0.733-0.239,1.44-0.191,2.166c0.028,0.441-0.012,0.888-0.108,1.287c-0.154,0.632-0.039,1.269-0.185,1.896
		c-0.144,0.612,0.041,1.235,0.09,1.854c0.084,1.042,0.145,2.095,0.349,3.114c0.122,0.616,0.098,1.266,0.364,1.856
		c0.143,0.312,0.08,0.659,0.096,0.992c-0.281,0.052-0.337-0.165-0.385-0.29c-0.396-1.034-0.711-2.077-0.655-3.219
		c0.042-0.859-0.14-1.722-0.216-2.58c-0.11-1.23,0.029-2.44,0.072-3.66c0.037-1.108,0.188-2.201,0.367-3.293
		c0.059-0.367-0.129-0.594-0.563-0.578c-0.993,0.031-1.988,0.028-2.981,0.041c-0.324,0.004-0.523-0.161-0.656-0.445
		c-0.086-0.187-0.016-0.341,0.088-0.474c0.108-0.142,0.281-0.103,0.416-0.039c0.742,0.341,1.515,0.17,2.268,0.112
		c0.333-0.025,0.659-0.118,0.994-0.033c0.438,0.109,0.682-0.083,0.681-0.501c-0.002-0.641,0.296-1.23,0.203-1.896
		c-0.071-0.519,0.39-0.954,0.453-1.495c0.129-1.063,0.532-2.064,0.849-3.084c0.207-0.669,0.658-1.216,1.047-1.79
		c0.145-0.213,0.406-0.161,0.617-0.227c0.768-0.239,1.543-0.188,2.315-0.065c0.368,0.06,1.229,1.384,1.196,1.768
		c-0.014,0.172-0.09,0.29-0.258,0.325c-0.197,0.041-0.183-0.143-0.234-0.249c-0.033-0.067-0.061-0.14-0.088-0.209
		c-0.375-0.938-0.705-0.989-1.729-0.971c-1.614,0.031-2.021,1.165-2.433,2.34c-0.09,0.256-0.271,0.451-0.334,0.71
		c-0.195,0.798-0.348,1.608-0.605,2.386c-0.215,0.646-0.227,1.327-0.441,1.966c-0.088,0.257-0.174,0.514,0.037,0.746
		c0.201,0.221,0.443,0.136,0.687,0.078c0.733-0.175,1.476-0.084,2.218-0.081C227.312,130.352,227.903,130.418,228.521,130.53z"/>
	<path fill="#2B2B2A" d="M108.349,130.485c-0.115,0.315-0.358,0.364-0.54,0.336c-0.554-0.086-1.106,0.151-1.649-0.007
		c-0.287-0.084-0.429,0.216-0.681,0.205c-0.437-0.021-0.819,0.226-1.3,0.162c-0.566-0.074-1.026,0.708-1.06,1.406
		c-0.047,0.961-0.16,1.92-0.253,2.878c-0.12,1.228-0.232,2.44-0.103,3.688c0.105,1.005,0.366,1.996,0.332,3.017
		c-0.004,0.13-0.001,0.276,0.052,0.39c0.337,0.699,0.227,1.484,0.437,2.209c0.028,0.096-0.016,0.212-0.026,0.319
		c-0.256-0.021-0.321-0.207-0.369-0.348c-0.347-1.034-0.676-2.057-0.648-3.188c0.027-1.122-0.23-2.243-0.244-3.374
		c-0.013-0.996,0.072-1.984,0.136-2.978c0.069-1.074,0.192-2.138,0.345-3.2c0.057-0.396-0.156-0.572-0.575-0.562
		c-0.993,0.03-1.988,0.025-2.981,0.041c-0.3,0.004-0.495-0.149-0.634-0.396c-0.11-0.192-0.031-0.376,0.073-0.528
		c0.083-0.122,0.25-0.104,0.366-0.045c0.718,0.359,1.48,0.17,2.216,0.148c0.388-0.011,0.778-0.119,1.174-0.044
		c0.384,0.072,0.562-0.097,0.598-0.475c0.06-0.653,0.241-1.286,0.227-1.959c-0.012-0.558,0.405-1.033,0.479-1.609
		c0.129-1.025,0.539-1.984,0.822-2.974c0.203-0.715,0.686-1.292,1.155-1.853c0.13-0.155,0.443-0.192,0.679-0.219
		c0.703-0.073,1.409-0.135,2.112,0.003c0.019,0.004,0.038,0.006,0.055,0.012c0.368,0.123,1.166,1.334,1.147,1.735
		c-0.008,0.151,0.004,0.325-0.191,0.359c-0.2,0.033-0.26-0.146-0.299-0.281c-0.192-0.69-0.527-1.206-1.341-1.199
		c-0.902,0.009-1.768,0.138-2.267,1.006c-0.547,0.955-0.974,1.941-1.152,3.065c-0.091,0.573-0.289,1.193-0.515,1.758
		c-0.243,0.606-0.156,1.259-0.399,1.864c-0.17,0.424,0.136,0.728,0.574,0.625C105.509,130.145,106.908,130.339,108.349,130.485z"/>
	<path fill="#2B2B2A" d="M145.41,123.217c0.903,0.728,0.986,1.73,1.037,2.723c0.061,1.164,0.148,2.338,0.053,3.494
		c-0.104,1.252-0.033,2.509-0.252,3.764c-0.17,0.974-0.281,1.979-0.231,2.985c0.006,0.132,0.034,0.27,0.187,0.318
		c0.196,0.065,0.281-0.078,0.328-0.222c0.413-1.255,1.17-2.354,1.77-3.508c0.466-0.895,1.008-1.896,1.886-2.561
		c0.285-0.215,0.426-0.551,0.669-0.809c0.303-0.322,0.639-0.555,0.979-0.813c0.498-0.378,0.808-0.238,1.112,0.194
		c0.339,0.479,0.616,0.963,0.609,1.597c-0.021,1.863,0.044,3.729-0.011,5.593c-0.022,0.778,0.064,1.482,0.432,2.17
		c0.148,0.276,0.184,0.628-0.204,0.756c-0.375,0.126-0.466-0.213-0.563-0.474c-0.06-0.156-0.113-0.326-0.121-0.492
		c-0.039-1.036-0.219-2.06-0.135-3.11c0.1-1.228,0.221-2.461-0.002-3.701c-0.078-0.433-0.072-0.894-0.14-1.339
		c-0.035-0.237-0.101-0.448-0.351-0.532c-0.217-0.073-0.33,0.111-0.49,0.202c-1.303,0.745-1.98,2.059-2.895,3.158
		c-0.092,0.11-0.154,0.263-0.188,0.405c-0.138,0.557-0.431,1.031-0.701,1.527c-0.459,0.84-0.917,1.685-1.244,2.594
		c-0.149,0.422-0.384,0.812-0.7,1.152c-0.283,0.305-0.427,0.325-0.552-0.111c-0.233-0.812-0.228-1.657-0.192-2.468
		c0.076-1.742,0.379-3.472,0.524-5.208c0.119-1.426,0.114-2.88-0.169-4.317c-0.163-0.83-0.213-1.68-0.553-2.47
		C145.242,123.578,145.261,123.569,145.41,123.217z"/>
	<path fill="#2B2B2A" d="M68.904,127.891c0.248,0.569,0.327,1.09,0.037,1.673c-0.257,0.516-0.264,1.119-0.292,1.694
		c-0.053,1.088-0.259,2.154-0.372,3.231c-0.077,0.739-0.067,1.488-0.063,2.232c0.001,0.264,0.222,0.398,0.455,0.524
		c0.455,0.245,0.546,0.734,0.23,1.037c-0.34,0.325-0.801,0.218-0.905-0.238c-0.239-1.045-0.226-2.111-0.28-3.177
		c-0.03-0.596,0.061-1.147,0.233-1.707c0.073-0.234,0.096-0.517-0.181-0.647c-0.31-0.147-0.502,0.09-0.654,0.302
		c-0.459,0.641-0.799,1.36-1.317,1.965c-0.743,0.865-1.314,1.876-2.266,2.562c-0.436,0.315-0.643,0.883-1.199,1.094
		c-0.232,0.088-0.389,0.109-0.537-0.095c-0.128-0.177-0.332-0.243-0.497-0.364c-0.276-0.202-0.466-0.403-0.387-0.839
		c0.099-0.536-0.252-1.099-0.039-1.655c0.296-0.773,0.303-1.621,0.42-2.41c0.134-0.896,0.446-1.71,0.705-2.538
		c0.28-0.892,0.187-1.935,0.95-2.652c0.934-0.878,1.489-1.107,2.72-0.787c0.83,0.217,1.6,0.531,2.344,0.929
		C68.356,128.209,68.62,127.994,68.904,127.891z M61.27,136.578c-0.056,0.395,0.058,0.716,0.403,0.928
		c0.213,0.132,0.44,0.107,0.642-0.026c0.967-0.643,1.657-1.57,2.466-2.378c0.646-0.646,1.09-1.429,1.616-2.152
		c0.255-0.353,0.705-0.574,0.835-0.958c0.224-0.658,0.548-1.266,0.795-1.909c0.162-0.421,0.314-0.92-0.088-1.199
		c-0.601-0.416-1.156-0.884-1.963-1.029c-1.741-0.316-2.864,0.53-3.268,1.988c-0.21,0.757-0.363,1.53-0.603,2.276
		C61.637,133.572,61.414,135.067,61.27,136.578z"/>
	<path fill="#2B2B2A" d="M176.69,130.946c-0.075,0.787-0.142,1.586-0.17,2.371c-0.037,1.009-0.228,2.007-0.183,3.017
		c0.01,0.176,0.035,0.355,0.244,0.396c0.195,0.038,0.4-0.004,0.494-0.192c0.327-0.67,1.006-1.082,1.307-1.754
		c0.467-1.042,1.447-1.721,1.822-2.869c0.203-0.621,0.525-1.359,1.104-1.829c0.414-0.337,0.727-0.772,1.143-1.099
		c0.413-0.324,0.68-0.225,0.891,0.265c0.259,0.604,0.361,1.243,0.423,1.888c0.095,0.976,0.251,1.937,0.429,2.9
		c0.139,0.745,0.311,1.47,0.574,2.174c0.355,0.946,0.929,1.069,1.74,0.471c0.695-0.514,1.254-1.121,1.685-1.864
		c0.136-0.231,0.335-0.611,0.619-0.444c0.383,0.226-0.034,0.51-0.151,0.702c-0.58,0.94-1.188,1.844-2.227,2.396
		c-1.286,0.684-1.891,0.088-2.369-1.06c-0.207-0.493-0.188-1.056-0.288-1.584c-0.261-1.38-0.431-2.774-0.647-4.163
		c-0.029-0.182-0.123-0.354-0.201-0.524c-0.147-0.312-0.348-0.325-0.559-0.063c-0.648,0.806-1.347,1.569-1.839,2.5
		c-0.882,1.664-1.864,3.265-3.183,4.634c-0.232,0.241-0.405,0.545-0.518,0.87c-0.072,0.213-0.252,0.277-0.439,0.301
		c-0.208,0.027-0.27-0.146-0.355-0.299c-0.218-0.37-0.275-0.722-0.156-1.161c0.146-0.539-0.199-1.083-0.073-1.663
		c0.206-0.947,0.175-1.935,0.196-2.895c0.021-0.948-0.022-1.908-0.028-2.863c-0.001-0.191-0.123-0.487,0.167-0.517
		c0.314-0.03,0.339,0.257,0.371,0.52C176.57,129.983,176.787,130.442,176.69,130.946z"/>
	<path fill="#2B2B2A" d="M119.547,138.294c-0.964,0.011-1.654-0.617-1.993-1.303c-0.538-1.089-0.282-2.236-0.437-3.35
		c-0.022-0.16,0.05-0.352-0.156-0.443c-0.209-0.093-0.305,0.087-0.43,0.188c-0.618,0.497-1.09,1.116-1.582,1.737
		c-0.432,0.547-1.05,0.961-1.512,1.508c-0.489,0.579-1.018,1.108-1.731,1.404c-0.586,0.243-0.943,0.074-1.231-0.5
		c-0.453-0.897-0.599-1.803-0.457-2.83c0.106-0.775,0.19-1.595,0.064-2.398c-0.059-0.376-0.017-0.75,0.073-1.123
		c0.17-0.707,0.211-1.42,0.002-2.128c-0.05-0.172-0.118-0.325,0.071-0.448c0.161-0.104,0.325-0.092,0.474,0.016
		c0.142,0.104,0.167,0.221,0.161,0.422c-0.042,1.877-0.368,3.74-0.275,5.622c0.029,0.574,0.094,1.147,0.126,1.722
		c0.012,0.225,0.11,0.385,0.249,0.551c0.313,0.374,0.579,0.419,0.986,0.069c1.516-1.3,3.007-2.615,4.305-4.146
		c0.393-0.462,0.886-0.808,1.18-1.391c0.384-0.761,0.56-1.599,0.986-2.334c0.098-0.169,0.1-0.479,0.384-0.369
		c0.211,0.081,0.289,0.347,0.255,0.573c-0.038,0.26-0.089,0.53-0.208,0.76c-0.498,0.966-1.039,1.938-1.08,3.034
		c-0.043,1.161-0.417,2.37,0.21,3.492c0.486,0.871,1.688,1.355,2.497,0.713c0.1-0.078,0.227-0.141,0.352-0.169
		c0.143-0.032,0.33-0.061,0.406,0.104c0.073,0.156-0.101,0.225-0.198,0.303C120.551,137.977,120.013,138.269,119.547,138.294z"/>
	<path fill="#2B2B2A" d="M57.773,129.154c0.09,0.735-0.292,1.245-0.571,1.824c-0.639,1.328-1.892,1.669-3.089,2.136
		c-0.132,0.052-0.252,0.054-0.379-0.011c-0.497-0.253-0.712,0.014-0.888,0.444c-0.367,0.905-0.45,1.849-0.455,2.81
		c-0.005,0.779,0.255,1.365,0.996,1.751c0.916,0.476,2.185,0.405,2.972-0.229c0.436-0.351,0.964-0.569,1.379-0.963
		c0.163-0.151,0.363-0.26,0.461-0.478c0.053-0.117,0.11-0.277,0.282-0.168c0.133,0.084,0.105,0.235,0.054,0.359
		c-0.211,0.514-0.492,1.063-0.932,1.318c-0.717,0.417-1.295,1.06-2.19,1.229c-0.786,0.147-1.542,0.128-2.198-0.226
		c-0.504-0.27-0.869-0.823-1.062-1.397c-0.432-1.282-0.225-2.577,0.081-3.841c0.188-0.778,0.203-1.549,0.181-2.33
		c-0.008-0.283-0.216-0.64,0.37-0.508c0.263,0.061,0.375-0.205,0.477-0.41c0.376-0.757,0.715-1.531,1.3-2.168
		c0.399-0.435,0.884-0.753,1.37-1.062c0.349-0.223,1.229,0.22,1.595,0.729C57.796,128.346,57.877,128.756,57.773,129.154z
		 M57.357,129.145c-0.016-0.591-0.084-1.05-0.667-1.063c-0.702-0.017-1.353,0.211-1.78,0.791c-0.568,0.771-1.024,1.618-1.48,2.461
		c-0.123,0.229-0.14,0.427,0.028,0.625c0.18,0.212,0.393,0.241,0.661,0.156c0.854-0.27,1.618-0.721,2.292-1.286
		C56.95,130.376,57.221,129.715,57.357,129.145z"/>
	<path fill="#2B2B2A" d="M166.701,130.777c0.545,0.243,0.784,0.047,0.961-0.377c0.514-1.242,1.228-2.331,2.422-3.037
		c0.164-0.098,0.312-0.188,0.521-0.174c0.601,0.041,1.463,0.73,1.535,1.318c0.095,0.774-0.025,1.51-0.388,2.235
		c-0.692,1.394-1.973,1.915-3.305,2.393c-0.113,0.041-0.221,0.021-0.326-0.031c-0.49-0.253-0.718,0.003-0.9,0.432
		c-0.383,0.896-0.457,1.843-0.481,2.795c-0.026,1.131,0.583,1.802,1.726,2.025c0.824,0.161,1.617,0.133,2.322-0.531
		c0.365-0.344,0.864-0.582,1.287-0.896c0.198-0.148,0.406-0.271,0.502-0.516c0.055-0.144,0.148-0.229,0.303-0.135
		c0.113,0.071,0.129,0.209,0.065,0.302c-0.39,0.578-0.663,1.208-1.332,1.612c-0.643,0.388-1.224,0.832-1.979,1.009
		c-0.742,0.174-1.488,0.09-2.082-0.26c-0.467-0.276-0.838-0.822-1.033-1.409c-0.322-0.963-0.283-1.944-0.094-2.91
		C166.666,133.389,166.925,132.165,166.701,130.777z M170.728,128.066c-0.497,0.214-1.157,0.276-1.549,0.923
		c-0.457,0.753-0.93,1.496-1.346,2.274c-0.123,0.229-0.25,0.433-0.045,0.664c0.209,0.24,0.448,0.302,0.756,0.151
		c0.304-0.146,0.65-0.213,0.941-0.38c0.954-0.545,1.817-1.183,2.188-2.3C171.919,128.653,171.559,128.052,170.728,128.066z"/>
	<path fill="#2B2B2A" d="M52.098,126.731c-0.451,0.026-0.902,0.057-1.354,0.08c-1.048,0.055-2.101,0.086-3.146,0.137
		c-0.989,0.048-1.989,0.318-2.995,0.108c-0.375-0.078-0.832,0.325-0.93,0.739c-0.172,0.727-0.015,1.462-0.075,2.189
		c-0.109,1.313-0.036,2.636-0.324,3.949c-0.164,0.749-0.002,1.563-0.152,2.354c-0.154,0.818-0.267,1.653-0.231,2.506
		c-0.328,0.002-0.419-0.165-0.394-0.427c0.085-0.883-0.082-1.76-0.014-2.65c0.086-1.132,0.073-2.267,0.179-3.403
		c0.075-0.818,0.145-1.691,0.029-2.563c-0.089-0.669-0.072-1.411,0.017-2.115c0.05-0.392-0.062-0.709-0.495-0.579
		c-1.115,0.332-2.226,0.238-3.35,0.113c-0.389-0.043-0.783-0.052-1.178,0.068c-0.331,0.101-0.767-0.302-0.756-0.646
		c0.011-0.311,0.235-0.341,0.439-0.264c1.328,0.503,2.723,0.108,4.077,0.307c0.458,0.067,0.986-0.073,1.267-0.566
		c0.16-0.282,0.304-0.127,0.444,0.001c0.643,0.583,1.448,0.568,2.176,0.399c0.713-0.164,1.379,0.058,2.074-0.01
		c1.52-0.144,3.047,0.101,4.573,0.084c0.031,0,0.063,0.036,0.095,0.057C52.081,126.643,52.089,126.687,52.098,126.731z"/>
	<path fill="#2B2B2A" d="M236.971,131.997c0.14,2.684-0.986,4.332-2.562,5.713c-0.471,0.412-1.021,0.845-1.725,0.895
		c-0.055,0.004-0.126,0.019-0.157,0.056c-0.573,0.669-1.297,0.435-1.971,0.283c-0.49-0.109-0.705-0.549-0.837-1.012
		c-0.27-0.942-0.191-1.903-0.17-2.863c0.01-0.355,0.164-0.691,0.312-0.948c0.422-0.732,0.346-1.546,0.549-2.303
		c0.168-0.624,0.525-1.207,0.789-1.802c0.301-0.681,0.965-0.953,1.297-1.544c0.08-0.144,0.217-0.234,0.368-0.232
		c0.98,0.009,1.88,0.128,2.661,0.892C236.487,130.067,236.871,131.19,236.971,131.997z M236.507,133.082
		c-0.187-0.779,0.01-1.682-0.644-2.354c-0.062-0.062-0.087-0.166-0.112-0.256c-0.273-0.979-1.019-1.427-1.922-1.644
		c-0.512-0.123-0.863,0.204-0.795,0.718c0.049,0.36-0.092,0.438-0.392,0.526c-0.502,0.152-0.915,0.481-1.125,0.966
		c-0.312,0.721-0.55,1.475-0.847,2.201c-0.264,0.646-0.412,1.317-0.588,1.988c-0.193,0.746-0.082,1.485-0.131,2.226
		c-0.021,0.316,0.303,0.55,0.56,0.745c0.534,0.405,1.118,0.192,1.684,0.109c0.927-0.137,1.611-0.745,2.318-1.273
		c0.474-0.354,0.972-0.777,1.239-1.285C236.182,134.937,236.705,134.106,236.507,133.082z"/>
	<path fill="#2B2B2A" d="M239.916,135.423c-0.039-0.892-0.193-1.798-0.086-2.671c0.117-0.945,0.145-1.898,0.278-2.846
		c0.183-1.267,0.187-2.557,0.104-3.838c-0.053-0.83,0.031-1.654,0.029-2.481c0-0.213,0.137-0.404,0.348-0.354
		c0.252,0.06,0.414,0.348,0.377,0.559c-0.207,1.195,0.148,2.42-0.234,3.609c-0.139,0.428,0.094,0.896,0.048,1.362
		c-0.073,0.769-0.108,1.536-0.261,2.299c-0.114,0.566,0.034,1.148-0.059,1.736c-0.16,1.015-0.097,2.047-0.032,3.07
		c0.013,0.206,0.05,0.411,0.077,0.616c0.15,1.062,0.615,1.305,1.481,0.672c0.823-0.601,1.869-0.83,2.579-1.606
		c0.121-0.132,0.342-0.172,0.454-0.018c0.097,0.13-0.056,0.276-0.161,0.375c-1.105,1.032-2.27,1.982-3.762,2.414
		c-0.436,0.125-1.049-0.501-1.088-1.153C239.975,136.588,239.815,136.013,239.916,135.423z"/>
	<path fill="#2B2B2A" d="M219.147,128.905c-0.931,0.334-1.808,0.662-2.563,1.222c-1.18,0.87-2.074,1.986-2.793,3.256
		c-0.701,1.235-1.051,2.578-1.252,3.97c-0.043,0.311,0.037,0.601,0.203,0.864c0.078,0.125,0.209,0.243,0.045,0.394
		c-0.18,0.162-0.416,0.165-0.629,0.172c-0.171,0.005-0.236-0.172-0.24-0.334c-0.006-0.227,0.002-0.452,0.002-0.679
		c-0.002-1.401,0.086-2.812-0.037-4.202c-0.09-1.02-0.01-2.049-0.274-3.071c-0.127-0.492-0.17-1.055-0.249-1.584
		c-0.043-0.285,0.145-0.376,0.325-0.451c0.211-0.087,0.305,0.088,0.364,0.255c0.224,0.632,0.066,1.31,0.236,1.948
		c0.144,0.536,0.012,1.081,0.008,1.621c-0.002,0.529,0.08,1.048,0.113,1.571c0.01,0.131,0.018,0.271,0.188,0.308
		c0.175,0.036,0.21-0.104,0.279-0.217c0.48-0.774,0.901-1.58,1.467-2.312c0.604-0.777,1.392-1.298,2.121-1.906
		c0.617-0.515,1.259-0.96,2.104-0.979C218.744,128.744,218.939,128.671,219.147,128.905z"/>
	<path fill="#2B2B2A" d="M124.232,137.446c-0.204-1.438,0.038-2.984-0.083-4.528c-0.101-1.296-0.196-2.594-0.455-3.87
		c-0.063-0.312-0.003-0.539,0.331-0.589c0.334-0.051,0.389,0.308,0.38,0.453c-0.061,0.942,0.292,1.846,0.184,2.804
		c-0.082,0.735,0.058,1.497,0.102,2.246c0.007,0.121,0.061,0.229,0.196,0.24c0.165,0.013,0.197-0.131,0.268-0.242
		c0.499-0.78,0.907-1.61,1.496-2.349c0.586-0.733,1.322-1.256,2.03-1.83c0.631-0.513,1.261-1.025,2.139-1.025
		c0.094,0,0.189-0.026,0.282-0.021c0.106,0.007,0.251-0.01,0.25,0.155c-0.002,0.122-0.127,0.115-0.212,0.144
		c-2.001,0.638-3.462,1.889-4.608,3.664c-0.668,1.034-1.108,2.122-1.443,3.261c-0.219,0.744-0.476,1.55-0.002,2.341
		c0.171,0.286-0.11,0.372-0.334,0.449c-0.258,0.091-0.473,0.061-0.51-0.234C124.202,138.196,124.232,137.873,124.232,137.446z"/>
	<path fill="#2B2B2A" d="M165.521,128.917c-1.333,0.425-2.492,1.021-3.48,1.969c-0.715,0.686-1.273,1.476-1.771,2.3
		c-0.773,1.285-1.221,2.703-1.365,4.206c-0.027,0.288,0.008,0.562,0.2,0.802c0.088,0.107,0.213,0.239,0.065,0.399
		c-0.172,0.186-0.416,0.166-0.627,0.191c-0.166,0.021-0.242-0.16-0.252-0.321c-0.01-0.226-0.002-0.453-0.002-0.68
		c-0.004-1.401,0.084-2.812-0.039-4.203c-0.093-1.02,0.025-2.055-0.275-3.076c-0.146-0.495-0.146-1.067-0.254-1.6
		c-0.053-0.254,0.125-0.343,0.283-0.428c0.197-0.107,0.319,0.016,0.391,0.194c0.055,0.141,0.139,0.283,0.141,0.426
		c0.002,1.131,0.239,2.251,0.141,3.386c-0.039,0.453,0.051,0.899,0.104,1.348c0.015,0.119,0.052,0.222,0.179,0.257
		c0.166,0.047,0.225-0.061,0.293-0.187c0.479-0.868,0.912-1.798,1.627-2.475c1.172-1.106,2.234-2.43,3.998-2.664
		C165.074,128.735,165.287,128.662,165.521,128.917z"/>
	<path fill="#2B2B2A" d="M140.764,138.502c-0.778-1.028-0.969-2.165-0.997-3.43c-0.048-2.189,0.26-4.368,0.117-6.549
		c-0.05-0.764,0.206-1.455,0.251-2.189c0.013-0.202,0.302-0.424,0.51-0.568c0.212-0.149,0.576,0.089,0.538,0.322
		c-0.137,0.83-0.098,1.671-0.183,2.506c-0.064,0.638-0.416,1.181-0.405,1.854c0.007,0.454-0.026,0.947-0.066,1.42
		c-0.109,1.274-0.136,2.56-0.135,3.84c0.001,0.777-0.055,1.593,0.45,2.273C141.011,138.204,140.951,138.335,140.764,138.502z"/>
	<path fill="#2B2B2A" d="M111.771,124.577c-0.011-0.27,0.52-0.862,0.777-0.868c0.319-0.008,1.089,0.642,1.103,0.93
		c0.021,0.428-0.581,1.011-1.046,1.015C112.261,125.654,111.79,125.046,111.771,124.577z"/>
	<path fill="#2B2B2A" d="M117.632,124.787c0.006,0.359-0.583,0.898-1.004,0.921c-0.337,0.019-0.86-0.428-0.878-0.751
		c-0.025-0.418,0.501-1.12,0.842-1.125C117.029,123.827,117.625,124.373,117.632,124.787z"/>
	<path fill="#2B2B2A" d="M268.546,30.729c0-1.076,0.014-2.152-0.008-3.229c-0.008-0.412,0.121-0.581,0.551-0.56
		c1.093,0.052,2.189-0.079,3.277,0.125c0.914,0.172,1.549,0.777,1.725,1.654c0.22,1.095-0.031,1.792-0.903,2.34
		c-0.315,0.198-0.271,0.396-0.151,0.661c0.326,0.741,0.629,1.494,0.973,2.229c0.191,0.407,0.162,0.579-0.344,0.574
		c-0.975-0.008-0.972,0.008-1.312-0.916c-0.203-0.548-0.442-1.084-0.613-1.644c-0.114-0.376-0.313-0.504-0.696-0.492
		c-1.342,0.038-1.095-0.172-1.114,1.093c-0.009,0.472-0.032,0.947,0.006,1.416c0.051,0.62-0.354,0.521-0.733,0.54
		c-0.418,0.02-0.681-0.035-0.664-0.564C268.569,32.882,268.546,31.805,268.546,30.729z M270.979,30.22
		c0.228,0,0.454,0.014,0.681-0.003c0.646-0.048,1.004-0.371,1.023-0.91c0.021-0.565-0.33-0.941-0.995-1.004
		c-0.413-0.039-0.832,0.003-1.245-0.028c-0.396-0.029-0.564,0.116-0.521,0.514c0.016,0.13,0.004,0.265,0.004,0.396
		C269.935,30.392,269.772,30.218,270.979,30.22z"/>
</g>
</svg>
