<?xml version="1.0" encoding="UTF-8" standalone="no"?>
<!-- Generator: Adobe Illustrator 14.0.0, SVG Export Plug-In . SVG Version: 6.00 Build 43363)  -->

<svg
   xmlns:dc="http://purl.org/dc/elements/1.1/"
   xmlns:cc="http://creativecommons.org/ns#"
   xmlns:rdf="http://www.w3.org/1999/02/22-rdf-syntax-ns#"
   xmlns:svg="http://www.w3.org/2000/svg"
   xmlns="http://www.w3.org/2000/svg"
   xmlns:sodipodi="http://sodipodi.sourceforge.net/DTD/sodipodi-0.dtd"
   xmlns:inkscape="http://www.inkscape.org/namespaces/inkscape"
   version="1.1"
   x="0px"
   y="0px"
   width="1536px"
   height="512px"
   viewBox="0 0 1536 512"
   enable-background="new 0 0 1536 512"
   xml:space="preserve"
   id="svg2"
   inkscape:version="0.48.4 r9939"
   sodipodi:docname="CloudRail Logo pathText smallCi.svg"><defs
     id="defs151">
	

		
		
		
	</defs><sodipodi:namedview
     pagecolor="#ffffff"
     bordercolor="#666666"
     borderopacity="1"
     objecttolerance="10"
     gridtolerance="10"
     guidetolerance="10"
     inkscape:pageopacity="0"
     inkscape:pageshadow="2"
     inkscape:window-width="1920"
     inkscape:window-height="1027"
     id="namedview149"
     showgrid="false"
     inkscape:zoom="1.071021"
     inkscape:cx="375.89574"
     inkscape:cy="203.11362"
     inkscape:window-x="1358"
     inkscape:window-y="-8"
     inkscape:window-maximized="1"
     inkscape:current-layer="svg2" /><path
     style="font-size:medium;font-style:normal;font-variant:normal;font-weight:normal;font-stretch:normal;text-indent:0;text-align:start;text-decoration:none;line-height:normal;letter-spacing:normal;word-spacing:normal;text-transform:none;direction:ltr;block-progression:tb;writing-mode:lr-tb;text-anchor:start;baseline-shift:baseline;color:#000000;fill:#0365c0;fill-opacity:1;stroke:none;stroke-width:12.0631876;marker:none;visibility:visible;display:inline;overflow:visible;enable-background:accumulate;font-family:Sans;-inkscape-font-specification:Sans"
     d="M 343.40625 173.09375 C 340.27991 176.16302 336.7499 178.79172 332.90625 180.875 C 353.76121 200.6785 367.54454 227.86827 370.125 258.28125 C 374.17001 256.45661 378.4206 255.10359 382.8125 254.375 C 379.43223 222.68954 364.98825 194.27451 343.40625 173.09375 z M 155 173.75 C 132.39055 196.25508 117.76634 226.75744 115.75 260.625 C 119.99808 258.2083 124.52389 256.32622 129.25 255.15625 C 132.47036 226.13417 145.91785 200.2239 165.90625 181.125 C 161.95464 179.19096 158.27829 176.74763 155 173.75 z M 216.625 385.21875 C 212.84703 389.11361 208.42191 392.33989 203.5 394.59375 C 217.85622 399.85268 233.36446 402.71875 249.53125 402.71875 C 265.59363 402.71875 281.00075 399.88181 295.28125 394.6875 C 290.08656 392.49148 285.34663 389.443 281.375 385.5 C 271.23067 388.2535 260.55401 389.75 249.53125 389.75 C 238.12285 389.75 227.0855 388.16137 216.625 385.21875 z "
     id="path3788" /><path
     inkscape:connector-curvature="0"
     id="path4057"
     style="font-size:72px;font-style:normal;font-variant:normal;font-weight:bold;font-stretch:normal;text-align:start;line-height:125%;letter-spacing:0px;word-spacing:0px;writing-mode:lr-tb;text-anchor:start;fill:#000000;fill-opacity:1;stroke:none;font-family:Sans;-inkscape-font-specification:Sans Bold"
     d="m 595.40995,276.17767 29.8505,9.46479 c -4.57652,16.64141 -12.18649,29.00109 -22.82991,37.07907 -10.64365,8.07801 -24.14743,12.11703 -40.51137,12.11703 -20.24707,0 -36.88843,-6.91658 -49.92415,-20.74975 -13.03575,-13.83312 -19.55364,-32.74533 -19.55361,-56.73671 -3e-5,-25.378 6.55251,-45.08761 19.65763,-59.12892 13.10504,-14.041 30.33578,-21.0616 51.69228,-21.06174 18.65214,1.4e-4 33.80272,5.5126 45.45177,16.53739 6.9338,6.51798 12.13422,15.87875 15.60131,28.08231 l -30.47453,7.28061 c -1.80292,-7.90455 -5.56455,-14.14505 -11.28493,-18.72154 -5.72058,-4.57627 -12.6718,-6.86444 -20.85374,-6.86459 -11.30235,1.5e-4 -20.47242,4.05647 -27.51029,12.16901 -7.03796,8.1128 -10.55691,21.25254 -10.55688,39.41928 -3e-5,19.27634 3.46691,33.00547 10.40088,41.18743 6.93385,8.18203 15.94792,12.27303 27.04223,12.27303 8.18194,0 15.21984,-2.6002 21.11376,-7.80065 5.89371,-5.2004 10.12341,-13.38242 12.68905,-24.54605 z" /><path
     inkscape:connector-curvature="0"
     id="path4059"
     style="font-size:72px;font-style:normal;font-variant:normal;font-weight:bold;font-stretch:normal;text-align:start;line-height:125%;letter-spacing:0px;word-spacing:0px;writing-mode:lr-tb;text-anchor:start;fill:#000000;fill-opacity:1;stroke:none;font-family:Sans;-inkscape-font-specification:Sans Bold"
     d="m 651.57463,332.23833 0,-152.47667 29.22641,0 0,152.47667 z" /><path
     inkscape:connector-curvature="0"
     id="path4061"
     style="font-size:72px;font-style:normal;font-variant:normal;font-weight:bold;font-stretch:normal;text-align:start;line-height:125%;letter-spacing:0px;word-spacing:0px;writing-mode:lr-tb;text-anchor:start;fill:#000000;fill-opacity:1;stroke:none;font-family:Sans;-inkscape-font-specification:Sans Bold"
     d="m 703.89097,275.44962 c 0,-9.70742 2.39219,-19.10286 7.17659,-28.18637 4.78438,-9.08332 11.56229,-16.0172 20.3337,-20.80172 8.77135,-4.78429 18.56548,-7.17648 29.38244,-7.1766 16.71064,1.2e-4 30.40509,5.42589 41.08342,16.27738 10.67812,10.85163 16.0172,24.56342 16.01732,41.13539 -1.2e-4,16.71076 -5.39121,30.56125 -16.17332,41.55145 -10.78235,10.99027 -24.35544,16.48539 -40.71941,16.48539 -10.12355,0 -19.77902,-2.2882 -28.96639,-6.86457 -9.18746,-4.57636 -16.17338,-11.28493 -20.95776,-20.12569 -4.7844,-8.8407 -7.17659,-19.60556 -7.17659,-32.29466 z m 29.95449,1.56011 c -3e-5,10.95563 2.60017,19.34566 7.80065,25.17009 5.20039,5.82451 11.61423,8.73677 19.24161,8.73674 7.62723,3e-5 14.02373,-2.91223 19.1896,-8.73674 5.16566,-5.82443 7.74852,-14.28381 7.74864,-25.3781 -1.2e-4,-10.81684 -2.58298,-19.13753 -7.74864,-24.96207 -5.16587,-5.8244 -11.56237,-8.73665 -19.1896,-8.73674 -7.62738,9e-5 -14.04122,2.91234 -19.24161,8.73674 -5.20048,5.82454 -7.80068,14.21458 -7.80065,25.17008 z" /><path
     inkscape:connector-curvature="0"
     id="path4063"
     style="font-size:72px;font-style:normal;font-variant:normal;font-weight:bold;font-stretch:normal;text-align:start;line-height:125%;letter-spacing:0px;word-spacing:0px;writing-mode:lr-tb;text-anchor:start;fill:#000000;fill-opacity:1;stroke:none;font-family:Sans;-inkscape-font-specification:Sans Bold"
     d="m 913.57239,332.23833 0,-16.53737 c -4.02174,5.89384 -9.30885,10.53955 -15.86132,13.93714 -6.55259,3.39762 -13.46917,5.09644 -20.74972,5.09644 -7.4193,0 -14.07586,-1.62947 -19.96966,-4.8884 -5.89383,-3.25893 -10.15819,-7.83532 -12.79307,-13.72916 -2.6349,-5.8938 -3.95233,-14.04112 -3.9523,-24.44203 l 0,-69.89381 29.22641,0 0,50.75622 c -3e-5,15.53202 0.53735,25.04879 1.61213,28.55037 1.07472,3.50167 3.03355,6.27524 5.87649,8.32069 2.84285,2.04555 6.44849,3.06829 10.8169,3.06826 4.99236,3e-5 9.46473,-1.36942 13.41713,-4.10834 3.95224,-2.73886 6.65646,-6.13648 8.11268,-10.19284 1.45601,-4.05629 2.18409,-13.98911 2.18418,-29.79849 l 0,-46.59587 29.22641,0 0,110.45719 z" /><path
     inkscape:connector-curvature="0"
     id="path4065"
     style="font-size:72px;font-style:normal;font-variant:normal;font-weight:bold;font-stretch:normal;text-align:start;line-height:125%;letter-spacing:0px;word-spacing:0px;writing-mode:lr-tb;text-anchor:start;fill:#000000;fill-opacity:1;stroke:none;font-family:Sans;-inkscape-font-specification:Sans Bold"
     d="m 1072.3936,332.23833 -27.1463,0 0,-16.22534 c -4.5071,6.30985 -9.8289,11.00758 -15.9653,14.09317 -6.1366,3.08559 -12.3251,4.62838 -18.5655,4.62838 -12.68913,0 -23.55801,-5.11375 -32.60672,-15.34129 -9.04877,-10.22748 -13.57316,-24.49398 -13.57316,-42.79954 0,-18.72148 4.40303,-32.95334 13.20912,-42.69554 8.80603,-9.74206 19.93496,-14.61312 33.38676,-14.61324 12.3423,1.2e-4 23.0205,5.1312 32.0347,15.3933 l 0,-54.91657 29.2264,0 z m -78.00648,-57.62078 c -3e-5,11.78769 1.62944,20.31639 4.8884,25.58613 4.71498,7.62732 11.30228,11.44096 19.76168,11.44093 6.7258,3e-5 12.4463,-2.86022 17.1614,-8.58071 4.715,-5.72044 7.0725,-14.26648 7.0726,-25.63812 -10e-5,-12.68898 -2.2883,-21.82441 -6.8646,-27.4063 -4.5765,-5.58168 -10.4356,-8.37258 -17.5774,-8.37267 -6.934,9e-5 -12.7412,2.75632 -17.4215,8.26868 -4.68043,5.51254 -7.02061,13.74655 -7.02058,24.70206 z" /><path
     inkscape:connector-curvature="0"
     id="path4067"
     style="font-size:72px;font-style:normal;font-variant:normal;font-weight:bold;font-stretch:normal;text-align:start;line-height:125%;letter-spacing:0px;word-spacing:0px;writing-mode:lr-tb;text-anchor:start;fill:#000000;fill-opacity:1;stroke:none;font-family:Sans;-inkscape-font-specification:Sans Bold"
     d="m 1101.62,332.23833 0,-152.47667 64.7974,0 c 16.2946,1.5e-4 28.1343,1.3696 35.519,4.10834 7.3845,2.73904 13.2956,7.6101 17.7335,14.6132 4.4375,7.00338 6.6564,15.01204 6.6565,24.02602 -10e-5,11.44105 -3.3631,20.88847 -10.0888,28.34233 -6.7261,7.45404 -16.7802,12.15176 -30.1625,14.0932 6.6564,3.88304 12.1515,8.14738 16.4853,12.79306 4.3336,4.64574 10.1754,12.89709 17.5255,24.75404 l 18.6175,29.74648 -36.819,0 -22.2579,-33.17875 c -7.9047,-11.85695 -13.3132,-19.32823 -16.2253,-22.41389 -2.9124,-3.0855 -5.9979,-5.20036 -9.2568,-6.34452 -3.259,-1.14401 -8.4248,-1.71606 -15.4973,-1.71612 l -6.2405,0 0,63.65328 z m 30.7866,-87.99132 22.7779,0 c 14.7691,9e-5 23.9912,-0.62394 27.6663,-1.87215 3.6749,-1.248 6.5524,-3.39753 8.6327,-6.44854 2.0801,-3.05081 3.1201,-6.86445 3.1203,-11.44093 -2e-4,-5.13099 -1.3696,-9.274 -4.1084,-12.42906 -2.739,-3.15479 -6.6046,-5.1483 -11.5969,-5.98048 -2.4963,-0.34659 -9.985,-0.51992 -22.4659,-0.52004 l -24.026,0 z" /><path
     inkscape:connector-curvature="0"
     id="path4069"
     style="font-size:72px;font-style:normal;font-variant:normal;font-weight:bold;font-stretch:normal;text-align:start;line-height:125%;letter-spacing:0px;word-spacing:0px;writing-mode:lr-tb;text-anchor:start;fill:#000000;fill-opacity:1;stroke:none;font-family:Sans;-inkscape-font-specification:Sans Bold"
     d="m 1277.0826,255.47996 -26.5222,-4.78441 c 2.9816,-10.67812 8.1127,-18.58279 15.3933,-23.71396 7.2805,-5.13098 18.0974,-7.69654 32.4507,-7.69666 13.0357,1.2e-4 22.7431,1.5429 29.1224,4.62841 6.3791,3.08568 10.8688,7.00334 13.4691,11.75296 2.6001,4.74982 3.9003,13.46919 3.9003,26.15818 l -0.312,34.11483 c -10e-5,9.70751 0.468,16.86676 1.4041,21.47777 0.936,4.61107 2.6868,9.55148 5.2525,14.82125 l -28.9144,0 c -0.7629,-1.9415 -1.6989,-4.81905 -2.8082,-8.63272 -0.4855,-1.73346 -0.8322,-2.87756 -1.0402,-3.43227 -4.9924,4.85372 -10.3315,8.49403 -16.0173,10.92089 -5.6858,2.42686 -11.753,3.64031 -18.2015,3.64031 -11.3716,0 -20.3337,-3.0856 -26.8862,-9.25678 -6.5526,-6.17116 -9.8288,-13.97181 -9.8288,-23.40193 0,-6.24048 1.4907,-11.80494 4.4723,-16.69339 2.9816,-4.88837 7.1593,-8.63267 12.5331,-11.23295 5.3737,-2.60014 13.1224,-4.871 23.2459,-6.81256 13.6598,-2.56546 23.1245,-4.95768 28.3944,-7.17659 l 0,-2.91226 c -10e-5,-5.61638 -1.3869,-9.6207 -4.1604,-12.01297 -2.7736,-2.39213 -8.0087,-3.58821 -15.7053,-3.5883 -5.2005,9e-5 -9.2568,1.02283 -12.169,3.06826 -2.9123,2.04557 -5.2698,5.63387 -7.0726,10.76489 z m 39.1073,23.71395 c -3.7444,1.24818 -9.6729,2.73895 -17.7855,4.47238 -8.1127,1.73351 -13.4172,3.43232 -15.9133,5.09643 -3.8137,2.70425 -5.7205,6.13655 -5.7205,10.29686 0,4.09103 1.5254,7.62732 4.5764,10.60886 3.0509,2.9816 6.9338,4.47241 11.6489,4.47238 5.2697,3e-5 10.2968,-1.73346 15.0813,-5.20043 3.5362,-2.63487 5.8591,-5.85913 6.9686,-9.6728 0.7626,-2.49618 1.144,-7.24591 1.1441,-14.24919 z" /><path
     inkscape:connector-curvature="0"
     id="path4071"
     style="font-size:72px;font-style:normal;font-variant:normal;font-weight:bold;font-stretch:normal;text-align:start;line-height:125%;letter-spacing:0px;word-spacing:0px;writing-mode:lr-tb;text-anchor:start;fill:#000000;fill-opacity:1;stroke:none;font-family:Sans;-inkscape-font-specification:Sans Bold"
     d="m 1373.8107,206.8039 0,-27.04224 29.2264,0 0,27.04224 z m 0,125.43443 0,-110.45719 29.2264,0 0,110.45719 z" /><path
     inkscape:connector-curvature="0"
     id="path4073"
     style="font-size:72px;font-style:normal;font-variant:normal;font-weight:bold;font-stretch:normal;text-align:start;line-height:125%;letter-spacing:0px;word-spacing:0px;writing-mode:lr-tb;text-anchor:start;fill:#000000;fill-opacity:1;stroke:none;font-family:Sans;-inkscape-font-specification:Sans Bold"
     d="m 1432.8876,332.23833 0,-152.47667 29.2264,0 0,152.47667 z" /><path
     d="m 438.27845,319.02985 c 0,0 3.53056,-47.56354 -40.04405,-52.98327 -37.35587,-3.81549 -48.71562,30.88936 -48.71562,30.88936 0,0 -11.24825,-10.81468 -26.51021,-1.97588 -13.65152,8.43 -11.24206,23.87158 -11.24206,23.87158 0,0 -30.3319,5.89047 -30.3319,36.81699 0.68134,30.88316 32.94575,31.19286 32.94575,31.19286 h 118.68276 c 0,0 30.02839,0.031 34.24029,-29.34706 2.00066,-32.12815 -29.02496,-38.46458 -29.02496,-38.46458 z"
     id="path3905"
     inkscape:connector-curvature="0"
     style="fill:#de6a10;fill-opacity:1" /><path
     style="fill:#de6a10;fill-opacity:1"
     inkscape:connector-curvature="0"
     id="path3907"
     d="m 188.51677,319.02985 c 0,0 3.53056,-47.56354 -40.04405,-52.98327 -37.35587,-3.81549 -48.715615,30.88936 -48.715615,30.88936 0,0 -11.24825,-10.81468 -26.51021,-1.97588 -13.65152,8.43 -11.24206,23.87158 -11.24206,23.87158 0,0 -30.3319,5.89047 -30.3319,36.81699 0.68134,30.88316 32.94575,31.19286 32.94575,31.19286 H 183.30144 c 0,0 30.02839,0.031 34.24029,-29.34706 2.00066,-32.12815 -29.02496,-38.46458 -29.02496,-38.46458 z" /><path
     style="fill:#de6a10;fill-opacity:1"
     d="m 266.34375,45.845521 c -18.68794,-0.238327 -35.60379,12.702061 -43.5625,28.906249 -15.58503,-9.131307 -37.99948,2.48163 -39.6875,20.53125 -0.0791,2.65979 0.0898,5.50884 -3.28125,5.53125 -17.24614,6.08053 -29.43891,24.12906 -27.1875,42.5625 1.21806,15.8457 14.81127,29.11785 30.5,30.75 15.86645,2.30696 31.99373,-0.0527 47.9687,0.76458 28.10832,-0.28597 56.34422,0.95843 84.37505,-0.73333 17.98137,-2.79636 32.80328,-19.91552 31.09375,-38.46875 -0.83097,-16.6427 -13.52618,-31.22972 -29.28125,-35.71875 0.91057,-22.31388 -12.12432,-46.646109 -34.86777,-52.11847 -5.18518,-1.481163 -10.63982,-2.145072 -16.06973,-2.006529 z"
     id="path3928"
     inkscape:connector-curvature="0" /><metadata
     id="metadata3861"><rdf:RDF><cc:Work
         rdf:about=""><dc:title></dc:title><dc:format>image/svg+xml</dc:format><dc:type
           rdf:resource="http://purl.org/dc/dcmitype/StillImage" /></cc:Work></rdf:RDF></metadata></svg>