<?xml version="1.0" encoding="utf-8"?>
<!-- Generator: Adobe Illustrator 16.0.0, SVG Export Plug-In . SVG Version: 6.00 Build 0)  -->
<!DOCTYPE svg PUBLIC "-//W3C//DTD SVG 1.1//EN" "http://www.w3.org/Graphics/SVG/1.1/DTD/svg11.dtd">
<svg version="1.1" id="Ebene_1" xmlns="http://www.w3.org/2000/svg" xmlns:xlink="http://www.w3.org/1999/xlink" x="0px" y="0px"
	 width="283.46px" height="92.581px" viewBox="0 0 283.46 92.581" enable-background="new 0 0 283.46 92.581" xml:space="preserve">
<g>
	<g>
		<path fill-rule="evenodd" clip-rule="evenodd" fill="#686567" d="M199.433,38.44c2.992-0.003,12.785,0.003,12.785,0.003v5.232
			c0,0-20.323-0.158-21.165-0.135c-0.877,0.024-1.572,0.312-1.569,1.407c0.002,0.988,0.397,1.423,0.972,1.586
			c0.957,0.271,11.018-0.204,14.836-0.065c5.438,0.195,7.566,2.365,7.772,7.611c0.232,5.856-1.502,8.409-7.003,8.764
			c-6.455,0.417-22.304,0.269-22.304,0.269v-5.012c0,0,13.942,0.146,19.428,0.108c2.098-0.016,4.347-0.101,4.253-3.592
			c-0.091-3.413-2.486-2.909-4.583-2.935c-4.321-0.052-8.644,0.003-12.965-0.068c-4.693-0.077-6.19-2.715-6.132-7.158
			c0.058-4.377,2.333-5.912,6.201-5.998C193.114,38.389,196.274,38.445,199.433,38.44z"/>
		<path fill-rule="evenodd" clip-rule="evenodd" fill="#686567" d="M118.615,38.444c15.22-0.007,16.033,0.853,15.238,16.11
			c-0.326,6.247-1.908,8.222-8.004,8.422c-5.619,0.183-11.271,0.527-16.903-0.344c-3.354-0.519-5.117-2.501-5.323-5.604
			c-0.275-4.134-0.269-8.308-0.056-12.446c0.205-3.966,2.777-5.892,6.575-6.102C112.957,38.326,115.79,38.451,118.615,38.444z
			 M118.333,57.659c11.663-0.308,9.639,2.21,9.922-10.397c0.056-2.478-0.747-3.708-3.357-3.66c-4.132,0.077-8.268,0.077-12.4-0.001
			c-2.521-0.047-3.522,0.985-3.47,3.548C109.287,59.896,107.421,57.349,118.333,57.659z"/>
		<path fill-rule="evenodd" clip-rule="evenodd" fill="#686567" d="M262.705,38.444c15.22-0.007,16.034,0.853,15.238,16.11
			c-0.326,6.247-1.909,8.222-8.005,8.422c-5.618,0.183-11.271,0.527-16.901-0.344c-3.354-0.519-5.117-2.501-5.324-5.604
			c-0.274-4.134-0.269-8.308-0.057-12.446c0.205-3.966,2.777-5.892,6.575-6.102C257.048,38.326,259.88,38.451,262.705,38.444z
			 M262.424,57.659c11.662-0.308,9.639,2.21,9.922-10.397c0.056-2.478-0.746-3.708-3.357-3.66
			c-4.132,0.077-8.268,0.077-12.399-0.001c-2.521-0.047-3.523,0.985-3.471,3.548C253.377,59.896,251.512,57.349,262.424,57.659z"/>
		<path fill-rule="evenodd" clip-rule="evenodd" fill="#9DC22D" d="M34.744,27.443c0.002,6.783,0.002,6.783-6.676,6.783
			c-6.795,0-6.795,0-6.79-6.767c0.006-6.707,0.006-6.707,7.042-6.699C34.742,20.769,34.742,20.769,34.744,27.443z"/>
		<path fill-rule="evenodd" clip-rule="evenodd" fill="#9DC22D" d="M52.293,44.957c0.001,6.783,0.001,6.783-6.676,6.783
			c-6.795,0-6.795,0-6.79-6.766c0.005-6.708,0.005-6.708,7.041-6.699C52.291,38.283,52.291,38.283,52.293,44.957z"/>
		<path fill-rule="evenodd" clip-rule="evenodd" fill="#9DC22D" d="M52.293,27.443c0.001,6.783,0.001,6.783-6.676,6.783
			c-6.795,0-6.795,0-6.79-6.767c0.005-6.707,0.005-6.707,7.041-6.699C52.291,20.769,52.291,20.769,52.293,27.443z"/>
		<path fill-rule="evenodd" clip-rule="evenodd" fill="#686567" d="M27.991,51.672c-6.78-0.004-6.78-0.004-6.773-6.81
			c0.006-6.429,0.006-6.429,7.212-6.426c6.437,0.002,6.437,0.002,6.427,7.11C34.849,51.675,34.849,51.675,27.991,51.672z"/>
		<path fill-rule="evenodd" clip-rule="evenodd" fill="#1A8BCA" d="M27.984,56.21c6.815,0,6.815,0,6.809,6.692
			c-0.005,6.467-0.005,6.467-6.652,6.465c-6.866-0.003-6.866-0.003-6.86-6.848C21.284,56.21,21.284,56.21,27.984,56.21z"/>
		<path fill-rule="evenodd" clip-rule="evenodd" fill="#1A8BCA" d="M10.85,56.21c6.303,0.004,6.303,0.004,6.299,6.601
			c-0.004,6.558-0.004,6.558-6.542,6.557c-6.624-0.001-6.624-0.001-6.616-7.063C3.999,56.208,3.999,56.208,10.85,56.21z"/>
		<path fill-rule="evenodd" clip-rule="evenodd" fill="#1A8BCA" d="M17.149,45.078c0.001,6.434,0.001,6.434-6.436,6.436
			c-6.717,0.002-6.717,0.002-6.722-6.202c-0.003-6.814-0.003-6.814,6.75-6.812C17.147,38.501,17.147,38.501,17.149,45.078z"/>
	</g>
	<path fill-rule="evenodd" clip-rule="evenodd" fill="#686567" d="M155.938,54.237h5.13c5.887-0.456,7.217-2.156,7.109-8.545
		c-0.09-5.426-2.062-7.195-8.255-7.245c-5.977-0.047-11.956,0.09-17.93-0.057c-2.63-0.064-3.946,0.457-3.838,3.505
		c0.147,4.11-0.006,21.303-0.006,21.303h5.546v-8.962h4.1l12.244,8.962h8.146L155.938,54.237z M145.824,49.662
		c-2.021,0.029-2.489-1.03-2.452-2.812c0.039-1.81,0.104-3.344,2.562-3.242c2.315,0.095,4.639,0.02,6.958,0.02
		c2.32-0.003,4.641-0.003,6.961-0.003c1.875,0.001,3.187,0.548,3.273,2.781c0.082,2.114-0.897,3.118-2.888,3.147
		C155.435,49.624,150.63,49.589,145.824,49.662z"/>
	<rect x="173.35" y="38.356" fill-rule="evenodd" clip-rule="evenodd" fill="#686567" width="5.549" height="24.812"/>
	<polygon fill-rule="evenodd" clip-rule="evenodd" fill="#686567" points="245.221,38.356 215.154,38.356 215.154,43.905 
		227.412,43.905 227.412,63.167 232.962,63.167 232.962,43.905 245.221,43.905 	"/>
	<path fill-rule="evenodd" clip-rule="evenodd" fill="#686567" d="M99.494,43.648v-5.225l-21.348,0.09
		c-9.186,0.371-9.198,2.585-8.928,15.82c0.131,6.402,1.879,8.438,8.263,8.679c0.222,0.008,22.013-0.094,22.013-0.094v-5.225H78.146
		v-0.032c-4.025-0.053-3.103-1.11-3.344-9.86c-0.083-2.993,0.999-4.014,3.343-4.162v0.009H99.494z"/>
</g>
</svg>
