<?xml version="1.0" encoding="utf-8"?>
<!-- Generator: Adobe Illustrator 16.0.0, SVG Export Plug-In . SVG Version: 6.00 Build 0)  -->
<!DOCTYPE svg PUBLIC "-//W3C//DTD SVG 1.1//EN" "http://www.w3.org/Graphics/SVG/1.1/DTD/svg11.dtd">
<svg version="1.1" id="Ebene_1" xmlns="http://www.w3.org/2000/svg" xmlns:xlink="http://www.w3.org/1999/xlink" x="0px" y="0px"
	 width="283.46px" height="59.032px" viewBox="0 0 283.46 59.032" enable-background="new 0 0 283.46 59.032" xml:space="preserve">
<g>
	<path fill-rule="evenodd" clip-rule="evenodd" d="M200.89,40.813c-1.87,0-3.659,0-5.477,0c0-7.089,0-14.163,0-21.281
		c0.141-0.007,0.278-0.022,0.418-0.022c2.422-0.001,4.844,0.004,7.266-0.006c0.296-0.001,0.423,0.074,0.507,0.38
		c1.005,3.705,2.029,7.405,3.049,11.108c0.033,0.118,0.072,0.236,0.136,0.44c0.072-0.21,0.123-0.338,0.16-0.472
		c1.01-3.678,2.021-7.353,3.018-11.034c0.09-0.33,0.229-0.426,0.562-0.425c2.422,0.014,4.844,0.008,7.266,0.008
		c0.143,0,0.285,0,0.454,0c0,7.107,0,14.185,0,21.291c-1.856,0-3.719,0-5.611,0c0-4.399,0-8.792,0-13.186
		c-0.025-0.005-0.05-0.01-0.076-0.015c-0.106,0.388-0.22,0.773-0.321,1.162c-1.035,3.899-2.069,7.801-3.095,11.703
		c-0.07,0.268-0.17,0.376-0.468,0.371c-1.388-0.019-2.775-0.008-4.213-0.008c-1.169-4.396-2.336-8.793-3.505-13.189
		c-0.022,0.001-0.046,0.004-0.068,0.005C200.89,32.022,200.89,36.399,200.89,40.813z"/>
	<path fill-rule="evenodd" clip-rule="evenodd" d="M105.981,40.829c0-7.132,0-14.196,0-21.298c0.157-0.007,0.297-0.021,0.437-0.021
		c3.639-0.001,7.278-0.013,10.917,0.005c1.67,0.01,3.239,0.393,4.58,1.463c1.937,1.543,2.275,4.182,1.541,6.046
		c-0.325,0.824-0.935,1.407-1.691,1.845c-0.188,0.109-0.383,0.207-0.621,0.335c0.36,0.169,0.683,0.296,0.983,0.462
		c1.682,0.935,2.553,2.393,2.671,4.292c0.109,1.746-0.282,3.355-1.482,4.694c-1.072,1.196-2.471,1.777-4.02,2.01
		c-0.747,0.112-1.51,0.157-2.267,0.16c-3.521,0.018-7.041,0.008-10.563,0.008C106.312,40.829,106.158,40.829,105.981,40.829z
		 M112.1,31.803c0,1.381,0,2.725,0,4.079c0.074,0.016,0.136,0.04,0.198,0.041c1.453,0.001,2.906,0.012,4.358-0.007
		c0.619-0.007,1.191-0.199,1.616-0.681c0.575-0.654,0.651-1.42,0.359-2.203c-0.312-0.837-1.027-1.193-1.854-1.217
		C115.234,31.77,113.69,31.803,112.1,31.803z M112.081,27.776c1.438,0,2.826,0.038,4.21-0.013c0.869-0.032,1.422-0.5,1.595-1.163
		c0.274-1.05-0.272-2.007-1.345-2.173c-0.743-0.115-1.512-0.078-2.269-0.093c-0.716-0.012-1.433-0.002-2.168-0.002
		c-0.011,0.102-0.022,0.164-0.022,0.227C112.081,25.618,112.081,26.676,112.081,27.776z"/>
	<path fill-rule="evenodd" clip-rule="evenodd" d="M9.816,32.513c0,2.769,0,5.513,0,8.287c-2.079,0-4.126,0-6.204,0
		c0-7.069,0-14.145,0-21.255c2.042,0,4.087,0,6.181,0c0,2.563,0,5.135,0,7.736c2.199,0,4.352,0,6.557,0c0-2.566,0-5.139,0-7.741
		c2.099,0,4.147,0,6.223,0c0,7.073,0,14.151,0,21.258c-2.049,0-4.108,0-6.214,0c0-2.765,0-5.521,0-8.285
		C14.156,32.513,12.002,32.513,9.816,32.513z"/>
	<path fill-rule="evenodd" clip-rule="evenodd" d="M171.97,40.807c-1.802,0-3.563,0-5.362,0c0-0.681,0-1.343,0-2.036
		c-0.414,0.471-0.759,0.946-1.188,1.328c-1.398,1.241-3.062,1.438-4.82,1.084c-2.063-0.415-3.591-1.595-4.441-3.503
		c-1.33-2.984-1.365-6.029,0.075-8.984c1.544-3.173,4.799-4.055,7.523-3.337c0.891,0.233,1.591,0.771,2.181,1.462
		c0.107,0.125,0.211,0.251,0.392,0.466c0-2.647,0-5.178,0-7.741c1.899,0,3.758,0,5.641,0C171.97,26.634,171.97,33.708,171.97,40.807
		z M166.49,33.046c-0.022-0.857-0.182-1.791-0.724-2.619c-1.104-1.692-3.252-1.656-4.206,0.125c-0.875,1.635-0.833,3.35-0.067,5.023
		c0.398,0.875,1.099,1.438,2.101,1.477c1.007,0.04,1.706-0.497,2.215-1.312C166.3,34.952,166.461,34.068,166.49,33.046z"/>
	<path fill-rule="evenodd" clip-rule="evenodd" d="M248.199,27.145c0-2.522,0-5.046,0-7.603c1.883,0,3.743,0,5.624,0
		c0,7.096,0,14.169,0,21.265c-1.779,0-3.541,0-5.357,0c0-0.662,0-1.33,0-2.049c-0.384,0.448-0.682,0.882-1.06,1.227
		c-1.718,1.569-3.721,1.636-5.801,0.961c-1.737-0.562-2.976-1.762-3.67-3.43c-1.224-2.941-1.257-5.924,0.15-8.812
		c1.56-3.203,4.831-4.041,7.482-3.36c0.95,0.245,1.681,0.818,2.3,1.557c0.079,0.096,0.163,0.189,0.243,0.285
		C248.142,27.172,248.17,27.159,248.199,27.145z M242.813,33.018c0.011,1.083,0.165,2.071,0.756,2.938
		c0.972,1.425,2.783,1.482,3.854,0.133c0.62-0.779,0.863-1.696,0.913-2.663c0.062-1.205-0.165-2.35-0.946-3.317
		c-0.98-1.213-2.689-1.213-3.674-0.009C243.008,30.968,242.839,32.002,242.813,33.018z"/>
	<path fill-rule="evenodd" clip-rule="evenodd" d="M47.81,38.965c0,0.601,0,1.205,0,1.837c-1.81,0-3.582,0-5.375,0
		c0-7.082,0-14.154,0-21.261c1.864,0,3.714,0,5.616,0c0,2.521,0,5.05,0,7.667c0.134-0.119,0.204-0.168,0.257-0.23
		c1.286-1.505,2.968-1.985,4.865-1.816c2.355,0.208,4.001,1.492,4.938,3.604c1.383,3.12,1.344,6.291-0.115,9.37
		c-0.958,2.02-2.69,3.029-4.919,3.174c-1.495,0.098-2.901-0.164-4.092-1.131C48.558,39.832,48.211,39.385,47.81,38.965z
		 M53.423,33.156c-0.034-0.007-0.068-0.016-0.102-0.022c0.003-0.856-0.102-1.694-0.472-2.479c-0.751-1.596-2.67-1.925-3.902-0.662
		c-0.752,0.771-1.02,1.745-1.08,2.786c-0.063,1.106,0.102,2.168,0.749,3.101c0.563,0.812,1.34,1.225,2.347,1.13
		c1.016-0.097,1.664-0.697,1.968-1.614C53.169,34.671,53.264,33.903,53.423,33.156z"/>
	<path fill-rule="evenodd" clip-rule="evenodd" d="M141.604,25.63c0,5.073,0,10.109,0,15.172c-1.772,0-3.532,0-5.342,0
		c0-0.628,0-1.259,0-1.855c-0.448,0.412-0.864,0.84-1.326,1.212c-2.008,1.609-5.382,1.542-7.263-0.158
		c-1.045-0.944-1.481-2.197-1.609-3.561c-0.067-0.715-0.067-1.437-0.069-2.155c-0.008-2.723-0.003-5.444-0.003-8.167
		c0-0.153,0-0.308,0-0.485c1.894,0,3.744,0,5.649,0c0,0.161,0,0.312,0,0.464c0,2.631-0.003,5.262,0.003,7.893
		c0.002,0.312,0.024,0.631,0.088,0.935c0.157,0.761,0.558,1.333,1.36,1.502c0.923,0.192,1.749,0.008,2.358-0.768
		c0.48-0.61,0.544-1.345,0.545-2.084c0.005-2.486,0.002-4.974,0.002-7.46c0-0.152,0-0.306,0-0.483
		C137.885,25.63,139.724,25.63,141.604,25.63z"/>
	<path fill-rule="evenodd" clip-rule="evenodd" d="M268.812,30.607c-1.777,0-3.526,0-5.31,0c0.041-1.329,0.486-2.466,1.383-3.418
		c1.152-1.224,2.641-1.757,4.256-1.957c1.822-0.228,3.631-0.125,5.389,0.45c2.343,0.765,3.501,2.361,3.52,4.839
		c0.013,1.964,0.002,3.928,0.003,5.89c0,0.144-0.003,0.29,0.02,0.432c0.076,0.47,0.26,0.619,0.741,0.617c0.076,0,0.152,0,0.248,0
		c0,1.065,0,2.108,0,3.237c-0.493,0.109-1.005,0.3-1.524,0.321c-0.856,0.035-1.73,0.043-2.571-0.092
		c-1.198-0.193-1.609-0.606-2.163-1.793c-0.023,0.004-0.06-0.004-0.069,0.01c-1.287,1.627-3.054,2.109-5.021,2.069
		c-1.24-0.025-2.418-0.306-3.396-1.125c-1.22-1.023-1.576-2.391-1.466-3.913c0.146-2.009,1.315-3.213,3.171-3.727
		c1.164-0.322,2.386-0.425,3.577-0.653c0.665-0.126,1.337-0.258,1.976-0.473c0.719-0.241,0.904-0.61,0.832-1.354
		c-0.059-0.59-0.413-0.959-1.053-1.1C270.054,28.583,269.225,29.147,268.812,30.607z M272.604,34.068
		c-0.924,0.255-1.767,0.473-2.601,0.722c-0.371,0.111-0.753,0.238-1.083,0.436c-0.932,0.559-0.869,1.908,0.09,2.41
		c1.331,0.697,3.154-0.096,3.458-1.56C272.604,35.421,272.565,34.73,272.604,34.068z"/>
	<path fill-rule="evenodd" clip-rule="evenodd" d="M40.36,40.806c-1.771,0-3.532,0-5.339,0c0-0.632,0-1.265,0-1.916
		c-0.494,0.47-0.918,0.948-1.415,1.334c-2.152,1.672-5.787,1.395-7.497-0.559c-0.863-0.986-1.263-2.177-1.297-3.457
		c-0.058-2.132-0.037-4.266-0.045-6.398c-0.004-1.244,0-2.486,0-3.73c0-0.142,0-0.281,0-0.447c1.896,0,3.747,0,5.645,0
		c0,0.177,0,0.33,0,0.484c0,2.618-0.002,5.236,0.003,7.853c0,0.301,0.012,0.605,0.067,0.898c0.146,0.778,0.538,1.372,1.356,1.553
		c0.921,0.202,1.751,0.025,2.365-0.749c0.425-0.535,0.541-1.177,0.541-1.846c-0.001-2.564,0-5.13,0-7.696c0-0.155,0-0.31,0-0.494
		c1.888,0,3.738,0,5.617,0C40.36,30.694,40.36,35.739,40.36,40.806z"/>
	<path fill-rule="evenodd" clip-rule="evenodd" d="M189.558,37.483c0,1.003,0.007,1.983-0.011,2.963
		c-0.001,0.102-0.132,0.26-0.232,0.291c-1.446,0.443-2.907,0.505-4.362,0.071c-0.848-0.252-1.411-0.824-1.646-1.689
		c-0.04,0.008-0.074,0.004-0.086,0.019c-1.322,1.658-3.124,2.138-5.136,2.069c-1.312-0.044-2.533-0.382-3.514-1.321
		c-0.998-0.956-1.331-2.172-1.246-3.502c0.146-2.262,1.295-3.546,3.722-4.1c1.156-0.264,2.349-0.364,3.519-0.568
		c0.512-0.09,1.024-0.219,1.513-0.395c0.64-0.231,0.894-0.647,0.835-1.218c-0.071-0.697-0.404-1.083-1.062-1.23
		c-1.257-0.281-2.147,0.26-2.489,1.515c-0.021,0.073-0.048,0.146-0.074,0.227c-1.763,0-3.513,0-5.371,0
		c0.116-0.547,0.177-1.076,0.343-1.57c0.559-1.668,1.743-2.76,3.37-3.314c2.725-0.93,5.462-0.853,8.118,0.262
		c1.767,0.741,2.694,2.167,2.746,4.08c0.052,1.897,0.016,3.795,0.02,5.693c0,0.223-0.006,0.445,0.001,0.668
		C188.543,37.284,188.683,37.43,189.558,37.483z M183.103,34.054c-1.059,0.3-2.061,0.574-3.055,0.873
		c-0.259,0.078-0.515,0.2-0.737,0.354c-0.81,0.56-0.748,1.812,0.101,2.311c1.401,0.824,3.388-0.122,3.591-1.731
		C183.078,35.267,183.07,34.663,183.103,34.054z"/>
	<path fill-rule="evenodd" clip-rule="evenodd" d="M236.391,34.61c-3.699,0-7.28,0-10.861,0c-0.01,1.597,1.487,2.936,3.072,2.805
		c0.771-0.064,1.418-0.332,1.866-0.994c0.048-0.07,0.164-0.136,0.249-0.137c1.752-0.007,3.505-0.006,5.295-0.006
		c-0.223,0.966-0.719,1.74-1.362,2.42c-1.532,1.619-3.438,2.414-5.652,2.525c-1.741,0.086-3.427-0.128-4.981-0.965
		c-2.389-1.288-3.688-3.325-4.017-5.999c-0.206-1.688,0.015-3.32,0.785-4.843c1.354-2.672,3.601-4.045,6.537-4.28
		c2.375-0.189,4.55,0.371,6.346,2.033c1.382,1.277,2.104,2.91,2.425,4.729C236.245,32.769,236.29,33.657,236.391,34.61z
		 M230.657,31.581c-0.12-1.655-1.311-2.812-2.733-2.679c-1.324,0.125-2.53,1.48-2.378,2.679
		C227.248,31.581,228.952,31.581,230.657,31.581z"/>
	<path fill-rule="evenodd" clip-rule="evenodd" d="M76.259,34.612c-3.698,0-7.267,0-10.836,0c-0.035,1.578,1.469,2.93,3.064,2.803
		c0.771-0.062,1.416-0.33,1.867-0.991c0.053-0.077,0.189-0.139,0.288-0.14c1.702-0.007,3.403-0.004,5.104-0.001
		c0.035,0,0.071,0.019,0.132,0.035c-0.12,0.636-0.407,1.189-0.783,1.694c-1.321,1.781-3.104,2.813-5.29,3.118
		c-1.76,0.244-3.506,0.159-5.169-0.536c-2.745-1.147-4.32-3.229-4.719-6.159c-0.354-2.607,0.24-4.975,2.083-6.927
		c1.485-1.571,3.366-2.297,5.502-2.391c2.333-0.102,4.432,0.498,6.151,2.146c1.358,1.301,2.05,2.948,2.352,4.768
		C76.142,32.863,76.174,33.711,76.259,34.612z M65.403,31.571c1.73,0,3.435,0,5.14,0c-0.122-1.594-1.188-2.692-2.562-2.671
		C66.602,28.921,65.485,30.07,65.403,31.571z"/>
	<path fill-rule="evenodd" clip-rule="evenodd" d="M99.785,29.036c-0.955,0-1.881,0-2.864,0c0,0.151,0,0.277,0,0.403
		c0,1.911-0.002,3.821,0,5.732c0,0.915,0.343,1.337,1.249,1.436c0.502,0.055,1.016,0.011,1.578,0.011c0,0.145,0,0.285,0,0.424
		c0,1.087-0.021,2.174,0.012,3.26c0.011,0.386-0.119,0.511-0.476,0.582c-1.6,0.316-3.198,0.349-4.791,0.011
		c-1.947-0.414-3.026-1.701-3.067-3.761c-0.049-2.525-0.018-5.054-0.021-7.579c0-0.154,0-0.309,0-0.505c-0.654,0-1.275,0-1.93,0
		c0-1.157,0-2.272,0-3.428c0.621,0,1.243,0,1.918,0c0-1.652,0-3.267,0-4.907c1.861,0,3.672,0,5.521,0c0,1.622,0,3.228,0,4.874
		c0.972,0,1.906,0,2.872,0C99.785,26.748,99.785,27.864,99.785,29.036z"/>
	<path fill-rule="evenodd" clip-rule="evenodd" d="M82.959,25.63c0,0.749,0,1.476,0,2.201c0.027,0.011,0.055,0.021,0.081,0.031
		c0.09-0.114,0.184-0.224,0.266-0.342c1.091-1.566,2.601-2.289,4.495-2.241c0.065,0.003,0.131,0.004,0.196,0.01
		c0.597,0.053,0.597,0.053,0.597,0.652c0,1.412,0,2.823,0,4.286c-0.426-0.033-0.821-0.081-1.219-0.092
		c-1.592-0.04-2.917,0.435-3.658,1.971c-0.347,0.719-0.472,1.493-0.474,2.285c-0.005,1.99-0.002,3.979-0.002,5.97
		c0,0.14,0,0.281,0,0.445c-1.886,0-3.739,0-5.621,0c0-5.051,0-10.106,0-15.177C79.396,25.63,81.154,25.63,82.959,25.63z"/>
	<path fill-rule="evenodd" clip-rule="evenodd" d="M149.304,40.819c-1.902,0-3.746,0-5.62,0c0-5.062,0-10.117,0-15.188
		c1.773,0,3.533,0,5.339,0c0,0.749,0,1.476,0,2.201c0.026,0.01,0.054,0.02,0.081,0.028c0.184-0.237,0.364-0.479,0.552-0.712
		c1.133-1.415,2.638-1.952,4.404-1.855c0.597,0.033,0.596,0.05,0.597,0.65c0,1.411,0,2.824,0,4.286
		c-0.387-0.031-0.744-0.089-1.101-0.081c-0.494,0.01-1.002,0.011-1.479,0.119c-1.511,0.34-2.479,1.493-2.688,3.146
		c-0.053,0.413-0.079,0.834-0.08,1.251c-0.008,1.898-0.004,3.797-0.004,5.694C149.304,40.5,149.304,40.642,149.304,40.819z"/>
	<path fill-rule="evenodd" clip-rule="evenodd" d="M261.474,25.633c0,5.067,0,10.103,0,15.167c-1.869,0-3.73,0-5.613,0
		c0-5.055,0-10.099,0-15.167C257.729,25.633,259.58,25.633,261.474,25.633z"/>
	<path fill-rule="evenodd" clip-rule="evenodd" d="M261.472,19.538c0,1.42,0,2.804,0,4.216c-1.866,0-3.728,0-5.611,0
		c0-1.401,0-2.795,0-4.216C257.731,19.538,259.582,19.538,261.472,19.538z"/>
</g>
</svg>
