<?xml version="1.0" encoding="utf-8"?>
<!-- Generator: Adobe Illustrator 16.0.0, SVG Export Plug-In . SVG Version: 6.00 Build 0)  -->
<!DOCTYPE svg PUBLIC "-//W3C//DTD SVG 1.1//EN" "http://www.w3.org/Graphics/SVG/1.1/DTD/svg11.dtd">
<svg version="1.1" id="Ebene_1" xmlns="http://www.w3.org/2000/svg" xmlns:xlink="http://www.w3.org/1999/xlink" x="0px" y="0px"
	 width="283.46px" height="110.323px" viewBox="0 0 283.46 110.323" enable-background="new 0 0 283.46 110.323"
	 xml:space="preserve">
<g>
	<g>
		<g>
			<path fill-rule="evenodd" clip-rule="evenodd" fill="#D11320" d="M9.594,82.145c1.315-2.188,3.216-3.889,4.886-5.773
				c11.505-12.99,23.057-25.94,34.591-38.905c0.181-0.204,0.333-0.435,0.498-0.653c3.572,0,7.143,0,10.715,0
				c-1.427,2.277-3.407,4.09-5.167,6.08C43.664,55.837,32.167,68.743,20.688,81.661c-0.136,0.152-0.253,0.322-0.379,0.484
				C16.737,82.145,13.166,82.145,9.594,82.145z"/>
			<path fill-rule="evenodd" clip-rule="evenodd" fill="#FDCC09" d="M3,68.958c1.363-0.826,2.253-2.131,3.289-3.283
				c6.499-7.233,12.988-14.477,19.473-21.723c0.274-0.306,0.484-0.67,0.57-0.792c3.796,0,7.252,0,11.08,0
				c-7.973,8.892-15.725,17.537-23.502,26.21c-3.657,0-7.283,0-10.91,0C3,69.233,3,69.096,3,68.958z"/>
			<path fill-rule="evenodd" clip-rule="evenodd" fill="#D11320" d="M280.35,47.528c-3.345,0-6.69,0-10.169,0
				c0-3.494,0-6.808,0-10.303c3.381,0,6.775,0,10.169,0C280.35,40.66,280.35,44.094,280.35,47.528z M273.043,40.647
				c0.882-0.312,1.873-1.105,2.643,0.223c-0.069,1.167-0.998,1.697-1.724,2.401c-0.718,0.696-1.997,0.877-2.218,2.308
				c2.296,0,4.438,0,6.527,0c0.31-0.56,0.354-0.998-0.076-1.481c-0.707-0.281-1.577,0.117-2.424-0.325
				c0.97-1.229,2.774-2.072,1.96-4.096c-1.823-1.559-3.243-1.602-5.573-0.128C272.263,39.93,272.456,40.26,273.043,40.647z"/>
			<path fill-rule="evenodd" clip-rule="evenodd" fill="#262326" d="M253.815,50.51c-0.3,2.289-0.599,4.578-0.901,6.89
				c-1.053,0.51-2.06,0.11-3.308,0.338c0.685-4.98,1.333-9.694,1.983-14.43c1.221-0.232,2.307-0.136,3.54-0.1
				c1.053,3.288,2.105,6.576,3.158,9.863c0.124,0.013,0.248,0.025,0.372,0.038c1.084-3.263,2.168-6.525,3.253-9.79
				c1.141-0.309,2.229-0.065,3.548-0.196c0.665,4.813,1.318,9.532,1.982,14.332c-1.237,0.346-2.366,0.217-3.664,0.099
				c-0.32-2.423-0.637-4.814-0.953-7.205c-0.135-0.008-0.27-0.016-0.404-0.023c-0.786,2.42-1.572,4.841-2.362,7.274
				c-1.212,0-2.301,0-3.531,0c-0.768-2.382-1.539-4.776-2.31-7.169C254.084,50.458,253.949,50.484,253.815,50.51z"/>
			<path fill-rule="evenodd" clip-rule="evenodd" fill="#262326" d="M149.146,43.313c1.264-0.228,2.285-0.158,3.551-0.072
				c1.053,3.286,2.127,6.64,3.343,10.438c1.235-3.724,2.333-7.032,3.443-10.379c1.169-0.213,2.245-0.16,3.561-0.037
				c0.651,4.711,1.305,9.431,1.966,14.208c-1.281,0.31-2.422,0.203-3.686,0.093c-0.327-2.61-0.649-5.181-1.035-8.262
				c-0.949,2.983-1.758,5.524-2.579,8.108c-1.137,0.476-2.29,0.174-3.521,0.214c-1.117-2.427-1.525-5.077-2.692-7.921
				c-0.39,2.879-0.721,5.33-1.054,7.785c-1.097,0.304-2.095,0.129-3.272,0.148C147.842,52.759,148.486,48.093,149.146,43.313z"/>
			<path fill-rule="evenodd" clip-rule="evenodd" fill="#262326" d="M198.941,43.24c1.227,0,2.311,0,3.618,0
				c1.873,2.678,3.821,5.461,5.982,8.551c0-2.996,0-5.665,0-8.353c1.135-0.425,2.121-0.263,3.226-0.184c0,4.781,0,9.47,0,14.233
				c-1.02,0.307-2.032,0.147-3.219,0.124c-1.983-2.798-4.009-5.655-6.034-8.513c-0.117,0.051-0.234,0.102-0.352,0.153
				c0,2.705,0,5.409,0,8.144c-1.104,0.423-2.097,0.247-3.222,0.189C198.941,52.818,198.941,48.128,198.941,43.24z"/>
			<path fill-rule="evenodd" clip-rule="evenodd" fill="#EB6D11" d="M43.856,63.698c3.633,0,7.06,0,10.914,0
				c-3.546,4.393-7.273,8.225-10.673,12.229c-3.585,0-7.01,0-10.917,0C36.875,71.692,40.346,67.717,43.856,63.698z"/>
			<path fill-rule="evenodd" clip-rule="evenodd" fill="#262326" d="M185.773,49.245c0,2.722,0,5.444,0,8.22
				c-1.071,0.337-2.001,0.137-3.05,0.188c0-4.849,0-9.547,0-14.313c1.132-0.323,2.28-0.153,3.504-0.105
				c1.866,2.65,3.738,5.308,5.61,7.966c0.112-0.036,0.224-0.072,0.336-0.109c0-2.558,0-5.115,0-7.694
				c1.157-0.352,2.151-0.244,3.254-0.13c0,4.779,0,9.477,0,14.228c-1.045,0.306-2.063,0.127-3.165,0.134
				c-2.029-2.838-4.07-5.693-6.111-8.548C186.025,49.135,185.899,49.189,185.773,49.245z"/>
			<path fill-rule="evenodd" clip-rule="evenodd" fill="#262326" d="M218.925,43.255c0,1.888,0,3.524,0,5.333
				c1.848,0.129,3.587,0.12,5.414-0.003c0.647-1.728-0.006-3.545,0.408-5.311c1.128-0.165,2.195-0.148,3.384-0.008
				c0,4.762,0,9.457,0,14.276c-1.104,0.202-2.178,0.127-3.339,0.056c-0.41-1.909,0.007-3.834-0.261-5.793
				c-1.821-0.313-3.638-0.047-5.643-0.182c0,2.068,0,3.952,0,5.883c-1.253,0.248-2.326,0.145-3.531,0.117c0-4.787,0-9.485,0-14.281
				C216.427,43.004,217.552,43.174,218.925,43.255z"/>
			<path fill-rule="evenodd" clip-rule="evenodd" fill="#262326" d="M171.462,43.252c1.207,0,2.285,0,3.56,0
				c1.853,4.701,3.717,9.435,5.634,14.3c-1.418,0.166-2.624,0.149-3.78,0.015c-0.587-0.637-0.594-1.45-1.059-2.166
				c-1.708-0.201-3.472-0.071-5.28-0.081c-0.301,0.763-0.57,1.449-0.855,2.172c-1.141,0.255-2.27,0.239-3.648,0.006
				C167.871,52.674,169.661,47.979,171.462,43.252z M173.297,47.95c-0.117,0.019-0.234,0.037-0.352,0.056
				c-0.447,1.414-0.895,2.828-1.37,4.33c1.147,0.06,2.133,0.136,3.213-0.061C174.258,50.738,173.777,49.344,173.297,47.95z"/>
			<path fill-rule="evenodd" clip-rule="evenodd" fill="#262326" d="M231.589,57.5c0-4.758,0-9.447,0-14.234
				c2.887,0,5.667,0,8.576,0c0.268,0.872,0.162,1.732,0.083,2.652c-1.609,0.475-3.279-0.027-5.002,0.35
				c-0.187,0.806-0.165,1.578-0.029,2.387c1.403,0.358,2.787,0.014,4.219,0.243c0.424,0.818,0.138,1.677,0.194,2.713
				c-1.56,0-2.973,0-4.36,0c-0.223,1.058-0.197,1.931-0.043,2.867c1.639,0.54,3.383-0.021,5.092,0.357c0,0.886,0,1.696,0,2.665
				C237.479,57.5,234.645,57.5,231.589,57.5z"/>
			<path fill-rule="evenodd" clip-rule="evenodd" fill="#D11320" d="M72.185,43.37c0.646-0.25,1.108-0.264,1.804,0.037
				c0.632,4.605,1.281,9.334,1.924,14.015c-0.543,0.539-1.08,0.325-1.802,0.218c-0.456-3.321-0.918-6.689-1.38-10.057
				c-0.128-0.025-0.257-0.05-0.386-0.076c-1.229,3.344-2.458,6.689-3.666,9.976c-0.562,0.418-1.093,0.301-1.804,0.157
				c-1.26-3.343-2.548-6.764-3.837-10.185c-0.127,0.02-0.254,0.04-0.382,0.06c-0.42,3.316-0.84,6.631-1.259,9.936
				c-0.487,0.452-0.994,0.377-1.706,0.104c0.638-4.703,1.28-9.431,1.907-14.052c0.619-0.496,1.146-0.307,1.775-0.214
				c1.435,3.898,2.866,7.788,4.432,12.042C69.359,51.087,70.761,47.259,72.185,43.37z"/>
			<path fill-rule="evenodd" clip-rule="evenodd" fill="#D11320" d="M119.117,53.749c0-3.414,0-6.827,0-10.096
				c0.471-0.633,0.937-0.491,1.541-0.328c0,4.726,0,9.483,0,14.223c-0.476,0.329-0.944,0.222-1.572,0.105
				c-2.549-3.667-5.162-7.426-8.024-11.542c0,4.049,0,7.73,0,11.223c-0.621,0.576-1.067,0.461-1.628,0.271c0-4.685,0-9.399,0-14.187
				c0.474-0.435,1.071-0.249,1.758-0.112c2.466,3.52,4.965,7.087,7.463,10.654C118.809,53.89,118.963,53.82,119.117,53.749z"/>
			<path fill-rule="evenodd" clip-rule="evenodd" fill="#D11320" d="M82.887,43.358c0.72-0.244,1.247-0.268,1.937,0.099
				c1.755,4.563,3.562,9.258,5.38,13.986c-0.594,0.533-1.19,0.216-1.807,0.316c-0.49-1.213-0.947-2.344-1.436-3.555
				c-2.076,0-4.182,0-6.399,0c-0.439,1.1-0.889,2.227-1.333,3.339c-0.537,0.324-1.044,0.304-1.748-0.053
				C79.296,52.748,81.112,48,82.887,43.358z M83.98,45.997c-0.129-0.014-0.258-0.028-0.388-0.042
				c-0.782,2.118-1.564,4.236-2.391,6.475c1.794,0.142,3.385,0.214,5.115-0.049C85.509,50.174,84.744,48.086,83.98,45.997z"/>
			<path fill-rule="evenodd" clip-rule="evenodd" fill="#D11320" d="M136.094,57.578c-0.631,0.271-1.096,0.166-1.954,0.104
				c1.574-2.615,3.03-5.033,4.519-7.507c-1.368-2.218-2.729-4.425-4.155-6.739c0.587-0.452,1.193-0.168,1.864-0.271
				c1.111,1.727,2.211,3.439,3.428,5.331c1.312-1.619,2.066-3.433,3.157-5.022c0.545-0.459,1.125-0.323,1.964-0.125
				c-1.396,2.33-2.716,4.536-4.084,6.82c1.507,2.46,2.995,4.886,4.474,7.301c-0.674,0.46-1.219,0.225-1.87,0.288
				c-1.231-1.939-2.47-3.889-3.81-5.999C138.382,53.807,137.249,55.674,136.094,57.578z"/>
			<path fill-rule="evenodd" clip-rule="evenodd" fill="#D11320" d="M132.17,44.749c-1.829,0-3.597,0-5.38,0
				c-0.277,1.482-0.112,2.842-0.156,4.401c1.603,0,3.14,0,4.392,0c0.709,0.511,0.463,0.939,0.554,1.397
				c-1.58,0.473-3.161,0.015-4.785,0.312c-0.388,1.646-0.019,3.346-0.204,5.122c1.94,0.443,3.854,0.018,5.7,0.269
				c0.341,0.489,0.244,0.932-0.022,1.434c-2.417,0-4.854,0-7.407,0c0-4.787,0-9.493,0-14.356c2.334,0,4.699,0,7.261,0
				C132.493,43.528,132.361,43.995,132.17,44.749z"/>
			<path fill-rule="evenodd" clip-rule="evenodd" fill="#262326" d="M243.468,43.259c1.176-0.137,2.246-0.134,3.413-0.006
				c0,4.791,0,9.493,0,14.274c-1.112,0.222-2.186,0.144-3.413,0.059C243.468,52.843,243.468,48.148,243.468,43.259z"/>
			<path fill-rule="evenodd" clip-rule="evenodd" fill="#D11320" d="M94.526,57.697c-0.79,0.051-1.268,0.175-1.819-0.154
				c0-4.646,0-9.354,0-14.217c2.418,0,4.851,0,7.438,0c0.321,0.239,0.274,0.694,0.068,1.38c-1.815,0-3.691,0-5.575,0
				c-0.252,1.555-0.12,2.91-0.14,4.426c1.625,0,3.168,0,4.554,0c0.564,0.552,0.552,0.987,0.217,1.599c-1.464,0-3.011,0-4.744,0
				C94.526,53.104,94.526,55.332,94.526,57.697z"/>
			<path fill-rule="evenodd" clip-rule="evenodd" fill="#D11320" d="M103.401,57.532c0-4.706,0-9.412,0-14.093
				c0.567-0.375,1.078-0.325,1.7-0.089c0,4.692,0,9.398,0,14.171C104.6,57.917,104.047,57.835,103.401,57.532z"/>
		</g>
	</g>
	<g>
		<path fill="#656467" d="M135.779,67.174l1.801,4.803l1.809-4.803h1.041v5.717h-0.72v-4.756h-0.016l-1.785,4.756h-0.648
			l-1.785-4.756h-0.016v4.756h-0.721v-5.717H135.779z"/>
		<path fill="#656467" d="M144.087,67.174l2.233,5.717h-0.841l-0.624-1.721h-2.417l-0.641,1.721h-0.776l2.226-5.717H144.087z
			 M144.615,70.53l-0.952-2.666h-0.017l-0.968,2.666H144.615z"/>
		<path fill="#656467" d="M150.635,67.174v0.641h-2.993v1.818h2.625v0.639h-2.625v2.619h-0.761v-5.717H150.635z"/>
		<path fill="#656467" d="M152.268,67.174v5.717h-0.761v-5.717H152.268z"/>
		<path fill="#656467" d="M154.349,67.174l3.01,4.635h0.016v-4.635h0.721v5.717h-0.833l-2.985-4.588h-0.017v4.588h-0.72v-5.717
			H154.349z"/>
		<path fill="#656467" d="M163.272,67.174v0.641h-3.186v1.818h2.97v0.639h-2.97v1.979h3.21v0.641h-3.97v-5.717H163.272z"/>
		<path fill="#656467" d="M163.697,67.174h0.912l1.425,2.234l1.489-2.234h0.849l-1.89,2.779l2.009,2.938h-0.928l-1.537-2.361
			l-1.585,2.361h-0.849l1.985-2.938L163.697,67.174z"/>
		<path fill="#656467" d="M171.197,70.344v0.641h-2.313v-0.641H171.197z"/>
		<path fill="#656467" d="M171.613,67.815v-0.641h4.57v0.641h-1.905v5.076h-0.761v-5.076H171.613z"/>
		<path fill="#656467" d="M180.762,67.174v0.641h-3.186v1.818h2.97v0.639h-2.97v1.979h3.21v0.641h-3.971v-5.717H180.762z"/>
		<path fill="#656467" d="M185.16,67.983c-0.291-0.201-0.637-0.303-1.036-0.303c-0.342,0-0.634,0.064-0.877,0.191
			c-0.243,0.129-0.443,0.301-0.601,0.516c-0.157,0.217-0.273,0.463-0.348,0.74c-0.075,0.279-0.112,0.566-0.112,0.865
			c0,0.326,0.037,0.635,0.112,0.924c0.074,0.291,0.19,0.545,0.348,0.762c0.157,0.215,0.359,0.387,0.604,0.516
			c0.246,0.129,0.539,0.191,0.881,0.191c0.251,0,0.474-0.041,0.668-0.123s0.363-0.197,0.504-0.344
			c0.142-0.146,0.253-0.322,0.333-0.525s0.128-0.42,0.144-0.656h0.761c-0.075,0.721-0.323,1.281-0.745,1.682
			c-0.421,0.4-0.997,0.6-1.729,0.6c-0.442,0-0.829-0.076-1.16-0.229c-0.331-0.15-0.605-0.361-0.825-0.627
			c-0.219-0.268-0.382-0.582-0.492-0.945c-0.109-0.363-0.164-0.752-0.164-1.168s0.059-0.807,0.177-1.174
			c0.117-0.365,0.289-0.684,0.517-0.955c0.227-0.273,0.509-0.488,0.848-0.645c0.339-0.158,0.728-0.236,1.165-0.236
			c0.299,0,0.581,0.039,0.849,0.119c0.267,0.08,0.504,0.197,0.712,0.354c0.208,0.154,0.382,0.348,0.521,0.58s0.229,0.5,0.272,0.805
			h-0.761C185.639,68.491,185.451,68.186,185.16,67.983z"/>
		<path fill="#656467" d="M188.245,67.174v2.459h3.01v-2.459h0.761v5.717h-0.761v-2.619h-3.01v2.619h-0.76v-5.717H188.245z"/>
		<path fill="#656467" d="M194.064,67.174l3.01,4.635h0.016v-4.635h0.721v5.717h-0.832l-2.986-4.588h-0.016v4.588h-0.721v-5.717
			H194.064z"/>
		<path fill="#656467" d="M198.895,68.909c0.115-0.361,0.287-0.68,0.517-0.957s0.516-0.498,0.856-0.664
			c0.342-0.166,0.739-0.248,1.192-0.248c0.454,0,0.852,0.082,1.193,0.248c0.341,0.166,0.627,0.387,0.856,0.664
			c0.229,0.277,0.401,0.596,0.516,0.957c0.115,0.359,0.173,0.734,0.173,1.125c0,0.389-0.058,0.764-0.173,1.123
			c-0.114,0.361-0.287,0.68-0.516,0.957c-0.229,0.277-0.516,0.498-0.856,0.66c-0.342,0.164-0.739,0.244-1.193,0.244
			c-0.453,0-0.851-0.08-1.192-0.244c-0.341-0.162-0.627-0.383-0.856-0.66s-0.401-0.596-0.517-0.957
			c-0.114-0.359-0.172-0.734-0.172-1.123C198.723,69.643,198.78,69.268,198.895,68.909z M199.596,70.885
			c0.074,0.279,0.191,0.531,0.352,0.756s0.366,0.404,0.616,0.541c0.251,0.137,0.55,0.203,0.896,0.203s0.646-0.066,0.896-0.203
			c0.251-0.137,0.457-0.316,0.617-0.541c0.159-0.225,0.277-0.477,0.352-0.756s0.112-0.564,0.112-0.852
			c0-0.289-0.038-0.572-0.112-0.854c-0.074-0.279-0.192-0.531-0.352-0.756c-0.16-0.225-0.366-0.404-0.617-0.541
			c-0.25-0.135-0.55-0.203-0.896-0.203s-0.646,0.068-0.896,0.203c-0.25,0.137-0.456,0.316-0.616,0.541s-0.277,0.477-0.352,0.756
			c-0.075,0.281-0.112,0.564-0.112,0.854C199.483,70.321,199.521,70.606,199.596,70.885z"/>
		<path fill="#656467" d="M205.887,67.174v5.076h3.025v0.641h-3.786v-5.717H205.887z"/>
		<path fill="#656467" d="M209.428,68.909c0.115-0.361,0.287-0.68,0.517-0.957s0.516-0.498,0.856-0.664
			c0.342-0.166,0.739-0.248,1.193-0.248c0.453,0,0.851,0.082,1.192,0.248c0.341,0.166,0.627,0.387,0.856,0.664
			s0.401,0.596,0.516,0.957c0.115,0.359,0.173,0.734,0.173,1.125c0,0.389-0.058,0.764-0.173,1.123
			c-0.114,0.361-0.286,0.68-0.516,0.957s-0.516,0.498-0.856,0.66c-0.342,0.164-0.739,0.244-1.192,0.244
			c-0.454,0-0.852-0.08-1.193-0.244c-0.341-0.162-0.627-0.383-0.856-0.66s-0.401-0.596-0.517-0.957
			c-0.114-0.359-0.172-0.734-0.172-1.123C209.256,69.643,209.313,69.268,209.428,68.909z M210.129,70.885
			c0.074,0.279,0.192,0.531,0.353,0.756s0.365,0.404,0.615,0.541c0.251,0.137,0.55,0.203,0.897,0.203
			c0.346,0,0.646-0.066,0.896-0.203c0.251-0.137,0.457-0.316,0.617-0.541c0.159-0.225,0.277-0.477,0.352-0.756
			c0.075-0.279,0.112-0.564,0.112-0.852c0-0.289-0.037-0.572-0.112-0.854c-0.074-0.279-0.192-0.531-0.352-0.756
			c-0.16-0.225-0.366-0.404-0.617-0.541c-0.25-0.135-0.55-0.203-0.896-0.203c-0.348,0-0.646,0.068-0.897,0.203
			c-0.25,0.137-0.455,0.316-0.615,0.541s-0.278,0.477-0.353,0.756c-0.075,0.281-0.112,0.564-0.112,0.854
			C210.017,70.321,210.054,70.606,210.129,70.885z"/>
		<path fill="#656467" d="M219.101,72.823c-0.33,0.131-0.664,0.195-1,0.195c-0.427,0-0.809-0.078-1.145-0.236
			c-0.336-0.156-0.622-0.369-0.856-0.637c-0.234-0.266-0.413-0.572-0.536-0.92c-0.123-0.346-0.185-0.707-0.185-1.08
			c0-0.416,0.058-0.812,0.173-1.189c0.114-0.375,0.285-0.705,0.512-0.988s0.51-0.508,0.849-0.676s0.735-0.252,1.188-0.252
			c0.31,0,0.602,0.035,0.877,0.107c0.274,0.072,0.52,0.186,0.736,0.34c0.216,0.156,0.397,0.352,0.544,0.59
			c0.146,0.236,0.247,0.523,0.3,0.859h-0.76c-0.037-0.219-0.107-0.406-0.208-0.564c-0.102-0.156-0.228-0.287-0.377-0.389
			c-0.148-0.1-0.318-0.176-0.508-0.227s-0.391-0.076-0.604-0.076c-0.347,0-0.645,0.068-0.893,0.207s-0.451,0.322-0.608,0.549
			s-0.273,0.486-0.348,0.775c-0.075,0.291-0.112,0.59-0.112,0.895c0,0.297,0.043,0.584,0.128,0.859
			c0.086,0.275,0.211,0.518,0.377,0.729c0.165,0.211,0.369,0.379,0.611,0.504c0.243,0.125,0.524,0.188,0.845,0.188
			c0.299,0,0.563-0.047,0.792-0.143c0.229-0.098,0.424-0.229,0.581-0.396s0.275-0.365,0.355-0.592
			c0.08-0.229,0.115-0.473,0.104-0.732h-1.825v-0.641h2.506v3.01h-0.48l-0.2-0.713C219.71,72.477,219.432,72.692,219.101,72.823z"/>
		<path fill="#656467" d="M222.527,67.174v5.717h-0.761v-5.717H222.527z"/>
		<path fill="#656467" d="M227.754,67.174v0.641h-3.186v1.818h2.97v0.639h-2.97v1.979h3.21v0.641h-3.971v-5.717H227.754z"/>
		<path fill="#656467" d="M231.804,67.815h-3.281v-0.641h4.178v0.641l-3.546,4.436h3.642v0.641h-4.546V72.25L231.804,67.815z"/>
		<path fill="#656467" d="M237.534,67.174v0.641h-3.186v1.818h2.97v0.639h-2.97v1.979h3.21v0.641h-3.97v-5.717H237.534z"/>
		<path fill="#656467" d="M239.279,67.174l3.01,4.635h0.016v-4.635h0.721v5.717h-0.832l-2.986-4.588h-0.016v4.588h-0.721v-5.717
			H239.279z"/>
		<path fill="#656467" d="M243.649,67.815v-0.641h4.57v0.641h-1.904v5.076h-0.761v-5.076H243.649z"/>
		<path fill="#656467" d="M251.542,67.174c0.544,0,0.97,0.135,1.276,0.4c0.307,0.268,0.46,0.633,0.46,1.098
			c0,0.348-0.078,0.65-0.235,0.912c-0.158,0.262-0.41,0.439-0.757,0.537v0.016c0.165,0.031,0.3,0.086,0.404,0.16
			c0.104,0.074,0.187,0.164,0.248,0.268s0.106,0.221,0.137,0.348c0.028,0.129,0.052,0.262,0.067,0.4
			c0.011,0.139,0.019,0.281,0.023,0.424c0.006,0.145,0.02,0.287,0.041,0.426s0.052,0.27,0.092,0.396
			c0.04,0.125,0.1,0.234,0.18,0.332h-0.848c-0.054-0.059-0.09-0.139-0.108-0.24s-0.031-0.215-0.036-0.342
			c-0.006-0.125-0.011-0.26-0.016-0.402c-0.006-0.145-0.021-0.285-0.048-0.426c-0.021-0.139-0.049-0.27-0.081-0.396
			c-0.031-0.125-0.082-0.234-0.151-0.326c-0.07-0.094-0.16-0.17-0.272-0.225c-0.112-0.057-0.262-0.084-0.448-0.084h-1.856v2.441
			h-0.761v-5.717H251.542z M251.702,69.768c0.159-0.025,0.3-0.078,0.42-0.156c0.12-0.076,0.216-0.18,0.288-0.311
			s0.108-0.301,0.108-0.51c0-0.287-0.08-0.521-0.24-0.703s-0.419-0.273-0.776-0.273h-1.889v1.994h1.584
			C251.374,69.809,251.542,69.795,251.702,69.768z"/>
		<path fill="#656467" d="M258.313,72.469c-0.39,0.367-0.944,0.549-1.665,0.549c-0.736,0-1.312-0.174-1.725-0.523
			c-0.414-0.35-0.62-0.906-0.62-1.67v-3.65h0.76v3.65c0,0.514,0.136,0.9,0.408,1.166c0.272,0.264,0.664,0.395,1.177,0.395
			c0.485,0,0.855-0.131,1.108-0.395c0.254-0.266,0.38-0.652,0.38-1.166v-3.65h0.761v3.65
			C258.897,71.557,258.703,72.104,258.313,72.469z"/>
		<path fill="#656467" d="M261.171,67.174l1.801,4.803l1.809-4.803h1.041v5.717h-0.721v-4.756h-0.016l-1.785,4.756h-0.648
			l-1.785-4.756h-0.016v4.756h-0.721v-5.717H261.171z"/>
	</g>
</g>
</svg>
