<?xml version="1.0" encoding="utf-8"?>
<!-- Generator: Adobe Illustrator 16.0.0, SVG Export Plug-In . SVG Version: 6.00 Build 0)  -->
<!DOCTYPE svg PUBLIC "-//W3C//DTD SVG 1.1//EN" "http://www.w3.org/Graphics/SVG/1.1/DTD/svg11.dtd">
<svg version="1.1" id="Ebene_1" xmlns="http://www.w3.org/2000/svg" xmlns:xlink="http://www.w3.org/1999/xlink" x="0px" y="0px"
	 width="283.46px" height="226.77px" viewBox="0 0 283.46 226.77" enable-background="new 0 0 283.46 226.77" xml:space="preserve">
<g>
	<polygon fill-rule="evenodd" clip-rule="evenodd" points="220.447,10.258 162.024,10.258 141.818,97.641 121.612,10.258 
		63.189,10.258 54.073,158.595 54.073,170.196 95.922,170.196 98.047,71.582 124.098,170.196 141.617,170.196 142.021,170.196 
		159.538,170.196 185.59,71.582 187.715,170.196 229.563,170.196 229.563,158.595 	"/>
	
		<rect x="46.615" y="153.946" transform="matrix(0.9971 0.0762 -0.0762 0.9971 14.1105 -5.1844)" fill-rule="evenodd" clip-rule="evenodd" fill="#56B087" width="56.765" height="56.765"/>
	
		<rect x="112.809" y="153.946" transform="matrix(0.9963 -0.0861 0.0861 0.9963 -15.1721 12.8317)" fill-rule="evenodd" clip-rule="evenodd" fill="#F7D168" width="56.764" height="56.764"/>
	
		<rect x="179.519" y="154.886" transform="matrix(0.9968 0.0804 -0.0804 0.9968 15.4166 -16.1305)" fill-rule="evenodd" clip-rule="evenodd" fill="#5584B7" width="56.765" height="56.764"/>
	<polyline fill-rule="evenodd" clip-rule="evenodd" fill="#FFFFFF" points="124.098,213.049 158.904,213.049 158.904,200.858 
		139.429,200.858 139.429,192.985 156.832,192.985 156.832,180.556 139.015,180.556 139.015,174.34 158.904,174.34 158.904,161.495 
		124.098,161.495 	"/>
	<rect x="197.438" y="161.495" fill-rule="evenodd" clip-rule="evenodd" fill="#FFFFFF" width="15.746" height="51.296"/>
	<path fill-rule="evenodd" clip-rule="evenodd" fill="#FEFEFE" d="M80.657,162.407c3.099-0.112,12.445,2.264,12.445,2.264
		l-3.255,12.155c0,0-8.519-1.568-11.82-1.327c-4.834,0.35-8.246,3.277-9.488,7.916c-3.461,12.925,4.683,21.71,17.63,18.361
		c0.49-0.126,2.71-0.779,2.71-0.779l3.753,11.145c0,0-4.493,2.2-5.553,2.5c-7.263,2.06-15.056,1.68-21.445-1.298
		c-4.328-2.019-8.56-6.566-10.746-11.852c-2.149-5.199-3.428-10.514-2.6-16.131C54.475,170.553,64.379,162.352,80.657,162.407z"/>
</g>
</svg>
