<?xml version="1.0" encoding="utf-8"?>
<!-- Generator: Adobe Illustrator 16.0.0, SVG Export Plug-In . SVG Version: 6.00 Build 0)  -->
<!DOCTYPE svg PUBLIC "-//W3C//DTD SVG 1.1//EN" "http://www.w3.org/Graphics/SVG/1.1/DTD/svg11.dtd">
<svg version="1.1" id="Ebene_1" xmlns="http://www.w3.org/2000/svg" xmlns:xlink="http://www.w3.org/1999/xlink" x="0px" y="0px"
	 width="283.46px" height="96.774px" viewBox="0 0 283.46 96.774" enable-background="new 0 0 283.46 96.774" xml:space="preserve">
<g>
	<path fill-rule="evenodd" clip-rule="evenodd" fill="#F8A918" d="M0.694,57.016c0.111-0.164,0.103-0.358,0.121-0.54
		c0.354-3.532,1.679-6.651,4.013-9.324c2.482-2.843,5.576-4.679,9.27-5.472c1.503-0.322,3.026-0.431,4.564-0.314
		c1.105,0.084,2.195,0.251,3.268,0.53c0.107,0.028,0.216,0.048,0.333,0.075c0.144-0.526,0.276-1.044,0.429-1.556
		c1.264-4.245,3.428-7.965,6.513-11.147c1.061-1.095,2.209-2.088,3.445-2.98c0.973-0.701,2.069-1.087,3.257-1.218
		c0.132-0.015,0.268-0.015,0.401-0.005c0.603,0.044,1.017,0.403,1.147,0.994c0.095,0.431,0.078,0.866,0.04,1.301
		c-0.124,1.417-0.597,2.744-1.064,4.071c-1.014,2.88-2.268,5.658-3.598,8.403c-2.975,6.143-6.368,12.05-10.055,17.79
		c-1.469,2.286-3.065,4.484-4.798,6.58c-0.751,0.908-1.599,1.718-2.591,2.364c-0.52,0.339-1.071,0.599-1.693,0.688
		c-0.416,0.059-0.828,0.027-1.232-0.062c-0.352-0.079-0.586-0.314-0.706-0.655c-0.12-0.339-0.182-0.689-0.203-1.048
		c-0.053-0.883,0.092-1.735,0.383-2.567c0.423-1.211,1.029-2.327,1.716-3.403c0.668-1.046,1.392-2.054,2.098-3.074
		c0.061-0.087,0.162-0.157,0.152-0.312c-0.985,0.06-1.892,0.312-2.512,1.125c-1.983,2.595-3.887,5.244-5.342,8.185
		c-0.631,1.273-1.202,2.569-1.481,3.975c-0.071,0.357-0.127,0.718-0.193,1.096c-0.142-0.041-0.219-0.141-0.307-0.219
		c-1.583-1.411-2.795-3.097-3.707-5.005c-0.796-1.667-1.287-3.423-1.52-5.253c-0.037-0.294-0.011-0.597-0.149-0.873
		C0.694,58.447,0.694,57.732,0.694,57.016z"/>
	<path fill-rule="evenodd" clip-rule="evenodd" fill="#070709" d="M212.778,19.309c-0.291,1.352-0.583,2.704-0.872,4.057
		c-0.574,2.683-1.146,5.366-1.719,8.05c-0.57,2.673-1.138,5.346-1.707,8.019c-0.57,2.672-1.143,5.344-1.714,8.017
		c-0.338,1.582-0.676,3.163-1.016,4.744c-0.055,0.257-0.059,0.259-0.315,0.259c-1.029,0.001-2.058,0.001-3.086,0
		c-0.077,0-0.157,0.016-0.249-0.037c0.103-0.483,0.204-0.974,0.309-1.463c0.571-2.672,1.142-5.345,1.713-8.017
		c0.573-2.683,1.147-5.366,1.719-8.049c0.616-2.891,1.229-5.782,1.846-8.673c0.483-2.269,0.972-4.537,1.458-6.806
		c0.007-0.032,0.007-0.066,0.01-0.1C210.362,19.309,211.57,19.309,212.778,19.309z"/>
	<path fill-rule="evenodd" clip-rule="evenodd" fill="#070709" d="M281.549,29.306c-0.09,0.363-0.182,0.726-0.271,1.089
		c-0.127,0.52-0.25,1.04-0.379,1.56c-0.056,0.223-0.06,0.221-0.273,0.18c-0.636-0.123-1.273-0.213-1.925-0.222
		c-1.173-0.016-2.243,0.307-3.227,0.934c-1.211,0.771-2.144,1.814-2.921,3.006c-1.141,1.748-1.899,3.659-2.341,5.692
		c-0.77,3.542-1.519,7.089-2.276,10.634c-0.059,0.273-0.06,0.275-0.341,0.275c-1.017,0.001-2.034,0.001-3.052,0
		c-0.077,0-0.156,0.017-0.247-0.03c0.036-0.404,0.15-0.8,0.235-1.199c0.59-2.782,1.189-5.562,1.784-8.344
		c0.62-2.901,1.24-5.803,1.86-8.704c0.342-1.604,0.684-3.208,1.024-4.811c0.057-0.265,0.056-0.268,0.314-0.268
		c0.893-0.001,1.786-0.001,2.704-0.001c0.025,0.394-0.059,0.763-0.095,1.134c-0.096,0.978-0.209,1.955-0.309,2.932
		c-0.008,0.075-0.083,0.186,0.039,0.233c0.124,0.049,0.174-0.064,0.233-0.142c0.606-0.789,1.229-1.565,1.924-2.279
		c0.54-0.555,1.143-1.031,1.808-1.431c0.938-0.564,1.955-0.858,3.048-0.876c0.85-0.014,1.695,0.047,2.526,0.241
		c0.054,0.012,0.104,0.04,0.154,0.061C281.549,29.083,281.549,29.194,281.549,29.306z"/>
	<path fill-rule="evenodd" clip-rule="evenodd" fill="#F8A918" d="M248.738,77.449c0.022,0.01,0.046,0.021,0.068,0.03
		c-0.2,0-0.402,0-0.604,0c0.024-0.01,0.05-0.021,0.073-0.03C248.43,77.425,248.584,77.425,248.738,77.449z"/>
	<path fill-rule="evenodd" clip-rule="evenodd" fill="#F8A918" d="M67.026,56.148c-0.532,0.765-1.077,1.486-1.639,2.196
		c-0.395,0.499-0.874,0.893-1.432,1.193c-0.169,0.091-0.344,0.171-0.542,0.136c-0.267-0.048-0.425-0.223-0.531-0.463
		c-0.23-0.522-0.306-1.067-0.289-1.635c0.023-0.749,0.021-1.498,0.039-2.246c0.037-1.564,0.099-3.128,0.209-4.688
		c0.093-1.325,0.206-2.649,0.331-3.972c0.158-1.667,0.335-3.331,0.507-4.996c0.116-1.122,0.232-2.243,0.361-3.363
		c0.172-1.496,0.356-2.992,0.569-4.483c0.168-1.182,0.327-2.365,0.492-3.548c0.132-0.939,0.268-1.878,0.401-2.817
		c0.014-0.099,0.048-0.189,0.112-0.315c0.334,0.294,0.66,0.564,0.967,0.852c1.833,1.718,3.828,3.223,5.936,4.586
		c3.703,2.397,7.678,4.185,11.923,5.375c1.375,0.386,2.675,0.934,3.863,1.736c1.1,0.743,2.017,1.658,2.71,2.794
		c0.149,0.244,0.234,0.507,0.261,0.787c0.024,0.259-0.051,0.346-0.303,0.387c-0.253,0.042-0.507,0.075-0.767,0.068
		c-1.743-0.046-3.486-0.094-5.229-0.128c-0.983-0.019-1.969-0.05-2.948,0.065c-0.766,0.089-1.531,0.192-2.239,0.527
		c-0.872,0.412-1.09,0.93-0.786,1.85c0.228,0.689,0.657,1.239,1.195,1.711c1.037,0.911,2.227,1.567,3.504,2.065
		c1.219,0.475,2.464,0.864,3.766,1.047c1.057,0.148,2.115,0.157,3.176,0.051c1.285-0.129,2.53-0.428,3.738-0.878
		c1.699-0.634,2.98-1.772,3.927-3.303c0.111-0.179,0.194-0.377,0.28-0.571c0.12-0.268,0.27-0.515,0.46-0.736
		c0.08-0.092,0.167-0.183,0.266-0.253c0.299-0.213,0.571-0.133,0.681,0.217c0.122,0.387,0.144,0.789,0.097,1.193
		c-0.128,1.099-0.511,2.125-0.909,3.145c-0.767,1.967-1.833,3.752-3.284,5.295c-1.982,2.107-4.419,3.452-7.171,4.268
		c-1.226,0.363-2.481,0.553-3.75,0.681c-1.992,0.201-3.99,0.28-5.988,0.354c-1.295,0.048-2.586,0.137-3.859,0.416
		c-0.271,0.06-0.463,0.202-0.654,0.376c-0.083,0.075-0.089,0.141-0.017,0.228c0.165,0.199,0.344,0.376,0.587,0.486
		c0.626,0.283,1.286,0.447,1.962,0.54c1.298,0.178,2.604,0.236,3.913,0.181c1.195-0.051,2.384-0.167,3.567-0.342
		c0.334-0.05,0.67-0.058,1.001,0.004c0.376,0.07,0.51,0.284,0.419,0.649c-0.147,0.59-0.38,1.137-0.743,1.635
		c-1.595,2.184-3.72,3.495-6.388,3.933c-1.345,0.221-2.699,0.371-4.051,0.537c-1.729,0.213-3.447,0.5-5.156,0.838
		c-2.948,0.584-5.852,1.337-8.702,2.292c-1.439,0.482-2.85,1.044-4.293,1.515c-1.802,0.588-3.647,0.951-5.533,1.127
		c-1.205,0.113-2.411,0.155-3.617,0.104c-3.176-0.132-6.233-0.817-9.172-2.032c-2.561-1.059-4.897-2.482-7.017-4.266
		c-0.341-0.288-0.341-0.288-0.621,0.05c-2.454,2.962-5.523,4.94-9.28,5.826c-1.534,0.362-3.087,0.5-4.657,0.424
		c-1.218-0.059-2.422-0.236-3.593-0.595c-0.085-0.026-0.171-0.053-0.255-0.084c-0.018-0.006-0.029-0.029-0.062-0.065
		c0.073-0.128,0.205-0.211,0.319-0.309c0.933-0.802,1.867-1.6,2.7-2.51c1.15-1.258,2.146-2.634,3.118-4.028
		c3.89-5.583,7.372-11.412,10.547-17.428c2.233-4.23,4.301-8.541,6.279-12.895c0.518-1.14,1.043-2.275,1.567-3.411
		c0.049-0.108,0.08-0.231,0.222-0.332c0.035,0.271,0.003,0.519-0.016,0.764c-0.051,0.667-0.115,1.334-0.172,2.001
		c-0.11,1.291-0.222,2.581-0.329,3.871c-0.075,0.901-0.142,1.803-0.217,2.704c-0.105,1.246-0.217,2.491-0.323,3.737
		c-0.055,0.645-0.097,1.292-0.151,1.937c-0.104,1.258-0.213,2.515-0.317,3.771c-0.074,0.901-0.14,1.803-0.215,2.704
		c-0.104,1.224-0.217,2.446-0.319,3.67c-0.059,0.701-0.102,1.403-0.152,2.104c-0.093,1.293-0.155,2.587-0.207,3.883
		c-0.018,0.441,0.044,0.87,0.163,1.29c0.131,0.461,0.402,0.801,0.91,0.87c0.327,0.045,0.616-0.074,0.878-0.26
		c0.506-0.356,0.95-0.781,1.35-1.251c1.023-1.2,1.954-2.473,2.877-3.75c2.044-2.828,3.931-5.761,5.764-8.729
		c3.877-6.274,7.749-12.553,11.624-18.83c0.081-0.13,0.14-0.28,0.307-0.384c0.055,0.137,0.014,0.266-0.001,0.386
		c-0.171,1.317-0.35,2.633-0.522,3.949s-0.346,2.633-0.511,3.951c-0.147,1.174-0.285,2.349-0.425,3.523
		c-0.151,1.263-0.304,2.526-0.448,3.79c-0.106,0.932-0.192,1.865-0.299,2.797c-0.131,1.143-0.218,2.289-0.307,3.435
		c-0.045,0.591-0.064,1.183-0.095,1.774c-0.057,1.093-0.124,2.186-0.169,3.28c-0.039,0.948-0.081,1.898-0.069,2.848
		c0.01,0.849,0.128,1.692,0.279,2.528c0.111,0.612,0.429,1.127,0.859,1.563c0.44,0.448,0.986,0.551,1.578,0.373
		c0.697-0.209,1.285-0.615,1.842-1.068c0.794-0.646,1.444-1.432,2.105-2.205c1.696-1.981,3.212-4.1,4.711-6.229
		c0.152-0.217,0.182-0.419,0.073-0.656c-0.162-0.355-0.313-0.716-0.471-1.074C67.096,56.235,67.072,56.211,67.026,56.148z"/>
	<path fill-rule="evenodd" clip-rule="evenodd" fill="#070709" d="M113.109,52.426c0.112-0.538,0.221-1.072,0.334-1.606
		c0.595-2.816,1.189-5.632,1.785-8.448c0.567-2.685,1.135-5.37,1.703-8.054c0.551-2.609,1.101-5.218,1.653-7.826
		c0.352-1.659,0.709-3.316,1.052-4.977c0.036-0.174,0.103-0.214,0.261-0.213c1.599,0.004,3.198,0.005,4.797-0.002
		c0.181-0.001,0.23,0.073,0.249,0.23c0.137,1.153,0.275,2.306,0.418,3.459c0.167,1.352,0.341,2.704,0.509,4.056
		c0.146,1.175,0.285,2.351,0.43,3.525s0.296,2.349,0.442,3.523c0.144,1.164,0.283,2.328,0.427,3.492
		c0.146,1.186,0.299,2.371,0.446,3.557c0.144,1.164,0.284,2.328,0.426,3.492c0.007,0.056,0.011,0.112,0.018,0.167
		c0.007,0.057,0.02,0.117,0.079,0.136c0.078,0.025,0.125-0.03,0.161-0.089c0.039-0.067,0.074-0.138,0.112-0.206
		c4.558-8.329,9.116-16.657,13.674-24.985c0.032-0.059,0.071-0.115,0.097-0.176c0.053-0.128,0.138-0.179,0.283-0.179
		c1.801,0.006,3.601,0.005,5.401,0.007c0.021,0,0.041,0.013,0.063,0.021c0.052,0.06,0.014,0.122,0.001,0.184
		c-0.594,2.874-1.187,5.747-1.782,8.62c-0.613,2.961-1.232,5.92-1.846,8.881c-0.549,2.644-1.094,5.288-1.64,7.932
		c-0.361,1.749-0.722,3.497-1.084,5.244c-0.055,0.264-0.057,0.266-0.317,0.266c-1.084,0.001-2.169,0.001-3.254,0
		c-0.066,0-0.132-0.007-0.222-0.012c0.141-0.666,0.278-1.318,0.417-1.97c0.549-2.575,1.1-5.149,1.648-7.724
		c0.59-2.771,1.178-5.543,1.77-8.314c0.447-2.095,0.887-4.191,1.38-6.275c0.255-1.074,0.51-2.148,0.841-3.203
		c0.013-0.042,0.037-0.082,0.001-0.132c-0.119,0.041-0.138,0.162-0.187,0.251c-2.344,4.238-4.686,8.476-7.027,12.715
		c-2.644,4.786-5.287,9.572-7.924,14.361c-0.12,0.217-0.24,0.321-0.51,0.312c-0.749-0.025-1.498-0.015-2.247-0.006
		c-0.176,0.002-0.245-0.04-0.269-0.23c-0.192-1.574-0.396-3.146-0.6-4.719c-0.191-1.484-0.389-2.967-0.579-4.452
		s-0.372-2.97-0.562-4.454s-0.389-2.967-0.579-4.452c-0.19-1.484-0.373-2.969-0.562-4.454c-0.197-1.551-0.398-3.101-0.598-4.652
		c-0.004-0.033-0.004-0.068-0.014-0.1c-0.01-0.03-0.027-0.06-0.067-0.064c-0.053-0.006-0.089,0.023-0.096,0.068
		c-0.027,0.2-0.046,0.399-0.071,0.599c-0.403,3.169-1.009,6.301-1.676,9.424c-0.893,4.178-1.764,8.361-2.646,12.542
		c-0.332,1.572-0.668,3.142-0.997,4.715c-0.032,0.15-0.071,0.231-0.252,0.229c-1.051-0.01-2.102-0.005-3.153-0.007
		C113.195,52.452,113.163,52.439,113.109,52.426z"/>
	<path fill-rule="evenodd" clip-rule="evenodd" fill="#F8A918" d="M41.914,56.734c-0.161-0.299-0.217-0.6-0.19-0.938
		c0.057-0.713,0.068-1.429,0.11-2.143c0.074-1.248,0.173-2.494,0.305-3.738c0.078-0.732,0.141-1.467,0.212-2.2
		c0.131-1.367,0.265-2.733,0.394-4.101c0.077-0.811,0.144-1.623,0.219-2.435c0.105-1.134,0.215-2.267,0.318-3.401
		c0.076-0.845,0.141-1.691,0.215-2.537c0.106-1.212,0.221-2.423,0.322-3.636c0.082-0.968,0.145-1.938,0.224-2.906
		c0.118-1.437,0.175-2.876,0.246-4.316c0.043-0.872,0.036-1.742-0.151-2.602c-0.01-0.043-0.018-0.088-0.022-0.132
		c-0.021-0.212-0.013-0.229,0.199-0.259c0.498-0.068,0.995-0.149,1.495-0.192c0.913-0.078,1.827-0.144,2.744-0.143
		c3.376,0.005,6.637,0.624,9.785,1.843c0.25,0.097,0.496,0.204,0.747,0.297c0.134,0.05,0.189,0.123,0.176,0.273
		c-0.034,0.378-0.043,0.758-0.075,1.137c-0.064,0.778-0.102,1.558-0.238,2.331c-0.247,1.406-0.684,2.751-1.263,4.05
		c-1.081,2.42-2.33,4.755-3.62,7.068c-1.868,3.349-3.909,6.595-5.896,9.872c-1.333,2.199-2.713,4.367-4.194,6.47
		c-0.445,0.631-0.918,1.239-1.392,1.849C42.406,56.475,42.185,56.627,41.914,56.734z"/>
	<path fill-rule="evenodd" clip-rule="evenodd" fill="#070709" d="M168.516,37.864c-0.009,2.501-0.451,4.833-1.354,7.075
		c-0.639,1.585-1.464,3.059-2.608,4.339c-1.457,1.631-3.216,2.776-5.366,3.272c-1.154,0.266-2.32,0.295-3.495,0.189
		c-0.996-0.089-1.96-0.304-2.871-0.717c-2.19-0.993-3.567-2.692-4.244-4.978c-0.34-1.145-0.436-2.321-0.42-3.512
		c0.042-3.232,0.81-6.272,2.427-9.08c1.128-1.959,2.646-3.534,4.671-4.579c1.636-0.843,3.375-1.172,5.209-1.061
		c1.077,0.065,2.129,0.238,3.126,0.654c2.4,1.002,3.889,2.805,4.566,5.296C168.439,35.807,168.531,36.873,168.516,37.864z
		 M164.76,38.442c0.062-1.37,0.027-2.353-0.294-3.297c-0.524-1.538-1.495-2.645-3.096-3.122c-0.752-0.224-1.524-0.24-2.291-0.151
		c-1.264,0.146-2.369,0.674-3.336,1.498c-1.282,1.092-2.139,2.476-2.743,4.026c-0.918,2.357-1.232,4.812-1.129,7.326
		c0.025,0.603,0.135,1.198,0.324,1.774c0.44,1.337,1.246,2.356,2.574,2.909c0.603,0.251,1.237,0.357,1.888,0.396
		c1.011,0.059,1.975-0.104,2.891-0.545c1.299-0.625,2.268-1.611,3.023-2.813c1.094-1.739,1.657-3.667,1.968-5.68
		C164.677,39.866,164.749,38.964,164.76,38.442z"/>
	<path fill-rule="evenodd" clip-rule="evenodd" fill="#070709" d="M258.939,48.088c0,1.009-0.001,1.98,0.002,2.953
		c0.001,0.117-0.041,0.178-0.149,0.227c-1.463,0.666-2.953,1.241-4.562,1.465c-1.068,0.148-2.139,0.194-3.209,0.112
		c-1.986-0.151-3.762-0.812-5.178-2.275c-1.063-1.101-1.688-2.427-1.999-3.912c-0.308-1.47-0.294-2.95-0.154-4.437
		c0.211-2.234,0.81-4.359,1.766-6.385c0.857-1.818,1.973-3.448,3.507-4.769c1.246-1.073,2.649-1.841,4.266-2.196
		c0.701-0.154,1.413-0.214,2.129-0.203c1.008,0.017,2.005,0.117,2.967,0.443c1.378,0.468,2.419,1.317,2.995,2.681
		c0.313,0.743,0.416,1.527,0.408,2.326c-0.017,1.929-0.706,3.569-2.127,4.89c-0.626,0.581-1.328,1.052-2.085,1.446
		c-1.255,0.654-2.593,1.059-3.976,1.33c-1.914,0.376-3.852,0.491-5.799,0.475c-0.395-0.003-0.365-0.085-0.384,0.342
		c-0.034,0.747-0.102,1.494-0.032,2.244c0.085,0.896,0.274,1.763,0.688,2.57c0.65,1.268,1.692,2.017,3.08,2.29
		c1.535,0.302,3.044,0.134,4.531-0.299c0.996-0.29,1.943-0.706,2.883-1.142C258.636,48.204,258.756,48.121,258.939,48.088z
		 M247.912,39.268c0.145,0,0.243,0.002,0.342,0c0.749-0.02,1.496-0.024,2.244-0.083c1.06-0.083,2.107-0.223,3.138-0.484
		c0.998-0.253,1.956-0.606,2.809-1.201c1.053-0.734,1.663-1.713,1.714-3.024c0.052-1.316-0.755-2.301-1.854-2.571
		c-0.84-0.207-1.676-0.228-2.515-0.011c-1.058,0.272-1.928,0.861-2.698,1.611C249.465,35.085,248.571,37.074,247.912,39.268z"/>
	<path fill-rule="evenodd" clip-rule="evenodd" fill="#070709" d="M171.757,29.097c0.575,0,1.111,0,1.646,0c0.559,0,1.118,0,1.677,0
		c0.274,0.001,0.28,0.002,0.309,0.262c0.053,0.466,0.097,0.934,0.146,1.4c0.13,1.245,0.262,2.489,0.391,3.733
		c0.121,1.167,0.236,2.334,0.358,3.5c0.122,1.178,0.255,2.354,0.374,3.532c0.082,0.8,0.155,1.602,0.222,2.403
		c0.088,1.069,0.177,2.138,0.245,3.208c0.052,0.814,0.105,1.629,0.103,2.445c-0.001,0.084-0.017,0.172,0.036,0.271
		c0.146-0.084,0.17-0.223,0.223-0.334c0.793-1.71,1.597-3.415,2.414-5.113c0.959-1.991,2.039-3.918,3.082-5.864
		c1.635-3.048,3.277-6.092,4.909-9.141c0.117-0.219,0.235-0.319,0.506-0.314c1.14,0.021,2.279,0.008,3.43,0.008
		c0.035,0.147-0.066,0.237-0.12,0.336c-1.988,3.694-3.979,7.386-5.971,11.079c-2.092,3.879-4.186,7.757-6.269,11.64
		c-0.123,0.229-0.248,0.313-0.511,0.311c-1.42-0.015-2.84-0.007-4.26-0.008c-0.275,0-0.279-0.001-0.312-0.28
		c-0.155-1.342-0.307-2.685-0.463-4.027c-0.168-1.465-0.341-2.929-0.509-4.394c-0.123-1.076-0.238-2.154-0.361-3.23
		c-0.146-1.276-0.299-2.552-0.444-3.828c-0.122-1.077-0.237-2.154-0.36-3.231c-0.146-1.276-0.297-2.551-0.443-3.828
		C171.784,29.47,171.774,29.303,171.757,29.097z"/>
	<path fill-rule="evenodd" clip-rule="evenodd" fill="#070709" d="M227.471,31.792c0.188-0.869,0.368-1.685,0.535-2.503
		c0.032-0.159,0.101-0.208,0.247-0.192c0.056,0.005,0.111,0,0.168,0c4.427,0,8.854,0,13.28,0.001c0.11,0,0.223-0.021,0.347,0.027
		c-0.033,0.419-0.157,0.824-0.233,1.237c-0.094,0.516-0.218,1.025-0.317,1.54c-0.026,0.139-0.085,0.25-0.172,0.355
		c-2.924,3.571-5.847,7.142-8.769,10.713c-1.819,2.222-3.638,4.445-5.457,6.667c-0.021,0.025-0.037,0.054-0.055,0.079
		c0.005,0.013,0.008,0.024,0.014,0.033c0.006,0.008,0.017,0.014,0.025,0.016c0.022,0.003,0.044,0.006,0.066,0.006
		c3.688,0.003,7.378,0.006,11.066,0.009c0.01,0,0.021,0.009,0.057,0.024c-0.07,0.372-0.141,0.752-0.215,1.13
		c-0.085,0.427-0.173,0.854-0.259,1.279c-0.049,0.237-0.049,0.237-0.305,0.24c-0.078,0.001-0.156,0.001-0.234,0.001
		c-4.818,0-9.637,0-14.455,0c-0.121,0-0.242,0-0.394,0c0.086-0.456,0.163-0.883,0.246-1.308c0.053-0.273,0.133-0.544,0.163-0.82
		c0.032-0.282,0.166-0.495,0.339-0.708c4.33-5.322,8.655-10.647,12.982-15.972c0.43-0.529,0.86-1.057,1.29-1.586
		c0.061-0.074,0.118-0.15,0.211-0.269C234.227,31.792,230.868,31.792,227.471,31.792z"/>
	<path fill-rule="evenodd" clip-rule="evenodd" fill="#070709" d="M199.649,29.121c-0.132,0.624-0.257,1.224-0.385,1.823
		c-0.596,2.792-1.191,5.584-1.788,8.375c-0.571,2.672-1.145,5.343-1.716,8.015c-0.345,1.614-0.688,3.228-1.031,4.843
		c-0.059,0.274-0.057,0.276-0.342,0.276c-1.017,0.001-2.034,0.001-3.051,0.001c-0.077,0-0.154,0-0.254,0
		c0.049-0.465,0.169-0.892,0.261-1.324c0.657-3.098,1.319-6.194,1.98-9.292c0.633-2.966,1.266-5.933,1.899-8.899
		c0.258-1.211,0.523-2.419,0.774-3.632c0.035-0.169,0.101-0.215,0.264-0.214c1.084,0.006,2.168,0.003,3.252,0.004
		C199.547,29.098,199.578,29.108,199.649,29.121z"/>
	<path fill-rule="evenodd" clip-rule="evenodd" fill="#070709" d="M221.801,29.097c-0.118,0.556-0.227,1.068-0.335,1.58
		c-0.616,2.89-1.231,5.78-1.85,8.669c-0.591,2.77-1.184,5.539-1.776,8.309c-0.321,1.504-0.644,3.009-0.965,4.514
		c-0.061,0.282-0.06,0.284-0.334,0.284c-1.039,0.001-2.078,0.001-3.118,0.001c-0.055,0-0.109,0-0.186,0
		c0.001-0.332,0.103-0.628,0.166-0.926c0.818-3.862,1.644-7.722,2.469-11.582c0.757-3.544,1.517-7.087,2.271-10.631
		c0.028-0.134,0.054-0.223,0.224-0.222C219.494,29.1,220.622,29.097,221.801,29.097z"/>
	<path fill-rule="evenodd" clip-rule="evenodd" fill="#070709" d="M193.248,66.731c-0.107,0.077-0.146,0.196-0.205,0.298
		c-1.387,2.395-2.772,4.79-4.158,7.185c-0.045,0.077-0.089,0.154-0.139,0.229c-0.069,0.104-0.18,0.075-0.276,0.068
		c-0.102-0.007-0.103-0.096-0.116-0.175c-0.109-0.672-0.221-1.343-0.332-2.015c-0.26-1.574-0.519-3.149-0.78-4.723
		c-0.053-0.317-0.078-0.64-0.195-1.022c-0.181,1.134-0.402,2.184-0.629,3.231c-0.32,1.482-0.631,2.968-0.946,4.451
		c-0.054,0.255-0.055,0.258-0.327,0.255c-0.097-0.002-0.2,0.032-0.314-0.051c0.082-0.403,0.163-0.816,0.25-1.229
		c0.509-2.399,1.02-4.8,1.529-7.199c0.055-0.26,0.056-0.261,0.32-0.264c0.09-0.002,0.179-0.002,0.269,0
		c0.424,0.006,0.335-0.046,0.402,0.355c0.375,2.257,0.734,4.516,1.101,6.773c0.016,0.095,0.043,0.187,0.069,0.299
		c0.122-0.091,0.16-0.21,0.22-0.312c1.328-2.273,2.658-4.546,3.975-6.825c0.131-0.226,0.269-0.326,0.525-0.296
		c0.176,0.021,0.355,0.004,0.568,0.004c-0.073,0.376-0.138,0.723-0.209,1.067c-0.506,2.446-1.013,4.894-1.52,7.34
		c-0.071,0.344-0.073,0.344-0.424,0.339c-0.271-0.005-0.271-0.005-0.213-0.281c0.511-2.411,1.003-4.826,1.547-7.23
		C193.258,66.92,193.296,66.833,193.248,66.731z"/>
	<path fill-rule="evenodd" clip-rule="evenodd" fill="#070709" d="M223.546,22.271c-0.001,1.049-0.358,1.852-1.13,2.466
		c-0.697,0.555-1.787,0.528-2.418,0.097c-0.336-0.229-0.596-0.525-0.692-0.915c-0.23-0.919-0.137-1.799,0.446-2.578
		c0.418-0.557,0.98-0.862,1.683-0.899c0.291-0.015,0.579-0.017,0.864,0.056c0.705,0.182,1.109,0.629,1.209,1.348
		C223.531,22.012,223.537,22.179,223.546,22.271z"/>
	<path fill-rule="evenodd" clip-rule="evenodd" fill="#070709" d="M201.399,22.391c-0.003,0.94-0.354,1.72-1.089,2.309
		c-0.65,0.521-1.385,0.589-2.144,0.298c-0.527-0.203-0.9-0.592-1.024-1.155c-0.2-0.898-0.104-1.756,0.471-2.511
		c0.413-0.544,0.967-0.841,1.653-0.888c0.27-0.019,0.538-0.02,0.801,0.032c0.768,0.151,1.223,0.664,1.304,1.449
		C201.387,22.078,201.39,22.235,201.399,22.391z"/>
	<path fill-rule="evenodd" clip-rule="evenodd" fill="#070709" d="M112.334,74.514c0.278-1.31,0.544-2.562,0.81-3.814
		c0.333-1.57,0.67-3.14,0.996-4.711c0.034-0.165,0.09-0.227,0.259-0.222c0.726,0.021,1.452-0.027,2.177,0.035
		c0.315,0.027,0.617,0.099,0.903,0.225c0.557,0.245,0.922,0.663,1.036,1.267c0.195,1.042,0.004,1.978-0.814,2.718
		c-0.391,0.354-0.868,0.532-1.398,0.647c0.434,1.277,0.865,2.546,1.293,3.807c-0.041,0.025-0.049,0.035-0.058,0.036
		c-0.599,0.057-0.599,0.057-0.787-0.504c-0.332-0.993-0.66-1.988-0.996-2.979c-0.104-0.305-0.044-0.268-0.365-0.27
		c-0.447-0.003-0.894-0.002-1.341-0.001c-0.286,0.001-0.29,0.002-0.346,0.272c-0.166,0.797-0.328,1.594-0.492,2.391
		c-0.065,0.317-0.137,0.633-0.196,0.95c-0.02,0.108-0.066,0.156-0.175,0.154C112.685,74.512,112.53,74.514,112.334,74.514z
		 M113.904,70.167c0.755-0.024,1.479,0.046,2.202-0.063c0.871-0.131,1.505-0.649,1.709-1.433c0.065-0.249,0.095-0.503,0.091-0.762
		c-0.013-0.851-0.466-1.365-1.308-1.509c-0.579-0.1-1.159-0.034-1.737-0.06c-0.138-0.007-0.16,0.069-0.183,0.18
		c-0.173,0.829-0.354,1.655-0.53,2.483C114.067,69.384,113.989,69.763,113.904,70.167z"/>
	<path fill-rule="evenodd" clip-rule="evenodd" fill="#070709" d="M248.738,77.449c-0.154-0.023-0.309-0.023-0.462,0
		c-0.104-0.062-0.06-0.15-0.042-0.235c0.361-1.689,0.721-3.38,1.081-5.069c0.272-1.275,0.544-2.551,0.817-3.826
		c0.066-0.311,0.068-0.311,0.38-0.306c0.054,0.001,0.112-0.017,0.189,0.048c-0.073,0.461-0.149,0.941-0.232,1.466
		c0.172-0.13,0.235-0.287,0.333-0.414c0.389-0.505,0.838-0.928,1.463-1.121c0.391-0.12,0.785-0.15,1.187-0.054
		c0.481,0.115,0.801,0.412,1.001,0.856c0.184,0.407,0.224,0.841,0.228,1.275c0.01,0.917-0.173,1.798-0.584,2.621
		c-0.358,0.716-0.854,1.304-1.588,1.665c-0.478,0.234-0.985,0.292-1.501,0.225c-0.558-0.072-0.971-0.371-1.193-0.903
		c-0.029-0.07-0.059-0.141-0.097-0.235c-0.071,0.087-0.084,0.169-0.102,0.251c-0.249,1.166-0.499,2.332-0.75,3.499
		C248.846,77.286,248.843,77.394,248.738,77.449z M254.039,70.339c0.002-0.496-0.029-0.884-0.188-1.25
		c-0.147-0.339-0.389-0.558-0.767-0.622c-0.435-0.075-0.812,0.058-1.173,0.276c-0.489,0.298-0.851,0.724-1.141,1.204
		c-0.507,0.838-0.807,1.744-0.751,2.731c0.051,0.891,0.667,1.598,1.796,1.327c0.648-0.155,1.103-0.564,1.447-1.107
		C253.779,72.088,254.011,71.191,254.039,70.339z"/>
	<path fill-rule="evenodd" clip-rule="evenodd" fill="#070709" d="M200.775,74.503c0.232-1.117,0.453-2.196,0.681-3.274
		c0.393-1.865,0.789-3.729,1.183-5.594c0.094-0.442,0.09-0.443,0.547-0.428c0.032,0.001,0.064,0.011,0.136,0.023
		c-0.3,1.416-0.599,2.825-0.905,4.267c0.134-0.056,0.165-0.155,0.218-0.229c0.234-0.329,0.498-0.631,0.82-0.878
		c0.519-0.399,1.108-0.561,1.757-0.498c0.659,0.064,1.172,0.516,1.307,1.248c0.292,1.577,0,3.043-0.983,4.334
		c-0.432,0.565-1.002,0.949-1.716,1.082c-0.354,0.066-0.709,0.071-1.061-0.025c-0.459-0.126-0.784-0.407-0.988-0.834
		c-0.053-0.108-0.097-0.223-0.159-0.367c-0.118,0.312-0.175,0.606-0.252,0.896c-0.076,0.291-0.078,0.291-0.378,0.288
		C200.926,74.514,200.871,74.508,200.775,74.503z M205.989,70.234c-0.005-0.383-0.035-0.706-0.131-1.017
		c-0.147-0.479-0.501-0.849-1.241-0.758c-0.402,0.048-0.752,0.221-1.047,0.483c-1.138,1.018-1.654,2.311-1.59,3.818
		c0.04,0.934,0.828,1.467,1.738,1.259c0.663-0.151,1.131-0.557,1.482-1.113C205.726,72.074,205.961,71.154,205.989,70.234z"/>
	<path fill-rule="evenodd" clip-rule="evenodd" fill="#070709" d="M222.148,74.515c0.088-0.436,0.166-0.828,0.248-1.219
		c0.507-2.39,1.015-4.778,1.522-7.168c0.012-0.055,0.033-0.107,0.037-0.162c0.012-0.153,0.087-0.201,0.24-0.2
		c1.342,0.006,2.684,0.005,4.025,0.006c0.031,0,0.063,0.013,0.094,0.02c0.009,0.024,0.026,0.047,0.022,0.065
		c-0.092,0.498-0.093,0.498-0.597,0.498c-0.995,0-1.99,0.002-2.985-0.003c-0.148,0-0.253,0.015-0.289,0.19
		c-0.203,0.994-0.414,1.987-0.621,2.981c-0.004,0.021,0.002,0.043,0.006,0.098c1.153,0,2.309,0,3.487,0
		c-0.067,0.215-0.024,0.451-0.169,0.565c-0.13,0.103-0.346,0.031-0.522,0.032c-0.895,0.003-1.789,0.001-2.684,0.002
		c-0.264,0-0.264,0.003-0.319,0.264c-0.244,1.134-0.488,2.267-0.74,3.432c1.243,0,2.465,0,3.677,0
		c0.017,0.047,0.031,0.067,0.029,0.085c-0.072,0.514-0.072,0.514-0.582,0.514c-1.162,0-2.325,0-3.488,0
		C222.43,74.515,222.319,74.515,222.148,74.515z"/>
	<path fill-rule="evenodd" clip-rule="evenodd" fill="#070709" d="M163.596,72.063c0.005-0.97,0.233-1.88,0.75-2.704
		c0.477-0.763,1.138-1.282,2.043-1.438c0.49-0.084,0.982-0.066,1.45,0.115c0.72,0.281,1.128,0.844,1.246,1.581
		c0.213,1.33-0.041,2.586-0.795,3.707c-0.722,1.073-1.772,1.452-3.028,1.253c-0.843-0.133-1.43-0.781-1.596-1.681
		C163.615,72.621,163.588,72.343,163.596,72.063z M164.234,71.999c0.014,0.212,0.017,0.425,0.043,0.635
		c0.097,0.754,0.478,1.238,1.112,1.395c0.34,0.083,0.689,0.08,1.03-0.002c0.672-0.162,1.14-0.592,1.473-1.178
		c0.525-0.925,0.696-1.929,0.591-2.975c-0.064-0.64-0.369-1.156-1.021-1.363c-0.554-0.176-1.101-0.116-1.617,0.167
		c-0.511,0.28-0.854,0.711-1.108,1.221C164.407,70.558,164.246,71.26,164.234,71.999z"/>
	<path fill-rule="evenodd" clip-rule="evenodd" fill="#070709" d="M194.454,72.065c0.008-1.028,0.255-1.991,0.842-2.844
		c0.669-0.972,1.601-1.439,2.783-1.326c1.217,0.117,1.747,0.929,1.876,1.787c0.184,1.21-0.051,2.356-0.658,3.417
		c-0.43,0.749-1.055,1.262-1.913,1.454c-0.51,0.114-1.023,0.116-1.521-0.041c-0.771-0.244-1.164-0.821-1.332-1.581
		C194.469,72.646,194.451,72.356,194.454,72.065z M195.097,72.001c0.013,0.212,0.015,0.426,0.041,0.636
		c0.091,0.748,0.475,1.235,1.114,1.39c0.351,0.085,0.71,0.078,1.062-0.013c0.765-0.197,1.236-0.728,1.566-1.404
		c0.411-0.844,0.562-1.745,0.47-2.673c-0.13-1.294-1.081-1.646-2.023-1.48c-0.71,0.124-1.205,0.561-1.568,1.153
		C195.309,70.34,195.108,71.146,195.097,72.001z"/>
	<path fill-rule="evenodd" clip-rule="evenodd" fill="#070709" d="M230.234,68.047c-0.056,0.367-0.112,0.738-0.171,1.124
		c0.146-0.031,0.189-0.144,0.258-0.222c0.511-0.589,1.14-0.953,1.922-1.039c0.327-0.036,0.646-0.006,0.958,0.092
		c0.485,0.151,0.75,0.494,0.85,0.981c0.102,0.496,0.006,0.98-0.096,1.46c-0.269,1.265-0.556,2.525-0.836,3.787
		c-0.062,0.282-0.064,0.282-0.337,0.284c-0.034,0-0.067,0-0.101,0c-0.223-0.007-0.229-0.009-0.186-0.221
		c0.077-0.382,0.16-0.763,0.241-1.145c0.221-1.035,0.439-2.071,0.664-3.106c0.038-0.177,0.044-0.354,0.054-0.532
		c0.038-0.726-0.375-1.129-1.191-1.061c-0.763,0.062-1.331,0.469-1.783,1.061c-0.499,0.652-0.747,1.414-0.922,2.202
		c-0.186,0.838-0.359,1.679-0.539,2.518c-0.061,0.282-0.061,0.282-0.337,0.284c-0.333,0.002-0.337,0.001-0.271-0.316
		c0.423-1.995,0.85-3.989,1.269-5.985c0.031-0.148,0.081-0.222,0.236-0.202C230.014,68.023,230.116,67.99,230.234,68.047z"/>
	<path fill-rule="evenodd" clip-rule="evenodd" fill="#070709" d="M128.764,68.049c-0.029,0.356-0.149,0.704-0.143,1.071
		c0.133,0.004,0.163-0.095,0.215-0.155c0.506-0.593,1.134-0.96,1.916-1.052c0.327-0.039,0.647-0.015,0.959,0.082
		c0.529,0.163,0.838,0.562,0.891,1.133c0.048,0.519-0.052,1.022-0.163,1.525c-0.257,1.175-0.519,2.351-0.777,3.526
		c-0.073,0.335-0.071,0.335-0.399,0.335c-0.077,0-0.154,0-0.209,0c-0.088-0.074-0.055-0.143-0.042-0.204
		c0.297-1.373,0.597-2.744,0.89-4.118c0.049-0.229,0.087-0.46,0.09-0.696c0.007-0.749-0.404-1.089-1.147-1.052
		c-0.58,0.029-1.071,0.277-1.489,0.677c-0.576,0.55-0.901,1.242-1.113,1.991c-0.252,0.891-0.399,1.807-0.605,2.708
		c-0.027,0.119-0.042,0.242-0.076,0.359c-0.033,0.112-0.002,0.281-0.133,0.317c-0.146,0.04-0.312,0.028-0.465,0.007
		c-0.108-0.017-0.063-0.126-0.049-0.196c0.087-0.426,0.179-0.852,0.27-1.276c0.332-1.56,0.664-3.118,0.996-4.677
		c0.012-0.055,0.034-0.107,0.039-0.163c0.011-0.134,0.07-0.201,0.212-0.182C128.54,68.026,128.654,67.983,128.764,68.049z
		 M128.628,69.182c-0.006-0.004-0.016-0.014-0.021-0.012c-0.009,0.004-0.023,0.018-0.022,0.021c0.011,0.029,0.028,0.034,0.042,0.014
		C128.631,69.201,128.628,69.19,128.628,69.182z"/>
	<path fill-rule="evenodd" clip-rule="evenodd" fill="#070709" d="M144.558,74.473c0.176-0.839,0.35-1.678,0.528-2.516
		c0.261-1.221,0.523-2.441,0.786-3.661c0.062-0.287,0.063-0.287,0.364-0.285c0.055,0,0.108,0,0.202,0
		c-0.06,0.397-0.114,0.772-0.171,1.147c0.017,0.007,0.034,0.014,0.051,0.021c0.079-0.088,0.16-0.175,0.237-0.264
		c0.513-0.59,1.155-0.934,1.937-1.011c0.304-0.03,0.602,0.004,0.893,0.09c0.651,0.191,0.954,0.771,0.902,1.57
		c-0.031,0.48-0.144,0.948-0.247,1.417c-0.24,1.088-0.481,2.177-0.724,3.265c-0.059,0.266-0.061,0.266-0.314,0.268
		c-0.09,0.001-0.18-0.002-0.269-0.007c-0.02-0.001-0.037-0.021-0.074-0.044c0.135-0.635,0.271-1.276,0.408-1.918
		c0.176-0.828,0.35-1.657,0.53-2.485c0.042-0.188,0.051-0.376,0.059-0.565c0.028-0.736-0.396-1.103-1.175-1.047
		c-0.75,0.056-1.319,0.447-1.771,1.022c-0.463,0.591-0.727,1.277-0.892,2.001c-0.208,0.913-0.398,1.829-0.597,2.745
		c-0.064,0.299-0.064,0.301-0.358,0.297C144.768,74.512,144.665,74.536,144.558,74.473z"/>
	<path fill-rule="evenodd" clip-rule="evenodd" fill="#070709" d="M217.427,73.638c0.046,0.704,0.069,0.569-0.466,0.771
		c-0.585,0.221-1.195,0.27-1.812,0.179c-0.791-0.116-1.451-0.721-1.604-1.596c-0.287-1.65,0.104-3.127,1.307-4.336
		c0.447-0.45,1.009-0.688,1.642-0.753c0.271-0.027,0.536,0.006,0.793,0.089c0.628,0.204,0.969,0.751,0.907,1.432
		c-0.059,0.649-0.373,1.135-0.926,1.47c-0.426,0.259-0.894,0.397-1.381,0.479c-0.507,0.085-1.019,0.127-1.533,0.13
		c-0.229,0.001-0.23,0.005-0.243,0.24c-0.021,0.38-0.021,0.758,0.077,1.131c0.196,0.741,0.738,1.165,1.505,1.188
		c0.502,0.016,0.973-0.105,1.432-0.29C217.215,73.736,217.303,73.693,217.427,73.638z M214.227,70.925
		c0.48,0.026,0.903,0.008,1.322-0.041c0.408-0.047,0.812-0.133,1.187-0.316c0.389-0.189,0.689-0.464,0.783-0.9
		c0.163-0.76-0.262-1.237-0.955-1.227c-0.302,0.006-0.595,0.095-0.854,0.26C214.903,69.216,214.48,69.989,214.227,70.925z"/>
	<path fill-rule="evenodd" clip-rule="evenodd" fill="#070709" d="M143.166,73.639c0.044,0.693,0.075,0.562-0.463,0.764
		c-0.585,0.22-1.193,0.273-1.811,0.188c-0.794-0.111-1.451-0.702-1.614-1.584c-0.296-1.597,0.075-3.036,1.193-4.245
		c0.445-0.481,1.007-0.764,1.665-0.848c0.305-0.039,0.602-0.013,0.891,0.085c0.566,0.189,0.888,0.627,0.896,1.236
		c0.009,0.618-0.217,1.133-0.716,1.514c-0.464,0.354-1.005,0.521-1.569,0.62c-0.518,0.09-1.041,0.141-1.566,0.13
		c-0.167-0.004-0.236,0.039-0.237,0.22c-0.001,0.447-0.024,0.893,0.136,1.324c0.234,0.628,0.723,0.986,1.392,1.018
		c0.477,0.022,0.931-0.071,1.372-0.244C142.868,73.763,142.999,73.708,143.166,73.639z M139.957,70.91
		c0.639,0.057,1.504-0.009,2.009-0.155c0.267-0.077,0.528-0.175,0.758-0.338c0.408-0.29,0.59-0.685,0.548-1.183
		c-0.032-0.374-0.285-0.663-0.653-0.752c-0.415-0.103-0.8-0.004-1.151,0.208C140.633,69.191,140.217,69.983,139.957,70.91z"/>
	<path fill-rule="evenodd" clip-rule="evenodd" fill="#070709" d="M176.087,68.049c-0.101,0.485-0.201,0.974-0.304,1.462
		c-0.327,1.537-0.655,3.075-0.982,4.612c-0.009,0.044-0.011,0.091-0.029,0.131c-0.037,0.078,0.003,0.199-0.093,0.237
		c-0.126,0.051-0.267,0.035-0.396,0.01c-0.089-0.017-0.058-0.101-0.049-0.166c0.042-0.309,0.081-0.617,0.123-0.938
		c-0.135,0.027-0.177,0.127-0.24,0.197c-0.647,0.71-1.437,1.066-2.411,1.003c-0.818-0.054-1.315-0.547-1.343-1.369
		c-0.018-0.554,0.122-1.086,0.235-1.619c0.233-1.091,0.477-2.179,0.714-3.268c0.072-0.33,0.069-0.333,0.398-0.329
		c0.087,0.001,0.179-0.022,0.286,0.039c-0.074,0.359-0.148,0.728-0.228,1.094c-0.227,1.047-0.456,2.092-0.683,3.138
		c-0.055,0.251-0.104,0.504-0.11,0.761c-0.016,0.615,0.331,0.982,0.948,1.017c0.651,0.036,1.201-0.196,1.674-0.629
		c0.544-0.498,0.854-1.138,1.071-1.826c0.237-0.757,0.356-1.542,0.535-2.312c0.078-0.337,0.143-0.677,0.216-1.015
		c0.058-0.264,0.059-0.267,0.317-0.265C175.847,68.014,175.96,67.986,176.087,68.049z"/>
	<path fill-rule="evenodd" clip-rule="evenodd" fill="#070709" d="M242.955,73.671c0.043,0.677,0.097,0.529-0.447,0.734
		c-0.584,0.22-1.193,0.271-1.811,0.184c-0.796-0.113-1.434-0.726-1.614-1.587c-0.226-1.075-0.056-2.108,0.401-3.099
		c0.266-0.577,0.635-1.078,1.151-1.456c0.61-0.448,1.285-0.655,2.047-0.495c0.621,0.131,1.009,0.593,1.04,1.222
		c0.04,0.813-0.325,1.394-1.021,1.779c-0.545,0.301-1.145,0.426-1.759,0.485c-0.366,0.035-0.733,0.083-1.103,0.06
		c-0.158-0.01-0.19,0.072-0.2,0.197c-0.036,0.461-0.015,0.917,0.144,1.355c0.226,0.624,0.732,0.979,1.399,1.01
		c0.524,0.023,1.016-0.101,1.495-0.296C242.768,73.729,242.847,73.656,242.955,73.671z M239.765,70.923
		c0.494,0.027,0.949,0.007,1.402-0.053c0.388-0.05,0.769-0.134,1.121-0.31c0.411-0.203,0.698-0.508,0.786-0.977
		c0.132-0.706-0.377-1.229-1.092-1.132c-0.45,0.061-0.825,0.26-1.15,0.563C240.284,69.527,239.966,70.167,239.765,70.923z"/>
	<path fill-rule="evenodd" clip-rule="evenodd" fill="#070709" d="M272.039,73.645c0.023,0.032,0.033,0.04,0.034,0.049
		c0.015,0.631,0.1,0.497-0.452,0.706c-0.585,0.221-1.192,0.273-1.812,0.192c-0.854-0.113-1.531-0.817-1.672-1.767
		c-0.188-1.268,0.08-2.443,0.779-3.512c0.415-0.634,0.968-1.108,1.716-1.314c0.335-0.092,0.672-0.126,1.024-0.071
		c0.735,0.114,1.312,0.668,1.141,1.691c-0.103,0.62-0.472,1.048-1.011,1.339c-0.548,0.297-1.146,0.421-1.76,0.481
		c-0.367,0.035-0.733,0.076-1.104,0.061c-0.121-0.005-0.184,0.035-0.188,0.169c-0.012,0.447-0.026,0.893,0.123,1.325
		c0.229,0.664,0.729,1.036,1.425,1.067c0.513,0.021,0.994-0.1,1.464-0.287C271.84,73.739,271.93,73.694,272.039,73.645z
		 M268.863,70.898c0.05,0.016,0.081,0.033,0.111,0.034c0.537,0.013,1.073-0.005,1.601-0.109c0.382-0.075,0.755-0.189,1.077-0.425
		c0.407-0.298,0.571-0.7,0.516-1.195c-0.042-0.37-0.283-0.638-0.646-0.721c-0.505-0.116-0.947,0.042-1.349,0.335
		C269.463,69.334,269.094,70.069,268.863,70.898z"/>
	<path fill-rule="evenodd" clip-rule="evenodd" fill="#070709" d="M122.654,73.662c0.027,0.655,0.115,0.533-0.462,0.745
		c-0.575,0.211-1.17,0.265-1.777,0.187c-0.867-0.113-1.554-0.81-1.687-1.789c-0.185-1.362,0.114-2.621,0.952-3.724
		c0.482-0.634,1.113-1.05,1.923-1.162c0.306-0.043,0.604-0.021,0.893,0.066c0.712,0.217,1.057,0.88,0.889,1.685
		c-0.101,0.481-0.357,0.859-0.761,1.139c-0.458,0.317-0.978,0.474-1.521,0.564c-0.507,0.086-1.018,0.137-1.532,0.125
		c-0.166-0.003-0.243,0.035-0.248,0.219c-0.012,0.426-0.01,0.848,0.123,1.259c0.218,0.675,0.735,1.059,1.444,1.087
		c0.513,0.021,0.993-0.104,1.462-0.291C122.444,73.735,122.525,73.671,122.654,73.662z M119.447,70.936
		c0.65-0.002,1.25-0.004,1.841-0.145c0.306-0.072,0.598-0.169,0.867-0.333c0.382-0.232,0.583-0.575,0.625-1.014
		c0.047-0.486-0.243-0.879-0.721-0.973c-0.495-0.097-0.926,0.07-1.313,0.358C120.052,69.348,119.684,70.072,119.447,70.936z"/>
	<path fill-rule="evenodd" clip-rule="evenodd" fill="#070709" d="M164.634,65.814c-0.067,0.106-0.128,0.208-0.193,0.306
		c-1.127,1.664-2.253,3.328-3.383,4.99c-0.108,0.16-0.179,0.327-0.216,0.519c-0.173,0.886-0.361,1.77-0.532,2.656
		c-0.035,0.177-0.107,0.243-0.288,0.233c-0.417-0.023-0.445,0.095-0.334-0.406c0.196-0.881,0.378-1.767,0.574-2.648
		c0.033-0.146,0.032-0.277-0.006-0.424c-0.449-1.715-0.891-3.432-1.333-5.147c-0.005-0.02-0.001-0.043-0.001-0.072
		c0.015-0.05,0.064-0.046,0.106-0.048c0.495-0.025,0.491-0.024,0.609,0.459c0.34,1.397,0.684,2.793,1.026,4.189
		c0.011,0.043,0.035,0.081,0.054,0.123c0.102-0.035,0.127-0.129,0.174-0.198c0.954-1.431,1.911-2.858,2.853-4.297
		c0.141-0.215,0.288-0.322,0.54-0.28C164.391,65.787,164.505,65.741,164.634,65.814z"/>
	<path fill-rule="evenodd" clip-rule="evenodd" fill="#070709" d="M262.694,73.528c0.165,0.08,0.304,0.146,0.44,0.214
		c0.675,0.331,1.379,0.44,2.112,0.249c0.463-0.12,0.788-0.402,0.899-0.891c0.104-0.457-0.01-0.839-0.385-1.133
		c-0.265-0.208-0.556-0.373-0.848-0.535c-0.293-0.164-0.579-0.339-0.837-0.554c-0.768-0.639-0.784-1.774-0.039-2.441
		c0.402-0.36,0.891-0.504,1.412-0.532c0.619-0.033,1.219,0.081,1.803,0.296c0.178,0.064,0.188,0.149,0.119,0.295
		c-0.049,0.1-0.088,0.203-0.14,0.326c-0.32-0.095-0.619-0.243-0.946-0.298c-0.456-0.075-0.913-0.107-1.357,0.043
		c-0.599,0.202-0.858,0.655-0.767,1.279c0.029,0.198,0.125,0.354,0.26,0.493c0.227,0.236,0.504,0.404,0.787,0.562
		c0.312,0.174,0.617,0.357,0.914,0.555c1.088,0.723,0.788,2.223-0.044,2.761c-0.461,0.298-0.966,0.404-1.494,0.413
		c-0.571,0.009-1.13-0.089-1.66-0.327c-0.177-0.08-0.259-0.184-0.233-0.381C262.707,73.803,262.694,73.68,262.694,73.528z"/>
	<path fill-rule="evenodd" clip-rule="evenodd" fill="#070709" d="M133.863,68.065c0.04-0.033,0.048-0.046,0.057-0.047
		c0.553-0.04,0.555-0.04,0.64,0.525c0.238,1.589,0.474,3.178,0.709,4.767c0.022,0.151,0.031,0.304,0.045,0.44
		c0.066,0.032,0.085,0.003,0.099-0.025c0.707-1.468,1.549-2.862,2.323-4.294c0.212-0.392,0.44-0.775,0.64-1.174
		c0.1-0.199,0.228-0.284,0.444-0.247c0.095,0.017,0.197-0.027,0.288,0.03c0.021,0.104-0.052,0.172-0.093,0.246
		c-1.091,1.982-2.184,3.964-3.281,5.943c-0.057,0.103-0.079,0.26-0.219,0.274c-0.187,0.021-0.379,0.011-0.568-0.002
		c-0.084-0.006-0.077-0.099-0.087-0.16c-0.061-0.363-0.12-0.727-0.178-1.09c-0.236-1.487-0.47-2.975-0.706-4.462
		C133.939,68.548,133.901,68.306,133.863,68.065z"/>
	<path fill-rule="evenodd" clip-rule="evenodd" fill="#070709" d="M236.44,68.516c-0.363,0-0.694,0-1.012,0
		c-0.062-0.119,0.004-0.199,0.011-0.285c0.009-0.113,0.067-0.144,0.174-0.15c0.245-0.015,0.489-0.049,0.733-0.063
		c0.151-0.01,0.241-0.061,0.294-0.216c0.123-0.358,0.272-0.707,0.403-1.062c0.083-0.225,0.059-0.308,0.43-0.238
		c-0.046,0.504-0.222,0.986-0.286,1.515c0.572,0,1.117,0,1.666,0c-0.091,0.611-0.036,0.49-0.532,0.5
		c-0.324,0.006-0.648,0-0.973,0.001c-0.268,0.002-0.272,0.003-0.328,0.259c-0.189,0.884-0.377,1.768-0.56,2.652
		c-0.107,0.514-0.237,1.021-0.301,1.544c-0.023,0.202-0.029,0.399,0.022,0.598c0.084,0.318,0.265,0.473,0.59,0.495
		c0.338,0.024,0.665-0.037,0.984-0.134c0.017,0.028,0.036,0.046,0.037,0.064c0.008,0.59,0.072,0.447-0.445,0.57
		c-0.257,0.061-0.525,0.075-0.798,0.05c-0.506-0.047-0.982-0.385-1.023-1.124c-0.025-0.462,0.072-0.91,0.166-1.358
		c0.244-1.157,0.49-2.313,0.734-3.471C236.435,68.629,236.434,68.596,236.44,68.516z"/>
	<path fill-rule="evenodd" clip-rule="evenodd" fill="#070709" d="M153.976,73.925c0.051,0.545,0.053,0.556-0.422,0.641
		c-0.262,0.047-0.526,0.073-0.798,0.049c-0.56-0.052-0.99-0.438-1.027-1.12c-0.025-0.463,0.071-0.911,0.166-1.359
		c0.251-1.188,0.503-2.377,0.761-3.592c-0.353-0.064-0.698,0.004-1.032-0.041c-0.06-0.099,0.008-0.179,0.017-0.265
		c0.01-0.105,0.055-0.151,0.167-0.157c0.224-0.012,0.445-0.056,0.667-0.057c0.208-0.002,0.322-0.077,0.39-0.279
		c0.112-0.338,0.251-0.667,0.38-1c0.104-0.266,0.104-0.266,0.432-0.252c-0.042,0.509-0.229,0.99-0.278,1.519
		c0.559,0,1.104,0,1.642,0c0.012,0.043,0.025,0.065,0.021,0.083c-0.094,0.422-0.094,0.422-0.53,0.422c-0.324,0-0.648-0.001-0.973,0
		c-0.278,0.002-0.281,0.003-0.342,0.285c-0.186,0.873-0.371,1.745-0.553,2.619c-0.108,0.524-0.242,1.044-0.305,1.577
		c-0.024,0.202-0.023,0.4,0.031,0.598c0.084,0.294,0.269,0.445,0.578,0.469C153.305,74.089,153.632,74.026,153.976,73.925z"/>
	<path fill-rule="evenodd" clip-rule="evenodd" fill="#070709" d="M246.216,68.023c-0.053,0.386-0.101,0.738-0.151,1.109
		c0.104-0.017,0.138-0.101,0.19-0.157c0.137-0.147,0.263-0.306,0.407-0.443c0.635-0.605,1.379-0.774,2.234-0.552
		c-0.007,0.197-0.044,0.376-0.124,0.557c-0.132-0.018-0.262-0.036-0.392-0.052c-0.722-0.086-1.281,0.212-1.733,0.746
		c-0.438,0.52-0.726,1.122-0.927,1.765c-0.244,0.778-0.356,1.587-0.535,2.381c-0.068,0.305-0.143,0.608-0.19,0.917
		c-0.025,0.166-0.084,0.244-0.255,0.222c-0.011-0.002-0.022,0-0.033,0c-0.386,0.008-0.383,0.008-0.306-0.354
		c0.416-1.94,0.831-3.88,1.245-5.82c0.07-0.333,0.069-0.333,0.398-0.329C246.088,68.012,246.13,68.017,246.216,68.023z"/>
	<path fill-rule="evenodd" clip-rule="evenodd" fill="#070709" d="M257.498,69.061c0.184-0.195,0.354-0.404,0.552-0.583
		c0.567-0.515,1.229-0.686,1.985-0.545c0.2,0.037,0.207,0.117,0.169,0.266c-0.008,0.032-0.02,0.064-0.027,0.097
		c-0.06,0.236-0.06,0.237-0.316,0.198c-0.807-0.122-1.443,0.174-1.938,0.801c-0.501,0.633-0.817,1.355-0.995,2.136
		c-0.214,0.935-0.4,1.876-0.599,2.814c-0.057,0.267-0.057,0.268-0.313,0.27c-0.089,0.001-0.179-0.001-0.268-0.007
		c-0.02-0.001-0.038-0.02-0.075-0.04c0.128-0.615,0.256-1.235,0.388-1.855c0.305-1.429,0.611-2.857,0.917-4.285
		c0.069-0.322,0.07-0.323,0.408-0.314c0.043,0.001,0.091-0.012,0.148,0.052c-0.036,0.295-0.074,0.612-0.113,0.929
		c-0.023,0.05-0.044,0.114,0,0.146C257.449,69.159,257.477,69.093,257.498,69.061z"/>
	<path fill-rule="evenodd" clip-rule="evenodd" fill="#070709" d="M178.824,68.021c-0.029,0.381-0.124,0.722-0.126,1.123
		c0.225-0.237,0.404-0.447,0.604-0.636c0.578-0.546,1.26-0.727,2.04-0.569c0.143,0.029,0.199,0.075,0.155,0.216
		c-0.003,0.011-0.005,0.021-0.008,0.033c-0.03,0.106-0.033,0.233-0.095,0.314c-0.086,0.111-0.206-0.006-0.31-0.019
		c-0.683-0.08-1.252,0.126-1.72,0.63c-0.537,0.579-0.858,1.274-1.076,2.02c-0.233,0.805-0.357,1.634-0.536,2.451
		c-0.053,0.24-0.102,0.48-0.146,0.723c-0.028,0.156-0.104,0.232-0.272,0.21c-0.119-0.017-0.244,0.013-0.384-0.031
		c0.092-0.443,0.18-0.879,0.272-1.312c0.346-1.626,0.693-3.251,1.042-4.876c0.062-0.289,0.065-0.288,0.36-0.286
		C178.682,68.012,178.736,68.016,178.824,68.021z"/>
	<path fill-rule="evenodd" clip-rule="evenodd" fill="#070709" d="M213.041,65.235c-0.295,1.383-0.583,2.745-0.876,4.107
		c-0.35,1.625-0.702,3.249-1.055,4.873c-0.022,0.104,0.008,0.255-0.124,0.284c-0.138,0.032-0.292,0.027-0.433,0.005
		c-0.107-0.017-0.065-0.126-0.052-0.196c0.068-0.339,0.141-0.677,0.213-1.015c0.556-2.585,1.111-5.169,1.667-7.753
		c0.017-0.076,0.042-0.15,0.054-0.228c0.014-0.085,0.065-0.109,0.141-0.105C212.72,65.214,212.865,65.186,213.041,65.235z"/>
	<path fill-rule="evenodd" clip-rule="evenodd" fill="#070709" d="M262.142,68.052c-0.409,1.937-0.817,3.876-1.228,5.816
		c-0.032,0.152-0.073,0.304-0.093,0.458c-0.019,0.138-0.076,0.193-0.217,0.19c-0.484-0.013-0.453,0.062-0.351-0.422
		c0.406-1.906,0.812-3.813,1.219-5.721c0.079-0.373,0.081-0.372,0.468-0.363C262.007,68.013,262.075,68.002,262.142,68.052z"/>
	<path fill-rule="evenodd" clip-rule="evenodd" fill="#070709" d="M209.609,68.05c-0.44,2.075-0.876,4.136-1.313,6.196
		c-0.056,0.266-0.06,0.265-0.312,0.269c-0.057,0-0.112-0.005-0.168,0c-0.135,0.012-0.18-0.038-0.149-0.175
		c0.081-0.371,0.15-0.743,0.229-1.114c0.35-1.634,0.7-3.268,1.05-4.902c0.067-0.313,0.065-0.314,0.377-0.312
		C209.411,68.013,209.502,67.993,209.609,68.05z"/>
	<path fill-rule="evenodd" clip-rule="evenodd" fill="#070709" d="M126.022,68.053c-0.324,1.534-0.648,3.07-0.972,4.607
		c-0.103,0.49-0.192,0.983-0.31,1.471c-0.105,0.438,0.013,0.375-0.457,0.383c-0.065,0.001-0.135,0.017-0.208-0.044
		c0.01-0.302,0.106-0.6,0.17-0.901c0.365-1.733,0.736-3.465,1.106-5.197c0.095-0.445,0.032-0.347,0.437-0.359
		c0.056-0.002,0.112,0,0.167,0.006C125.976,68.021,125.994,68.038,126.022,68.053z"/>
	<path fill-rule="evenodd" clip-rule="evenodd" fill="#070709" d="M210.115,66.113c-0.002,0.18-0.021,0.355-0.133,0.507
		c-0.12,0.164-0.3,0.234-0.466,0.175c-0.167-0.061-0.237-0.192-0.24-0.363c-0.002-0.155-0.01-0.311,0.05-0.46
		c0.097-0.242,0.303-0.389,0.504-0.352C210.036,65.657,210.12,65.801,210.115,66.113z"/>
	<path fill-rule="evenodd" clip-rule="evenodd" fill="#070709" d="M262.65,66.103c-0.002,0.191-0.022,0.378-0.147,0.535
		c-0.118,0.148-0.283,0.211-0.442,0.159c-0.169-0.056-0.244-0.185-0.249-0.356c-0.004-0.166-0.012-0.332,0.059-0.491
		c0.108-0.242,0.314-0.376,0.517-0.324C262.579,65.673,262.652,65.806,262.65,66.103z"/>
	<path fill-rule="evenodd" clip-rule="evenodd" fill="#070709" d="M126.546,66.132c-0.025,0.156-0.038,0.336-0.147,0.487
		c-0.107,0.148-0.25,0.22-0.434,0.184c-0.16-0.032-0.26-0.167-0.276-0.372c-0.013-0.168-0.005-0.334,0.066-0.491
		c0.098-0.221,0.302-0.355,0.492-0.32C126.444,65.657,126.555,65.838,126.546,66.132z"/>
	<path fill-rule="evenodd" clip-rule="evenodd" fill="#FFFFFF" d="M128.628,69.182c0,0.008,0.003,0.019-0.001,0.023
		c-0.014,0.021-0.03,0.016-0.042-0.014c-0.001-0.004,0.013-0.018,0.022-0.021C128.612,69.168,128.622,69.178,128.628,69.182z"/>
	<path fill-rule="evenodd" clip-rule="evenodd" fill="#FFFFFF" d="M257.498,69.061c-0.021,0.032-0.049,0.098-0.078,0.077
		c-0.044-0.031-0.023-0.096,0-0.146C257.446,69.015,257.472,69.039,257.498,69.061z"/>
</g>
</svg>
