<?xml version="1.0" encoding="utf-8"?>
<!-- Generator: Adobe Illustrator 16.0.0, SVG Export Plug-In . SVG Version: 6.00 Build 0)  -->
<!DOCTYPE svg PUBLIC "-//W3C//DTD SVG 1.1//EN" "http://www.w3.org/Graphics/SVG/1.1/DTD/svg11.dtd">
<svg version="1.1" id="Ebene_1" xmlns="http://www.w3.org/2000/svg" xmlns:xlink="http://www.w3.org/1999/xlink" x="0px" y="0px"
	 width="283.46px" height="90.646px" viewBox="0 0 283.46 90.646" enable-background="new 0 0 283.46 90.646" xml:space="preserve">
<g>
	<path fill-rule="evenodd" clip-rule="evenodd" fill="#F3E500" d="M3.434,50.376C0.1,42.914,2.544,32.267,9.086,26.352
		c5.814-5.256,12.515-6.715,19.995-4.207c1.232,0.414,2.427,0.949,3.44,1.801c-0.3,0-0.607,0.042-0.899-0.007
		c-5.357-0.893-10.254,0.257-14.636,3.426c-1.008,0.729-2.304,1.263-2.699,2.655l0.012-0.007c-0.246-0.041-0.36,0.118-0.46,0.301
		c-0.457,0.368-0.914,0.737-1.37,1.105c-0.365,0.258-0.754,0.488-1.091,0.778C5.82,36.983,3.463,43.172,3.434,50.376z"/>
	<path fill-rule="evenodd" clip-rule="evenodd" fill="#F3E500" d="M239.609,50.268c-2.775-7.491-1.792-14.576,2.812-20.978
		c4.531-6.299,10.905-8.899,18.64-8.096c2.882,0.298,5.608,1.024,7.969,2.799c-0.601-0.025-1.209,0.005-1.799-0.083
		c-4.46-0.668-8.683,0.097-12.575,2.313c-1.688,0.961-3.547,1.854-4.446,3.797l0.012-0.007c-0.367-0.079-0.541,0.115-0.622,0.439
		c-0.406,0.318-0.811,0.635-1.218,0.953c-0.165,0.097-0.396,0.149-0.287,0.429l0.013-0.013c-1.891,0.767-3.022,2.386-4.157,3.919
		C240.766,40.042,239.465,44.949,239.609,50.268z"/>
	<path fill-rule="evenodd" clip-rule="evenodd" fill="#F3E500" d="M97.594,50.311c-2.657-7.409-1.574-14.358,2.857-20.737
		c5.896-8.491,17.062-11.088,25.611-6.119c0.256,0.149,0.481,0.352,0.722,0.53c-0.3-0.009-0.606,0.019-0.899-0.03
		c-4.937-0.829-9.556,0.005-13.756,2.755c-1.386,0.907-2.924,1.709-3.705,3.32l0.01-0.009c-0.203-0.015-0.307,0.087-0.329,0.283
		l0.008-0.004c-0.204-0.037-0.294,0.089-0.356,0.254c-0.37,0.272-0.74,0.544-1.109,0.816c-0.436,0.333-0.894,0.639-1.303,1.001
		C99.954,37.136,97.685,43.254,97.594,50.311z"/>
	<path fill-rule="evenodd" clip-rule="evenodd" fill="#F3E500" d="M188.94,50.495c-2.956-8.348-1.543-16.014,4.205-22.613
		c5.506-6.32,12.57-8.313,20.712-5.989c1.492,0.426,2.918,1.057,4.139,2.061c-0.199,0.007-0.406,0.051-0.599,0.018
		c-6.027-1.046-11.386,0.431-16.105,4.277c-0.593,0.483-1.383,0.84-1.467,1.762l0.007-0.003c-0.369-0.097-0.525,0.119-0.622,0.423
		c-0.283,0.218-0.565,0.436-0.849,0.655c-0.26,0.21-0.76,0.208-0.654,0.741l0.013-0.014c-1.903,0.751-3.022,2.377-4.185,3.898
		C190.212,40.066,188.864,45.067,188.94,50.495z"/>
	<path fill-rule="evenodd" clip-rule="evenodd" fill="#2C4B9A" d="M86.119,50.632c-0.284,0.272-0.568,0.544-0.853,0.816
		c-1.089,0.177-2.046,0.752-3.155,0.935c-2.954,0.489-5.917,0.197-8.872,0.245c-3.758,0.062-3.759,0.016-3.719,3.777
		c-0.014,0.051-0.034,0.1-0.059,0.145c-1.053-0.013-2.109,0.02-3.158-0.049c-0.889-0.06-1.103,0.327-1.09,1.144
		c0.052,3.059,0.051,6.118,0.068,9.179c-0.038,0.033-0.079,0.063-0.122,0.09c-0.545-0.014-1.09-0.035-1.635-0.036
		c-2.606-0.003-2.606-0.001-2.395-2.714c2.431-0.122,2.431-0.122,2.431-2.641c0-3.46,0.03-6.92-0.019-10.378
		c-0.014-0.973,0.254-1.303,1.266-1.279c2.856,0.067,5.715,0.052,8.572,0.014c1.598-0.022,3.183-0.202,4.688-0.813
		c5.842-2.371,8.47-6.962,9.004-13.005c0.911,1.567,1.315,3.266,1.456,5.066C88.799,44.58,87.811,47.688,86.119,50.632z"/>
	<path fill-rule="evenodd" clip-rule="evenodd" fill="#6EC6DC" d="M172.402,35.262c-0.016,9.836-0.028,19.674-0.05,29.512
		c-0.006,2.335,0.254,2.056-2.099,2.085c-0.751,0.011-1.502,0.047-2.252,0.07c-0.051-0.037-0.104-0.07-0.159-0.097
		c0.01-7.772,0.021-15.546,0.029-23.318c0.003-2.357,0.036-4.715-0.018-7.071c-0.022-0.985,0.316-1.35,1.301-1.295
		c1.05,0.057,2.104-0.009,3.156-0.021C172.343,35.171,172.372,35.216,172.402,35.262z"/>
	<path fill-rule="evenodd" clip-rule="evenodd" fill="#F4E616" d="M56.562,64.184c-1.068,0.144-1.465-0.213-1.461-1.395
		c0.045-13.373,0.042-26.747,0.004-40.121c-0.002-1.118,0.275-1.445,1.421-1.432c5.58,0.062,11.162,0.017,16.742,0.034
		c2.895,0.007,5.546,0.766,7.792,2.682c-5.465,0.011-10.93,0.024-16.395,0.032c-3.8,0.005-3.8,0.001-3.546,3.859l-0.089,0.092
		c-1.002-0.029-2.011-0.001-3.006-0.104c-1.122-0.116-1.459,0.27-1.449,1.417c0.055,6.385,0.018,12.771,0.029,19.156
		c0.009,5.227,0.042,10.454,0.063,15.683L56.562,64.184z"/>
	<path fill-rule="evenodd" clip-rule="evenodd" fill="#70C7DA" d="M33.874,24.589c4.099,0.98,7.222,3.475,9.759,6.659
		c7.494,9.403,6.59,22.383-2.033,30.724c-0.611,0.592-1.226,1.185-2.037,1.507c0.084-0.181,0.142-0.38,0.257-0.537
		c4.326-5.895,5.425-12.41,3.688-19.442c-0.118-0.477,0.069-1.304-0.816-1.404c-0.027-0.484-0.055-0.968-0.082-1.452
		c0.124-1.476-0.349-2.854-0.738-4.236C40.514,31.589,37.733,27.721,33.874,24.589z"/>
	<path fill-rule="evenodd" clip-rule="evenodd" fill="#70C7DA" d="M128.624,24.897c1.959,0.128,3.446,1.303,4.958,2.339
		c11.616,7.954,12.396,26.451,1.51,35.346c-0.341,0.279-0.767,0.454-1.151,0.677c0.171-0.302,0.325-0.615,0.515-0.903
		c4.325-6.615,5.313-13.621,2.466-21.075c-0.045-0.228-0.091-0.457-0.137-0.685c-0.029-2.713-0.964-5.182-2.025-7.623
		C133.372,29.778,131.014,27.328,128.624,24.897z"/>
	<path fill-rule="evenodd" clip-rule="evenodd" fill="#70C7DA" d="M219.758,24.869c2.604,0.341,4.63,1.851,6.531,3.46
		c9.979,8.438,10.503,24.246,1.144,33.307c-0.56,0.54-1.072,1.197-1.941,1.286c0.218-0.388,0.422-0.782,0.656-1.162
		c3.968-6.441,4.781-13.205,2.084-20.33c-0.027-0.205-0.054-0.411-0.082-0.616c-0.161-3.141-1.166-6.032-2.58-8.809
		C224.144,29.204,222.083,26.931,219.758,24.869z"/>
	<path fill-rule="evenodd" clip-rule="evenodd" fill="#2C4B9A" d="M136.923,41.281c2.846,7.454,1.858,14.459-2.467,21.075
		c-0.189,0.288-0.343,0.602-0.515,0.903c-0.622,0.581-1.24,1.16-1.861,1.739c-0.225,0.004-0.398,0.073-0.425,0.329l0.008-0.005
		c-0.29,0.037-0.616,0-0.864,0.123c-3.334,1.651-6.886,1.95-10.517,1.678c-3.04-0.228-5.85-1.15-8.309-3.012
		c0.302,0.009,0.608-0.017,0.902,0.031c8.828,1.393,16.428-2.225,20.998-9.907C136.262,50.221,137.041,45.866,136.923,41.281z"/>
	<path fill-rule="evenodd" clip-rule="evenodd" fill="#A7559C" d="M223.711,64.672c-3.285,3.787-7.494,5.857-12.419,6.322
		c-11.695,1.104-20.243-7.555-21.982-17.947c-0.065-0.392-0.02-0.8-0.025-1.199c0.881,1.369,1.44,2.913,2.44,4.225
		c2.74,3.592,6.022,6.394,10.497,7.555c0.376,0.169,0.752,0.338,1.129,0.506c0.273,0.212,0.526,0.459,0.823,0.631
		c5.149,2.951,10.562,3.116,16.106,1.41C221.467,65.811,222.57,65.181,223.711,64.672z"/>
	<path fill-rule="evenodd" clip-rule="evenodd" fill="#2C4B9A" d="M42.69,42.096c0.885,0.099,0.698,0.926,0.816,1.403
		c1.738,7.032,0.638,13.548-3.688,19.442c-0.115,0.157-0.172,0.356-0.257,0.537c-0.454,0.409-0.908,0.818-1.362,1.229
		c-0.191,0.027-0.347,0.098-0.377,0.316l0.013-0.012c-0.285-0.01-0.566-0.015-0.529,0.4c0,0,0.006,0.013,0.006,0.012
		c-0.308-0.163-0.581-0.039-0.855,0.096c-3.41,1.662-7.05,1.911-10.734,1.583c-2.879-0.256-5.571-1.167-7.889-2.984
		c0.349,0.021,0.702,0.015,1.045,0.067c6.178,0.95,11.728-0.418,16.417-4.637C40.463,54.902,42.909,49.051,42.69,42.096z"/>
	<path fill-rule="evenodd" clip-rule="evenodd" fill="#A7559C" d="M274.375,65.026c-2.069,2.713-5.004,4.112-8.121,5.1
		c-12.653,4.006-22.56-4.294-25.657-14.576c-0.373-1.237-0.809-2.484-0.635-3.821c1.787,3.434,3.891,6.619,7.073,8.945
		c1.896,1.386,3.832,2.692,6.221,3.088c0.284,0.133,0.567,0.265,0.851,0.397c4.239,3.06,8.95,3.671,13.996,2.824
		C270.3,66.614,272.234,65.513,274.375,65.026z"/>
	<path fill-rule="evenodd" clip-rule="evenodd" fill="#2C4B9A" d="M223.711,64.672c-1.141,0.509-2.244,1.139-3.431,1.502
		c-5.545,1.706-10.957,1.541-16.106-1.41c-0.297-0.172-0.55-0.419-0.822-0.63c0.301,0.004,0.607-0.033,0.9,0.019
		c9.065,1.577,16.438-2.734,20.621-9.43c2.544-4.072,3.541-8.533,3.358-13.292c2.697,7.125,1.884,13.888-2.084,20.33
		c-0.234,0.38-0.438,0.774-0.656,1.162l0.007-0.01c-0.345,0.081-0.497,0.328-0.567,0.649
		C224.525,63.932,224.118,64.302,223.711,64.672z"/>
	<path fill-rule="evenodd" clip-rule="evenodd" fill="#A7559C" d="M17.833,64.118c2.319,1.817,5.011,2.729,7.89,2.984
		c3.685,0.328,7.324,0.079,10.734-1.583c0.275-0.135,0.548-0.259,0.855-0.096c-1.891,2.507-4.606,3.792-7.45,4.724
		C18.906,73.735,7.376,67.038,4.356,55.402c-0.288-1.107-0.665-2.211-0.586-3.388c1.079,1.645,1.914,3.445,3.187,4.965
		c2.616,3.123,5.652,5.632,9.724,6.617C17.064,63.77,17.448,63.944,17.833,64.118z"/>
	<path fill-rule="evenodd" clip-rule="evenodd" fill="#A7559C" d="M111.974,64.111c2.459,1.861,5.269,2.784,8.309,3.012
		c3.631,0.272,7.182-0.026,10.517-1.678c0.248-0.123,0.574-0.086,0.864-0.123c-2.603,3.004-5.978,4.688-9.799,5.393
		c-11.208,2.065-21.623-5.386-23.688-16.859c-0.133-0.734-0.408-1.461-0.255-2.23c1.23,2.959,3.035,5.517,5.385,7.693
		c2.169,2.007,4.614,3.527,7.508,4.253C111.202,63.751,111.588,63.933,111.974,64.111z"/>
	<path fill-rule="evenodd" clip-rule="evenodd" fill="#F3E500" d="M145.786,28.69c-1.196,0.219-1.565-0.276-1.487-1.465
		c0.103-1.601,0.058-3.213,0.011-4.819c-0.022-0.785,0.115-1.158,1.041-1.156c11.249,0.03,22.498,0.026,33.747,0.004
		c0.795-0.001,1.078,0.258,1.026,1.039c-0.035,0.544,0.047,1.097,0.076,1.646c-0.053,0.033-0.107,0.062-0.164,0.088
		c-8.972-0.014-17.941-0.029-26.912-0.04c-3.015-0.004-3.014-0.001-3.045,3.081c-0.002,0.25-0.023,0.5-0.037,0.75
		c-1.071,0.011-2.145,0.012-3.217,0.037c-0.451,0.01-1.06-0.154-0.959,0.669C145.832,28.576,145.806,28.632,145.786,28.69z"/>
	<path fill-rule="evenodd" clip-rule="evenodd" fill="#2C4B9A" d="M255.642,35.816c-0.213,0.182-0.424,0.363-0.635,0.544
		c-0.803,0.202-1.396,0.731-1.995,1.26c-3.563,3.143-4.731,7.284-4.939,11.827c-2.551-4.913-1.632-12.642,1.82-16.865
		c4.714-5.766,12.533-4.734,15.863-1.362C261.59,31.004,258.083,32.237,255.642,35.816z"/>
	<path fill-rule="evenodd" clip-rule="evenodd" fill="#66B330" d="M61.12,27.843c-0.254-3.858-0.254-3.854,3.546-3.859
		c5.464-0.008,10.929-0.021,16.395-0.032c0.27,0.124,0.541,0.247,0.811,0.37c0.375,0.4,0.756,0.795,1.121,1.204
		c2.551,2.856,4.144,6.097,4.014,10.027c-0.138-0.199-0.285-0.393-0.414-0.597c-2.94-4.66-6.986-7.24-12.675-7.079
		C69.656,27.997,65.386,27.863,61.12,27.843z"/>
	<path fill-rule="evenodd" clip-rule="evenodd" fill="#E42821" d="M253.256,63.762c-2.389-0.396-4.324-1.702-6.221-3.088
		c-3.183-2.326-5.286-5.512-7.073-8.945l0.01,0.019c0.021-0.248,0.012-0.484-0.217-0.647c-0.05-0.277-0.098-0.556-0.146-0.832
		c-0.145-5.319,1.156-10.225,4.341-14.527c1.135-1.533,2.267-3.152,4.157-3.919c0.111,0.535-0.349,0.803-0.571,1.169
		c-3.494,5.723-4.453,11.837-2.701,18.306C246.214,56.39,249.137,60.494,253.256,63.762z"/>
	<path fill-rule="evenodd" clip-rule="evenodd" fill="#E42821" d="M110.815,63.571c-2.894-0.726-5.339-2.246-7.508-4.253
		c-2.35-2.177-4.155-4.734-5.385-7.693c-0.11-0.438-0.219-0.877-0.328-1.315c0.091-7.055,2.36-13.173,7.751-17.938
		c0.409-0.362,0.867-0.668,1.302-1c0.104,0.528-0.308,0.813-0.549,1.18c-3.906,5.94-4.997,12.327-3.129,19.22
		C104.274,56.593,107.1,60.369,110.815,63.571z"/>
	<path fill-rule="evenodd" clip-rule="evenodd" fill="#E42821" d="M202.223,63.629c-4.476-1.163-7.758-3.965-10.498-7.557
		c-1-1.312-1.56-2.855-2.44-4.225c-0.114-0.451-0.229-0.902-0.344-1.353c-0.076-5.428,1.271-10.429,4.595-14.784
		c1.162-1.521,2.281-3.146,4.185-3.898c-0.017,0.548-0.436,0.887-0.696,1.303c-3.869,6.153-4.583,12.708-2.463,19.604
		C195.931,57.178,198.663,60.699,202.223,63.629z"/>
	<path fill-rule="evenodd" clip-rule="evenodd" fill="#E42821" d="M16.68,63.597c-4.072-0.985-7.107-3.494-9.724-6.617
		c-1.272-1.52-2.108-3.32-3.187-4.965c-0.112-0.546-0.224-1.094-0.336-1.64c0.03-7.203,2.386-13.392,7.945-18.177
		c0.337-0.29,0.727-0.52,1.091-0.777c0.075,0.462-0.27,0.727-0.488,1.052C7.661,38.89,6.817,45.788,9.19,53.102
		C10.578,57.378,13.313,60.718,16.68,63.597z"/>
	<path fill-rule="evenodd" clip-rule="evenodd" fill="#66B330" d="M219.758,24.869c2.325,2.062,4.386,4.335,5.812,7.136
		c1.414,2.777,2.419,5.668,2.58,8.809c-0.383-0.745-0.741-1.504-1.152-2.233c-3.988-7.083-9.845-11.061-18.176-10.985
		c-3.22,0.03-6.13,1.123-8.996,2.417c0.084-0.922,0.874-1.279,1.467-1.762c4.72-3.847,10.078-5.324,16.105-4.277
		c0.192,0.034,0.399-0.01,0.599-0.018c0.463,0.216,0.925,0.434,1.388,0.651c0.127,0.092,0.255,0.183,0.382,0.275L219.758,24.869z"/>
	<path fill-rule="evenodd" clip-rule="evenodd" fill="#66B330" d="M33.874,24.589c3.859,3.132,6.64,7,7.997,11.819
		c0.389,1.382,0.862,2.76,0.738,4.236c-1.048-2.032-2.065-4.09-3.581-5.83c-4.766-5.477-10.658-8.01-17.987-6.998
		c-2.413,0.333-4.533,1.38-6.753,2.205c0.395-1.392,1.691-1.926,2.699-2.655c4.382-3.169,9.279-4.319,14.636-3.426
		c0.292,0.049,0.599,0.007,0.899,0.007C32.973,24.16,33.424,24.375,33.874,24.589z"/>
	<path fill-rule="evenodd" clip-rule="evenodd" fill="#66B330" d="M128.624,24.897c2.39,2.43,4.748,4.88,6.136,8.075
		c1.061,2.441,1.996,4.91,2.025,7.623c-1.503-3.008-3.229-5.852-5.808-8.09c-4.517-3.92-9.69-5.523-15.66-4.708
		c-2.46,0.335-4.628,1.391-6.894,2.233c0.781-1.611,2.319-2.413,3.705-3.32c4.2-2.75,8.819-3.584,13.756-2.755
		c0.293,0.049,0.599,0.021,0.899,0.03c0.41,0.198,0.82,0.397,1.23,0.595c0.142,0.235,0.325,0.388,0.622,0.326L128.624,24.897z"/>
	<path fill-rule="evenodd" clip-rule="evenodd" fill="#70C7DA" d="M87.006,35.552c0.13-3.93-1.463-7.171-4.014-10.027
		c-0.365-0.409-0.747-0.803-1.121-1.204c5.522,1.255,8.949,4.845,10.479,10.088c1.753,6.009-0.082,11.14-4.694,15.307
		c-0.45,0.406-0.94,0.751-1.536,0.915c1.691-2.943,2.679-6.052,2.409-9.505c-0.141-1.8-0.545-3.499-1.456-5.066
		C87.05,35.891,87.028,35.722,87.006,35.552z"/>
	<path fill-rule="evenodd" clip-rule="evenodd" fill="#66B330" d="M256.926,56.837c0.273,0.115,0.546,0.231,0.817,0.348
		c3.471,3.056,7.338,3.271,11.468,1.598c-2.145,3.848-7.455,5.838-11.914,4.547c-5.587-1.618-9.074-7.542-9.14-13.375
		c0.366,0.585,0.711,1.185,1.104,1.752C251.139,54.423,253.493,56.438,256.926,56.837z"/>
	<path fill-rule="evenodd" clip-rule="evenodd" fill="#66B330" d="M250.21,30.02c0.899-1.943,2.759-2.836,4.446-3.797
		c3.893-2.216,8.115-2.981,12.575-2.313c0.59,0.088,1.198,0.058,1.799,0.083c0.43,0.212,0.857,0.425,1.285,0.638
		c0.143,0.088,0.284,0.176,0.426,0.264l-0.013-0.01c0.795,1.151,1.953,1.971,2.746,3.141c1.682,2.473,1.717,2.468-0.883,3.945
		c-4.443-3.601-9.494-4.831-15.151-4.153C254.861,28.128,252.568,29.121,250.21,30.02z"/>
	<path fill-rule="evenodd" clip-rule="evenodd" fill="#2C4B9A" d="M274.375,65.026c-2.141,0.486-4.075,1.588-6.272,1.957
		c-5.046,0.847-9.757,0.235-13.995-2.824c1.039,0.109,2.075,0.281,3.117,0.317c5.956,0.207,11.231-1.453,15.521-5.755
		c0.108-0.011,0.218-0.022,0.325-0.035c0.44,0.302,0.862,0.637,1.323,0.899c2.632,1.505,2.636,1.499,1.375,4.17
		c-0.338,0.318-0.675,0.636-1.013,0.953c-0.2,0.024-0.364,0.095-0.396,0.325L274.375,65.026z"/>
	<path fill-rule="evenodd" clip-rule="evenodd" fill="#A7559C" d="M255.642,35.816c2.441-3.579,5.948-4.812,10.113-4.596
		c0.171,0.084,0.342,0.169,0.514,0.253c0.302,0.396,0.623,0.778,0.9,1.19c0.461,0.687,0.926,1.984,1.334,1.963
		c0.78-0.041,1.522-0.827,2.28-1.304c1.239,0.573,1.957,1.669,2.649,2.752c1.08,1.689,1.048,1.709,2.529,0.302
		c0.071,0.004,0.14,0.016,0.207,0.035c0.15,0.516-0.079,0.845-0.497,1.128c-1.705,1.155-3.403,2.316-5.087,3.5
		c-0.457,0.322-0.767,0.396-1.004-0.215c-1.841-4.732-8.381-6.944-13.497-5.093C255.944,35.782,255.788,35.789,255.642,35.816z"/>
	<path fill-rule="evenodd" clip-rule="evenodd" fill="#71C7DA" d="M256.926,56.837c-3.433-0.398-5.787-2.414-7.665-5.131
		c-0.393-0.567-0.737-1.167-1.104-1.752c-0.029-0.169-0.057-0.338-0.085-0.507c0.208-4.543,1.376-8.684,4.939-11.827
		c0.6-0.529,1.192-1.059,1.995-1.26c-3.094,5.6-3.401,11.278-0.514,17.063C255.128,54.694,256.172,55.659,256.926,56.837z"/>
	<path fill-rule="evenodd" clip-rule="evenodd" fill="#F3E500" d="M269.211,58.782c-4.13,1.674-7.997,1.458-11.468-1.598
		c4.606-0.006,8.295-1.674,10.539-5.885c0.363-0.682,0.699-0.516,1.182-0.226c1.54,0.931,3.091,1.841,4.636,2.758
		c-0.534,1.671-1.771,2.795-3.036,3.898C270.165,57.584,269.789,58.359,269.211,58.782z"/>
	<path fill-rule="evenodd" clip-rule="evenodd" fill="#A7559C" d="M145.786,28.69c0.02-0.059,0.046-0.114,0.08-0.167
		c1.415,0.022,2.832,0.045,4.248,0.068c-0.011,0.3-0.024,0.602-0.028,0.902c-0.027,2.005-0.026,2.003,1.944,2.01
		c1.956,0.006,3.912,0.018,5.867,0.027c0.033,1.21,0.064,2.421,0.097,3.63c-0.039,0.034-0.076,0.069-0.113,0.104
		c-3.554-0.024-7.109-0.098-10.663-0.043c-1.137,0.017-1.467-0.304-1.411-1.426C145.892,32.099,145.801,30.393,145.786,28.69z"/>
	<path fill-rule="evenodd" clip-rule="evenodd" fill="#A8589E" d="M69.52,56.405c-0.04-3.762-0.039-3.715,3.719-3.777
		c2.956-0.048,5.918,0.244,8.872-0.245c1.109-0.183,2.065-0.758,3.155-0.935c-2.387,3.232-5.683,4.774-9.607,4.991
		C73.619,56.553,71.566,56.425,69.52,56.405z"/>
	<path fill-rule="evenodd" clip-rule="evenodd" fill="#A8589E" d="M61.13,64.163c-0.211,2.713-0.211,2.711,2.395,2.714
		c0.545,0.001,1.09,0.022,1.635,0.036c0.076,3.839,0.076,3.839-3.74,3.839c-1.252,0-2.505-0.038-3.755,0.014
		c-0.782,0.031-1.051-0.246-1.042-1.029c0.021-1.852-0.035-3.702-0.06-5.553l0.105-0.097c1.457-0.008,2.913-0.016,4.368-0.024
		L61.13,64.163z"/>
	<path fill-rule="evenodd" clip-rule="evenodd" fill="#70C7DA" d="M276.169,36.412c-0.067-0.02-0.136-0.031-0.207-0.035
		c-0.713-1.749-1.93-3.096-3.387-4.251c-0.004-0.052,0-0.103,0.017-0.153c2.6-1.477,2.564-1.473,0.883-3.945
		c-0.793-1.17-1.951-1.99-2.746-3.141c1.301-0.118,2.295,0.659,3.327,1.226c2.603,1.432,4.626,3.484,6.174,6.025
		c0.456,0.748,0.444,1.18-0.368,1.68C278.583,34.604,277.396,35.539,276.169,36.412z"/>
	<path fill-rule="evenodd" clip-rule="evenodd" fill="#A7559C" d="M168.002,66.929c-0.034,0.399-0.091,0.798-0.096,1.195
		c-0.034,2.626-0.03,2.626-2.727,2.626c-1.005,0-2.01,0-3.015,0c-2.713,0-2.707,0-2.716-2.792c-0.004-1.254-0.038-2.509-0.058-3.762
		l0.086-0.106c1.446,0.025,2.892,0.052,4.338,0.076c0.213,2.723,0.213,2.725,2.989,2.705c0.347-0.002,0.692-0.024,1.038-0.039
		C167.898,66.858,167.951,66.892,168.002,66.929z"/>
	<path fill-rule="evenodd" clip-rule="evenodd" fill="#F4E616" d="M159.392,64.196c-1.186,0.163-1.485-0.355-1.481-1.52
		c0.03-9.136-0.011-18.274-0.029-27.411c0.037-0.036,0.074-0.07,0.113-0.104c1.187-0.15,1.466,0.385,1.462,1.534
		c-0.033,9.131,0.006,18.263,0.021,27.395L159.392,64.196z"/>
	<path fill-rule="evenodd" clip-rule="evenodd" fill="#70C7DA" d="M65.282,66.823c-0.018-3.061-0.016-6.12-0.068-9.179
		c-0.013-0.816,0.201-1.203,1.09-1.144c1.049,0.068,2.104,0.036,3.158,0.049c0.015,3.056-0.002,6.111,0.064,9.166
		c0.021,0.971-0.372,1.205-1.24,1.152C67.287,66.807,66.283,66.835,65.282,66.823z"/>
	<path fill-rule="evenodd" clip-rule="evenodd" fill="#71C7DA" d="M275.769,63.756c1.261-2.671,1.257-2.665-1.375-4.17
		c-0.461-0.263-0.883-0.598-1.323-0.899c0.611-0.893,1.222-1.788,1.836-2.678c0.661-0.959,0.697-1.757-0.558-2.235
		c0.36-0.465,0.716-0.159,1.044,0.03c1.729,0.989,3.431,2.03,5.182,2.977c0.796,0.429,0.778,0.901,0.395,1.566
		C279.676,60.574,278.091,62.519,275.769,63.756z"/>
	<path fill-rule="evenodd" clip-rule="evenodd" fill="#71C7DA" d="M180.2,23.939c1.601,0.017,3.202,0.056,4.803,0.036
		c0.706-0.009,0.979,0.236,0.966,0.954c-0.032,1.852-0.041,3.705,0.004,5.556c0.021,0.848-0.387,1.003-1.103,0.987
		c-1.05-0.023-2.101,0.016-3.151,0.029c-0.047-0.04-0.097-0.074-0.15-0.104c0.035-0.644,0.016-1.297,0.119-1.929
		c0.204-1.233-0.294-1.749-1.509-1.638c-0.083-1.267,0.155-2.546-0.143-3.805C180.093,24.002,180.147,23.972,180.2,23.939z"/>
	<path fill-rule="evenodd" clip-rule="evenodd" fill="#A7559C" d="M181.719,31.502c-0.031,0.842-0.123,1.688-0.073,2.525
		c0.052,0.917-0.286,1.196-1.194,1.186c-2.683-0.031-5.366,0.026-8.049,0.049c-0.03-0.045-0.06-0.09-0.091-0.135
		c0.022-0.697,0.129-1.403,0.047-2.088c-0.152-1.279,0.371-1.596,1.593-1.566c2.537,0.062,5.078-0.04,7.617-0.074
		C181.622,31.428,181.672,31.462,181.719,31.502z"/>
	<path fill-rule="evenodd" clip-rule="evenodd" fill="#66B330" d="M274.349,53.773c1.255,0.479,1.219,1.276,0.558,2.235
		c-0.614,0.89-1.225,1.785-1.836,2.678c-0.107,0.013-0.217,0.024-0.325,0.035c-0.56-0.331-1.12-0.661-1.682-0.991
		c1.266-1.104,2.502-2.228,3.036-3.898C274.186,53.82,274.268,53.801,274.349,53.773z"/>
	<path fill-rule="evenodd" clip-rule="evenodd" fill="#70C7DA" d="M224.931,63.562c0.07-0.321,0.223-0.568,0.567-0.649
		C225.548,63.337,225.266,63.473,224.931,63.562z"/>
	<path fill-rule="evenodd" clip-rule="evenodd" fill="#A7559C" d="M239.755,51.1c0.229,0.163,0.238,0.399,0.217,0.647
		C239.747,51.582,239.7,51.357,239.755,51.1z"/>
	<path fill-rule="evenodd" clip-rule="evenodd" fill="#A7559C" d="M37.307,65.412c-0.037-0.415,0.245-0.41,0.529-0.4
		C37.765,65.284,37.623,65.464,37.307,65.412z"/>
	<path fill-rule="evenodd" clip-rule="evenodd" fill="#70C7DA" d="M128.636,24.906c-0.297,0.062-0.48-0.091-0.622-0.326
		C128.279,24.58,128.557,24.553,128.636,24.906z"/>
	<path fill-rule="evenodd" clip-rule="evenodd" fill="#A7559C" d="M37.823,65.023c0.03-0.219,0.186-0.289,0.377-0.316
		C38.075,64.813,37.949,64.918,37.823,65.023z"/>
	<path fill-rule="evenodd" clip-rule="evenodd" fill="#A7559C" d="M274.359,65.034c0.032-0.23,0.196-0.301,0.396-0.325
		C274.625,64.817,274.492,64.925,274.359,65.034z"/>
	<path fill-rule="evenodd" clip-rule="evenodd" fill="#A7559C" d="M131.656,65.327c0.027-0.256,0.2-0.325,0.425-0.329
		C132.001,65.188,131.888,65.335,131.656,65.327z"/>
	<path fill-rule="evenodd" clip-rule="evenodd" fill="#70C7DA" d="M219.766,24.88c-0.127-0.092-0.255-0.183-0.382-0.275
		C219.574,24.608,219.739,24.647,219.766,24.88z"/>
	<path fill-rule="evenodd" clip-rule="evenodd" fill="#70C7DA" d="M270.741,24.895c-0.142-0.088-0.283-0.176-0.426-0.264
		C270.519,24.621,270.694,24.654,270.741,24.895z"/>
	<path fill-rule="evenodd" clip-rule="evenodd" fill="#0B0603" d="M14.288,30.02c2.22-0.824,4.341-1.872,6.753-2.205
		c7.329-1.012,13.221,1.521,17.987,6.998c1.515,1.74,2.532,3.798,3.581,5.83c0.027,0.484,0.055,0.968,0.082,1.452
		c0.219,6.956-2.228,12.807-7.394,17.454c-4.69,4.219-10.239,5.587-16.417,4.637c-0.344-0.053-0.696-0.046-1.045-0.067
		c-0.385-0.174-0.77-0.349-1.153-0.521c-3.367-2.879-6.102-6.219-7.49-10.495c-2.373-7.313-1.529-14.212,2.792-20.629
		c0.218-0.325,0.563-0.59,0.488-1.052c0.456-0.369,0.914-0.738,1.371-1.106c0.229,0.017,0.414-0.036,0.459-0.301L14.288,30.02z
		 M32.403,59.297c0.245,0.021,0.307-0.172,0.392-0.338c0.117-0.108,0.233-0.217,0.35-0.324c0.929-0.408,1.717-1.014,2.441-1.72
		c4.47-4.357,5.896-11.476,3.433-17.664c-1.676-4.21-4.494-7.185-9.205-7.908c-0.126-0.046-0.252-0.092-0.379-0.139
		c-0.206-0.212-0.388-0.456-0.622-0.63c-5.427-4.04-12.959-2.167-16.31,4.098c-2.672,4.996-2.566,10.127-0.566,15.311
		c0.084,0.691,0.154,1.386,0.254,2.074c0.872,6.024,5.371,12.708,13.695,11.424c2.727-0.422,5.078-1.662,6.527-4.188L32.403,59.297z
		"/>
	<path fill-rule="evenodd" clip-rule="evenodd" fill="#66B330" d="M14.3,30.013c-0.045,0.265-0.23,0.317-0.459,0.301
		C13.94,30.131,14.055,29.972,14.3,30.013z"/>
	<path fill-rule="evenodd" clip-rule="evenodd" fill="#0B0603" d="M271.063,57.73c0.562,0.33,1.122,0.66,1.682,0.991
		c-4.289,4.302-9.564,5.962-15.521,5.755c-1.042-0.036-2.078-0.208-3.117-0.317c-0.284-0.133-0.567-0.265-0.852-0.397
		c-4.119-3.268-7.042-7.372-8.421-12.465c-1.752-6.469-0.793-12.583,2.701-18.306c0.223-0.366,0.683-0.634,0.571-1.169l-0.013,0.013
		c0.3-0.007,0.312-0.206,0.287-0.429c0.407-0.317,0.812-0.635,1.218-0.953c0.228-0.117,0.566-0.078,0.622-0.439l-0.012,0.007
		c2.358-0.899,4.651-1.892,7.23-2.201c5.657-0.678,10.708,0.552,15.151,4.153c-0.017,0.051-0.021,0.101-0.017,0.153
		c-0.596,0.334-1.19,0.668-1.787,1.002c-1.427-0.771-2.834-1.591-4.52-1.654c-0.172-0.084-0.343-0.169-0.514-0.253
		c-3.329-3.371-11.148-4.403-15.862,1.363c-3.452,4.223-4.371,11.952-1.82,16.865c0.028,0.169,0.056,0.338,0.085,0.507
		c0.065,5.833,3.553,11.757,9.14,13.375c4.459,1.291,9.77-0.699,11.914-4.547C269.789,58.359,270.165,57.584,271.063,57.73z"/>
	<path fill-rule="evenodd" clip-rule="evenodd" fill="#66B330" d="M250.222,30.013c-0.056,0.361-0.395,0.322-0.622,0.439
		C249.681,30.128,249.854,29.934,250.222,30.013z"/>
	<path fill-rule="evenodd" clip-rule="evenodd" fill="#E42821" d="M248.382,31.405c0.025,0.224,0.013,0.422-0.287,0.429
		C247.986,31.554,248.217,31.502,248.382,31.405z"/>
	<path fill-rule="evenodd" clip-rule="evenodd" fill="#0B0603" d="M108.424,30.03c2.265-0.842,4.433-1.897,6.894-2.233
		c5.97-0.815,11.143,0.788,15.66,4.708c2.58,2.238,4.305,5.082,5.808,8.09c0.046,0.228,0.092,0.457,0.137,0.685
		c0.118,4.586-0.66,8.94-3.048,12.955c-4.57,7.683-12.169,11.3-20.998,9.907c-0.294-0.048-0.601-0.022-0.902-0.031
		c-0.386-0.179-0.772-0.36-1.159-0.54c-3.715-3.202-6.541-6.979-7.846-11.801c-1.868-6.893-0.777-13.279,3.129-19.22
		c0.242-0.367,0.654-0.652,0.549-1.18c0.37-0.272,0.74-0.545,1.11-0.817c0.119-0.085,0.238-0.17,0.356-0.254l-0.008,0.004
		c0.2,0.01,0.321-0.071,0.329-0.283L108.424,30.03z M126.975,58.951c0.135-0.112,0.271-0.228,0.406-0.341
		c1.333-0.633,2.471-1.529,3.366-2.692c3.922-5.096,4.642-10.7,2.42-16.665c-1.588-4.266-4.498-7.133-9.139-7.949
		c-0.132-0.036-0.263-0.071-0.395-0.106c-3.647-3.509-9.821-3.678-13.748-0.376c-5.196,4.371-6.696,12.155-3.673,19.072
		c0.04,0.137,0.08,0.274,0.121,0.409c0.073,4.717,1.795,8.652,5.668,11.452C116.802,65.225,124.073,63.823,126.975,58.951z"/>
	<path fill-rule="evenodd" clip-rule="evenodd" fill="#66B330" d="M108.434,30.021c-0.008,0.212-0.129,0.292-0.329,0.283
		C108.127,30.108,108.231,30.006,108.434,30.021z"/>
	<path fill-rule="evenodd" clip-rule="evenodd" fill="#66B330" d="M108.113,30.3c-0.118,0.084-0.237,0.169-0.356,0.254
		C107.819,30.389,107.909,30.263,108.113,30.3z"/>
	<path fill-rule="evenodd" clip-rule="evenodd" fill="#0B0603" d="M199.825,30.012c2.866-1.293,5.776-2.387,8.996-2.417
		c8.331-0.076,14.188,3.903,18.176,10.985c0.411,0.729,0.77,1.489,1.152,2.233c0.028,0.206,0.055,0.411,0.082,0.616
		c0.183,4.76-0.814,9.22-3.358,13.292c-4.184,6.695-11.556,11.007-20.621,9.43c-0.293-0.052-0.6-0.015-0.9-0.019
		c-0.378-0.169-0.754-0.338-1.13-0.507c-3.559-2.928-6.291-6.449-7.661-10.906c-2.12-6.896-1.406-13.451,2.463-19.604
		c0.261-0.416,0.68-0.754,0.696-1.303l-0.013,0.014c0.401-0.085,0.564-0.382,0.654-0.741c0.283-0.219,0.565-0.438,0.849-0.656
		c0.228-0.113,0.56-0.067,0.622-0.422L199.825,30.012z M218.275,58.941c0.184-0.198,0.366-0.396,0.549-0.594
		c0.866-0.062,1.419-0.668,1.999-1.191c4.478-4.034,6.068-11.215,3.839-17.384c-1.618-4.479-4.446-7.64-9.384-8.442
		c-0.111-0.04-0.221-0.081-0.33-0.121c-3.333-3.144-8.49-3.672-12.479-1.279c-5.97,3.581-8.395,12.941-5.072,19.582
		c0.028,0.177,0.054,0.354,0.082,0.53c0.091,2.89,0.863,5.594,2.359,8.06C204.324,65.498,214.24,65.313,218.275,58.941z"/>
	<path fill-rule="evenodd" clip-rule="evenodd" fill="#E42821" d="M198.361,31.086c-0.09,0.359-0.253,0.656-0.654,0.741
		C197.602,31.295,198.102,31.296,198.361,31.086z"/>
	<path fill-rule="evenodd" clip-rule="evenodd" fill="#66B330" d="M199.832,30.008c-0.062,0.355-0.395,0.309-0.622,0.422
		C199.307,30.127,199.463,29.911,199.832,30.008z"/>
	<path fill-rule="evenodd" clip-rule="evenodd" fill="#060304" d="M87.006,35.552c0.022,0.169,0.044,0.338,0.066,0.508
		c-0.534,6.043-3.162,10.634-9.004,13.005c-1.506,0.611-3.091,0.791-4.688,0.813c-2.857,0.038-5.716,0.054-8.572-0.014
		c-1.011-0.023-1.28,0.307-1.266,1.279c0.049,3.458,0.019,6.918,0.019,10.378c0,2.519,0,2.519-2.431,2.641l-0.094-0.101
		c-0.002-12.042-0.004-24.084-0.005-36.127l0.089-0.092c4.267,0.02,8.536,0.154,12.798,0.033c5.688-0.161,9.735,2.419,12.675,7.079
		C86.722,35.16,86.869,35.354,87.006,35.552z M77.612,31.478c-0.08-0.047-0.166-0.082-0.257-0.103
		c-0.71-1.438-1.873-2.307-3.437-2.562c-2.993-0.489-6.015-0.074-9.017-0.235c-1.07-0.058-1.383,0.327-1.367,1.375
		c0.053,3.666,0.069,7.334-0.008,10.999c-0.025,1.18,0.319,1.676,1.494,1.521c0.011,1.803,0.075,3.608,0.013,5.409
		c-0.032,0.949,0.306,1.182,1.203,1.165c2.805-0.051,5.611-0.014,8.417-0.021c2.392-0.006,4.21-1.455,4.848-3.848
		c0.08-0.021,0.154-0.055,0.223-0.1c1.519-0.118,2.587-0.948,3.427-2.15c1.126-1.611,1.302-3.435,1.186-5.317
		C84.082,33.469,81.706,31.308,77.612,31.478z"/>
	<path fill-rule="evenodd" clip-rule="evenodd" fill="#2C4998" d="M181.568,31.398c-2.539,0.035-5.08,0.136-7.617,0.074
		c-1.222-0.029-1.745,0.288-1.593,1.566c0.082,0.685-0.024,1.391-0.047,2.088c-1.053,0.012-2.106,0.078-3.156,0.021
		c-0.984-0.054-1.323,0.311-1.301,1.295c0.054,2.356,0.021,4.714,0.018,7.071c-0.009,7.772-0.02,15.545-0.029,23.318
		c-0.346,0.015-0.691,0.037-1.038,0.039c-2.776,0.02-2.776,0.018-2.989-2.705c0.001,0,0.111-0.094,0.111-0.094
		c2.426,0.106,2.426,0.106,2.426-2.25c0-10.604,0.018-21.208-0.026-31.813c-0.006-1.14,0.316-1.456,1.438-1.436
		c3.618,0.066,7.236,0.042,10.855,0.002c0.478-0.005,1.318,0.439,1.348-0.638c0.07-0.035,0.141-0.07,0.212-0.106
		c1.215-0.111,1.713,0.405,1.509,1.638C181.584,30.102,181.604,30.754,181.568,31.398z"/>
	<path fill-rule="evenodd" clip-rule="evenodd" fill="#E62E21" d="M61.031,27.935c0.001,12.043,0.003,24.085,0.005,36.127
		c-1.456,0.009-2.912,0.017-4.368,0.024c-0.021-5.229-0.054-10.456-0.063-15.683c-0.011-6.385,0.026-12.771-0.029-19.156
		c-0.01-1.148,0.328-1.533,1.449-1.417C59.02,27.934,60.028,27.906,61.031,27.935z"/>
	<path fill-rule="evenodd" clip-rule="evenodd" fill="#66B330" d="M180.179,27.832c-0.071,0.036-0.142,0.071-0.212,0.106
		c-9.924,0.005-19.849,0.009-29.773,0.014c-0.061-0.033-0.111-0.078-0.151-0.134c0.014-0.25,0.035-0.5,0.037-0.75
		c0.031-3.082,0.03-3.084,3.045-3.081c8.971,0.011,17.94,0.026,26.912,0.04C180.334,25.286,180.096,26.565,180.179,27.832z"/>
	<path fill-rule="evenodd" clip-rule="evenodd" fill="#E42821" d="M150.114,28.592c-1.416-0.023-2.833-0.046-4.248-0.068
		c-0.101-0.824,0.508-0.659,0.959-0.669c1.072-0.025,2.146-0.026,3.217-0.037c0.04,0.056,0.091,0.101,0.151,0.134
		c0.012,0.178,0.023,0.355,0.036,0.534C150.177,28.507,150.139,28.542,150.114,28.592z"/>
	<path fill-rule="evenodd" clip-rule="evenodd" fill="#2C4B9A" d="M270.788,33.127c0.597-0.334,1.191-0.668,1.787-1.002
		c1.457,1.156,2.674,2.503,3.387,4.251c-1.481,1.407-1.449,1.387-2.529-0.302c-0.692-1.083-1.41-2.179-2.649-2.752
		C270.779,33.258,270.78,33.193,270.788,33.127z"/>
	<path fill-rule="evenodd" clip-rule="evenodd" fill="#E42821" d="M270.788,33.127c-0.008,0.065-0.009,0.13-0.005,0.195
		c-0.758,0.477-1.5,1.263-2.28,1.304c-0.408,0.021-0.873-1.276-1.334-1.963c-0.277-0.412-0.599-0.794-0.9-1.19
		C267.954,31.537,269.361,32.356,270.788,33.127z"/>
	<path fill-rule="evenodd" clip-rule="evenodd" fill="#E42821" d="M159.478,64.09c-0.016-9.132-0.055-18.264-0.021-27.395
		c0.004-1.148-0.275-1.684-1.462-1.534c-0.032-1.209-0.063-2.42-0.097-3.63c0.064-0.051,0.113-0.113,0.148-0.186
		c1.354,0.03,2.715,0.173,4.055,0.061c1.45-0.122,1.836,0.348,1.828,1.808c-0.056,10.286-0.014,20.572-0.002,30.858
		c0,0-0.11,0.094-0.111,0.094C162.369,64.142,160.924,64.115,159.478,64.09z"/>
	<path fill-rule="evenodd" clip-rule="evenodd" fill="#2E4997" d="M158.046,31.345c-0.035,0.073-0.084,0.134-0.148,0.186
		c-1.955-0.009-3.911-0.021-5.867-0.027c-1.971-0.007-1.972-0.004-1.944-2.01c0.004-0.3,0.018-0.602,0.028-0.902
		c0.024-0.05,0.062-0.085,0.114-0.107c1.532,0.036,3.062,0.094,4.596,0.103C157.761,28.604,157.761,28.593,158.046,31.345z"/>
	<path fill-rule="evenodd" clip-rule="evenodd" fill="#2C4B9A" d="M11.936,49.982c-2-5.184-2.106-10.315,0.566-15.311
		c3.351-6.265,10.883-8.138,16.31-4.098c0.234,0.174,0.416,0.418,0.622,0.63c-0.549,0.008-1.101-0.019-1.646,0.03
		c-3.384,0.307-6.24,1.572-8.136,4.546c-0.262,0.208-0.523,0.414-0.785,0.621c-0.206-0.027-0.318,0.066-0.343,0.269l0.012-0.01
		c-1.254,0.49-2.174,1.404-3,2.418c-2.59,3.177-3.615,6.848-3.393,10.903C12.073,49.981,12.004,49.981,11.936,49.982z"/>
	<path fill-rule="evenodd" clip-rule="evenodd" fill="#E42821" d="M29.813,31.343c4.711,0.724,7.529,3.698,9.205,7.908
		c2.464,6.188,1.038,13.307-3.433,17.664c-0.724,0.706-1.512,1.312-2.439,1.719c0.214-0.396,0.442-0.783,0.64-1.186
		c2.418-4.911,2.76-9.896,0.521-14.969c-0.039-0.235-0.077-0.469-0.115-0.703C34.155,37.701,32.568,34.277,29.813,31.343z"/>
	<path fill-rule="evenodd" clip-rule="evenodd" fill="#66B330" d="M11.936,49.982c0.069-0.001,0.137-0.001,0.206-0.001
		c1.728,3.682,4.354,6.24,8.549,6.833c0.257,0.107,0.513,0.215,0.77,0.321c1.415,1.474,3.232,2.072,5.175,2.468
		c1.965,0.4,3.849-0.267,5.777-0.312c-1.449,2.526-3.801,3.767-6.527,4.188c-8.324,1.284-12.823-5.399-13.695-11.424
		C12.09,51.368,12.02,50.674,11.936,49.982z"/>
	<path fill-rule="evenodd" clip-rule="evenodd" fill="#F3E500" d="M32.412,59.292c-1.928,0.045-3.812,0.712-5.777,0.312
		c-1.942-0.396-3.76-0.994-5.174-2.468c4.025,0.086,7.364-1.285,9.781-4.609c2.179-2.996,3.036-6.395,3.066-10.047
		c2.239,5.073,1.897,10.058-0.521,14.969c-0.198,0.402-0.425,0.789-0.64,1.186c-0.119,0.108-0.235,0.217-0.353,0.325
		c-0.2,0.032-0.384,0.083-0.391,0.338L32.412,59.292z"/>
	<path fill-rule="evenodd" clip-rule="evenodd" fill="#A7559C" d="M29.813,31.343c2.755,2.934,4.342,6.358,4.379,10.433
		c-1.132-1.775-2.308-3.51-4.067-4.752c-3.27-2.311-6.805-2.328-10.474-1.243c1.896-2.974,4.752-4.239,8.136-4.546
		c0.545-0.049,1.097-0.022,1.646-0.03C29.561,31.25,29.687,31.297,29.813,31.343z"/>
	<path fill-rule="evenodd" clip-rule="evenodd" fill="#66B330" d="M32.403,59.297c0.006-0.255,0.191-0.306,0.391-0.338
		C32.71,59.125,32.648,59.317,32.403,59.297z"/>
	<path fill-rule="evenodd" clip-rule="evenodd" fill="#2C4B9A" d="M106.213,49.894c-3.023-6.917-1.523-14.701,3.673-19.072
		c3.926-3.302,10.1-3.133,13.747,0.375c-4.034-0.083-7.478,1.087-9.822,4.606c-0.215,0.186-0.431,0.373-0.645,0.559
		c-1.861,0.771-3.137,2.213-4.252,3.8C106.867,43.078,106.216,46.401,106.213,49.894z"/>
	<path fill-rule="evenodd" clip-rule="evenodd" fill="#E42821" d="M124.028,31.304c4.642,0.816,7.552,3.684,9.14,7.949
		c2.222,5.965,1.502,11.569-2.42,16.665c-0.896,1.163-2.033,2.06-3.366,2.692c3.009-5.258,3.361-10.706,1.167-16.335
		C128.325,38.089,126.912,34.395,124.028,31.304z"/>
	<path fill-rule="evenodd" clip-rule="evenodd" fill="#66B330" d="M126.975,58.951c-2.902,4.872-10.173,6.273-14.973,2.804
		c-3.873-2.8-5.595-6.735-5.668-11.452c0.263,0.416,0.522,0.835,0.792,1.246c1.884,2.868,4.327,4.902,7.879,5.285
		c0.125,0.062,0.248,0.126,0.372,0.188c0.104,0.046,0.207,0.094,0.311,0.14l-0.015-0.015c0.203,0.209,0.379,0.457,0.613,0.621
		C119.629,60.126,123.238,60.126,126.975,58.951z"/>
	<path fill-rule="evenodd" clip-rule="evenodd" fill="#F3E500" d="M126.975,58.951c-3.737,1.175-7.346,1.175-10.688-1.183
		c-0.234-0.164-0.411-0.412-0.613-0.621c4.952,0.094,8.586-2.066,10.89-6.434c1.387-2.63,2.032-5.442,1.85-8.425l0.135-0.014
		c2.195,5.629,1.842,11.077-1.167,16.335C127.246,58.724,127.11,58.839,126.975,58.951z"/>
	<path fill-rule="evenodd" clip-rule="evenodd" fill="#70C7DA" d="M115.006,56.834c-3.552-0.383-5.995-2.417-7.879-5.285
		c-0.271-0.411-0.529-0.83-0.792-1.246c-0.041-0.135-0.081-0.272-0.122-0.409c0.003-3.493,0.654-6.816,2.701-9.731
		c1.115-1.587,2.391-3.03,4.252-3.801C109.273,42.489,109.677,51.544,115.006,56.834z"/>
	<path fill-rule="evenodd" clip-rule="evenodd" fill="#A7559C" d="M128.548,42.275c0,0-0.135,0.014-0.135,0.013
		c-0.765-2.027-2.051-3.665-3.749-4.985c-3.325-2.588-7.005-2.664-10.853-1.5c2.344-3.519,5.789-4.689,9.822-4.606
		c0.132,0.036,0.263,0.071,0.395,0.106C126.912,34.395,128.325,38.089,128.548,42.275z"/>
	<path fill-rule="evenodd" clip-rule="evenodd" fill="#2C4B9A" d="M197.397,49.515c-3.323-6.643-0.898-16.002,5.071-19.583
		c3.989-2.393,9.146-1.865,12.479,1.279c-0.551,0.006-1.104-0.02-1.65,0.023c-3.467,0.281-6.315,1.678-8.279,4.643
		c-0.214,0.171-0.427,0.341-0.64,0.511c-0.2-0.015-0.31,0.077-0.324,0.276l0.012-0.009c-1.37,0.478-2.322,1.484-3.201,2.569
		C198.435,42.221,197.648,45.778,197.397,49.515z"/>
	<path fill-rule="evenodd" clip-rule="evenodd" fill="#E42821" d="M215.278,31.331c4.938,0.802,7.766,3.963,9.384,8.442
		c2.229,6.168,0.639,13.35-3.839,17.384c-0.58,0.523-1.133,1.129-1.999,1.191c0.155-0.312,0.312-0.623,0.465-0.938
		c2.379-4.841,2.755-9.76,0.563-14.775c-0.052-0.259-0.104-0.518-0.156-0.777C219.699,37.729,218.026,34.304,215.278,31.331z"/>
	<path fill-rule="evenodd" clip-rule="evenodd" fill="#66B330" d="M218.275,58.941c-4.035,6.372-13.951,6.557-18.438-0.839
		c-1.496-2.466-2.269-5.17-2.359-8.06c0.285,0.462,0.559,0.932,0.857,1.384c1.888,2.863,4.284,4.987,7.86,5.393
		c0.26,0.104,0.519,0.211,0.777,0.316c0.326,0.538,0.854,0.825,1.37,1.129C211.541,60.154,214.879,59.989,218.275,58.941z"/>
	<path fill-rule="evenodd" clip-rule="evenodd" fill="#F3E500" d="M218.275,58.941c-3.396,1.048-6.734,1.213-9.932-0.677
		c-0.516-0.304-1.044-0.591-1.369-1.128c4.472,0.091,7.958-1.653,10.352-5.492c1.725-2.764,2.368-5.815,2.526-9.01
		c2.191,5.016,1.815,9.935-0.563,14.775c-0.153,0.314-0.31,0.625-0.465,0.938C218.642,58.545,218.459,58.743,218.275,58.941z"/>
	<path fill-rule="evenodd" clip-rule="evenodd" fill="#70C7DA" d="M206.196,56.819c-3.576-0.405-5.973-2.529-7.86-5.393
		c-0.299-0.452-0.572-0.922-0.857-1.384c-0.028-0.177-0.054-0.354-0.081-0.529c0.251-3.735,1.037-7.292,3.468-10.291
		c0.879-1.085,1.831-2.091,3.201-2.569c-0.089,0.279-0.151,0.572-0.273,0.838C200.636,44.427,201.201,50.898,206.196,56.819z"/>
	<path fill-rule="evenodd" clip-rule="evenodd" fill="#A7559C" d="M215.278,31.331c2.748,2.974,4.421,6.399,4.418,10.527
		c-3.617-6.496-9.037-7.925-14.678-5.981c1.964-2.965,4.812-4.362,8.279-4.643c0.547-0.043,1.1-0.017,1.65-0.023
		C215.058,31.25,215.167,31.291,215.278,31.331z"/>
	<path fill-rule="evenodd" clip-rule="evenodd" fill="#2E4997" d="M65.02,42.472c-1.175,0.155-1.519-0.341-1.494-1.521
		c0.078-3.665,0.061-7.333,0.008-10.999c-0.016-1.048,0.297-1.433,1.367-1.375c3.002,0.161,6.024-0.254,9.017,0.235
		c1.564,0.255,2.727,1.125,3.437,2.562c-1.433,0.278-2.88,0.105-4.319,0.119c-3.435,0.03-3.435,0.01-3.554,3.472
		c-0.001,0.049-0.01,0.099-0.015,0.148c-1.042,0.017-2.087,0.081-3.127,0.036c-0.825-0.036-1.155,0.225-1.13,1.088
		c0.059,2.035,0.04,4.073,0.053,6.11C65.181,42.388,65.1,42.43,65.02,42.472z"/>
	<path fill-rule="evenodd" clip-rule="evenodd" fill="#66B330" d="M65.02,42.472c0.08-0.042,0.161-0.084,0.243-0.125
		c1.398,0.038,2.796,0.076,4.195,0.114c0.017,0.248,0.082,0.505,0.04,0.743c-0.279,1.593,0.407,2.001,1.942,1.94
		c2.683-0.108,5.374,0.01,8.062,0.034c-0.638,2.393-2.456,3.842-4.848,3.848c-2.806,0.007-5.612-0.03-8.417,0.021
		c-0.897,0.017-1.235-0.216-1.203-1.165C65.095,46.08,65.03,44.275,65.02,42.472z"/>
	<path fill-rule="evenodd" clip-rule="evenodd" fill="#E42821" d="M77.611,31.477c4.095-0.169,6.471,1.992,6.725,6.133
		c0.116,1.883-0.06,3.706-1.186,5.317c-0.84,1.203-1.909,2.033-3.427,2.15c0.583-2.752,0.479-5.399-1.207-7.801
		C78.761,35.259,78.407,33.333,77.611,31.477z"/>
	<path fill-rule="evenodd" clip-rule="evenodd" fill="#F3E500" d="M78.517,37.277c1.687,2.401,1.79,5.048,1.207,7.801
		c-0.069,0.045-0.144,0.079-0.223,0.1c-2.688-0.024-5.379-0.143-8.062-0.034c-1.535,0.062-2.222-0.347-1.942-1.94
		c0.042-0.238-0.023-0.495-0.04-0.743l0.095-0.101c0.848,0.024,1.695,0.067,2.542,0.069c3.837,0.006,5.527-1.379,6.306-5.155
		L78.517,37.277z"/>
	<path fill-rule="evenodd" clip-rule="evenodd" fill="#A7559C" d="M78.517,37.277c0,0-0.117-0.003-0.117-0.003
		c-1.03-1.477-2.556-1.992-4.242-2.062c-1.532-0.062-3.069,0.019-4.604,0.037c-0.026-0.048-0.055-0.092-0.087-0.136
		c0.005-0.049,0.014-0.099,0.015-0.148c0.119-3.462,0.119-3.441,3.554-3.472c1.439-0.013,2.887,0.16,4.319-0.119
		c0.091,0.021,0.178,0.056,0.257,0.103C78.407,33.333,78.761,35.259,78.517,37.277z"/>
	<path fill-rule="evenodd" clip-rule="evenodd" fill="#060304" d="M158.046,31.345c-0.285-2.752-0.285-2.741-3.222-2.757
		c-1.533-0.009-3.063-0.067-4.596-0.103c-0.012-0.178-0.023-0.355-0.035-0.534c9.925-0.004,19.85-0.009,29.773-0.014
		c-0.029,1.077-0.87,0.633-1.348,0.638c-3.619,0.04-7.237,0.063-10.855-0.002c-1.121-0.021-1.443,0.296-1.438,1.436
		c0.044,10.604,0.026,21.208,0.026,31.813c0,2.356,0,2.356-2.426,2.25c-0.012-10.286-0.054-20.573,0.002-30.858
		c0.008-1.46-0.378-1.93-1.828-1.808C160.761,31.519,159.399,31.375,158.046,31.345z"/>
	<path fill-rule="evenodd" clip-rule="evenodd" fill="#70C7DA" d="M18.535,36.66c-0.453,1.887-1.524,3.548-1.844,5.503
		c-0.899,5.517,0.277,10.42,4,14.651c-4.195-0.593-6.821-3.151-8.549-6.833c-0.222-4.056,0.803-7.726,3.393-10.903
		C16.361,38.064,17.28,37.15,18.535,36.66z"/>
	<path fill-rule="evenodd" clip-rule="evenodd" fill="#70C7DA" d="M18.866,36.402c-0.114,0.089-0.228,0.179-0.343,0.269
		C18.548,36.468,18.661,36.375,18.866,36.402z"/>
	<path fill-rule="evenodd" clip-rule="evenodd" fill="#F3E500" d="M115.378,57.022c0.104,0.046,0.207,0.094,0.311,0.14
		C115.585,57.116,115.482,57.068,115.378,57.022z"/>
	<path fill-rule="evenodd" clip-rule="evenodd" fill="#70C7DA" d="M204.379,36.387c-0.109,0.092-0.217,0.184-0.324,0.276
		C204.069,36.464,204.179,36.372,204.379,36.387z"/>
	<path fill-rule="evenodd" clip-rule="evenodd" fill="#6EC6DC" d="M69.457,42.461c-1.398-0.038-2.797-0.076-4.195-0.114
		c-0.013-2.037,0.005-4.075-0.053-6.11c-0.024-0.863,0.306-1.124,1.13-1.088c1.04,0.045,2.084-0.019,3.127-0.036
		c0.032,0.043,0.061,0.088,0.086,0.136c0,2.37,0,4.74-0.001,7.111L69.457,42.461z"/>
</g>
</svg>
