<?xml version="1.0" encoding="utf-8"?>
<!-- Generator: Adobe Illustrator 16.0.0, SVG Export Plug-In . SVG Version: 6.00 Build 0)  -->
<!DOCTYPE svg PUBLIC "-//W3C//DTD SVG 1.1//EN" "http://www.w3.org/Graphics/SVG/1.1/DTD/svg11.dtd">
<svg version="1.1" id="Ebene_1" xmlns="http://www.w3.org/2000/svg" xmlns:xlink="http://www.w3.org/1999/xlink" x="0px" y="0px"
	 width="283.46px" height="164.194px" viewBox="0 0 283.46 164.194" enable-background="new 0 0 283.46 164.194"
	 xml:space="preserve">
<g id="layer1" transform="translate(-226.84625,-656.655)">
	<path id="path2805" fill="#FAB72C" d="M384.503,761.473c0.202,0.027,0.051,0.275,0.151,0.404h0.073
		c0.757-0.556,1.437-1.185,2.341-1.409c1.836-0.202,3.497,0.376,4.934,1.331c0.703,0.505,1.309,1.134,1.887,1.812
		c0.454,0.478,1.134,0.478,1.712,0.656c1.661,0.326,3.171,0.932,4.58,1.836c0.982,0.578,1.763,1.634,2.892,1.785
		c1.386,0.229,2.667,0.68,3.878,1.387c1.433,0.954,2.818,2.111,4.503,2.441c3.524,0.377,6.416,2.363,9.211,4.301
		c1.635,0.932,3.497,2.065,5.485,1.358c0.555-0.253,1.005-0.729,1.207-1.28c0.174-1.312-0.629-2.318-1.46-3.272
		c-1.712-1.965-4.58-3.626-4.277-6.545c0.527-2.111,2.841-3.369,4.704-3.975c1.033-0.377,2.29-0.253,3.121-1.106
		c0.478-0.303,0.656-1.285,1.386-0.932c0.602,0.404,0.652,1.106,0.753,1.763c0.275,2.061-0.174,4.126-2.038,5.311
		c-0.881,0.55-1.863,0.803-2.868,1.005c1.561,1.285,3.043,2.79,3.924,4.529c0.505,1.006,0.809,1.91,0.882,3.094
		c-0.051,2.189-1.409,4.104-3.296,5.236c-1.105,0.602-2.363,0.826-3.699,0.804c-0.505-0.023-0.954-0.124-1.437-0.124
		c0.202,1.028,0.229,2.441-0.022,3.571c-0.073,0.605-0.478,1.257-0.427,1.964c0.275,0.349,0.702,0.376,1.133,0.376
		c0.979,0.023,2.111-0.05,2.616,0.955c0.45,0.932,0.68,2.037,1.028,2.97c0.151,0.151,0.202,0.504,0.454,0.431
		c0.656-0.605,1.309-1.363,2.268-1.161c0.904,0.579,1.785,1.263,2.639,1.914c0.229,0.253,0.326,0.556,0.354,0.904
		c0.758,0.303,1.662,0.831,1.914,1.661c0.175,0.556,0.073,1.157,0.225,1.689c0.253,0.601,0.831,1.331,0.354,2.037l-0.279,0.248
		l-2.791,0.858c-0.252-0.027-0.478-0.128-0.629-0.354c-1.486-0.073-3.222,0.377-4.378-0.679c-0.528-0.427-0.904-0.982-1.285-1.511
		c-0.854,0.478-2.139,0.758-3.021,0.18c-1.836-1.437-3.699-2.795-6.136-2.745c-1.083,0.253-2.442,0.556-3.502,0.051
		c-1.005-0.729-2.213-1.106-3.043-2.166c-1.157-1.23-1.207-2.689-1.584-4.228l-0.077-0.073c-1.562,0.427-3.272,0.225-4.879,0.124
		c-1.336-0.051-2.594,0.129-3.801,0.403c-1.537,0.326-3.222,0.428-4.855,0.377l-0.78,0.605c0.349,0.102,0.753,0.073,1.028,0.326
		l0.303,0.326c1.335,0.128,2.818-0.102,4.075,0.252c0.303,0.102,0.606,0.377,0.758,0.68c0.124,0.353,0.124,0.808-0.078,1.133
		c-0.651,0.854-1.005,1.938-1.887,2.645c-0.252,0.275-0.903-0.051-0.954,0.427c-0.303,1.308-1.511,2.414-2.796,2.689
		c-0.527,0.101-1.078-0.023-1.556-0.175c-1.515-0.527-3.098-0.954-4.658-1.358c-0.527-0.151-0.932-0.656-1.382-0.982
		c-0.679-0.022-1.588,0.226-2.088-0.376c-0.354-0.326-0.729-1.083-0.757-1.106c-1.409,1.758-2.993,3.521-4.783,5.03
		c-7.448,6.315-18.592,8.381-27.987,4.984c-5.182-1.785-10.138-5.31-13.489-9.991c0.051-0.225-0.225-0.101-0.197-0.304
		c-0.303,0.657-0.757,1.487-1.51,1.74l-2.317,0.326c-1.836,0.779-3.699,1.408-5.562,2.088c-1.106,0.252-2.336,0.022-3.144-0.68
		c-0.629-0.555-1.033-1.184-1.409-1.863c-0.376-0.174-0.904-0.022-1.28-0.124c-0.381-0.05-0.583-0.354-0.808-0.605l-1.611-2.667
		c-0.151-0.354-0.151-0.881,0.028-1.234c0.326-0.601,0.982-0.881,1.611-0.904c1.18-0.101,2.515-0.477,3.621,0.023
		c0.528-0.602,1.335-0.5,2.065-0.652l0.073-0.022c-0.354-0.381-0.831-0.629-1.207-1.01c-2.116,0.505-4.502,0.179-6.545-0.225
		c-1.886-0.455-3.52,0.656-5.383,0.376l-0.579,1.234c-0.854,0.955-0.931,2.566-2.263,3.218c-0.931,0.252-1.689,0.881-2.52,1.312
		c-1.482,0.78-3.47,0.478-5.03,0.151c-0.629-0.051-1.134-0.027-1.685,0.197c-0.555,0.381-1.083,0.96-1.661,1.358
		c-0.932,0.404-1.739,1.161-2.795,1.234c-0.601-0.022-1.156-0.403-1.762-0.225c-0.752,0.804-1.079,2.139-2.29,2.465
		c-1.207,0.326-2.639,0.078-3.8-0.202c-0.349,0.151-0.602,0.478-1.028,0.377c-0.808-0.198-1.61-0.427-2.34-0.854
		c-0.303-0.274-0.354-0.628-0.427-0.981c0.023-0.528,0.399-0.955,0.628-1.409c0.101-0.551,0.051-1.23,0.303-1.735
		c0.376-0.83,1.207-1.308,1.959-1.688c0.101-0.578,0.455-1.106,0.955-1.382c0.982-0.527,1.992-1.712,3.222-1.005l1.308,1.134
		c1.161-0.505,0.858-1.689,1.459-2.621c0.28-0.629,0.656-1.358,1.437-1.409c0.528-0.101,1.083,0.051,1.611,0
		c0.753-0.225,1.51-0.527,2.088-1.105l-0.05-0.478c-0.757-1.386-0.932-3.07-1.005-4.755c-1.285,0.124-2.745,0.349-4.08,0.101
		c-2.088-0.33-4.048-1.941-4.829-3.928c-0.908-1.988-0.527-4.728,0.904-6.417c1.083-1.308,2.341-2.492,3.649-3.497
		c-0.427-0.124-0.955-0.101-1.381-0.202c-1.942-0.298-3.8-2.015-4.232-3.901c-0.298-1.257-0.023-2.414,0.579-3.47
		c0.202-0.229,0.431-0.427,0.78-0.303c0.931,0.377,1.248,0.854,2.157,1.331l0.514,0.303c2.414,0.808,5.659,0.831,6.568,3.777
		c0.601,2.313-0.858,4.099-2.593,5.411c-1.308,0.927-2.616,2.139-3.272,3.548c-0.275,1.028-0.124,2.061,0.757,2.768
		c0.904,0.854,2.437,0.854,3.548,0.427c2.088-0.858,3.947-2.217,5.788-3.626c1.758-1.308,3.896-1.808,6.113-1.886
		c1.005-0.202,1.914-0.652,2.745-1.309c1.358-1.331,2.841-2.414,4.654-2.841c0.78-0.179,1.634-0.202,2.442-0.33
		c0.628-0.299,1.078-1.056,1.634-1.46c2.391-2.088,5.664-2.061,8.202-3.722c1.459-1.134,3.07-1.863,5.007-1.763
		c0.881,0.051,1.689,0.202,2.418,0.528l0.051,0.05c0.073-0.073-0.078-0.101-0.051-0.174c5.182-6.72,12.429-10.52,20.589-11.25
		c6.265-0.504,12.052,1.006,17.06,3.925C379.344,755.865,382.241,758.43,384.503,761.473"/>
	<path id="path2807" fill="none" stroke="#FAB72C" stroke-width="0.031" stroke-miterlimit="3.864" d="M384.503,761.473
		c0.202,0.027,0.051,0.275,0.151,0.404h0.073c0.757-0.556,1.437-1.185,2.341-1.409c1.836-0.202,3.497,0.376,4.934,1.331
		c0.703,0.505,1.309,1.134,1.887,1.812c0.454,0.478,1.134,0.478,1.712,0.656c1.661,0.326,3.171,0.932,4.58,1.836
		c0.982,0.578,1.763,1.634,2.892,1.785c1.386,0.229,2.667,0.68,3.878,1.387c1.433,0.954,2.818,2.111,4.503,2.441
		c3.524,0.377,6.416,2.363,9.211,4.301c1.635,0.932,3.497,2.065,5.485,1.358c0.555-0.253,1.005-0.729,1.207-1.28
		c0.174-1.312-0.629-2.318-1.46-3.272c-1.712-1.965-4.58-3.626-4.277-6.545c0.527-2.111,2.841-3.369,4.704-3.975
		c1.033-0.377,2.29-0.253,3.121-1.106c0.478-0.303,0.656-1.285,1.386-0.932c0.602,0.404,0.652,1.106,0.753,1.763
		c0.275,2.061-0.174,4.126-2.038,5.311c-0.881,0.55-1.863,0.803-2.868,1.005c1.561,1.285,3.043,2.79,3.924,4.529
		c0.505,1.006,0.809,1.91,0.882,3.094c-0.051,2.189-1.409,4.104-3.296,5.236c-1.105,0.602-2.363,0.826-3.699,0.804
		c-0.505-0.023-0.954-0.124-1.437-0.124c0.202,1.028,0.229,2.441-0.022,3.571c-0.073,0.605-0.478,1.257-0.427,1.964
		c0.275,0.349,0.702,0.376,1.133,0.376c0.979,0.023,2.111-0.05,2.616,0.955c0.45,0.932,0.68,2.037,1.028,2.97
		c0.151,0.151,0.202,0.504,0.454,0.431c0.656-0.605,1.309-1.363,2.268-1.161c0.904,0.579,1.785,1.263,2.639,1.914
		c0.229,0.253,0.326,0.556,0.354,0.904c0.758,0.303,1.662,0.831,1.914,1.661c0.175,0.556,0.073,1.157,0.225,1.689
		c0.253,0.601,0.831,1.331,0.354,2.037l-0.279,0.248l-2.791,0.858c-0.252-0.027-0.478-0.128-0.629-0.354
		c-1.486-0.073-3.222,0.377-4.378-0.679c-0.528-0.427-0.904-0.982-1.285-1.511c-0.854,0.478-2.139,0.758-3.021,0.18
		c-1.836-1.437-3.699-2.795-6.136-2.745c-1.083,0.253-2.442,0.556-3.502,0.051c-1.005-0.729-2.213-1.106-3.043-2.166
		c-1.157-1.23-1.207-2.689-1.584-4.228l-0.077-0.073c-1.562,0.427-3.272,0.225-4.879,0.124c-1.336-0.051-2.594,0.129-3.801,0.403
		c-1.537,0.326-3.222,0.428-4.855,0.377l-0.78,0.605c0.349,0.102,0.753,0.073,1.028,0.326l0.303,0.326
		c1.335,0.128,2.818-0.102,4.075,0.252c0.303,0.102,0.606,0.377,0.758,0.68c0.124,0.353,0.124,0.808-0.078,1.133
		c-0.651,0.854-1.005,1.938-1.887,2.645c-0.252,0.275-0.903-0.051-0.954,0.427c-0.303,1.308-1.511,2.414-2.796,2.689
		c-0.527,0.101-1.078-0.023-1.556-0.175c-1.515-0.527-3.098-0.954-4.658-1.358c-0.527-0.151-0.932-0.656-1.382-0.982
		c-0.679-0.022-1.588,0.226-2.088-0.376c-0.354-0.326-0.729-1.083-0.757-1.106c-1.409,1.758-2.993,3.521-4.783,5.03
		c-7.448,6.315-18.592,8.381-27.987,4.984c-5.182-1.785-10.138-5.31-13.489-9.991c0.051-0.225-0.225-0.101-0.197-0.304
		c-0.303,0.657-0.757,1.487-1.51,1.74l-2.317,0.326c-1.836,0.779-3.699,1.408-5.562,2.088c-1.106,0.252-2.336,0.022-3.144-0.68
		c-0.629-0.555-1.033-1.184-1.409-1.863c-0.376-0.174-0.904-0.022-1.28-0.124c-0.381-0.05-0.583-0.354-0.808-0.605l-1.611-2.667
		c-0.151-0.354-0.151-0.881,0.028-1.234c0.326-0.601,0.982-0.881,1.611-0.904c1.18-0.101,2.515-0.477,3.621,0.023
		c0.528-0.602,1.335-0.5,2.065-0.652l0.073-0.022c-0.354-0.381-0.831-0.629-1.207-1.01c-2.116,0.505-4.502,0.179-6.545-0.225
		c-1.886-0.455-3.52,0.656-5.383,0.376l-0.579,1.234c-0.854,0.955-0.931,2.566-2.263,3.218c-0.931,0.252-1.689,0.881-2.52,1.312
		c-1.482,0.78-3.47,0.478-5.03,0.151c-0.629-0.051-1.134-0.027-1.685,0.197c-0.555,0.381-1.083,0.96-1.661,1.358
		c-0.932,0.404-1.739,1.161-2.795,1.234c-0.601-0.022-1.156-0.403-1.762-0.225c-0.752,0.804-1.079,2.139-2.29,2.465
		c-1.207,0.326-2.639,0.078-3.8-0.202c-0.349,0.151-0.602,0.478-1.028,0.377c-0.808-0.198-1.61-0.427-2.34-0.854
		c-0.303-0.274-0.354-0.628-0.427-0.981c0.023-0.528,0.399-0.955,0.628-1.409c0.101-0.551,0.051-1.23,0.303-1.735
		c0.376-0.83,1.207-1.308,1.959-1.688c0.101-0.578,0.455-1.106,0.955-1.382c0.982-0.527,1.992-1.712,3.222-1.005l1.308,1.134
		c1.161-0.505,0.858-1.689,1.459-2.621c0.28-0.629,0.656-1.358,1.437-1.409c0.528-0.101,1.083,0.051,1.611,0
		c0.753-0.225,1.51-0.527,2.088-1.105l-0.05-0.478c-0.757-1.386-0.932-3.07-1.005-4.755c-1.285,0.124-2.745,0.349-4.08,0.101
		c-2.088-0.33-4.048-1.941-4.829-3.928c-0.908-1.988-0.527-4.728,0.904-6.417c1.083-1.308,2.341-2.492,3.649-3.497
		c-0.427-0.124-0.955-0.101-1.381-0.202c-1.942-0.298-3.8-2.015-4.232-3.901c-0.298-1.257-0.023-2.414,0.579-3.47
		c0.202-0.229,0.431-0.427,0.78-0.303c0.931,0.377,1.248,0.854,2.157,1.331l0.514,0.303c2.414,0.808,5.659,0.831,6.568,3.777
		c0.601,2.313-0.858,4.099-2.593,5.411c-1.308,0.927-2.616,2.139-3.272,3.548c-0.275,1.028-0.124,2.061,0.757,2.768
		c0.904,0.854,2.437,0.854,3.548,0.427c2.088-0.858,3.947-2.217,5.788-3.626c1.758-1.308,3.896-1.808,6.113-1.886
		c1.005-0.202,1.914-0.652,2.745-1.309c1.358-1.331,2.841-2.414,4.654-2.841c0.78-0.179,1.634-0.202,2.442-0.33
		c0.628-0.299,1.078-1.056,1.634-1.46c2.391-2.088,5.664-2.061,8.202-3.722c1.459-1.134,3.07-1.863,5.007-1.763
		c0.881,0.051,1.689,0.202,2.418,0.528l0.051,0.05c0.073-0.073-0.078-0.101-0.051-0.174c5.182-6.72,12.429-10.52,20.589-11.25
		c6.265-0.504,12.052,1.006,17.06,3.925C379.344,755.865,382.241,758.43,384.503,761.473z"/>
	<path id="path2809" fill="#E62248" d="M503.118,676.68c-2.988,0-5.393,2.433-5.393,5.393c0,2.988,2.404,5.393,5.393,5.393
		c2.974,0,5.393-2.405,5.393-5.393C508.51,679.113,506.091,676.68,503.118,676.68z M502.2,677.369c0.309-0.063,0.59,0,0.918,0
		c2.606,0,4.704,2.098,4.704,4.705c0,2.634-2.098,4.704-4.704,4.704c-2.621,0-4.705-2.07-4.705-4.704
		C498.413,679.792,500.039,677.809,502.2,677.369z M459.287,677.484v60.927h11.589v-60.927H459.287z M478.793,677.484v60.927h11.589
		v-60.927H478.793z M342.252,677.598l0.115,28.685c-3.066-3.038-7.243-4.819-11.704-4.819c-9.546,0-17.211,8.376-17.211,18.817
		c0,10.446,7.665,18.932,17.211,18.932c4.511,0,8.628-1.84,11.704-4.934v3.901h11.474v-60.583H342.252z M501.167,679.09v5.966h0.688
		v-2.753h1.377l1.722,2.753h0.803l-1.721-2.753c1.073-0.028,1.836-0.422,1.836-1.606c0-0.51-0.239-1.12-0.688-1.377
		c-0.455-0.266-0.982-0.229-1.492-0.229H501.167z M501.855,679.549h1.722c0.748,0,1.606,0.101,1.606,1.033
		c0,1.225-1.336,1.147-2.181,1.147h-1.147V679.549z M229.232,680.352v57.944h12.277v-47.961h6.311c4.54,0,8.032,3.392,8.032,7.573
		s-3.717,7.573-8.261,7.573h-2.868v13.884L257,738.296h14.457l-16.981-24.21c7.619-1.827,13.31-8.596,13.31-16.637
		c0-9.441-7.816-17.096-17.44-17.096c-0.293,0-0.514-0.014-0.803,0H229.232z M369.674,680.811v57.485h25.473
		c9.775-0.161,17.67-7.578,17.67-16.637c0-6.591-2.309-11.3-10.098-14.917c3.162-2.951,5.049-6.898,5.049-11.245
		c0-3.933-1.482-7.486-4.131-10.327c-2.758-3.034-7.637-4.36-14.228-4.36H369.674z M381.952,690.679h7.688
		c3.387,0,6.196,2.694,6.196,6.081s-2.81,6.196-6.196,6.196h-4.016v10.441h7.458c4.107,0,7.114,3.24,7.114,7.344
		c-0.147,4.245-2.653,7.183-7.114,7.458h-11.13V690.679z M289.241,700.891c-10.552,0-19.047,8.596-19.047,19.276
		s8.495,19.391,19.047,19.391c8.055,0,14.43-3.584,17.67-9.294l-9.409-4.36c-1.193,2.584-3.975,4.36-7.229,4.36
		c-4.346,0-7.917-3.25-7.917-7.229c0-0.262-0.028-0.092,0-0.345h25.472c0.078-0.789,0.124-1.579,0.115-2.409
		C308.123,707.771,299.793,700.891,289.241,700.891z M416.833,702.841v23.063c0,7.802,8.051,14.113,18.015,14.113
		s18.129-6.311,18.129-14.113v-23.063l-11.359,0.115l-0.115,20.768c0,3.47-2.896,6.311-6.54,6.311c-3.648,0-6.655-2.841-6.655-6.311
		l0.115-20.883H416.833z M289.356,708.923c3.901,0,7.114,3.212,7.114,7.114h-14.113
		C282.357,712.135,285.455,708.923,289.356,708.923z M333.99,710.873c4.686,0,8.49,4.167,8.49,9.294s-3.804,9.179-8.49,9.179
		s-8.491-4.053-8.491-9.179S329.304,710.873,333.99,710.873z M291.766,761.359c-0.381,0.578-0.509,1.134-0.459,1.836
		c0.202,1.583,1.358,3.006,2.869,3.557c0.881,0.381,1.964,0.143,2.868,0.344c0.252,0.102,0.432,0.414,0.459,0.689
		c-0.05,0.252-0.004,0.514-0.229,0.688c-1.409,1.184-2.951,2.212-4.13,3.671c-1.262,1.358-1.34,3.801-0.688,5.508
		c0.729,1.965,2.74,3.305,4.704,3.557c1.432,0.226,2.708-0.179,4.016-0.459c0.174,0,0.271,0.129,0.344,0.229
		c0.128,1.157-0.138,2.157,0.115,3.213c0.229,0.982,0.564,1.685,0.917,2.64c0.051,0.33,0,0.665-0.229,0.917
		c-0.73,0.556-1.487,1.024-2.295,1.377l-1.951,0.115l-0.344,0.114c-0.729,0.858-0.808,1.8-1.262,2.754
		c-0.601,1.006-1.712,1.482-2.639,2.065c-0.303,0.478-0.601,1.001-1.033,1.377c-0.326,0.299-0.72,0.294-1.147,0.345
		c-0.679,0.78-0.808,1.863-1.033,2.868v0.114c1.106,0.102,2.359,0.717,3.442,0.115c0.932-0.427,1.133-1.615,1.836-2.295
		c0.555-0.605,1.298-0.124,1.95,0c0.982,0.051,1.694-0.707,2.524-1.032c0.578-0.381,1.12-1.001,1.721-1.377
		c1.161-0.556,2.694-0.226,3.901,0c0.955,0.252,2.038,0.032,2.869-0.345c0.78-0.481,1.528-1.06,2.41-1.262
		c0.78-0.404,1.161-1.221,1.492-1.951c0.248-0.675,0.854-1.285,0.803-2.065c-0.202-0.174-0.386-0.481-0.688-0.458
		c-0.376,0.527-0.721,1.101-1.147,1.605c-1.662,2.263-4.218,2.64-6.884,2.64c-2.745-0.102-5.228,0.729-7.114,2.868
		c-0.124,0.073-0.358,0.102-0.459,0c-0.073-0.298,0.221-0.578,0.344-0.803c1.685-2.392,4.346-2.933,7.114-2.983
		c1.51-0.102,2.845-0.262,4.13-0.918c1.432-0.729,2.492-2.263,3.098-3.672c0.326-1.583,0.399-3.31,0.803-4.819
		c0.05-0.151,0.215-0.165,0.344-0.114c0.152,0.022,0.345,0.055,0.345,0.229c-0.276,1.561-0.491,3.419,0.115,4.934
		c1.207,1.583,3.415,0.532,5.048,0.459c1.712-0.151,3.181,0.473,4.819,0.574c0.803-0.028,1.78,0.16,2.409-0.345
		c0.174-0.275-0.064-0.5-0.115-0.803c-0.05-0.455-0.316-1.116,0.115-1.492c0.124-0.101,0.243-0.009,0.345,0.115
		c0.229,0.633,0.404,1.285,0.803,1.835c0.808,1.033,1.987,1.832,3.098,2.41c1.056,0.725,1.877,1.698,1.951,2.983
		c0,0.651-0.528,1.188-1.033,1.491c-0.854,0.427-1.859,0.789-2.869,0.688c-1.331-0.656-1.643-2.069-2.524-3.098
		c-0.45-0.505-1.157-0.624-1.836-0.574c-0.729,0.074-1.414,0.12-2.065,0.345c-0.179,0.151-0.252,0.349-0.229,0.573
		c0.454,0.831,0.987,1.579,1.491,2.41c0.579,0.353,1.336-0.17,1.836,0.459c0.427,0.656,0.726,1.445,1.377,1.95
		c0.628,0.551,1.579,0.812,2.409,0.459c1.859-0.578,3.772-1.139,5.508-2.065h0.573c0.707-0.078,1.446-0.046,1.951-0.573
		c0.551-0.804,1.065-1.557,1.492-2.41c0.427-0.578,0.174-1.551,0-2.18c-0.854-1.061-1.386-2.235-1.836-3.442
		c-0.427-0.129-0.785-0.372-1.262-0.345c-0.225,0.102-0.56,0.092-0.689,0.345l2.065,3.901c0.129,0.303,0.193,0.743,0.115,1.147
		c-0.275,0.83-0.698,1.688-1.377,2.295c-0.128,0.073-0.243,0.06-0.344-0.115c0.229-0.854,0.624-1.771,0.573-2.754l-1.95-3.441
		c-0.225-0.478-0.602-0.937-0.574-1.492c0-0.252,0.257-0.473,0.459-0.573c0.854-0.28,1.868-0.239,2.524-0.918
		c0.854-1.331,1.381-2.543,1.606-4.131c0.05-0.102,0.078-0.345,0.229-0.345c0.151-0.05,0.156,0.156,0.229,0.229
		c0.252,1.74-0.142,3.58-1.147,4.935c-0.051,0.179-0.083,0.33,0.114,0.459c0.959,0.298,1.951-0.028,2.754-0.459
		c1.033,0.027,1.941-0.193,2.868-0.345c0.102,0.051,0.23,0.129,0.23,0.229c-0.629,0.707-0.969,1.506-1.147,2.41
		c-0.753,0.779-1.873,1.51-1.951,2.639c0.128,0.555,0.592-0.051,0.918,0c0.151,0.022,0.344,0.192,0.344,0.344l-0.803,1.147
		c-0.404,0.656,0.115,1.322,0.115,1.951c0.174,0.505,0.734,0.803,1.262,0.803c1.134-0.05,2.203-0.454,3.212-0.803
		c1.106-0.482,2.46-0.432,3.672-0.229c1.18-0.078,1.987-0.945,2.869-1.722c0.477,0,0.932,0.335,1.262,0.688
		c1.359,1.46,3.172,2.116,5.164,2.065l0.115-0.114c0.124-0.129,0.151-0.358,0-0.459l-1.262-0.574
		c-0.835-0.527-1.79-1.248-2.065-2.18c-0.252-0.831-0.762-1.717-1.262-2.524c-0.179-0.404-0.509-0.743-0.688-1.147
		c0.051-0.051,0.037-0.138,0.115-0.115c1.308,0.455,2.152,1.713,2.753,2.869c0.959,1.335,2.322,2.479,4.131,2.18l0.115-0.114
		c0.078-0.102,0.05-0.151,0-0.229l-0.918-0.459c-1.51-0.881-2.047-2.594-2.983-3.901c-0.326-0.478-0.959-0.785-1.262-1.262
		c-1.083-2.947-2.02-5.921-2.294-9.294c-0.229-0.831-0.349-1.63-0.803-2.41c-1.358-2.217-3.107-4.272-4.819-6.311
		c-0.151-0.151-0.5-0.257-0.574-0.459l-5.966-4.934c-0.73-0.551-1.464-0.886-2.295-1.263c-1.258-0.477-3.015-0.417-4.245,0.115
		c-1.285,0.679-2.428,1.61-3.787,2.065c-1.964,0.881-4.163,1.129-5.852,2.639c-0.977,0.858-1.868,2.176-3.327,1.95
		c-1.639-0.073-3.016,0.482-4.246,1.492c-1.11,1.005-2.24,2.244-3.671,2.524c-1.258,0.527-2.735,0.211-4.016,0.688
		c-2.042,0.505-3.653,2.212-5.393,3.441c-1.735,1.01-3.46,2.002-5.623,1.951c-1.409-0.101-2.763-1.051-3.212-2.409
		c-0.427-1.561,0.032-3.19,1.262-4.246c1.285-1.537,3.355-2.368,4.36-4.131c0.532-0.932,0.473-2.446-0.229-3.327
		c-1.335-1.382-3.313-1.523-5.049-1.95C293.528,762.662,292.743,761.886,291.766,761.359z M387.459,761.473
		c-0.752,0.051-1.372,0.528-1.95,1.033c-3.846,3.368-8.298,5.677-11.818,9.523c-2.368,2.441-2.905,5.498-3.786,8.49
		c-1.258,4.53-1.873,9.487-6.425,12.277c-0.079,0.124-0.037,0.358,0.115,0.459c1.207,0.299,2.409-0.087,3.212-0.918
		c0.78-1.229,1.583-2.423,2.639-3.557l0.229-0.115c0.128,0.023,0.28,0.056,0.229,0.23c-0.303,1.009-1.189,1.743-1.492,2.753
		c-0.404,1.207-1.542,2.13-2.524,2.983v0.115c0,0.128,0.105,0.316,0.229,0.344c2.217,0.097,3.792-1.501,5.278-2.983
		c0.152-0.151,0.377-0.165,0.574-0.114c0.656,0.505,1.207,1.312,2.065,1.491c0.904-0.128,1.909-0.303,2.868-0.229
		c1.331,0.404,2.565,0.928,3.901,1.377c0.679-0.022,1.253-0.597,1.606-1.147c0.275-0.656-0.165-1.317-0.115-1.95
		c0.326-0.197,0.68-0.014,1.033-0.115c0.151-0.096,0.344-0.284,0.344-0.459c-0.252-1.156-1.275-2.015-1.606-3.098
		c-0.5-1.382-2.226-2.189-2.524-3.672c0.074-0.101,0.216-0.216,0.345-0.114c1.078,0.775,1.996,1.748,3.327,1.95
		c1.01,0.101,2.093,0.303,3.098,0.229c0.152-0.051,0.28-0.284,0.23-0.459c-0.428-0.908-0.785-1.771-1.033-2.754
		c-0.354-1.229-0.633-3.001-0.229-4.36c0.073-0.101,0.197-0.274,0.345-0.229c0.202,0.051,0.321,0.285,0.344,0.459
		c0.151,2.14,0.207,4.168,1.491,5.853c0.552,0.881,1.501,1.042,2.181,1.721c0.252,0.354,0.404,0.858,0.229,1.262l-1.606,2.295
		c-0.354,0.501-0.68,1.056-0.804,1.606c-0.128,0.629-0.05,1.235,0,1.836c-0.101,0.051-0.128-0.064-0.229-0.114
		c-0.403-0.831-0.885-1.892-0.458-2.869l1.95-2.983l0.115-0.229c-0.428-0.226-0.923-0.474-1.378-0.574
		c-0.225,0.101-0.422,0.376-0.573,0.574l-1.836,3.327c-0.129,0.403-0.33,0.721-0.229,1.147c0.101,0.5,0.229,1.064,0.459,1.491
		c0.151,0.707,0.362,1.207,0.688,1.836c0.478,0.528,1.12-0.037,1.722,0.115c0.605,0.151,0.771,0.973,1.376,1.146
		c1.359,0.455,2.888,0.62,4.246,1.147c0.707,0.226,1.666,0.584,2.295,0c0.881-0.477,1.11-1.413,1.262-2.294
		c0.275-0.377,0.858-0.221,1.262-0.345c0.753-0.505,0.937-1.501,1.492-2.18l0.114-0.345c-0.073-0.225-0.257-0.271-0.458-0.344
		h-2.524c-1.18,0.151-1.331,1.377-1.836,2.18c-0.275,0.505-0.799,0.739-1.377,0.688c-1.207-0.33-2.777-0.527-3.328-1.836
		c-0.077-0.326-0.022-0.692,0.229-0.918c0.629-0.729,1.396-1.574,2.181-2.18c1.105-0.225,2.171-1.083,2.754-2.065
		c0.298-0.427,0.298-1.047,0.803-1.377c0.151-0.022,0.243,0.078,0.345,0.229c0.229,0.729-0.115,1.321-0.345,1.95
		c2.745,0.28,5.021-0.789,7.688-0.688c1.134,0,2.103,0.188,3.213,0.114c1.106-0.051,2.286-0.45,2.639-1.606
		c0.501-1.487,0.139-3.181-0.114-4.59l0.114-0.229c0.175-0.101,0.335,0.014,0.459,0.115c0.478,1.335,0.831,3.016,1.033,4.475
		c0.197,1.28,0.785,2.359,1.491,3.442c1.28,1.914,3.497,2.657,5.737,2.18c2.717-0.201,5.112,0.987,6.77,3.099v0.114
		c-0.051,0.097-0.216,0.257-0.344,0.229c-1.433-1.105-2.869-2.299-4.705-2.524c-1.937-0.354-3.58,0.501-5.393-0.229
		c-1.987-0.651-3.58-2.662-4.36-4.475h-0.114c-0.151,0.023-0.321,0.192-0.344,0.344l0.229,1.492
		c0.303,1.258,0.707,2.749,2.065,3.327c1.056,0.629,2.135,1.616,3.442,1.263c2.29-0.501,4.548,0.092,6.311,1.377
		c0.579,0.325,1.093,0.922,1.722,1.147c0.679,0.274,1.51,0.109,2.065-0.345c1.28-0.427,1.528,1.258,2.409,1.836
		c0.78,0.753,2.18,0.459,3.213,0.459l0.229-0.115c-0.124-1.032-0.404-1.845-0.804-2.753c-1.285,0.078-1.996-1.377-2.754-2.181
		c-0.628-0.729-1.858-1.097-1.836-2.18c-0.225-0.427-0.257-1.171-0.458-1.722c-0.175-0.454-0.317-1.046-0.918-1.146
		c-1.083-0.18-2.419,0.087-3.099-0.918c-0.707-0.758,0.102-1.561,0.229-2.295c0.299-0.928,0.267-2.259,0.115-3.213
		c-0.023-0.556-0.331-0.941-0.229-1.492c0.252-0.478,0.771-0.165,1.147-0.114c1.409,0.403,3.079,0.211,4.36-0.345
		c1.762-0.854,3.171-2.666,3.098-4.704c-0.253-2.644-2.093-4.828-4.131-6.54c-0.376-0.33-0.908-0.67-1.032-1.147
		c-0.051-1.033,1.143-0.436,1.721-0.688c0.707-0.179,1.372-0.399,1.95-0.803c1.538-1.033,1.909-2.827,1.606-4.59
		c-0.05-0.151-0.004-0.345-0.229-0.345c-0.275,0.226-0.568,0.486-0.917,0.688c-0.982,0.578-2.296,0.528-3.328,1.033
		c-1.285,0.551-2.887,1.299-3.442,2.753c-0.151,0.73,0.019,1.465,0.345,2.065c1.561,2.47,4.864,4.145,5.393,7.114
		c0.202,1.207-0.445,2.074-1.377,2.754c-1.409,0.854-3.524,0.523-4.934-0.229c-2.717-1.358-4.998-3.662-7.917-4.59
		c-1.841-0.83-4.104-0.555-5.737-1.836c-1.234-0.808-2.405-1.941-3.786-2.295c-0.96-0.325-2.107-0.211-2.983-0.688
		c-0.909-0.804-1.813-1.538-2.869-2.066c-1.459-0.729-3.093-1.138-4.704-1.491c-0.954-0.225-1.285-1.308-2.065-1.836
		C390.713,762.024,389.272,761.322,387.459,761.473z"/>
	<path id="path2811" fill="none" stroke="#E62248" stroke-width="0.031" stroke-miterlimit="3.864" d="M294.689,763.01
		c1.735,0.428,3.649,0.478,4.984,1.859c0.702,0.881,0.78,2.392,0.248,3.323c-1.005,1.762-3.043,2.666-4.328,4.204
		c-1.23,1.056-1.708,2.666-1.28,4.227c0.45,1.358,1.812,2.341,3.222,2.442c2.162,0.05,3.823-1.033,5.558-2.043
		c1.739-1.229,3.346-2.841,5.388-3.346c1.28-0.478,2.818-0.225,4.076-0.753c1.432-0.28,2.487-1.459,3.598-2.465
		c1.23-1.01,2.689-1.61,4.328-1.537c1.459,0.225,2.29-1.106,3.268-1.964c1.689-1.511,3.901-1.686,5.865-2.566
		c1.359-0.454,2.516-1.432,3.801-2.111c1.23-0.532,2.942-0.629,4.199-0.151c0.831,0.377,1.662,0.73,2.391,1.28l5.967,4.957
		c0.073,0.202,0.326,0.331,0.477,0.482c1.712,2.037,3.47,4.048,4.829,6.265c0.454,0.78,0.628,1.634,0.858,2.465
		c0.275,3.373,1.207,6.315,2.291,9.262c0.303,0.478,0.881,0.78,1.207,1.258c0.936,1.308,1.542,2.969,3.052,3.851l0.904,0.449
		c0.05,0.078,0.078,0.202,0,0.303l-0.151,0.129c-1.809,0.299-3.199-0.831-4.158-2.166c-0.602-1.157-1.381-2.442-2.689-2.896
		c-0.078-0.022-0.129,0.051-0.179,0.101c0.179,0.404,0.578,0.73,0.757,1.134c0.5,0.809,0.955,1.712,1.207,2.543
		c0.275,0.932,1.308,1.634,2.144,2.162l1.184,0.605c0.151,0.101,0.202,0.326,0.078,0.454l-0.179,0.102
		c-1.992,0.05-3.754-0.578-5.113-2.038c-0.331-0.354-0.757-0.68-1.234-0.68c-0.881,0.776-1.763,1.557-2.942,1.635
		c-1.212-0.202-2.593-0.229-3.7,0.252c-1.009,0.349-2.015,0.78-3.148,0.831c-0.528,0-1.134-0.253-1.308-0.758
		c0-0.629-0.478-1.381-0.074-2.037l0.753-1.106c0-0.151-0.101-0.28-0.252-0.303c-0.326-0.051-0.803,0.477-0.932-0.078
		c0.078-1.129,1.162-1.809,1.914-2.589c0.179-0.904,0.528-1.685,1.157-2.392c0-0.101-0.101-0.201-0.202-0.252
		c-0.927,0.151-1.886,0.404-2.919,0.377c-0.803,0.431-1.808,0.729-2.768,0.431c-0.197-0.128-0.124-0.354-0.073-0.532
		c1.005-1.354,1.358-3.116,1.106-4.855c-0.073-0.073-0.101-0.253-0.252-0.202c-0.151,0-0.174,0.151-0.225,0.252
		c-0.225,1.589-0.729,2.896-1.583,4.228c-0.657,0.68-1.689,0.629-2.543,0.908c-0.202,0.102-0.427,0.275-0.427,0.528
		c-0.027,0.555,0.376,0.982,0.602,1.46l1.937,3.497c0.051,0.982-0.349,1.913-0.578,2.768c0.101,0.174,0.252,0.101,0.381,0.027
		c0.679-0.606,1.106-1.409,1.381-2.24c0.078-0.403-0.073-0.83-0.202-1.133l-1.987-3.925c0.128-0.252,0.454-0.202,0.679-0.303
		c0.477-0.027,0.858,0.225,1.285,0.354c0.45,1.207,0.932,2.387,1.785,3.446c0.174,0.629,0.376,1.511-0.05,2.089
		c-0.427,0.854-0.881,1.61-1.432,2.414c-0.505,0.527-1.285,0.478-1.992,0.556h-0.579c-1.735,0.927-3.598,1.532-5.457,2.111
		c-0.831,0.353-1.79,0.101-2.418-0.45c-0.652-0.505-0.932-1.285-1.359-1.941c-0.5-0.629-1.308-0.073-1.886-0.427
		c-0.505-0.831-1.005-1.634-1.459-2.465c-0.023-0.225,0.023-0.454,0.202-0.605c0.651-0.226,1.381-0.253,2.111-0.326
		c0.679-0.051,1.363,0.051,1.813,0.556c0.881,1.027,1.235,2.437,2.565,3.093c1.01,0.102,1.942-0.252,2.795-0.679
		c0.505-0.304,1.106-0.758,1.106-1.409c-0.073-1.285-0.955-2.317-2.01-3.043c-1.111-0.578-2.29-1.386-3.098-2.419
		c-0.399-0.551-0.5-1.229-0.73-1.863c-0.101-0.124-0.326-0.174-0.45-0.073c-0.431,0.376-0.101,1.005-0.05,1.459
		c0.05,0.304,0.248,0.629,0.073,0.904c-0.629,0.505-1.561,0.253-2.364,0.28c-1.638-0.101-3.121-0.729-4.833-0.578
		c-1.634,0.073-3.8,1.156-5.007-0.427c-0.606-1.515-0.427-3.351-0.152-4.911c0-0.175-0.174-0.275-0.326-0.299
		c-0.128-0.05-0.303,0.023-0.354,0.175c-0.404,1.51-0.528,3.222-0.854,4.806c-0.606,1.409-1.588,2.868-3.02,3.598
		c-1.285,0.656-2.717,0.904-4.227,1.006c-2.768,0.05-5.388,0.605-7.073,2.997c-0.124,0.225-0.376,0.403-0.303,0.702
		c0.101,0.101,0.28,0.151,0.404,0.078c1.886-2.14,4.351-2.97,7.096-2.869c2.667,0,5.282-0.454,6.944-2.717
		c0.427-0.505,0.707-1.061,1.083-1.588c0.303-0.023,0.527,0.354,0.729,0.527c0.051,0.78-0.606,1.312-0.854,1.987
		c-0.331,0.729-0.707,1.611-1.487,2.015c-0.881,0.202-1.611,0.804-2.391,1.285c-0.831,0.377-1.836,0.528-2.791,0.275
		c-1.207-0.225-2.818-0.527-3.979,0.028c-0.601,0.376-1.079,1.027-1.657,1.408c-0.831,0.326-1.537,1.028-2.52,0.978
		c-0.651-0.123-1.482-0.578-2.038,0.028c-0.702,0.679-0.904,1.812-1.836,2.239c-1.083,0.602-2.24,0-3.346-0.101l-0.05-0.051
		c0.225-1.005,0.376-2.088,1.055-2.868c0.427-0.051,0.831-0.129,1.157-0.427c0.432-0.377,0.757-0.882,1.06-1.359
		c0.927-0.582,2.038-1.06,2.639-2.064c0.455-0.955,0.478-1.836,1.207-2.694l0.381-0.175l1.96-0.124
		c0.808-0.353,1.561-0.729,2.29-1.285c0.229-0.252,0.28-0.601,0.229-0.932c-0.354-0.954-0.679-1.634-0.909-2.615
		c-0.252-1.056-0.073-2.089-0.202-3.245c-0.073-0.102-0.151-0.28-0.326-0.28c-1.308,0.28-2.593,0.656-4.025,0.432
		c-1.964-0.253-4.002-1.538-4.731-3.502c-0.652-1.708-0.505-4.099,0.757-5.457c1.18-1.46,2.667-2.594,4.076-3.777
		c0.225-0.175,0.252-0.427,0.303-0.68c-0.028-0.275-0.28-0.527-0.532-0.629c-0.904-0.201-1.909,0.078-2.791-0.303
		c-1.51-0.551-2.717-1.987-2.919-3.57c-0.05-0.702,0.074-1.336,0.455-1.914C292.725,761.85,293.583,762.708,294.689,763.01z"/>
	<path id="path2815" fill="none" stroke="#E62248" stroke-width="0.031" stroke-miterlimit="3.864" d="M392.053,763.085
		c0.78,0.527,1.134,1.588,2.088,1.812c1.611,0.354,3.223,0.729,4.682,1.46c1.056,0.527,2.011,1.285,2.919,2.088
		c0.877,0.478,1.96,0.427,2.919,0.753c1.382,0.354,2.516,1.409,3.75,2.217c1.634,1.28,3.896,1.083,5.737,1.914
		c2.919,0.927,5.282,3.194,7.999,4.553c1.409,0.753,3.525,1.056,4.935,0.202c0.932-0.68,1.532-1.561,1.331-2.768
		c-0.528-2.97-3.824-4.581-5.384-7.05c-0.326-0.602-0.505-1.358-0.354-2.089c0.556-1.454,2.139-2.239,3.424-2.79
		c1.032-0.505,2.341-0.404,3.322-0.982c0.349-0.202,0.629-0.527,0.904-0.753c0.226,0,0.226,0.226,0.275,0.377
		c0.303,1.762-0.022,3.57-1.561,4.604c-0.578,0.403-1.28,0.578-1.986,0.757c-0.579,0.253-1.735-0.252-1.685,0.78
		c0.124,0.478,0.605,0.826,0.981,1.156c2.038,1.713,3.925,3.874,4.177,6.518c0.073,2.038-1.335,3.823-3.098,4.677
		c-1.28,0.556-2.942,0.758-4.352,0.354c-0.376-0.051-0.981-0.399-1.234,0.078c-0.101,0.551,0.28,1.005,0.303,1.561
		c0.152,0.954,0.124,2.189-0.174,3.116c-0.129,0.734-0.909,1.611-0.202,2.368c0.679,1.005,1.987,0.702,3.07,0.881
		c0.602,0.102,0.78,0.753,0.955,1.208c0.201,0.551,0.252,1.234,0.478,1.661c-0.023,1.083,1.207,1.51,1.835,2.239
		c0.758,0.804,1.387,2.189,2.672,2.111c0.398,0.909,0.679,1.712,0.803,2.745l-0.174,0.124c-1.033,0-2.392,0.303-3.172-0.45
		c-0.881-0.578-1.184-2.189-2.465-1.763c-0.555,0.455-1.386,0.602-2.065,0.326c-0.629-0.225-1.083-0.831-1.661-1.156
		c-1.763-1.285-4.076-1.938-6.366-1.438c-1.308,0.354-2.34-0.55-3.396-1.179c-1.359-0.578-1.763-2.065-2.065-3.323l-0.248-1.561
		c0.023-0.151,0.124-0.303,0.275-0.325h0.202c0.78,1.812,2.312,3.851,4.3,4.502c1.813,0.729,3.525-0.202,5.462,0.151
		c1.836,0.225,3.272,1.409,4.704,2.516c0.129,0.027,0.226-0.102,0.275-0.197v-0.129c-1.656-2.111-3.997-3.222-6.714-3.021
		c-2.24,0.478-4.508-0.274-5.788-2.188c-0.707-1.084-1.262-2.24-1.459-3.521c-0.202-1.46-0.533-3.07-1.01-4.406
		c-0.124-0.101-0.275-0.225-0.45-0.124l-0.128,0.225c0.252,1.409,0.628,3.094,0.128,4.581c-0.354,1.156-1.561,1.611-2.667,1.661
		c-1.11,0.073-2.139-0.151-3.271-0.151c-2.667-0.101-4.957,0.982-7.702,0.702c0.229-0.629,0.656-1.308,0.427-2.038
		c-0.101-0.151-0.275-0.174-0.427-0.151c-0.504,0.331-0.454,0.96-0.752,1.387c-0.583,0.981-1.662,1.812-2.768,2.037
		c-0.785,0.606-1.538,1.437-2.167,2.167c-0.252,0.225-0.252,0.629-0.174,0.954c0.551,1.309,2.037,1.482,3.245,1.813
		c0.578,0.05,1.133-0.151,1.409-0.656c0.504-0.804,0.605-2.111,1.785-2.263h2.565c0.201,0.073,0.403,0.201,0.477,0.427l-0.096,0.354
		c-0.556,0.679-0.808,1.583-1.561,2.088c-0.404,0.124-0.959-0.027-1.234,0.349c-0.151,0.882-0.377,1.813-1.258,2.29
		c-0.629,0.583-1.634,0.303-2.341,0.078c-1.358-0.527-2.818-0.78-4.177-1.234c-0.605-0.174-0.83-0.904-1.437-1.056
		c-0.601-0.151-1.257,0.326-1.734-0.202c-0.326-0.629-0.45-1.105-0.602-1.812c-0.229-0.427-0.354-0.932-0.454-1.433
		c-0.102-0.427,0.022-0.729,0.151-1.133l1.886-3.424c0.152-0.198,0.304-0.427,0.528-0.528c0.454,0.102,0.932,0.33,1.358,0.556
		l-0.073,0.225l-1.941,2.997c-0.427,0.978,0.027,2.038,0.432,2.868c0.101,0.051,0.151,0.198,0.252,0.147
		c-0.051-0.602-0.129-1.207,0-1.836c0.124-0.551,0.478-1.106,0.831-1.606l1.532-2.268c0.175-0.403,0.124-0.981-0.128-1.335
		c-0.68-0.68-1.634-0.854-2.185-1.735c-1.285-1.685-1.386-3.648-1.538-5.787c-0.022-0.175-0.151-0.404-0.353-0.454
		c-0.147-0.046-0.275,0.128-0.35,0.229c-0.403,1.358-0.151,3.07,0.202,4.3c0.248,0.982,0.652,1.887,1.079,2.795
		c0.05,0.175-0.074,0.354-0.226,0.404c-1.005,0.073-2.037-0.027-3.048-0.129c-1.33-0.201-2.29-1.234-3.368-2.01
		c-0.129-0.102-0.252,0.05-0.326,0.151c0.299,1.482,1.938,2.313,2.438,3.694c0.33,1.083,1.358,1.941,1.61,3.099
		c0,0.174-0.123,0.353-0.274,0.449c-0.354,0.102-0.73-0.146-1.056,0.051c-0.051,0.633,0.349,1.285,0.073,1.941
		c-0.354,0.551-0.854,1.207-1.533,1.23c-1.336-0.45-2.62-1.006-3.951-1.409c-0.96-0.074-1.914,0.05-2.818,0.179
		c-0.858-0.179-1.46-0.932-2.116-1.437c-0.197-0.051-0.398-0.073-0.551,0.078c-1.486,1.482-3.07,3.065-5.287,2.97
		c-0.124-0.028-0.248-0.152-0.248-0.28l0.023-0.151c0.982-0.854,2.139-1.785,2.542-2.992c0.303-1.01,1.207-1.735,1.51-2.745
		c0.05-0.174-0.101-0.253-0.23-0.275l-0.252,0.124c-1.055,1.134-1.886,2.317-2.667,3.548c-0.803,0.831-1.987,1.308-3.194,1.01
		c-0.152-0.102-0.152-0.331-0.074-0.454c4.553-2.791,5.081-7.775,6.338-12.305c0.881-2.993,1.51-6.091,3.878-8.533
		c3.521-3.846,7.927-6.163,11.772-9.532c0.578-0.505,1.161-1.01,1.914-1.06C389.235,761.271,390.717,762.029,392.053,763.085z"/>
	<path id="path2817" fill="#FAB72C" d="M387.877,767.789c0.202,0.33-0.027,0.578-0.179,0.831c-1.028,0.981-2.286,1.987-3.043,3.171
		c-0.275,0.377-0.478,0.808-0.68,1.234c-0.027,0.051-0.101,0.074-0.174,0.051c-0.202-0.605,0.046-1.234,0.197-1.812
		c0.532-1.409,1.712-2.718,2.919-3.621C387.198,767.463,387.725,767.413,387.877,767.789"/>
	<path id="path2819" fill="none" stroke="#FAB72C" stroke-width="0.031" stroke-miterlimit="3.864" d="M387.877,767.789
		c0.202,0.33-0.027,0.578-0.179,0.831c-1.028,0.981-2.286,1.987-3.043,3.171c-0.275,0.377-0.478,0.808-0.68,1.234
		c-0.027,0.051-0.101,0.074-0.174,0.051c-0.202-0.605,0.046-1.234,0.197-1.812c0.532-1.409,1.712-2.718,2.919-3.621
		C387.198,767.463,387.725,767.413,387.877,767.789z"/>
	<path id="path2821" fill="#FAB72C" d="M337.969,770.786c0.477,1.106,0.477,2.593,0.151,3.772c-0.05,0.051-0.124,0.078-0.202,0.027
		c-0.202-1.032-0.427-2.088-0.831-3.07c-0.225-0.578-0.982-1.056-0.628-1.739c0.151-0.146,0.427-0.175,0.628-0.097
		C337.492,769.955,337.744,770.382,337.969,770.786"/>
	<path id="path2823" fill="none" stroke="#FAB72C" stroke-width="0.031" stroke-miterlimit="3.864" d="M337.969,770.786
		c0.477,1.106,0.477,2.593,0.151,3.772c-0.05,0.051-0.124,0.078-0.202,0.027c-0.202-1.032-0.427-2.088-0.831-3.07
		c-0.225-0.578-0.982-1.056-0.628-1.739c0.151-0.146,0.427-0.175,0.628-0.097C337.492,769.955,337.744,770.382,337.969,770.786z"/>
	<path id="path2825" fill="#FAB72C" d="M349.746,781.076c0.831,0.932,1.386,1.964,1.106,3.249c-0.125,0.248-0.102,0.624-0.427,0.703
		c-0.151,0.05-0.275-0.051-0.275-0.203c-0.05-0.679-0.05-1.386-0.454-1.937c-0.455-0.477-0.932-1.308-1.662-1.308
		c-0.5,0.151-0.881,0.729-1.18,1.129c-0.027,0.051-0.101,0.051-0.151,0.027c-0.28-0.707,0.275-1.308,0.5-1.914
		c0.427-0.427,0.33-1.684,1.285-1.28C349.14,779.891,349.269,780.598,349.746,781.076"/>
	<path id="path2827" fill="none" stroke="#FAB72C" stroke-width="0.031" stroke-miterlimit="3.864" d="M349.746,781.076
		c0.831,0.932,1.386,1.964,1.106,3.249c-0.125,0.248-0.102,0.624-0.427,0.703c-0.151,0.05-0.275-0.051-0.275-0.203
		c-0.05-0.679-0.05-1.386-0.454-1.937c-0.455-0.477-0.932-1.308-1.662-1.308c-0.5,0.151-0.881,0.729-1.18,1.129
		c-0.027,0.051-0.101,0.051-0.151,0.027c-0.28-0.707,0.275-1.308,0.5-1.914c0.427-0.427,0.33-1.684,1.285-1.28
		C349.14,779.891,349.269,780.598,349.746,781.076z"/>
	<path id="path2829" fill="#FAB72C" d="M376.577,780.447c0.455,0.578,0.78,1.207,1.056,1.887c0.051,0.151,0,0.303-0.05,0.454
		c-0.102,0.124-0.248,0.303-0.427,0.174c-0.501-0.174-0.427-0.954-1.057-0.903c-0.477-0.028-0.757,0.376-1.133,0.578
		c-0.652,0.578-1.533,1.184-1.685,2.065c-0.129,0.326-0.078,0.78-0.354,0.954c-0.175,0.051-0.376-0.101-0.376-0.252
		c-0.102-1.156,0.275-2.263,1.134-3.043c0.83-0.68,1.408-1.611,2.088-2.392C376.15,779.891,376.425,780.172,376.577,780.447"/>
	<path id="path2831" fill="none" stroke="#FAB72C" stroke-width="0.031" stroke-miterlimit="3.864" d="M376.577,780.447
		c0.455,0.578,0.78,1.207,1.056,1.887c0.051,0.151,0,0.303-0.05,0.454c-0.102,0.124-0.248,0.303-0.427,0.174
		c-0.501-0.174-0.427-0.954-1.057-0.903c-0.477-0.028-0.757,0.376-1.133,0.578c-0.652,0.578-1.533,1.184-1.685,2.065
		c-0.129,0.326-0.078,0.78-0.354,0.954c-0.175,0.051-0.376-0.101-0.376-0.252c-0.102-1.156,0.275-2.263,1.134-3.043
		c0.83-0.68,1.408-1.611,2.088-2.392C376.15,779.891,376.425,780.172,376.577,780.447z"/>
	<path id="path2833" fill="#FAB72C" d="M348.163,789.76c0.051,0.478,0.051,1.056-0.354,1.358c-0.477,0.151-1.005,0.202-1.538,0.175
		c-0.124-0.051-0.298-0.124-0.248-0.275c0.225-0.68,0.876-1.359,1.606-1.511C347.832,789.507,348.112,789.479,348.163,789.76"/>
	<path id="path2835" fill="none" stroke="#FAB72C" stroke-width="0.031" stroke-miterlimit="3.864" d="M348.163,789.76
		c0.051,0.478,0.051,1.056-0.354,1.358c-0.477,0.151-1.005,0.202-1.538,0.175c-0.124-0.051-0.298-0.124-0.248-0.275
		c0.225-0.68,0.876-1.359,1.606-1.511C347.832,789.507,348.112,789.479,348.163,789.76z"/>
	<path id="path2837" fill="#FAB72C" d="M376.83,790.21c0.151,0.33,0.427,0.679,0.252,1.032c-0.303,0.225-0.83,0.101-1.207,0.051
		c-0.454-0.253-0.555-0.78-0.605-1.281c0-0.128,0.022-0.252,0.151-0.354C375.948,789.658,376.476,789.782,376.83,790.21"/>
	<path id="path2839" fill="none" stroke="#FAB72C" stroke-width="0.031" stroke-miterlimit="3.864" d="M376.83,790.21
		c0.151,0.33,0.427,0.679,0.252,1.032c-0.303,0.225-0.83,0.101-1.207,0.051c-0.454-0.253-0.555-0.78-0.605-1.281
		c0-0.128,0.022-0.252,0.151-0.354C375.948,789.658,376.476,789.782,376.83,790.21z"/>
	<path id="path2841" fill="#E62248" d="M330.268,792.398c0.05,0.331,0.532,0.68,0.202,0.959c-0.578,0.45-1.257,0.753-2.01,0.629
		c-0.578-0.431-0.555-1.285-1.06-1.836c-0.124-0.431-0.826-0.431-0.68-0.908l0.229-0.151c0.803,0,1.611-0.023,2.415-0.151
		C330.171,790.967,329.942,791.921,330.268,792.398"/>
	<path id="path2843" fill="none" stroke="#E62248" stroke-width="0.031" stroke-miterlimit="3.864" d="M330.268,792.398
		c0.05,0.331,0.532,0.68,0.202,0.959c-0.578,0.45-1.257,0.753-2.01,0.629c-0.578-0.431-0.555-1.285-1.06-1.836
		c-0.124-0.431-0.826-0.431-0.68-0.908l0.229-0.151c0.803,0,1.611-0.023,2.415-0.151
		C330.171,790.967,329.942,791.921,330.268,792.398z"/>
	<path id="path2845" fill="#E62248" d="M394.821,791.618c-0.102,0.707-0.326,1.409-0.578,2.065
		c-0.225,0.454-0.854,0.303-1.285,0.253c-0.45-0.18-1.157-0.229-1.23-0.858c-0.078-0.602,0.197-1.157,0.501-1.611
		c0.679-0.097,1.459,0.051,2.139-0.073C394.568,791.343,394.77,791.416,394.821,791.618"/>
	<path id="path2847" fill="none" stroke="#E62248" stroke-width="0.031" stroke-miterlimit="3.864" d="M394.821,791.618
		c-0.102,0.707-0.326,1.409-0.578,2.065c-0.225,0.454-0.854,0.303-1.285,0.253c-0.45-0.18-1.157-0.229-1.23-0.858
		c-0.078-0.602,0.197-1.157,0.501-1.611c0.679-0.097,1.459,0.051,2.139-0.073C394.568,791.343,394.77,791.416,394.821,791.618z"/>
	<path id="path2849" fill="#E62248" d="M293.556,792.701c-0.399,0.73-0.904,1.589-1.685,2.038c-0.303,0.101-0.656,0.078-0.932-0.05
		c-0.152-0.152-0.455-0.326-0.455-0.579c0.05-0.275-0.05-0.651,0.202-0.83c0.605-0.377,1.184-0.753,1.739-1.23
		c0.174-0.051,0.399-0.151,0.551-0.027C293.207,792.223,293.482,792.427,293.556,792.701"/>
	<path id="path2851" fill="none" stroke="#E62248" stroke-width="0.031" stroke-miterlimit="3.864" d="M293.556,792.701
		c-0.399,0.73-0.904,1.589-1.685,2.038c-0.303,0.101-0.656,0.078-0.932-0.05c-0.152-0.152-0.455-0.326-0.455-0.579
		c0.05-0.275-0.05-0.651,0.202-0.83c0.605-0.377,1.184-0.753,1.739-1.23c0.174-0.051,0.399-0.151,0.551-0.027
		C293.207,792.223,293.482,792.427,293.556,792.701z"/>
	<path id="path2853" fill="#E62248" d="M430.125,792.174c0.605,0.505,1.358,0.904,1.835,1.561c0.078,0.325-0.123,0.602-0.298,0.831
		c-0.252,0.201-0.532,0.376-0.881,0.376c-0.354-0.023-0.68-0.225-0.882-0.528c-0.376-0.555-0.881-1.056-1.056-1.661
		C429.091,792.376,429.62,791.747,430.125,792.174"/>
	<path id="path2855" fill="none" stroke="#E62248" stroke-width="0.031" stroke-miterlimit="3.864" d="M430.125,792.174
		c0.605,0.505,1.358,0.904,1.835,1.561c0.078,0.325-0.123,0.602-0.298,0.831c-0.252,0.201-0.532,0.376-0.881,0.376
		c-0.354-0.023-0.68-0.225-0.882-0.528c-0.376-0.555-0.881-1.056-1.056-1.661C429.091,792.376,429.62,791.747,430.125,792.174z"/>
	<path id="path2857" fill="#E62248" d="M290.334,795.772v0.252c-0.349,0.854-0.578,1.937-0.876,2.919l-0.101,0.051
		c-0.578-0.129-1.111-0.354-1.661-0.528c-0.152-0.151,0-0.33,0.023-0.477c0.628-0.583,0.454-1.336,0.578-2.144
		c0.101-0.45,0.533-0.826,0.932-1.028C289.732,794.918,290.035,795.395,290.334,795.772"/>
	<path id="path2859" fill="none" stroke="#E62248" stroke-width="0.031" stroke-miterlimit="3.864" d="M290.334,795.772v0.252
		c-0.349,0.854-0.578,1.937-0.876,2.919l-0.101,0.051c-0.578-0.129-1.111-0.354-1.661-0.528c-0.152-0.151,0-0.33,0.023-0.477
		c0.628-0.583,0.454-1.336,0.578-2.144c0.101-0.45,0.533-0.826,0.932-1.028C289.732,794.918,290.035,795.395,290.334,795.772z"/>
	<path id="path2861" fill="#E62248" d="M433.851,795.497c0.376,0.527,0.225,1.331,0.349,1.909c0.101,0.431,0.629,0.779,0.354,1.234
		l-1.611,0.527c-0.275,0-0.174-0.354-0.275-0.527c-0.179-0.932-0.376-1.584-0.679-2.492c-0.078-0.528,0.449-0.881,0.803-1.18
		C433.217,794.868,433.52,795.244,433.851,795.497"/>
	<path id="path2863" fill="none" stroke="#E62248" stroke-width="0.031" stroke-miterlimit="3.864" d="M433.851,795.497
		c0.376,0.527,0.225,1.331,0.349,1.909c0.101,0.431,0.629,0.779,0.354,1.234l-1.611,0.527c-0.275,0-0.174-0.354-0.275-0.527
		c-0.179-0.932-0.376-1.584-0.679-2.492c-0.078-0.528,0.449-0.881,0.803-1.18C433.217,794.868,433.52,795.244,433.851,795.497z"/>
</g>
</svg>
