<?xml version="1.0" encoding="utf-8"?>
<!-- Generator: Adobe Illustrator 16.0.0, SVG Export Plug-In . SVG Version: 6.00 Build 0)  -->
<!DOCTYPE svg PUBLIC "-//W3C//DTD SVG 1.1//EN" "http://www.w3.org/Graphics/SVG/1.1/DTD/svg11.dtd">
<svg version="1.1" id="Ebene_1" xmlns="http://www.w3.org/2000/svg" xmlns:xlink="http://www.w3.org/1999/xlink" x="0px" y="0px"
	 width="283.46px" height="70.967px" viewBox="0 0 283.46 70.967" enable-background="new 0 0 283.46 70.967" xml:space="preserve">
<g>
	<path fill-rule="evenodd" clip-rule="evenodd" d="M18.342,22.703c-1.395-0.12-2.613-0.191-3.823-0.335
		c-1.709-0.206-3.344-0.653-4.711-1.772c-1.427-1.168-1.942-2.712-1.593-4.479c0.355-1.792,1.58-2.824,3.327-3.222
		c2.521-0.574,5.028-0.221,7.503,0.284c2.003,0.409,3.984,0.942,5.952,1.5c0.632,0.179,1.02,0.068,1.507-0.346
		c3.951-3.354,8.092-6.444,12.863-8.558c2.079-0.922,4.232-1.641,6.562-1.583c2.179,0.054,3.268,1.335,3.005,3.514
		c-0.285,2.338-1.42,4.356-2.391,6.435c-0.693,1.482-1.454,2.936-2.177,4.404c-0.134,0.272-0.24,0.559-0.421,0.986
		c2.484,0,4.841-0.042,7.194,0.016c1.602,0.037,3.206,0.181,4.802,0.35c0.479,0.051,0.98,0.274,1.39,0.543
		c1.146,0.753,1.239,2.143,0.099,2.89c-1.04,0.681-2.203,1.218-3.374,1.649c-1.68,0.619-3.417,1.082-5.25,1.65
		c0.743,0.629,1.438,1.202,2.113,1.797c2.4,2.119,4.626,4.394,6.021,7.329c0.373,0.784,0.643,1.655,0.766,2.515
		c0.451,3.14-0.969,5.393-3.975,6.445c-2.904,1.017-5.904,0.854-8.896,0.674c-5.599-0.338-11.033-1.558-16.386-3.175
		c-0.597-0.18-0.956-0.119-1.388,0.359c-1.286,1.428-2.637,2.8-3.967,4.189c-0.146,0.151-0.324,0.273-0.486,0.406
		c-0.088-0.049-0.176-0.099-0.262-0.147c0.5-0.983,0.914-2.023,1.526-2.931c0.606-0.897,1.409-1.661,2.185-2.55
		c-2.154-0.812-4.196-1.534-6.203-2.343c-6.036-2.429-11.795-5.396-17.292-8.884c-1.069-0.677-1.517-1.666-2.063-2.846
		c2.128,1.067,4.092,2.101,6.1,3.048c6.882,3.251,14.032,5.757,21.421,7.576c0.315,0.078,0.857-0.013,1.029-0.231
		c1.968-2.504,3.884-5.047,5.811-7.582c0.054-0.069,0.069-0.17,0.111-0.276c-3.252,0.521-6.471,1.108-9.712,1.535
		c-2.494,0.33-5.013,0.521-7.527,0.645c-0.849,0.042-1.763-0.186-2.567-0.495c-1.538-0.595-2.001-1.788-1.129-3.183
		c1.029-1.648,2.267-3.169,3.422-4.739C17.695,23.442,17.97,23.146,18.342,22.703z M30.625,38.765
		c1.265,0.267,2.399,0.515,3.541,0.743c5.046,0.996,10.125,1.747,15.283,1.755c1.811,0.003,3.594-0.254,5.121-1.369
		c1.198-0.877,1.458-1.557,0.892-2.921c-0.406-0.979-0.931-1.935-1.561-2.786c-1.8-2.433-4.157-4.291-6.502-6.163
		c-0.692-0.551-1.315-0.662-2.146-0.399c-1.167,0.368-2.364,0.758-3.573,0.869c-2.718,0.246-4.528,1.585-5.997,3.869
		C34.244,34.598,32.39,36.564,30.625,38.765z M39.849,22.98c-0.49-0.09-0.788-0.192-1.086-0.193
		c-4.954-0.009-9.909-0.015-14.864,0.01c-0.333,0.002-0.772,0.152-0.982,0.391c-1.597,1.828-3.161,3.684-4.708,5.556
		c-0.322,0.391-0.522,0.881-0.802,1.367c0.266,0.11,0.375,0.185,0.491,0.195c0.438,0.044,0.881,0.108,1.32,0.09
		c5.623-0.242,11.155-1.147,16.656-2.279c0.285-0.057,0.64-0.192,0.791-0.41C37.709,26.213,38.709,24.685,39.849,22.98z
		 M29.794,16.262c1.49,0.631,2.889,1.069,4.125,1.788c2.246,1.303,4.609,1.673,7.149,1.479c0.667-0.051,1.017-0.259,1.293-0.825
		c0.607-1.243,1.289-2.451,1.882-3.702c0.537-1.135,1.088-2.278,1.471-3.47c0.464-1.44-0.206-2.409-1.686-2.657
		c-1.522-0.255-2.947,0.174-4.311,0.759C36.056,11.205,32.985,13.665,29.794,16.262z M24.609,16.507
		c-0.086-0.135-0.172-0.269-0.256-0.404c-0.511-0.15-1.018-0.314-1.532-0.449c-2.99-0.776-5.991-1.514-9.113-1.417
		c-1.45,0.044-2.861,0.273-3.963,1.438c0.81,1.222,1.98,1.84,3.224,2.121c2.631,0.597,5.303,1.021,7.963,1.493
		c0.216,0.039,0.523-0.036,0.69-0.175C22.633,18.265,23.617,17.38,24.609,16.507z M53.812,23.418
		c-0.014-0.104-0.029-0.208-0.043-0.313c-3.463-0.556-6.952-0.278-10.439-0.269c0.625,0.505,1.329,0.833,1.881,1.331
		c1.335,1.204,2.728,1.36,4.372,0.664C50.947,24.255,52.398,23.882,53.812,23.418z M39.262,27.438
		c1.912-0.455,3.59-0.853,5.504-1.307c-1.265-0.802-2.293-1.456-3.38-2.145C40.695,25.11,40.043,26.167,39.262,27.438z
		 M33.06,19.482c0.009-0.056,0.019-0.111,0.026-0.166c-1.396-0.55-2.791-1.108-4.195-1.639c-0.178-0.067-0.482-0.081-0.605,0.025
		c-0.604,0.521-1.165,1.09-1.886,1.78C28.776,19.482,30.917,19.482,33.06,19.482z"/>
	<path fill-rule="evenodd" clip-rule="evenodd" d="M256.584,40.891c0,2.655-0.076,5.238,0.028,7.812
		c0.065,1.537,0.696,1.958,2.821,2.378c0,0.35,0,0.711,0,1.122c-3.601,0-7.148,0-10.759,0c0-0.38,0-0.737,0-1.153
		c0.273-0.041,0.549-0.069,0.821-0.12c1.243-0.238,1.812-0.815,1.966-2.074c0.089-0.717,0.138-1.442,0.138-2.166
		c0.014-5.551,0.01-11.103,0.006-16.653c-0.004-0.566-0.029-1.134-0.078-1.698c-0.149-1.636-0.685-2.172-2.36-2.395
		c-0.152-0.021-0.302-0.055-0.506-0.093c-0.027-0.228-0.07-0.437-0.078-0.646c-0.006-0.184,0.031-0.369,0.062-0.665
		c2.274-0.099,4.535-0.294,6.794-0.27c2.8,0.029,5.604,0.142,8.388,0.418c1.15,0.114,2.323,0.609,3.362,1.167
		c5.033,2.701,5.297,9.251,0.536,12.414c-0.622,0.412-1.297,0.75-2.092,1.208c3.309,3.095,6.503,6.21,9.848,9.153
		c1.865,1.645,4.182,2.541,6.737,2.833c0,0.419,0,0.779,0,1.117c-1.784,0-3.566,0.092-5.341-0.021
		c-3.479-0.217-6.246-1.905-8.662-4.343c-2.261-2.281-4.618-4.469-6.929-6.703c-0.557-0.537-1.166-0.747-1.965-0.648
		C258.452,40.973,257.56,40.891,256.584,40.891z M256.587,39.444c2.793,0.684,6.684-0.527,8.037-2.471
		c1.503-2.157,1.461-6.525-0.084-8.829c-1.467-2.186-4.703-3.182-7.953-2.416C256.587,30.295,256.587,34.877,256.587,39.444z"/>
	<path fill-rule="evenodd" clip-rule="evenodd" d="M127.331,24.646c2.165,0,4.302-0.021,6.44,0.024
		c0.274,0.005,0.594,0.307,0.806,0.546c5.53,6.265,11.049,12.538,16.57,18.812c0.366,0.415,0.75,0.817,1.26,1.374
		c0.021-0.428,0.042-0.663,0.042-0.896c-0.008-5.143-0.006-10.284-0.034-15.428c-0.013-2.386-0.346-2.761-2.683-3.241
		c0-0.352,0-0.716,0-1.193c1.277,0,2.527,0,3.777,0c1.256,0,2.508,0,3.793,0c0,0.463,0,0.829,0,1.184
		c-2.082,0.575-2.514,1.181-2.514,3.574c-0.006,7.288-0.002,14.575-0.002,21.863c0,0.376,0,0.753,0,1.218
		c-1.187,0.112-2.182,0.283-3.143-0.824c-5.976-6.878-12.035-13.687-18.067-20.518c-0.347-0.394-0.701-0.779-1.228-1.367
		c0,0.549,0,0.847,0,1.145c0,5.428-0.008,10.854,0.009,16.281c0.001,0.688,0.079,1.385,0.201,2.063
		c0.153,0.845,0.669,1.499,1.525,1.61c0.898,0.115,1.001,0.567,0.821,1.35c-2.492,0-5,0-7.575,0
		c-0.126-0.697-0.224-1.236,0.824-1.312c0.985-0.07,1.559-0.789,1.712-1.756c0.108-0.684,0.17-1.38,0.171-2.07
		c0.012-6.184-0.04-12.368,0.038-18.552c0.022-1.718-0.631-2.161-1.973-2.484C127.175,25.826,127.208,25.404,127.331,24.646z"/>
	<path fill-rule="evenodd" clip-rule="evenodd" d="M231.011,53.044c-6.744-0.118-12.387-4.126-13.893-10.22
		c-2.379-9.613,4.126-20.061,16.392-18.836c3.98,0.397,7.435,1.894,10.022,5.046c6.028,7.341,3.02,21.273-8.866,23.616
		C233.467,52.888,232.231,52.918,231.011,53.044z M221.625,38.071c0.041,3.601,0.818,7.11,3.328,10.052
		c4.448,5.207,12.001,4.291,15.054-1.823c0.914-1.832,1.353-3.791,1.476-5.82c0.239-3.966-0.353-7.752-2.708-11.067
		c-2.125-2.997-5.069-4.419-8.745-3.97c-3.524,0.431-5.794,2.557-7.162,5.739C221.942,33.332,221.658,35.605,221.625,38.071z"/>
	<path fill-rule="evenodd" clip-rule="evenodd" d="M101.862,25.839c0-0.396,0-0.738,0-1.139c6.574,0,13.125,0,19.792,0
		c0.13,1.57,0.262,3.15,0.393,4.706c-1.005,0.334-1.548,0.101-1.797-0.903c-0.268-1.079-1.016-1.76-2.174-1.771
		c-2.899-0.026-5.799-0.008-8.764-0.008c0,3.386,0,6.745,0,10.168c2.412,0,4.828,0.053,7.242-0.021
		c1.167-0.037,1.461-1.038,1.656-2.039c0.417,0,0.81,0,1.25,0c0,2.125,0,4.193,0,6.32c-0.437,0-0.834,0-1.229,0
		c-0.796-2.003-0.987-2.139-3.217-2.148c-1.886-0.008-3.772-0.001-5.767-0.001c0,1.585-0.001,3.09,0.002,4.595
		c0.002,1.514-0.034,3.031,0.028,4.543c0.064,1.604,0.581,2.076,2.173,2.062c2.299-0.021,4.603-0.032,6.9-0.136
		c1.547-0.067,2.529-0.987,3.102-2.396c0.434-1.07,0.452-1.063,1.822-0.983c-0.198,1.833-0.396,3.661-0.598,5.525
		c-6.945,0-13.815,0-20.763,0c0-0.4,0-0.785,0-1.172c2.382-0.686,2.601-0.981,2.601-3.508c0-6.153,0.001-12.307,0-18.46
		C104.515,26.815,104.11,26.31,101.862,25.839z"/>
	<path fill-rule="evenodd" clip-rule="evenodd" d="M165.97,51.086c0,0.391,0,0.725,0,1.112c-2.558,0-5.066,0-7.644,0
		c0-0.38,0-0.738,0-1.212c2.033,0.031,2.893-1.38,3.545-2.997c2.852-7.106,5.709-14.21,8.516-21.335
		c0.214-0.545,0.025-1.246,0.025-2.008c1.318,0,2.816-0.027,4.307,0.032c0.208,0.01,0.479,0.429,0.586,0.709
		c1.978,5.211,3.936,10.429,5.9,15.645c0.943,2.505,1.881,5.012,2.854,7.508c0.538,1.396,1.318,2.551,3.131,2.445
		c0,0.415,0,0.777,0,1.204c-3.348,0-6.711,0-10.162,0c0-0.363,0-0.75,0-1.142c2.532-0.527,2.795-0.995,1.873-3.485
		c-0.633-1.712-1.298-3.415-2.012-5.096c-0.119-0.279-0.561-0.596-0.856-0.6c-2.999-0.044-5.998-0.044-8.994,0
		c-0.296,0.004-0.737,0.321-0.854,0.601c-0.727,1.745-1.407,3.509-2.052,5.285C163.32,49.982,163.64,50.543,165.97,51.086z
		 M167.266,39.579c2.902,0,5.654,0,8.542,0c-1.394-3.701-2.757-7.313-4.197-11.142C170.123,32.249,168.711,35.868,167.266,39.579z"
		/>
	<path fill-rule="evenodd" clip-rule="evenodd" d="M94.442,24.024c0.348,1.916,0.672,3.705,1.003,5.53
		c-0.853,0.212-1.418,0.151-1.921-0.687c-1.497-2.499-4.683-3.827-7.529-3.225c-1.797,0.38-2.93,1.522-3.466,3.261
		c-0.513,1.665,0.078,3.037,1.371,4.021c1.244,0.946,2.629,1.719,3.983,2.515c2.06,1.214,4.283,2.199,6.195,3.608
		c4.708,3.473,4.233,9.556-0.856,12.448c-1.736,0.986-3.636,1.516-5.614,1.422c-1.941-0.093-3.873-0.412-5.801-0.692
		c-0.936-0.136-1.828-0.433-2.735,0.167c-0.269,0.175-0.727,0.064-1.175,0.09c-0.349-2.086-0.69-4.12-1.032-6.159
		c0.811-0.223,1.293-0.115,1.717,0.684c1.392,2.617,3.823,3.621,6.611,3.948c1.517,0.178,3.016,0.141,4.449-0.516
		c3.286-1.509,3.946-5.155,1.215-7.509c-1.345-1.159-2.968-2-4.486-2.955c-1.97-1.238-4.08-2.291-5.918-3.703
		c-4.33-3.319-3.018-8.416,0.576-10.82c2.649-1.772,5.57-1.795,8.564-1.288c0.496,0.085,0.988,0.197,1.48,0.306
		c0.786,0.175,1.536,0.25,2.265-0.269C93.583,24.028,93.993,24.086,94.442,24.024z"/>
	<path fill-rule="evenodd" clip-rule="evenodd" d="M214.182,25.028c0,1.923,0,3.768,0,5.619c-0.79,0.34-1.214-0.007-1.693-0.725
		c-2.329-3.493-5.771-4.745-9.806-4.509c-3.709,0.218-6.494,2.075-8.063,5.415c-2.433,5.176-2.248,10.395,0.699,15.297
		c3.902,6.487,12.242,6.996,17.227,1.198c0.806-0.936,0.806-0.936,2.208-0.8c-0.667,1.906-1.324,3.78-1.988,5.686
		c-1.962-0.621-3.754,0.077-5.57,0.367c-3.764,0.604-7.484,0.629-11.077-0.831c-4.874-1.981-7.466-5.732-8.071-10.87
		c-0.404-3.428,0.123-6.745,1.838-9.785c2.823-5.006,7.367-7.126,12.894-7.143c2.49-0.008,4.983,0.6,7.468,0.973
		c1,0.151,1.96,0.729,3.005,0.125C213.458,24.927,213.791,25.028,214.182,25.028z"/>
</g>
</svg>
