<?xml version="1.0" encoding="utf-8"?>
<!-- Generator: Adobe Illustrator 16.0.0, SVG Export Plug-In . SVG Version: 6.00 Build 0)  -->
<!DOCTYPE svg PUBLIC "-//W3C//DTD SVG 1.1//EN" "http://www.w3.org/Graphics/SVG/1.1/DTD/svg11.dtd">
<svg version="1.1" id="Ebene_1" xmlns="http://www.w3.org/2000/svg" xmlns:xlink="http://www.w3.org/1999/xlink" x="0px" y="0px"
	 width="283.46px" height="203.415px" viewBox="0 0 283.46 203.415" enable-background="new 0 0 283.46 203.415"
	 xml:space="preserve">
<g>
	<path d="M4.139,139.943h4.365v1.363c0,3.432,1.797,4.85,6.591,4.85h10.03c7.03,0,9.264-0.274,9.264-4.414v-0.222
		c0-2.668-0.763-4.14-6.377-4.14H13.57c-6.593,0-9.048-2.128-9.048-7.411v-1.632c0-4.527,2.561-7.035,14.115-7.035h7.195
		c10.573,0,12.044,3.056,12.044,6.975v1.474h-4.361v-0.269c0-4.254-2.832-4.361-7.958-4.361h-8.169
		c-6.705,0-8.178,0.654-8.178,3.812v1.036c0,2.289,0.763,3.6,5.67,3.6h12.368c7.032,0,11.829,0.709,11.829,8.228v0.104
		c0,7.801-7.193,8.066-12.918,8.066h-8.61c-6.92,0-13.41,0-13.41-8.332V139.943L4.139,139.943z"/>
	<path d="M45.94,132.586c0-9.157,6.484-11.283,15.37-11.283h6.701c8.884,0,15.371,2.126,15.371,11.283v6.105
		c0,9.157-6.487,11.276-15.371,11.276h-6.701c-8.886,0-15.37-2.119-15.37-11.276V132.586L45.94,132.586z M78.694,132.86
		c0-6.487-3.813-7.739-9.263-7.739h-9.539c-5.45,0-9.263,1.252-9.263,7.739v5.557c0,6.488,3.813,7.739,9.263,7.739h9.539
		c5.45,0,9.263-1.251,9.263-7.739V132.86L78.694,132.86z"/>
	<polygon points="87.198,121.743 92.155,121.743 105.671,145.721 119.186,121.743 124.142,121.743 108.454,149.532 102.89,149.532 
		87.198,121.743 	"/>
	<path d="M157.611,146.758h-0.115c-1.246,2.509-2.724,3.21-9.916,3.21h-11.224c-7.089,0-8.939-3.103-8.939-8.332v-1.854
		c0-6.326,4.465-7.088,12.645-7.088h7.519c6.104,0,8.288,0.654,9.916,3.321h0.115v-5.229c0-5.011-3.164-5.665-10.357-5.665h-6.864
		c-5.887,0-7.037,1.418-7.037,3.707v0.981h-4.68v-1.363c0-5.071,3.208-7.144,11.6-7.144h7.414c8.718,0,14.606,1.309,14.606,9.591
		v18.639h-4.682V146.758L157.611,146.758z M157.611,140.813c0-3.813-3.381-4.301-10.574-4.301h-7.196
		c-6.049,0-7.736,0.868-7.736,4.359v0.87c0,3.104,1.087,4.414,7.522,4.414h6.21c8.505,0,11.774-0.602,11.774-4.087V140.813
		L157.611,140.813z"/>
	<path d="M170.58,121.743h4.361v4.796h0.106c1.745-4.306,5.395-5.236,11.232-5.236h7.025c8.775,0,11.548,4.415,11.548,9.43v18.8
		h-4.686v-17.655c0-4.087-1.145-6.756-10.247-6.756h-1.195c-10.959,0-13.459,2.069-13.459,8.609v15.802h-4.687V121.743
		L170.58,121.743z"/>
	<path d="M216.194,125.557h-6.106v-3.813h6.106v-6.594h4.682v6.594h18.584v3.813h-18.584V139.4c0,5.176,1.799,6.756,6.925,6.756
		h1.469c6.213,0,7.198-1.311,7.198-7.137v-2.074h3.812v3.052c0,5.558-0.539,9.971-10.68,9.971h-2.562
		c-8.773,0-10.844-4.247-10.844-8.768V125.557L216.194,125.557z"/>
	<path d="M274.722,146.758h-0.11c-1.249,2.509-2.728,3.21-9.923,3.21h-11.222c-7.088,0-8.939-3.103-8.939-8.332v-1.854
		c0-6.326,4.463-7.088,12.646-7.088h7.515c6.108,0,8.292,0.654,9.923,3.321h0.11v-5.229c0-5.011-3.164-5.665-10.362-5.665h-6.863
		c-5.881,0-7.032,1.418-7.032,3.707v0.981h-4.677v-1.363c0-5.071,3.203-7.144,11.597-7.144h7.413c8.722,0,14.608,1.309,14.608,9.591
		v18.639h-4.684V146.758L274.722,146.758z M274.722,140.813c0-3.813-3.379-4.301-10.572-4.301h-7.198
		c-6.05,0-7.734,0.868-7.734,4.359v0.87c0,3.104,1.088,4.414,7.521,4.414h6.212c8.505,0,11.772-0.602,11.772-4.087V140.813
		L274.722,140.813z"/>
	<path fill="#A5A692" d="M25.743,48.08c0,2.561-2.074,4.638-4.639,4.638H7.971c-2.559,0-4.636-2.077-4.636-4.638V34.94
		c0-2.561,2.077-4.631,4.636-4.631h13.133c2.565,0,4.639,2.07,4.639,4.631V48.08L25.743,48.08z"/>
	<path fill="#77905F" d="M149.206,61.6c0,3.885-3.152,7.032-7.037,7.032h-19.914c-3.871,0-7.025-3.147-7.025-7.032V41.694
		c0-3.888,3.154-7.032,7.025-7.032h19.914c3.885,0,7.037,3.144,7.037,7.032V61.6L149.206,61.6z"/>
	<path fill="#979E7C" d="M85.583,71.965c0,3.451-2.793,6.246-6.249,6.246H61.638c-3.451,0-6.244-2.794-6.244-6.246V54.266
		c0-3.449,2.793-6.249,6.244-6.249h17.696c3.456,0,6.249,2.799,6.249,6.249V71.965L85.583,71.965z"/>
	<path fill="#9BCC9A" d="M218.486,41.546c0,4.529-3.676,8.202-8.207,8.202h-23.224c-4.531,0-8.2-3.673-8.2-8.202V18.317
		c0-4.529,3.669-8.2,8.2-8.2h23.224c4.531,0,8.207,3.671,8.207,8.2V41.546L218.486,41.546z"/>
	<path fill="#C9E0B1" d="M280.211,72.76c0,3.666-2.979,6.635-6.639,6.635h-18.807c-3.663,0-6.639-2.969-6.639-6.635V53.954
		c0-3.665,2.976-6.64,6.639-6.64h18.807c3.659,0,6.639,2.976,6.639,6.64V72.76L280.211,72.76z"/>
</g>
<g>
	<path d="M94.42,191.157c0.873,0.518,2.36,1.1,3.783,1.1c2.037,0,3.007-1.002,3.007-2.328c0-1.357-0.808-2.069-2.877-2.846
		c-2.845-1.034-4.171-2.554-4.171-4.43c0-2.521,2.069-4.591,5.399-4.591c1.584,0,2.975,0.42,3.815,0.97l-0.679,2.069
		c-0.614-0.388-1.746-0.938-3.201-0.938c-1.682,0-2.587,0.97-2.587,2.134c0,1.294,0.905,1.876,2.942,2.684
		c2.684,1.003,4.106,2.36,4.106,4.688c0,2.781-2.167,4.721-5.82,4.721c-1.714,0-3.298-0.452-4.397-1.1L94.42,191.157z"/>
	<path d="M110.782,173.988c0,0.97-0.679,1.746-1.811,1.746c-1.035,0-1.713-0.776-1.713-1.746s0.711-1.778,1.778-1.778
		C110.071,172.21,110.782,172.986,110.782,173.988z M107.614,194.035v-15.649h2.845v15.649H107.614z"/>
	<path d="M115.18,182.621c0-1.648-0.064-2.942-0.129-4.235h2.49l0.129,2.555h0.097c0.873-1.487,2.328-2.878,4.947-2.878
		c2.102,0,3.718,1.293,4.397,3.137h0.064c0.485-0.905,1.132-1.553,1.778-2.037c0.938-0.712,1.94-1.1,3.427-1.1
		c2.102,0,5.173,1.358,5.173,6.79v9.183h-2.78v-8.827c0-3.039-1.132-4.817-3.395-4.817c-1.649,0-2.878,1.196-3.395,2.554
		c-0.129,0.421-0.227,0.906-0.227,1.423v9.668h-2.781v-9.377c0-2.489-1.099-4.268-3.266-4.268c-1.746,0-3.072,1.423-3.524,2.845
		c-0.162,0.389-0.226,0.906-0.226,1.391v9.409h-2.781V182.621z"/>
	<path d="M142.15,183.494c0-2.004-0.064-3.621-0.129-5.108h2.522l0.161,2.684h0.064c1.132-1.907,3.008-3.007,5.562-3.007
		c3.815,0,6.661,3.201,6.661,7.922c0,5.626-3.46,8.406-7.146,8.406c-2.069,0-3.881-0.905-4.818-2.457h-0.064v8.504h-2.813V183.494z
		 M144.963,187.665c0,0.421,0.032,0.809,0.129,1.164c0.518,1.973,2.231,3.331,4.269,3.331c3.007,0,4.753-2.458,4.753-6.047
		c0-3.104-1.649-5.787-4.656-5.787c-1.939,0-3.783,1.357-4.3,3.491c-0.098,0.356-0.194,0.776-0.194,1.132V187.665z"/>
	<path d="M160.549,171.078h2.846v22.957h-2.846V171.078z"/>
	<path d="M171.35,173.988c0,0.97-0.68,1.746-1.811,1.746c-1.035,0-1.714-0.776-1.714-1.746s0.711-1.778,1.778-1.778
		C170.638,172.21,171.35,172.986,171.35,173.988z M168.181,194.035v-15.649h2.846v15.649H168.181z"/>
	<path d="M186.902,193.485c-0.744,0.355-2.393,0.905-4.494,0.905c-4.721,0-7.793-3.201-7.793-7.986c0-4.817,3.298-8.342,8.407-8.342
		c1.681,0,3.168,0.42,3.944,0.841l-0.646,2.166c-0.68-0.355-1.746-0.743-3.298-0.743c-3.59,0-5.529,2.684-5.529,5.917
		c0,3.621,2.328,5.852,5.432,5.852c1.617,0,2.684-0.388,3.492-0.743L186.902,193.485z"/>
	<path d="M193.403,173.988c0,0.97-0.68,1.746-1.811,1.746c-1.035,0-1.714-0.776-1.714-1.746s0.711-1.778,1.778-1.778
		C192.691,172.21,193.403,172.986,193.403,173.988z M190.234,194.035v-15.649h2.846v15.649H190.234z"/>
	<path d="M201.229,174.635v3.751h4.073v2.166h-4.073v8.439c0,1.939,0.549,3.039,2.134,3.039c0.775,0,1.229-0.064,1.648-0.193
		l0.13,2.166c-0.55,0.194-1.423,0.388-2.522,0.388c-1.325,0-2.393-0.452-3.071-1.196c-0.776-0.873-1.1-2.264-1.1-4.106v-8.536
		h-2.425v-2.166h2.425v-2.91L201.229,174.635z"/>
	<path d="M209.829,178.386l3.396,9.247c0.388,1.035,0.776,2.264,1.034,3.201h0.065c0.291-0.938,0.614-2.134,1.002-3.266l3.104-9.183
		h3.007l-4.269,11.155c-2.037,5.367-3.427,8.083-5.367,9.797c-1.423,1.196-2.78,1.682-3.492,1.811l-0.711-2.36
		c0.711-0.227,1.649-0.679,2.489-1.391c0.776-0.614,1.714-1.713,2.393-3.168c0.13-0.291,0.227-0.518,0.227-0.68
		c0-0.161-0.064-0.388-0.227-0.743l-5.755-14.421H209.829z"/>
	<path d="M231.172,194.035v-13.483h-2.166v-2.166h2.166v-0.873c0-4.106,2.425-6.79,6.822-6.79c1.455,0,3.169,0.453,3.977,1.035
		l-0.808,2.166c-0.712-0.485-1.908-0.905-3.298-0.905c-3.008,0-3.881,2.102-3.881,4.591v0.776h9.086v15.649h-2.845v-13.483h-6.241
		v13.483H231.172z"/>
	<path d="M247.793,183.269c0-1.844-0.032-3.428-0.129-4.883h2.489l0.129,3.104h0.098c0.711-2.103,2.457-3.428,4.364-3.428
		c0.291,0,0.518,0.032,0.776,0.064v2.684c-0.291-0.064-0.582-0.064-0.97-0.064c-2.005,0-3.428,1.487-3.815,3.621
		c-0.064,0.389-0.097,0.873-0.097,1.326v8.342h-2.846V183.269z"/>
	<path d="M257.979,191.157c0.873,0.518,2.36,1.1,3.782,1.1c2.037,0,3.008-1.002,3.008-2.328c0-1.357-0.809-2.069-2.878-2.846
		c-2.846-1.034-4.171-2.554-4.171-4.43c0-2.521,2.069-4.591,5.399-4.591c1.584,0,2.975,0.42,3.815,0.97l-0.679,2.069
		c-0.614-0.388-1.746-0.938-3.201-0.938c-1.682,0-2.587,0.97-2.587,2.134c0,1.294,0.905,1.876,2.942,2.684
		c2.684,1.003,4.106,2.36,4.106,4.688c0,2.781-2.166,4.721-5.82,4.721c-1.714,0-3.298-0.452-4.397-1.1L257.979,191.157z"/>
	<path d="M274.601,174.635v3.751h4.073v2.166h-4.073v8.439c0,1.939,0.549,3.039,2.134,3.039c0.775,0,1.229-0.064,1.648-0.193
		l0.13,2.166c-0.55,0.194-1.423,0.388-2.522,0.388c-1.325,0-2.393-0.452-3.071-1.196c-0.776-0.873-1.1-2.264-1.1-4.106v-8.536
		h-2.425v-2.166h2.425v-2.91L274.601,174.635z"/>
</g>
</svg>
