<?xml version="1.0" encoding="utf-8"?>
<!-- Generator: Adobe Illustrator 16.0.0, SVG Export Plug-In . SVG Version: 6.00 Build 0)  -->
<!DOCTYPE svg PUBLIC "-//W3C//DTD SVG 1.1//EN" "http://www.w3.org/Graphics/SVG/1.1/DTD/svg11.dtd">
<svg version="1.1" id="Ebene_1" xmlns="http://www.w3.org/2000/svg" xmlns:xlink="http://www.w3.org/1999/xlink" x="0px" y="0px"
	 width="283.46px" height="226.77px" viewBox="0 0 283.46 226.77" enable-background="new 0 0 283.46 226.77" xml:space="preserve">
<g id="eWRE4A_1_">
	<g>
		<path fill-rule="evenodd" clip-rule="evenodd" d="M145.932,2.973c0,0.62,0,1.24,0,2c0.655,0.124,1.336,0.252,2.146,0.404
			c0,0.812,0,1.643,0,2.737c1.048,0,1.968,0,3.019,0c0,1.836,0,3.412,0,5.129c0.958,0,1.787,0,2.808,0
			c0.093-0.503,0.218-1.178,0.364-1.971c3.285,0,6.598,0,10.083,0c0,3.298,0,6.696,0,10.229c-1.575,0-3.151,0-4.88,0
			c0,12.948,0,25.766,0,38.713c1.641,0,3.217,0,4.923,0c0,1.697,0,3.277,0,5.05c1.037,0.101,1.965,0.192,3.02,0.294
			c0,0.868,0,1.699,0,2.695c1.047,0,1.966,0,2.975,0c0-6.319,0-12.604,0-19.031c-1.562,0-3.14,0-4.911,0
			c-0.4-1.778-0.154-3.485-0.198-5.163c-0.046-1.717-0.01-3.437-0.01-5.271c3.438,0,6.75,0,10.228,0
			c0.097,0.558,0.216,1.239,0.354,2.031c0.833,0.047,1.666,0.094,2.762,0.157c0,0.907,0,1.827,0,2.822c9.274,0,18.286,0,27.428,0
			c0-1.599,0-3.179,0-5.129c3.522-0.001,6.923,0,10.435-0.001c0,3.461,0,6.771,0,10.346c-1.587,0-3.263,0-5.097,0
			c0,3.211-0.034,6.163,0.014,9.113c0.024,1.566,0.369,1.793,2.765,2.154c0.11,0.633,0.229,1.314,0.362,2.086
			c0.587,0.056,1.173,0.111,1.913,0.181c0,3.629,0,7.275,0,11.074c-1.285,0-2.505,0-3.724,0c-16.237,0-32.472,0-48.707,0
			c-0.62,0-1.24,0.009-1.859-0.002c-2.462-0.045-2.772-0.335-2.819-2.663c-0.021-0.985-0.004-1.971-0.004-3.219
			c-1.694,0-3.372,0-5.16,0c0-15.471,0-30.679,0-46.032c-0.955,0-1.784,0-2.904,0c-0.327,2.472,0.047,5.155-0.189,7.915
			c-6.337,0-12.623,0-19.171,0c0-2.539,0-5.204,0-7.958c-0.846,0-1.429,0-2.274,0c0,15.503,0,31.05,0,46.633
			c-1.499-0.235-2.733-0.547-3.977-0.592c-1.311-0.047-1.954,0.648-2.01,1.946c-0.052,1.225-0.011,2.456-0.011,3.827
			c-18.85,0-37.616,0-56.452,0c0-3.398,0-6.708,0-10.124c2.045,0.055,3.235-0.798,2.984-2.987c0.715-0.083,1.3-0.151,2.018-0.235
			c0-3.553,0-7.111,0-10.935c-1.518,0-3.184,0-4.959,0c0-3.572,0-6.883,0-10.362c3.319,0,6.717,0,10.25,0c0,1.596,0,3.173,0,4.894
			c9.136,0,18.145,0,27.373,0c0.084-0.495,0.199-1.167,0.331-1.942c1.984,0.059,3.165-0.804,2.913-3.039c3.448,0,6.758,0,10.203,0
			c0,3.329,0,6.641,0,10.217c-1.519,0-3.185,0-4.96,0c0,6.547,0,12.832,0,19.399c0.609-0.044,1.526,0.161,1.883-0.195
			c0.613-0.613,0.877-1.575,1.4-2.615c0.535,0,1.364,0,2.463,0c0-1.782,0-3.457,0-5.25c1.834,0,3.411,0,5.142,0
			c0-12.948,0-25.765,0-38.714c-1.633,0-3.208,0-4.917,0c0-3.436,0-6.747,0-10.421c1.411-0.005,2.974-0.014,4.537-0.017
			c1.593-0.003,3.185-0.001,4.74-0.001c0.654,2.959,0.654,2.959,3.972,2.729c0-1.812,0-3.637,0-5.591c0.962,0,1.793,0,2.447,0
			c1.026-0.664-0.181-2.31,1.701-2.51c1.224-0.13,1.098-1.698,1.062-2.809C140.479,2.973,143.205,2.973,145.932,2.973z
			 M107.938,49.195c-10.301,0-20.292,0-30.25,0c0,6.479,0,12.842,0,19.121c9.176,0,18.175,0,27.239,0
			c0.086-1.018,0.166-1.946,0.254-2.986c1.038,0,1.865,0,2.757,0C107.938,59.915,107.938,54.628,107.938,49.195z M206.092,49.083
			c-9.564,0-19.049-0.013-28.533,0.015c-1.249,0.003-1.854,0.701-1.866,2.095c-0.036,3.83-0.032,7.66,0.006,11.49
			c0.007,0.686,0.027,1.617,0.443,1.997c0.637,0.583,1.621,0.787,2.608,1.216c0,0.716,0,1.546,0,2.366c9.208,0,18.287,0,27.342,0
			C206.092,61.834,206.092,55.563,206.092,49.083z M145.932,24.611c0-5.199,0.022-10.133-0.014-15.066
			c-0.012-1.524-0.637-2.059-2.248-2.103c-1.239-0.033-2.479-0.018-3.717-0.004c-2.363,0.025-2.35,0.031-2.209,2.604
			c0.048,0.865,0.008,1.735,0.008,2.602c0,3.684,0,7.367,0,10.79C140.486,25.19,143.162,24.297,145.932,24.611z"/>
		<path fill-rule="evenodd" clip-rule="evenodd" d="M219.559,177c-5.324,0-10.648,0-15.973,0
			c-0.545-3.031-0.693-19.408-0.258-29.748c5.401,0,10.816,0,16.23,0C219.559,157.167,219.559,167.084,219.559,177z"/>
		<path fill-rule="evenodd" clip-rule="evenodd" d="M219.559,207.491c-5.324,0-10.647,0-15.973,0
			c-0.089-0.083-0.195-0.156-0.263-0.253c-0.062-0.092-0.121-0.212-0.121-0.318c-0.006-8.898-0.005-17.797-0.005-26.945
			c5.532,0,10.947,0,16.361,0C219.559,189.146,219.559,198.319,219.559,207.491z"/>
		<path fill-rule="evenodd" clip-rule="evenodd" d="M219.559,111.554c-4.694,0-9.39,0.018-14.084-0.009
			c-1.607-0.01-2.257-0.58-2.264-2.073c-0.032-6.795-0.066-13.591,0.031-20.384c0.02-1.351,0.616-2.693,1.013-4.307
			c4.986,0,10.145,0,15.304,0C219.559,93.705,219.559,102.629,219.559,111.554z"/>
		<path fill-rule="evenodd" clip-rule="evenodd" d="M142.957,223.853c0-4.327,0-8.656,0-13.245c0.917-0.047,1.851-0.14,2.784-0.133
			c3.627,0.026,7.145-1.081,10.825-0.812c3.69,0.271,7.416,0.06,11.125,0.06c0.851,0,1.7,0,2.783,0c0,4.796,0,9.463,0,14.13
			C161.302,223.853,152.129,223.853,142.957,223.853z"/>
		<path fill-rule="evenodd" clip-rule="evenodd" d="M113.209,223.853c0-4.416,0-8.832,0-13.386c1.937,0,3.721,0.316,5.346-0.057
			c6.422-1.475,12.903-0.34,19.345-0.658c2.555-0.126,2.809,0.269,2.822,2.984c0.016,3.706,0.003,7.411,0.003,11.116
			C131.554,223.853,122.381,223.853,113.209,223.853z"/>
		<path fill-rule="evenodd" clip-rule="evenodd" d="M85.692,223.853c0-0.862,0-1.726,0-2.791c-0.897-0.098-1.816-0.198-2.985-0.326
			c0.075-3.314,1.845-6.672-0.038-10.269c1.062,0,2.009-0.012,2.956,0.002c3.616,0.049,7.118-1.093,10.792-0.809
			c3.676,0.284,7.391,0.062,11.089,0.062c0.844,0,1.688,0,2.729,0c0,4.817,0,9.475,0,14.13
			C102.054,223.853,93.873,223.853,85.692,223.853z"/>
		<path fill-rule="evenodd" clip-rule="evenodd" d="M173.449,223.853c0-4.412,0-8.824,0-13.386c1.923,0,3.744,0.385,5.315-0.08
			c3.476-1.026,6.968-0.551,10.449-0.643c3.567-0.095,7.138-0.021,10.856-0.021c0,3.6,0,7.139,0,10.883
			c-1.503,0.357-2.48,1.356-2.079,3.247C189.811,223.853,181.63,223.853,173.449,223.853z"/>
		<path fill-rule="evenodd" clip-rule="evenodd" d="M219.559,215.672c-3.671,0-7.344,0-11.027,0
			c-0.088,0.807-0.152,1.391-0.229,2.102c-1.57,0-3.143,0-4.983,0c-0.036-1.032-0.096-2.216-0.116-3.4
			c-0.021-1.219-0.005-2.438-0.005-3.6c3.078-1.39,6.226-1.029,9.329-1.048c2.344-0.015,4.688-0.003,7.032-0.003
			C219.559,211.706,219.559,213.688,219.559,215.672z"/>
		<path fill-rule="evenodd" clip-rule="evenodd" d="M173.558,147.252c7.559,0,14.964,0,22.37,0c0.989,0,1.987,0.082,2.966-0.018
			c1.901-0.194,2.037-0.197,2.058,1.259c0.048,3.215,0.015,6.432,0.015,9.646c0,6.177,0,12.354,0,18.696c-9.128,0-18.214,0-27.408,0
			C173.558,167.105,173.558,157.364,173.558,147.252z"/>
		<path fill-rule="evenodd" clip-rule="evenodd" d="M143.081,147.313c9.134,0,18.14,0,27.269,0c0,9.806,0,19.554,0,29.432
			c0.04-0.042-0.033,0.063-0.132,0.131c-0.092,0.062-0.212,0.118-0.319,0.118C161.001,177,152.104,177,143.081,177
			C143.081,167.132,143.081,157.384,143.081,147.313z"/>
		<path fill-rule="evenodd" clip-rule="evenodd" d="M110.106,114.46c-9.106,0-18.108,0-27.445,0
			c0.47-9.782-0.752-19.562,0.791-29.329c0.081-0.071,0.164-0.167,0.267-0.229c0.096-0.059,0.212-0.116,0.32-0.116
			c8.646-0.006,17.292-0.005,26.067-0.005C110.106,94.727,110.106,104.559,110.106,114.46z"/>
		<path fill-rule="evenodd" clip-rule="evenodd" d="M143.018,207.366c0-9.131,0-18.136,0-27.266c9.062,0,18.066,0,27.203,0
			c-0.044-0.042,0.061,0.031,0.129,0.13c0.062,0.091,0.119,0.211,0.119,0.318c0.006,8.897,0.006,17.795,0.006,26.817
			C161.352,207.366,152.348,207.366,143.018,207.366z"/>
		<path fill-rule="evenodd" clip-rule="evenodd" d="M113.274,207.371c0-9.146,0-18.15,0-27.276c9.069,0,18.073,0,27.202,0
			c-0.034-0.034,0.07,0.043,0.135,0.145c0.06,0.094,0.11,0.215,0.11,0.323c0.005,8.896,0.005,17.793,0.005,26.809
			C131.592,207.371,122.587,207.371,113.274,207.371z"/>
		<path fill-rule="evenodd" clip-rule="evenodd" d="M200.897,180.103c0,9.108,0,18.109,0,27.389c-2.454,0-4.895,0-7.333,0
			c-5.197,0-10.394-0.025-15.59,0.016c-1.572,0.013-3.097,0.007-4.468-1.061c0-8.709,0-17.462,0-26.344
			C182.561,180.103,191.559,180.103,200.897,180.103z"/>
		<path fill-rule="evenodd" clip-rule="evenodd" d="M128.324,109.353c-1.163,1.846-2.22,3.523-3.26,5.175c-2.195,0-4.16,0-6.126,0
			c-1.836,0-3.672,0-5.385,0c-0.193-0.238-0.334-0.332-0.334-0.425c-0.01-9.645-0.01-19.29-0.01-28.935
			c0.083-0.09,0.156-0.194,0.254-0.263c0.091-0.062,0.21-0.121,0.317-0.121c8.643-0.006,17.285-0.005,26.202-0.005
			c0,1.163-0.064,2.248,0.012,3.322c0.212,2.992,0.583,5.974,0.704,8.968c0.125,3.086,0.028,6.182,0.028,9.273
			c0,0.741,0.158,1.529-0.042,2.213c-0.228,0.785-0.438,2.26-1.787,0.796C135.439,109.353,131.981,109.353,128.324,109.353z"/>
		<path fill-rule="evenodd" clip-rule="evenodd" d="M122.877,147.252c6.086,0,11.776,0,17.786,0
			c0.131,4.885,0.044,9.785,0.06,14.682c0.016,4.934,0.003,9.867,0.003,14.934c-9.192,0-18.279,0-27.517,0
			c0-0.81-0.095-1.547,0.017-2.25c0.501-3.17-1.063-6.483,1.074-9.587c1.681-2.443,3.024-5.163,4.204-7.894
			c1.238-2.87,2.729-5.569,4.345-8.226C123.06,148.562,122.877,147.975,122.877,147.252z"/>
		<path fill-rule="evenodd" clip-rule="evenodd" d="M173.506,110.153c0-8.605,0-16.86,0-25.243c8.893,0,17.729,0,26.744,0
			c-0.398,6.793,1.245,13.406,0.737,20.126c-0.139,1.83-0.021,3.678-0.021,5.774c-4.649,0-9.205-0.229-13.728,0.064
			C182.701,111.167,178.332,109.556,173.506,110.153z"/>
		<path fill-rule="evenodd" clip-rule="evenodd" d="M82.717,139.998c0-7.229-0.018-14.016,0.011-20.802
			c0.009-2.025,0.462-2.424,2.657-2.43c7.667-0.018,15.333-0.007,23-0.007c0.494,0,1.228-0.194,1.428,0.049
			c0.327,0.396,1.432,0.432,0.768,1.567c-0.437,0.749-0.331,1.862-0.334,2.813c-0.023,6.8-0.012,13.602-0.012,20.402
			c0,0.838,0,1.676,0,2.6c-5.236,0-10.273,0-15.459,0c-0.595-1.902-1.21-3.865-1.909-6.097
			C89.555,138.716,86.333,139.32,82.717,139.998z"/>
		<path fill-rule="evenodd" clip-rule="evenodd" d="M170.353,110.066c-5.926,0-11.762,0.393-17.509-0.153
			c-3.218-0.307-6.45-0.42-9.775-0.645c0-8.105,0-16.115,0-24.307c8.984,0,18.072,0,27.284,0
			C170.353,93.164,170.353,101.42,170.353,110.066z"/>
		<path fill-rule="evenodd" clip-rule="evenodd" d="M92.273,180.16c0.437,1.83-0.399,3.556,0.607,5.181
			c0.89,1.437-0.529,3.424,0.993,4.779c0.295,2.974,0.59,5.947,0.893,8.991c1.954-0.707,2.25-2.651,3.104-4.169
			c0.96-1.705,1.723-3.572,2.94-5.068c1.21-1.49,1.901-3.175,2.736-4.826c0.826-1.636,1.687-3.254,2.595-4.999
			c1.178,0,2.503,0,3.962,0c0,9.119,0,18.205,0,27.442c-8.479,0-16.869,0.013-25.26-0.012c-1.407-0.004-2.105-0.609-2.109-1.856
			c-0.029-8.504-0.015-17.008-0.015-25.463C86.1,180.16,89.247,180.16,92.273,180.16z"/>
		<path fill-rule="evenodd" clip-rule="evenodd" d="M170.409,125.805c0,6.168,0,12.199,0,18.352c-9.066,0-18.069,0-27.437,0
			c-0.037-5.992-0.001-12.11-0.019-18.352C152.089,125.805,161.092,125.805,170.409,125.805z"/>
		<path fill-rule="evenodd" clip-rule="evenodd" d="M173.518,144.151c0-5.888,0-11.669,0-17.586c8.867,0,17.705,0,26.73,0
			c-0.399,5.421,1.263,10.66,0.725,16.027c-0.048,0.473-0.007,0.955-0.007,1.559C191.759,144.151,182.674,144.151,173.518,144.151z"
			/>
		<path fill-rule="evenodd" clip-rule="evenodd" d="M64.248,84.863c5.117,0,10.15,0,15.495,0c0,1.04-0.053,2.115,0.009,3.184
			c0.224,3.853,0.585,7.698,0.707,11.552c0.124,3.948,0.028,7.904,0.028,11.857c0,0.741,0.062,1.488-0.016,2.221
			c-0.106,1.029-1.057,1.891-1.996,1.56c-4.051-1.429-8.212-0.361-12.304-0.701c-0.597-0.05-1.202-0.007-1.923-0.007
			C64.248,104.584,64.248,94.765,64.248,84.863z"/>
		<path fill-rule="evenodd" clip-rule="evenodd" d="M64.237,180.036c5.43,0,10.715,0,16.249,0c0,3.858,0,7.659,0,11.461
			c0,4.577,0.018,9.152-0.01,13.729c-0.01,1.607-0.577,2.24-2.088,2.252c-4.68,0.038-9.36,0.014-14.151,0.014
			C64.237,198.349,64.237,189.351,64.237,180.036z"/>
		<path fill-rule="evenodd" clip-rule="evenodd" d="M64.215,144.276c0-8.943,0-17.698,0-26.772c2.134,0,4.326,0.085,6.509-0.025
			c2.011-0.103,4.105,0.582,6.032-0.678c0.434-0.283,1.211-0.025,1.829-0.045c1.197-0.035,1.745,0.696,1.879,1.729
			c0.11,0.853,0.022,1.73,0.022,2.596c0,6.664,0,13.327,0,20.271c-1.458,0.242-2.904,0.259-4.173,0.743
			c-2.056,0.786-4.552-0.011-6.308,1.831c-0.269,0.281-0.872,0.324-1.325,0.337C67.221,144.302,65.759,144.276,64.215,144.276z"/>
		<path fill-rule="evenodd" clip-rule="evenodd" d="M64.175,176.979c0-7.505,0-14.761,0-22.152c5.165,0,10.283,0,15.616,0
			c-0.499,6.513,1.265,12.859,0.703,19.318c-0.053,0.613,0.062,1.243-0.023,1.85c-0.145,1.042-0.664,1.756-1.853,1.753
			c-2.962-0.01-5.985,0.35-8.865-0.135C67.994,177.316,66.261,177.057,64.175,176.979z"/>
		<path fill-rule="evenodd" clip-rule="evenodd" d="M125.651,144.16c0.804-3.667,3.223-6.285,4.706-9.339
			c1.5-3.089,3.749-5.796,4.621-9.137c1.652,0,3.133,0,4.875,0c0.043,0.92,0.155,1.858,0.118,2.792
			c-0.181,4.493,1.274,8.891,0.766,13.403c-0.08,0.714-0.011,1.443-0.011,2.28C135.804,144.16,131.018,144.16,125.651,144.16z"/>
		<path fill-rule="evenodd" clip-rule="evenodd" d="M82.717,176.872c0-3.957-0.444-7.848,0.129-11.583
			c0.534-3.481,0.509-6.943,0.629-10.504c1.733,0,3.309,0,5.002,0c0.306,2.536,0.642,5.118,0.924,7.706
			c0.126,1.168,0.464,2.441,0.887,3.342c0.902,1.918-0.1,4.061,0.796,5.602c1.09,1.874-0.052,3.594,0.852,5.438
			C88.718,176.872,85.903,176.872,82.717,176.872z"/>
		<path fill-rule="evenodd" clip-rule="evenodd" d="M64.253,210.585c4.193-0.093,8.184-1.071,12.313-0.932
			c3.941,0.133,4.071,0.374,3.927,4.188c-0.047,1.229-0.007,2.462-0.007,4.062c-0.934,0-1.869,0-2.804,0c-0.967,0-1.935,0-3.029,0
			c0-0.704,0-1.28,0-2.106c-3.499,0-6.888,0-10.4,0C64.253,214.003,64.253,212.433,64.253,210.585z"/>
		<path fill-rule="evenodd" clip-rule="evenodd" d="M113.347,137.227c0-6.841,0-13.201,0-19.643c3.127,0,6.184,0,9.24,0.002
			c0.891,1.133,0.057,2.085-0.484,2.89c-2.832,4.219-4.622,8.978-7.044,13.404C114.536,134.838,114.064,135.822,113.347,137.227z"/>
		<path fill-rule="evenodd" clip-rule="evenodd" d="M96.097,147.374c4.011,0,7.889,0,11.817,0c0.035,0.456,0.158,0.836,0.069,1.155
			c-0.182,0.655-0.333,1.397-0.747,1.896c-2.922,3.522-3.968,8.125-6.979,12.432C99.26,157.188,97.29,152.473,96.097,147.374z"/>
		<path fill-rule="evenodd" clip-rule="evenodd" d="M203.197,126.515c1.375,0,2.448,0,3.811,0c-0.446,2.788,0.047,5.422-0.673,8.228
			c-0.737,2.884-0.163,6.105-0.163,9.356c-0.926,0-1.84,0-2.975,0c0-1.169,0-2.372,0-3.576c0-1.23,0.085-2.469-0.025-3.688
			c-0.095-1.039,0.197-2.045-0.376-3.169c-0.408-0.8,0.303-2.129,0.382-3.231C203.264,129.215,203.197,127.985,203.197,126.515z"/>
	</g>
</g>
</svg>
