<?xml version="1.0" encoding="utf-8"?>
<!-- Generator: Adobe Illustrator 16.0.0, SVG Export Plug-In . SVG Version: 6.00 Build 0)  -->
<!DOCTYPE svg PUBLIC "-//W3C//DTD SVG 1.1//EN" "http://www.w3.org/Graphics/SVG/1.1/DTD/svg11.dtd">
<svg version="1.1" id="Ebene_1" xmlns="http://www.w3.org/2000/svg" xmlns:xlink="http://www.w3.org/1999/xlink" x="0px" y="0px"
	 width="283.46px" height="96.451px" viewBox="0 0 283.46 96.451" enable-background="new 0 0 283.46 96.451" xml:space="preserve">
<g>
	<g id="SifPG9_1_">
		<g>
			<path fill-rule="evenodd" clip-rule="evenodd" fill="#3D96C7" d="M197.512,72.236c0.654-1.615,1.237-3.052,1.94-4.784
				c5.979,2.13,11.771,2.152,17.252-1.117c3.776-2.253,6.493-5.448,8.067-9.566c3.137-8.198-0.018-17.799-7.342-22.428
				c-7.734-4.887-17.455-3.765-23.764,2.609c-5.551,5.609-7.792,15.886-1.905,23.691c2.468-1.227,17.735-16.387,17.735-16.387
				l-14.74-0.117c0,0,0-3.698,0-5.474c7.963,0,15.858,0,24,0c0,7.903,0,15.673,0,23.701c-1.657,0-3.176,0-5.031,0
				c0-4.553,0-14.857,0-14.857s-14.74,14.792-21.515,21.644c-6.419-5.234-9.488-11.727-9.335-19.563
				c0.237-12.095,9.541-22.242,21.319-23.655c12.116-1.453,23.344,6.26,26.477,18.19c3.269,12.447-4.114,24.923-16.524,29.249
				C209.527,74.981,201.111,73.622,197.512,72.236z"/>
			<path fill-rule="evenodd" clip-rule="evenodd" fill="#3D96C7" d="M162.077,48.105c-3.683,2.217-7.186,4.326-10.761,6.479
				c-0.115,2.601-0.224,5.076-0.34,7.72c-1.691,0-4.943,0-4.943,0V38.421c0,0,2.975,0,4.968,0c0,3.098,0,6.2,0,9.862
				c1.513-0.68,2.441-1.023,3.299-1.497c2.898-1.603,16.547-8.465,16.547-8.465l10.365-0.092c0,0-10.269,4.576-13.974,7.431
				c4.614,5.517,9.082,10.858,13.907,16.626c-2.661,0-4.704,0-7.038,0C170.23,57.716,166.222,52.991,162.077,48.105z"/>
			<path fill-rule="evenodd" clip-rule="evenodd" fill="#3D96C7" d="M64.291,49.646c0-2.218,0-3.768,0-5.848
				c-6.156-0.646-12.159-0.177-18.66-0.283c0,6.48,0,12.517,0,18.758c-1.898,0-3.301,0-5.008,0c0-7.944,0-15.824,0-23.866
				c1.02-0.11,1.922-0.289,2.827-0.292c6.111-0.023,12.224-0.039,18.335,0.004c3.059,0.021,6.013,0.667,7.278,3.824
				c1.375,3.429,1.566,7.026-0.484,10.333c-1.288,2.078-3.406,2.91-5.793,2.938c-3.714,0.044-7.431,0.012-11.344,0.012
				c-1.233-1.644-2.464-3.283-4.188-5.581C53.356,49.646,58.605,49.646,64.291,49.646z"/>
			<path fill-rule="evenodd" clip-rule="evenodd" fill="#3D96C7" d="M110.766,62.541c0-6.56-0.151-12.636,0.068-18.698
				c0.099-2.741,1.96-4.597,4.669-5.281c1.271-0.321,2.621-0.426,3.938-0.439c4.908-0.048,9.817-0.076,14.725-0.004
				c6.533,0.095,8.623,2.193,8.666,8.604c0.035,5.035,0.007,10.071,0.007,15.438c-1.71,0-3.218,0-5.302,0c0-5.854,0-11.862,0-17.637
				c-3.446-1.282-17.193-1.413-21.277-0.297c0,5.794,0,11.71,0,18.059C114.382,62.371,112.863,62.442,110.766,62.541z"/>
			<path fill-rule="evenodd" clip-rule="evenodd" fill="#3D96C7" d="M5.347,38.341c1.684,0,3.085,0,5.069,0
				c0,6.135,0,12.165,0,18.453c7.29,0,14.009,0,21.321,0c0.434-5.969-0.009-12.035,0.267-18.371c1.656,0,3.181,0,5.125,0
				c0.069,1.171,0.202,2.437,0.209,3.703c0.025,4.386,0.073,8.772-0.013,13.157c-0.093,4.708-2.487,7.135-7.14,7.192
				c-6.112,0.076-12.228,0.086-18.34-0.012c-3.585-0.058-6.267-2.033-6.415-5.272C5.146,50.994,5.347,44.775,5.347,38.341z"/>
			<path fill-rule="evenodd" clip-rule="evenodd" fill="#3D96C7" d="M277.245,38.096c0,0,0,3.444,0,5.298c-4.319,0-8.496,0-13.202,0
				c-0.238,6.43,0.007,12.474-0.158,18.796c-1.778,0-3.39,0-5.432,0c0-6.172,0-12.209,0-18.692c-4.586,0-8.762,0-13.141,0
				c0-1.875,0-5.402,0-5.402H277.245z"/>
			<path fill-rule="evenodd" clip-rule="evenodd" fill="#3D96C7" d="M99.176,62.456c-7.075,0-13.962,0.118-20.842-0.053
				c-3.125-0.078-5.653-2.488-5.764-5.593c-0.217-6.075-0.064-12.165-0.064-18.474c1.812,0,3.341,0,5.368,0
				c0,6.168,0,12.19,0,18.601c7.327,0,14.177,0,21.303,0C99.176,58.853,99.176,60.369,99.176,62.456z"/>
			<path fill-rule="evenodd" clip-rule="evenodd" fill="#3D96C7" d="M237.187,38.387c1.555,0,3.074,0,4.876,0
				c0,7.885,0,15.741,0,23.853c-1.547,0-3.067,0-4.876,0C237.187,54.398,237.187,46.534,237.187,38.387z"/>
		</g>
	</g>
	<rect x="102.724" y="38.321" fill-rule="evenodd" clip-rule="evenodd" fill="#3D96C7" width="4.695" height="23.866"/>
</g>
</svg>
