<?xml version="1.0" encoding="utf-8"?>
<!-- Generator: Adobe Illustrator 16.0.0, SVG Export Plug-In . SVG Version: 6.00 Build 0)  -->
<!DOCTYPE svg PUBLIC "-//W3C//DTD SVG 1.1//EN" "http://www.w3.org/Graphics/SVG/1.1/DTD/svg11.dtd">
<svg version="1.1" id="Ebene_1" xmlns="http://www.w3.org/2000/svg" xmlns:xlink="http://www.w3.org/1999/xlink" x="0px" y="0px"
	 width="841.889px" height="707px" viewBox="0 268.775 841.889 707" enable-background="new 0 268.775 841.889 707"
	 xml:space="preserve">
<g>
	<path d="M5.193,778.89h13.178v4.1c0,10.312,5.426,14.579,19.9,14.579h30.286c21.226,0,27.965-0.829,27.965-13.271v-0.669
		c0-8.029-2.302-12.442-19.256-12.442H33.668c-19.906,0-27.321-6.402-27.321-22.288v-4.904c0-13.626,7.734-21.158,42.617-21.158
		h21.723c31.924,0,36.368,9.195,36.368,20.979v4.433H93.883v-0.804c0-12.793-8.556-13.124-24.024-13.124h-24.67
		c-20.243,0-24.688,1.964-24.688,11.46v3.118c0,6.881,2.302,10.834,17.12,10.834h37.344c21.227,0,35.712,2.124,35.712,24.725v0.331
		c0,23.442-21.716,24.246-39.002,24.246H45.679c-20.894,0-40.486,0-40.486-25.056V778.89z"/>
	<path d="M230.285,757.585c0-19.508-11.509-23.27-27.971-23.27h-28.795c-16.457,0-27.965,3.762-27.965,23.27V774.3
		c0,19.506,11.509,23.27,27.965,23.27h28.795c16.456,0,27.971-3.764,27.971-23.27V757.585z M131.399,756.757
		c0-27.524,19.575-33.926,46.405-33.926h20.23c26.824,0,46.411,6.401,46.411,33.926v18.353c0,27.53-19.587,33.907-46.411,33.907
		h-20.23c-26.83,0-46.405-6.377-46.405-33.907V756.757L131.399,756.757z"/>
	<polygon points="255.962,724.163 270.926,724.163 311.739,796.261 352.539,724.163 367.504,724.163 320.135,807.721 
		303.341,807.721 	"/>
	<path d="M468.544,781.499c0-11.472-10.202-12.933-31.918-12.933h-21.73c-18.261,0-23.355,2.615-23.355,13.117v2.615
		c0,9.336,3.283,13.271,22.711,13.271h18.746c25.682,0,35.546-1.811,35.546-12.288V781.499z M468.544,799.38h-0.35
		c-3.764,7.543-8.226,9.649-29.942,9.649h-33.889c-21.404,0-26.99-9.33-26.99-25.057v-5.573c0-19.016,13.48-21.317,38.174-21.317
		h22.699c18.433,0,25.025,1.964,29.941,9.998h0.355v-15.726c0-15.063-9.557-17.026-31.279-17.026h-20.717
		c-17.775,0-21.244,4.266-21.244,11.14v2.947h-14.13v-4.101c0-15.247,9.686-21.483,35.024-21.483h22.38
		c26.327,0,44.115,3.946,44.115,28.843v56.048h-14.148V799.38L468.544,799.38z"/>
	<path d="M507.699,724.163h13.173v14.431h0.325c5.26-12.945,16.278-15.75,33.907-15.75h21.207c26.486,0,34.871,13.282,34.871,28.363
		v56.527h-14.148v-53.09c0-12.276-3.45-20.316-30.937-20.316h-3.615c-33.091,0-40.629,6.229-40.629,25.903v47.503h-14.161v-83.571
		H507.699z"/>
	<path d="M645.421,735.622h-18.433v-11.459h18.433v-19.82h14.143v19.82h56.121v11.459h-56.121v41.623
		c0,15.572,5.433,20.324,20.9,20.324h4.444c18.765,0,21.735-3.946,21.735-21.459v-6.237h11.509v9.171
		c0,16.715-1.639,29.985-32.249,29.985h-7.741c-26.485,0-32.741-12.768-32.741-26.363V735.622z"/>
	<path d="M822.133,781.499c0-11.472-10.201-12.933-31.918-12.933h-21.736c-18.267,0-23.354,2.615-23.354,13.117v2.615
		c0,9.336,3.29,13.271,22.698,13.271h18.765c25.688,0,35.546-1.811,35.546-12.288V781.499z M822.133,799.38h-0.344
		c-3.763,7.543-8.237,9.649-29.947,9.649h-33.884c-21.392,0-26.989-9.33-26.989-25.057v-5.573c0-19.016,13.474-21.317,38.191-21.317
		h22.688c18.444,0,25.031,1.964,29.954,9.998h0.343v-15.726c0-15.063-9.557-17.026-31.292-17.026H770.13
		c-17.751,0-21.226,4.266-21.226,11.14v2.947h-14.124v-4.101c0-15.247,9.662-21.483,35.007-21.483h22.379
		c26.327,0,44.109,3.946,44.109,28.843v56.048h-14.143V799.38z"/>
	<path fill="#EDF1C6" d="M70.423,502.667c0,7.697-6.267,13.945-14.008,13.945H16.763c-7.722,0-13.995-6.248-13.995-13.945v-39.505
		c0-7.704,6.267-13.928,13.995-13.928h39.652c7.741,0,14.008,6.224,14.008,13.928V502.667L70.423,502.667z"/>
	<path fill="#93C462" d="M443.182,543.313c0,11.682-9.521,21.146-21.245,21.146h-60.123c-11.687,0-21.214-9.464-21.214-21.146
		V483.46c0-11.687,9.527-21.146,21.214-21.146h60.123c11.73,0,21.245,9.459,21.245,21.146V543.313z"/>
	<path fill="#CFE09B" d="M251.087,574.484c0,10.373-8.44,18.776-18.868,18.776h-53.434c-10.41,0-18.85-8.403-18.85-18.776V521.26
		c0-10.367,8.439-18.79,18.85-18.79h53.434c10.434,0,18.868,8.422,18.868,18.79V574.484L251.087,574.484z"/>
	<path fill="#3AAA35" d="M652.346,483.019c0,13.614-11.098,24.656-24.768,24.656h-70.129c-13.682,0-24.749-11.042-24.749-24.656
		v-69.846c0-13.621,11.061-24.657,24.749-24.657h70.129c13.682,0,24.768,11.037,24.768,24.657V483.019L652.346,483.019z"/>
	<path fill="#93C462" d="M838.694,576.877c0,11.025-8.986,19.949-20.034,19.949h-56.79c-11.062,0-20.048-8.931-20.048-19.949
		v-56.551c0-11.011,8.985-19.961,20.048-19.961h56.79c11.048,0,20.034,8.95,20.034,19.961V576.877z"/>
</g>
</svg>
