<?xml version="1.0" encoding="utf-8"?>
<!-- Generator: Adobe Illustrator 16.0.0, SVG Export Plug-In . SVG Version: 6.00 Build 0)  -->
<!DOCTYPE svg PUBLIC "-//W3C//DTD SVG 1.1//EN" "http://www.w3.org/Graphics/SVG/1.1/DTD/svg11.dtd">
<svg version="1.1" id="Ebene_1" xmlns="http://www.w3.org/2000/svg" xmlns:xlink="http://www.w3.org/1999/xlink" x="0px" y="0px"
	 width="272.6px" height="49.512px" viewBox="0 0 272.6 49.512" enable-background="new 0 0 272.6 49.512" xml:space="preserve">
<g>
	<g>
		<polygon fill="#4177BB" points="92.104,13.313 81.03,14.001 49.882,9.882 13.598,0 14.355,5.185 3.685,3.774 10.277,18.398 
			0,19.037 10.259,36.947 64.297,21.343 77.158,21.57 83.081,18.925 77.724,17.466 		"/>
		<polygon fill="#95C11F" points="0,19.037 10.259,36.947 92.104,13.313 		"/>
		<g>
			<polygon fill="#006633" points="3.685,3.774 14.511,27.792 81.726,14.093 			"/>
		</g>
		<g>
			<polygon fill="#2D2E83" points="16.593,20.499 13.598,0 83.081,18.925 77.158,21.57 			"/>
		</g>
		
			<rect x="35.085" y="10.712" transform="matrix(1 0.0026 -0.0026 1 0.0455 -0.165)" fill="#FFFFFF" width="57.019" height="13.481"/>
		<text transform="matrix(1 0 0 1 35.0854 24.9912)" display="none"><tspan x="0" y="0" display="inline" fill="#FFFFFF" stroke="#FFFFFF" stroke-width="4" stroke-linejoin="round" stroke-miterlimit="10" font-family="'PassionOne-Bold'" font-size="23.5275">EDU</tspan><tspan x="39.361" y="0" display="inline" fill="#FFFFFF" stroke="#FFFFFF" stroke-width="4" stroke-linejoin="round" stroke-miterlimit="10" font-family="'HelveticaNeue-Bold'" font-size="20.9133" letter-spacing="1">Hacks</tspan></text>
		<text transform="matrix(1 0 0 1 35.0854 24.9912)"><tspan x="0" y="0" font-family="'PassionOne-Bold'" font-size="23.5275">EDU</tspan><tspan x="39.361" y="0" font-family="'HelveticaNeue-Bold'" font-size="20.9133" letter-spacing="1">{Hacks}</tspan></text>
	</g>
	<text transform="matrix(1 0 0 1 168.041 25.1309)" font-family="'HelveticaNeue-Bold'" font-size="20.9133">Mannheim</text>
	<text transform="matrix(1 0 0 1 169.5342 47.9722)" font-family="'HelveticaNeue-Bold'" font-size="8.3875">by</text>
	<g>
		<path d="M186.964,48.089v-3.066h-1.514v3.066h-2.998v-8.697h2.998v3.25h1.514v-3.25h2.953v8.697H186.964z"/>
		<path d="M193.979,43.972V43.72c0-0.141-0.083-0.252-0.267-0.252c-0.52,0-1.499,0.197-2.451,0.434l-0.435-2.213
			c1.177-0.279,2.34-0.475,3.6-0.475c1.751,0,2.396,0.644,2.396,1.974c0,0.841-0.085,1.849-0.085,2.802
			c0,0.266,0.197,0.322,0.673,0.322l-0.265,1.863c-0.422,0.025-0.743,0.055-1.137,0.055c-0.614,0-1.176-0.183-1.483-0.547h-0.099
			c-0.378,0.309-0.869,0.547-1.707,0.547c-1.345,0-2.046-0.784-2.046-2.031C190.673,44.533,191.877,44.126,193.979,43.972z
			 M194.062,46.003v-0.531c-0.489,0.068-0.729,0.209-0.729,0.56c0,0.252,0.1,0.392,0.322,0.392
			C193.923,46.423,194.062,46.284,194.062,46.003z"/>
		<path d="M201.161,46.115c0.407,0,0.856-0.069,1.415-0.182l0.308,1.947c-0.743,0.209-1.302,0.35-2.072,0.35
			c-2.116,0-3.138-1.33-3.138-3.375c0-2.088,1.036-3.641,3.18-3.641c0.883,0,1.472,0.125,2.144,0.377l-0.295,2.213
			c-0.503-0.182-1.12-0.393-1.541-0.393c-0.448,0-0.559,0.505-0.559,1.345C200.603,45.667,200.701,46.115,201.161,46.115z"/>
		<path d="M207.184,48.089l-0.812-2.199h-0.058v2.199h-2.871v-8.394l2.871-0.583v4.622h0.058l0.98-1.771l3.037-0.583l-1.566,3.487
			c0.489,1.078,1.022,2.156,1.511,3.221H207.184z"/>
		<path d="M217.001,43.917c0,0.406-0.042,0.909-0.112,1.569h-3.514c0.04,0.546,0.361,0.756,0.922,0.756
			c0.49,0,1.065-0.113,2.13-0.295l0.237,1.891c-0.952,0.252-1.794,0.393-2.773,0.393c-2.27,0-3.458-1.345-3.458-3.459
			c0-2.27,1.148-3.557,3.473-3.557C216.258,41.214,217.001,42.292,217.001,43.917z M213.316,44.209h1.008v-0.224
			c0-0.336-0.111-0.518-0.489-0.518C213.415,43.468,213.316,43.749,213.316,44.209z"/>
		<path d="M220.571,48.089h-2.885v-6.708h2.494l0.083,0.448h0.056c0.432-0.406,0.91-0.546,2.044-0.546l-0.085,2.324h-0.952
			c-0.547,0-0.755,0.153-0.755,0.729V48.089z"/>
		<path d="M228.918,39.533l-0.323,2.465c-0.979-0.195-1.821-0.35-2.269-0.35c-0.363,0-0.572,0.084-0.572,0.336
			c0,0.209,0.222,0.252,0.544,0.393c0.938,0.42,2.858,0.895,2.858,2.885c0,1.918-1.12,2.969-3.249,2.969
			c-1.163,0-2.046-0.141-2.984-0.379l0.196-2.365c1.22,0.309,1.947,0.475,2.534,0.475c0.297,0,0.436-0.098,0.436-0.307
			c0-0.211-0.182-0.295-0.477-0.436c-0.938-0.447-2.941-0.868-2.941-3.025c0-1.861,1.177-2.94,3.209-2.94
			C226.971,39.252,227.966,39.364,228.918,39.533z"/>
		<path d="M230.05,46.396v-3.039h-0.739v-1.892h0.881l0.182-1.247h2.592v1.247h1.274v1.892h-1.289v2.59
			c0,0.127,0.055,0.182,0.169,0.182c0.266,0,0.559-0.027,1.104-0.055l-0.083,2.016c-0.7,0.07-1.289,0.141-1.974,0.141
			C230.766,48.23,230.05,47.783,230.05,46.396z"/>
		<path d="M241.354,44.617c0,2.576-0.982,3.613-3.319,3.613c-2.383,0-3.405-1.064-3.405-3.516c0-2.479,1.078-3.5,3.405-3.5
			C240.332,41.214,241.354,42.236,241.354,44.617z M237.559,44.561v0.336c0,1.135,0.027,1.415,0.489,1.415
			c0.351,0,0.406-0.267,0.406-1.344v-0.394c0-1.022-0.028-1.304-0.449-1.304C237.599,43.271,237.559,43.552,237.559,44.561z"/>
		<path d="M242.009,39.696l2.872-0.583v6.597c0,0.265,0.155,0.378,0.519,0.378l-0.209,2.143h-1.148
			c-1.359,0-2.033-0.588-2.033-1.877V39.696z"/>
		<path d="M245.777,48.089l-0.07-1.582l2.198-2.928h-2.269v-2.198h5.868l0.086,1.472l-2.145,3.15h1.907l-0.876,2.086H245.777z"/>
	</g>
</g>
</svg>
