<?xml version="1.0" encoding="utf-8"?>
<!-- Generator: Adobe Illustrator 16.0.0, SVG Export Plug-In . SVG Version: 6.00 Build 0)  -->
<!DOCTYPE svg PUBLIC "-//W3C//DTD SVG 1.1//EN" "http://www.w3.org/Graphics/SVG/1.1/DTD/svg11.dtd">
<svg version="1.1" id="Ebene_1" xmlns="http://www.w3.org/2000/svg" xmlns:xlink="http://www.w3.org/1999/xlink" x="0px" y="0px"
	 width="272.6px" height="49.512px" viewBox="0 0 272.6 49.512" enable-background="new 0 0 272.6 49.512" xml:space="preserve">
<g>
	<g>
		<polygon fill="#4177BB" points="92.104,13.313 81.031,14.001 49.882,9.882 13.598,0 14.355,5.185 3.685,3.774 10.277,18.398 
			0,19.037 10.259,36.947 64.297,21.343 77.158,21.57 83.081,18.925 77.724,17.466 		"/>
		<polygon fill="#95C11F" points="0,19.037 10.259,36.947 92.104,13.313 		"/>
		<g>
			<polygon fill="#006633" points="3.685,3.774 14.511,27.792 81.726,14.093 			"/>
		</g>
		<g>
			<polygon fill="#2D2E83" points="16.593,20.499 13.598,0 83.081,18.925 77.158,21.57 			"/>
		</g>
		
			<rect x="35.086" y="10.712" transform="matrix(-1 -0.0026 0.0026 -1 127.1443 35.0703)" fill="#FFFFFF" width="57.019" height="13.481"/>
		<text transform="matrix(1 0 0 1 35.0857 24.9905)" fill="#FFFFFF" font-family="'PassionOne-Bold'" font-size="23.5275">EDU</text>
		
			<text transform="matrix(1 0 0 1 35.0857 24.9905)" fill="none" stroke="#FFFFFF" stroke-width="4" stroke-linejoin="round" stroke-miterlimit="10" font-family="'PassionOne-Bold'" font-size="23.5275">EDU</text>
		<text transform="matrix(1 0 0 1 74.4465 24.9905)" fill="#FFFFFF" font-family="'HelveticaNeue-Bold'" font-size="20.9133">Hacks</text>
		
			<text transform="matrix(1 0 0 1 74.4465 24.9905)" fill="none" stroke="#FFFFFF" stroke-width="4" stroke-linejoin="round" stroke-miterlimit="10" font-family="'HelveticaNeue-Bold'" font-size="20.9133">Hacks</text>
		<g enable-background="new    ">
			<path d="M36.027,24.99V10.379h9.646l-0.329,3.882h-4.282v1.765h3.741v3.389h-3.741v2h4.611l-0.329,3.576H36.027z"/>
			<path d="M52.544,24.99h-5.671V10.379h5.789c5.247,0,6.847,2.776,6.847,6.988C59.508,21.65,57.932,24.99,52.544,24.99z
				 M52.379,14.214h-0.494v7.105h0.588c1.718,0,1.906-1.294,1.906-3.553C54.379,15.391,54.12,14.214,52.379,14.214z"/>
			<path d="M68.425,19.79v-9.411h5.035v9.717c0,3.506-2.329,5.13-6.282,5.13c-3.977,0-6.165-1.647-6.165-5.082v-9.765h5.129v9.435
				c0,0.824,0.329,1.271,1.153,1.271S68.425,20.638,68.425,19.79z"/>
		</g>
		<g enable-background="new    ">
			<path d="M80.281,12.045c-0.251,0-0.45,0.049-0.596,0.146s-0.261,0.22-0.345,0.366c-0.083,0.146-0.136,0.311-0.157,0.491
				c-0.021,0.182-0.031,0.355-0.031,0.522v3.179c0,0.517-0.081,0.931-0.241,1.245c-0.16,0.313-0.349,0.558-0.564,0.731
				c-0.216,0.175-0.443,0.297-0.68,0.366c-0.237,0.07-0.432,0.111-0.585,0.125v0.063c0.153,0.014,0.348,0.06,0.585,0.136
				c0.237,0.076,0.463,0.202,0.68,0.376c0.216,0.175,0.404,0.405,0.564,0.69c0.16,0.286,0.241,0.652,0.241,1.098v3.347
				c0,0.153,0.01,0.32,0.031,0.502c0.021,0.181,0.073,0.345,0.157,0.491c0.084,0.146,0.199,0.269,0.345,0.366
				c0.146,0.097,0.345,0.146,0.596,0.146h1.129v2.342h-2.656c-0.237,0-0.505-0.06-0.805-0.178s-0.579-0.293-0.836-0.522
				c-0.258-0.23-0.478-0.523-0.659-0.879c-0.182-0.355-0.272-0.771-0.272-1.244v-4.057c0-0.321-0.07-0.593-0.209-0.816
				c-0.14-0.223-0.307-0.4-0.502-0.533c-0.196-0.132-0.405-0.229-0.627-0.293c-0.223-0.062-0.411-0.094-0.565-0.094V18.34
				c0.154,0,0.342-0.031,0.565-0.094c0.223-0.063,0.432-0.168,0.627-0.314c0.195-0.146,0.362-0.341,0.502-0.585
				c0.139-0.244,0.209-0.54,0.209-0.889v-3.932c0-0.475,0.09-0.89,0.272-1.245c0.181-0.355,0.4-0.648,0.659-0.878
				c0.258-0.23,0.537-0.404,0.836-0.522c0.3-0.119,0.568-0.179,0.805-0.179h2.656v2.343H80.281z"/>
			<path d="M87.12,10.059v5.729h6.044v-5.729h3.283V24.99h-3.283v-6.441H87.12v6.441h-3.284V10.059H87.12z"/>
			<path d="M99.877,17.503c0.042-0.696,0.216-1.275,0.523-1.735c0.306-0.46,0.697-0.829,1.171-1.108s1.007-0.478,1.6-0.596
				c0.592-0.119,1.188-0.178,1.788-0.178c0.543,0,1.094,0.038,1.652,0.114c0.558,0.077,1.067,0.228,1.527,0.45
				s0.836,0.533,1.129,0.931c0.292,0.397,0.439,0.924,0.439,1.579v5.625c0,0.488,0.028,0.955,0.083,1.401s0.153,0.781,0.293,1.004
				h-3.011c-0.056-0.167-0.102-0.338-0.136-0.513c-0.035-0.174-0.06-0.352-0.073-0.533c-0.474,0.488-1.032,0.83-1.673,1.025
				c-0.642,0.194-1.297,0.292-1.966,0.292c-0.516,0-0.997-0.062-1.443-0.188c-0.446-0.126-0.836-0.321-1.171-0.586
				s-0.596-0.6-0.784-1.004c-0.188-0.404-0.282-0.885-0.282-1.443c0-0.613,0.107-1.118,0.324-1.516s0.495-0.715,0.837-0.952
				c0.341-0.236,0.732-0.414,1.171-0.533c0.439-0.118,0.882-0.212,1.328-0.282c0.446-0.069,0.885-0.125,1.317-0.167
				s0.816-0.104,1.15-0.188c0.334-0.083,0.599-0.205,0.794-0.366c0.195-0.16,0.286-0.394,0.272-0.7c0-0.32-0.052-0.575-0.157-0.764
				c-0.104-0.188-0.244-0.334-0.418-0.438s-0.376-0.175-0.606-0.209c-0.23-0.035-0.478-0.053-0.742-0.053
				c-0.585,0-1.046,0.125-1.38,0.376s-0.53,0.67-0.585,1.255H99.877z M106.736,19.699c-0.125,0.111-0.282,0.198-0.47,0.262
				c-0.188,0.062-0.391,0.114-0.607,0.156s-0.442,0.077-0.68,0.104c-0.237,0.028-0.474,0.063-0.711,0.104
				c-0.223,0.042-0.443,0.098-0.659,0.168c-0.216,0.069-0.404,0.164-0.564,0.282c-0.161,0.118-0.29,0.269-0.387,0.449
				c-0.098,0.182-0.146,0.412-0.146,0.69c0,0.265,0.049,0.488,0.146,0.669c0.098,0.182,0.23,0.324,0.397,0.429
				s0.362,0.178,0.585,0.22s0.453,0.062,0.69,0.062c0.585,0,1.039-0.097,1.359-0.292c0.32-0.195,0.557-0.429,0.711-0.701
				c0.153-0.271,0.248-0.547,0.282-0.826c0.035-0.278,0.052-0.502,0.052-0.669V19.699z"/>
			<path d="M118.155,16.123c-0.474,0-0.872,0.108-1.192,0.324c-0.321,0.216-0.583,0.495-0.785,0.836
				c-0.202,0.342-0.345,0.719-0.429,1.13c-0.083,0.411-0.125,0.819-0.125,1.224c0,0.391,0.042,0.787,0.125,1.191
				c0.084,0.405,0.22,0.771,0.408,1.099c0.188,0.327,0.442,0.596,0.763,0.805c0.32,0.209,0.711,0.313,1.171,0.313
				c0.711,0,1.258-0.198,1.642-0.596c0.383-0.397,0.624-0.931,0.721-1.6h2.865c-0.195,1.436-0.753,2.53-1.673,3.283
				c-0.92,0.753-2.099,1.129-3.535,1.129c-0.809,0-1.551-0.136-2.227-0.407c-0.676-0.272-1.251-0.651-1.726-1.14
				s-0.844-1.07-1.108-1.746c-0.265-0.677-0.397-1.419-0.397-2.228c0-0.837,0.122-1.614,0.366-2.332
				c0.244-0.718,0.603-1.339,1.077-1.861c0.474-0.522,1.052-0.931,1.736-1.224c0.683-0.293,1.464-0.438,2.342-0.438
				c0.641,0,1.258,0.083,1.851,0.251c0.593,0.167,1.122,0.421,1.589,0.763s0.847,0.767,1.14,1.275c0.292,0.51,0.46,1.112,0.502,1.81
				h-2.907C120.156,16.743,119.424,16.123,118.155,16.123z"/>
			<path d="M129.218,10.059v8.01l3.743-3.891h3.514l-4.078,3.974l4.538,6.839h-3.597l-2.97-4.831l-1.15,1.108v3.723h-2.97V10.059
				H129.218z"/>
			<path d="M141.462,22.303c0.133,0.23,0.303,0.418,0.512,0.564c0.21,0.146,0.45,0.255,0.723,0.324
				c0.271,0.07,0.554,0.104,0.847,0.104c0.209,0,0.429-0.023,0.659-0.073c0.229-0.048,0.438-0.125,0.627-0.229
				c0.188-0.104,0.345-0.244,0.471-0.418c0.125-0.175,0.188-0.395,0.188-0.659c0-0.446-0.296-0.78-0.889-1.004
				c-0.592-0.223-1.418-0.446-2.479-0.669c-0.432-0.098-0.854-0.213-1.265-0.346c-0.411-0.132-0.777-0.306-1.099-0.522
				c-0.32-0.216-0.578-0.488-0.773-0.815s-0.293-0.729-0.293-1.203c0-0.696,0.137-1.269,0.408-1.715
				c0.271-0.445,0.631-0.798,1.077-1.056s0.948-0.439,1.506-0.544s1.13-0.156,1.715-0.156s1.153,0.056,1.704,0.167
				s1.043,0.3,1.475,0.564s0.791,0.617,1.077,1.057c0.286,0.438,0.456,0.993,0.513,1.662h-2.824
				c-0.041-0.571-0.258-0.958-0.648-1.161c-0.39-0.201-0.85-0.303-1.379-0.303c-0.168,0-0.35,0.011-0.545,0.031
				c-0.195,0.021-0.373,0.066-0.533,0.136c-0.16,0.07-0.296,0.171-0.407,0.304c-0.112,0.133-0.167,0.311-0.167,0.533
				c0,0.265,0.097,0.48,0.293,0.648c0.194,0.167,0.449,0.303,0.763,0.407s0.673,0.199,1.077,0.282
				c0.404,0.084,0.815,0.175,1.234,0.272c0.432,0.098,0.854,0.216,1.265,0.355s0.776,0.324,1.099,0.554
				c0.32,0.23,0.578,0.517,0.773,0.857c0.195,0.342,0.293,0.764,0.293,1.266c0,0.711-0.144,1.308-0.43,1.788
				c-0.285,0.481-0.658,0.868-1.119,1.161c-0.459,0.292-0.986,0.498-1.578,0.616c-0.593,0.118-1.195,0.178-1.809,0.178
				c-0.628,0-1.242-0.062-1.841-0.188c-0.6-0.126-1.133-0.335-1.601-0.628c-0.467-0.293-0.85-0.68-1.149-1.16
				c-0.3-0.481-0.464-1.084-0.491-1.81h2.822C141.263,21.798,141.329,22.073,141.462,22.303z"/>
			<path d="M151.177,26.434c0.25,0,0.449-0.05,0.596-0.146c0.146-0.098,0.262-0.22,0.345-0.366c0.084-0.146,0.136-0.311,0.157-0.491
				c0.021-0.182,0.031-0.349,0.031-0.502v-3.347c0-0.445,0.08-0.812,0.24-1.098c0.16-0.285,0.349-0.516,0.564-0.69
				c0.217-0.174,0.443-0.3,0.68-0.376c0.237-0.076,0.432-0.122,0.586-0.136v-0.063c-0.154-0.014-0.349-0.055-0.586-0.125
				c-0.236-0.069-0.463-0.191-0.68-0.366c-0.216-0.174-0.404-0.418-0.564-0.731c-0.16-0.314-0.24-0.729-0.24-1.245v-3.179
				c0-0.167-0.011-0.341-0.031-0.522c-0.021-0.181-0.073-0.345-0.157-0.491c-0.083-0.146-0.198-0.269-0.345-0.366
				s-0.346-0.146-0.596-0.146h-1.13V9.702h2.655c0.238,0,0.506,0.06,0.806,0.179c0.3,0.118,0.579,0.292,0.837,0.522
				c0.258,0.229,0.477,0.522,0.658,0.878s0.272,0.771,0.272,1.245v3.932c0,0.349,0.069,0.645,0.209,0.889s0.307,0.438,0.502,0.585
				c0.194,0.146,0.404,0.251,0.628,0.314c0.223,0.062,0.418,0.094,0.585,0.094v1.819c-0.167,0-0.362,0.031-0.585,0.094
				c-0.224,0.063-0.434,0.161-0.628,0.293c-0.195,0.133-0.362,0.311-0.502,0.533c-0.14,0.224-0.209,0.495-0.209,0.816v4.057
				c0,0.474-0.091,0.889-0.272,1.244s-0.4,0.648-0.658,0.879c-0.258,0.229-0.537,0.404-0.837,0.522s-0.567,0.178-0.806,0.178h-2.655
				v-2.342H151.177z"/>
		</g>
	</g>
	<text transform="matrix(1 0 0 1 168.0413 25.1311)" font-family="'HelveticaNeue-Bold'" font-size="20.9133">Mannheim</text>
	<text transform="matrix(1 0 0 1 169.5344 47.9719)" font-family="'HelveticaNeue-Bold'" font-size="8.3875">by</text>
	<g>
		<path d="M186.964,48.089v-3.066h-1.514v3.066h-2.998v-8.697h2.998v3.25h1.514v-3.25h2.953v8.697H186.964z"/>
		<path d="M193.979,43.972V43.72c0-0.141-0.083-0.252-0.267-0.252c-0.521,0-1.499,0.197-2.451,0.434l-0.435-2.213
			c1.177-0.279,2.34-0.475,3.6-0.475c1.751,0,2.396,0.644,2.396,1.974c0,0.841-0.085,1.85-0.085,2.802
			c0,0.267,0.196,0.322,0.673,0.322l-0.266,1.863c-0.422,0.024-0.743,0.055-1.137,0.055c-0.614,0-1.176-0.183-1.483-0.547h-0.099
			c-0.378,0.309-0.869,0.547-1.707,0.547c-1.345,0-2.046-0.784-2.046-2.031C190.673,44.532,191.877,44.126,193.979,43.972z
			 M194.062,46.003v-0.531c-0.488,0.068-0.729,0.209-0.729,0.56c0,0.252,0.1,0.393,0.322,0.393
			C193.923,46.423,194.062,46.283,194.062,46.003z"/>
		<path d="M201.161,46.115c0.406,0,0.855-0.068,1.415-0.182l0.308,1.947c-0.743,0.209-1.302,0.35-2.072,0.35
			c-2.115,0-3.138-1.33-3.138-3.375c0-2.088,1.036-3.641,3.18-3.641c0.883,0,1.473,0.125,2.145,0.377l-0.295,2.213
			c-0.503-0.182-1.12-0.394-1.541-0.394c-0.448,0-0.56,0.506-0.56,1.346C200.603,45.667,200.701,46.115,201.161,46.115z"/>
		<path d="M207.184,48.089l-0.812-2.199h-0.059v2.199h-2.871v-8.395l2.871-0.583v4.622h0.059l0.979-1.771l3.037-0.583l-1.565,3.486
			c0.488,1.078,1.021,2.156,1.511,3.222L207.184,48.089L207.184,48.089z"/>
		<path d="M217.001,43.917c0,0.405-0.042,0.908-0.112,1.568h-3.514c0.04,0.546,0.36,0.756,0.922,0.756
			c0.49,0,1.065-0.112,2.13-0.295l0.237,1.892c-0.952,0.252-1.794,0.393-2.773,0.393c-2.27,0-3.458-1.345-3.458-3.459
			c0-2.27,1.148-3.557,3.474-3.557C216.258,41.214,217.001,42.292,217.001,43.917z M213.316,44.209h1.009v-0.225
			c0-0.336-0.111-0.518-0.489-0.518C213.415,43.468,213.316,43.749,213.316,44.209z"/>
		<path d="M220.572,48.089h-2.886v-6.708h2.494l0.083,0.448h0.057c0.432-0.406,0.909-0.547,2.044-0.547l-0.085,2.324h-0.952
			c-0.547,0-0.755,0.153-0.755,0.729V48.089z"/>
		<path d="M228.918,39.532l-0.323,2.466c-0.979-0.195-1.821-0.351-2.269-0.351c-0.363,0-0.572,0.084-0.572,0.336
			c0,0.209,0.222,0.252,0.544,0.394c0.938,0.42,2.858,0.895,2.858,2.885c0,1.918-1.12,2.969-3.249,2.969
			c-1.163,0-2.046-0.141-2.984-0.379l0.196-2.365c1.22,0.31,1.946,0.476,2.534,0.476c0.297,0,0.436-0.099,0.436-0.308
			c0-0.211-0.182-0.295-0.477-0.436c-0.938-0.447-2.941-0.868-2.941-3.025c0-1.86,1.177-2.939,3.209-2.939
			C226.971,39.252,227.966,39.364,228.918,39.532z"/>
		<path d="M230.05,46.396v-3.039h-0.739v-1.892h0.881l0.183-1.247h2.592v1.247h1.274v1.892h-1.289v2.59
			c0,0.127,0.055,0.183,0.169,0.183c0.266,0,0.559-0.027,1.104-0.056l-0.083,2.017c-0.7,0.069-1.289,0.141-1.974,0.141
			C230.766,48.23,230.05,47.782,230.05,46.396z"/>
		<path d="M241.354,44.616c0,2.576-0.981,3.613-3.318,3.613c-2.383,0-3.405-1.063-3.405-3.516c0-2.479,1.078-3.5,3.405-3.5
			C240.332,41.214,241.354,42.236,241.354,44.616z M237.559,44.561v0.336c0,1.135,0.027,1.415,0.489,1.415
			c0.351,0,0.406-0.267,0.406-1.344v-0.395c0-1.021-0.028-1.304-0.449-1.304C237.599,43.271,237.559,43.552,237.559,44.561z"/>
		<path d="M242.009,39.696l2.872-0.583v6.598c0,0.265,0.155,0.378,0.519,0.378l-0.209,2.143h-1.147
			c-1.359,0-2.033-0.588-2.033-1.877L242.009,39.696L242.009,39.696z"/>
		<path d="M245.778,48.089l-0.07-1.582l2.198-2.928h-2.27v-2.198h5.868l0.086,1.472l-2.145,3.15h1.906l-0.876,2.086H245.778z"/>
	</g>
</g>
</svg>
