<?xml version="1.0" encoding="utf-8"?>
<!-- Generator: Adobe Illustrator 16.0.0, SVG Export Plug-In . SVG Version: 6.00 Build 0)  -->
<!DOCTYPE svg PUBLIC "-//W3C//DTD SVG 1.1//EN" "http://www.w3.org/Graphics/SVG/1.1/DTD/svg11.dtd">
<svg version="1.1" id="Ebene_1" xmlns="http://www.w3.org/2000/svg" xmlns:xlink="http://www.w3.org/1999/xlink" x="0px" y="0px"
	 width="841.89px" height="1190.55px" viewBox="0 0 841.89 1190.55" enable-background="new 0 0 841.89 1190.55"
	 xml:space="preserve">
<g id="Page_2">
	<text transform="matrix(1 0 0 1 22.0654 45.3804)" font-family="'Helvetica-Bold'" font-size="34.7432">Sonntag 19. April</text>
	<g>
		<text transform="matrix(1 0 0 1 332.4609 45.3804)" fill="#878787" font-family="'Helvetica-Bold'" font-size="28.4262">Sunday 19th April</text>
	</g>
	<text transform="matrix(1 0 0 1 188.7285 367.916)"><tspan x="0" y="0" fill="#575756" font-family="'Helvetica'" font-size="18.9508">Alle Projekte müssen auf Hackerleague.org mit verlinktem Repository </tspan><tspan x="0" y="22.741" fill="#575756" font-family="'Helvetica'" font-size="18.9508">(z.B. GitHub) eingecheckt werden.</tspan></text>
	<text transform="matrix(1 0 0 1 188.7295 539.9604)"><tspan x="0" y="0" fill="#575756" font-family="'Helvetica'" font-size="18.9508">Präsentation eurer Projekte vor allen Teilnehmern</tspan><tspan x="0" y="22.741" fill="#575756" font-family="'Helvetica'" font-size="18.9508"> und der Jury. Ihr habt 3 min Präsentationszeit und </tspan><tspan x="0" y="45.482" fill="#575756" font-family="'Helvetica'" font-size="18.9508">1 min Zeit die Fragen der Jury zu beantworten.</tspan></text>
	<text transform="matrix(1 0 0 1 188.7295 889.5273)"><tspan x="0" y="0" fill="#575756" font-family="'Helvetica'" font-size="18.9508">Siegerehrung mit Preisverleihung für die besten drei Teams, </tspan><tspan x="0" y="22.741" fill="#575756" font-family="'Helvetica'" font-size="18.9508">sowie die vergabe eines Überraschungspreises.</tspan></text>
	<g>
		<g>
			
				<line fill="none" stroke="#9D9D9C" stroke-width="4" stroke-miterlimit="10" x1="88.221" y1="163.359" x2="88.221" y2="166.359"/>
			
				<line fill="none" stroke="#9D9D9C" stroke-width="4" stroke-miterlimit="10" stroke-dasharray="5.9758,5.9758" x1="88.221" y1="172.334" x2="88.221" y2="1029.859"/>
			
				<line fill="none" stroke="#9D9D9C" stroke-width="4" stroke-miterlimit="10" x1="88.221" y1="1032.848" x2="88.221" y2="1035.848"/>
		</g>
	</g>
	<circle fill="#F8AD00" cx="88.219" cy="861.348" r="69.115"/>
	<circle fill="#E62156" cx="88.219" cy="512.354" r="69.115"/>
	<circle fill="#AC2882" cx="88.22" cy="337.856" r="42.732"/>
	<circle fill="#6F2D83" cx="88.22" cy="163.359" r="42.732"/>
	<circle fill="#ED6E2E" cx="88.22" cy="686.851" r="42.732"/>
	<path fill="#F6D700" d="M130.952,1035.848c0-23.603-19.133-42.735-42.731-42.735c-23.603,0-42.733,19.133-42.733,42.735
		c0,23.599,19.131,42.731,42.733,42.731C111.819,1078.579,130.952,1059.446,130.952,1035.848z"/>
	<text transform="matrix(1 0 0 1 55.9072 172.1841)" fill="#FFFFFF" font-family="'Helvetica-Bold'" font-size="25.2678">09:00</text>
	<g>
		<text transform="matrix(1 0 0 1 55.9072 349.8398)" fill="#FFFFFF" font-family="'Helvetica-Bold'" font-size="25.2678">11:00</text>
	</g>
	<text transform="matrix(1 0 0 1 55.9072 699.1289)" fill="#FFFFFF" font-family="'Helvetica-Bold'" font-size="25.2678">12:30</text>
	<text transform="matrix(1 0 0 1 59.6797 841.9102)"><tspan x="0" y="0" fill="#FFFFFF" font-family="'Helvetica-Bold'" font-size="41.0601">ca. </tspan><tspan x="-23.968" y="49.272" fill="#FFFFFF" font-family="'Helvetica-Bold'" font-size="41.0601">13:00</tspan></text>
	<text transform="matrix(1 0 0 1 50.1094 1042.1016)" font-family="'Helvetica-Bold'" font-size="17.3716">following</text>
	<text transform="matrix(1 0 0 1 35.7119 527.5117)" fill="#FFFFFF" font-family="'Helvetica-Bold'" font-size="41.0601">11:30</text>
	<text transform="matrix(1 0 0 1 188.7285 182.3101)" fill="#878787" font-family="'Helvetica-Bold'" font-size="18.9508">Breakfast</text>
	<text transform="matrix(1 0 0 1 188.7285 152.584)" font-family="'Helvetica-Bold'" font-size="18.9508">Frühstück</text>
	<g>
		<text transform="matrix(1 0 0 1 188.7285 330.6104)" fill="#878787" font-family="'Helvetica-Bold'" font-size="18.9508">Deadline: Submit Projects</text>
	</g>
	<text transform="matrix(1 0 0 1 188.7285 300.8838)" font-family="'Helvetica-Bold'" font-size="18.9508">Abgabeschluss Teilnehmerprojekte</text>
	<g>
		<text transform="matrix(1 0 0 1 188.7285 852.0371)" fill="#878787" font-family="'Helvetica-Bold'" font-size="18.9508">Awards Ceremony</text>
	</g>
	<text transform="matrix(1 0 0 1 188.7285 822.3105)" font-family="'Helvetica-Bold'" font-size="18.9508">Siegerehrung</text>
	<g>
		<text transform="matrix(1 0 0 1 188.7285 707.6758)" fill="#878787" font-family="'Helvetica-Bold'" font-size="18.9508">Break</text>
	</g>
	<text transform="matrix(1 0 0 1 188.7285 677.9492)" font-family="'Helvetica-Bold'" font-size="18.9508">Kurze Pause</text>
	<g>
		<text transform="matrix(1 0 0 1 188.7285 1058.543)" fill="#878787" font-family="'Helvetica-Bold'" font-size="18.9508">Meet the Winners</text>
	</g>
	<text transform="matrix(1 0 0 1 188.7285 1028.8164)" font-family="'Helvetica-Bold'" font-size="18.9508">„Meet the Winners“ Sektrunde für alle Teilnehmer, Jury und Sponsoren</text>
	<g>
		<text transform="matrix(1 0 0 1 188.7295 502.8789)" fill="#878787" font-family="'Helvetica-Bold'" font-size="18.9508">Pitches/Presentations</text>
	</g>
	<text transform="matrix(1 0 0 1 188.7285 473.1523)" font-family="'Helvetica-Bold'" font-size="18.9508">Projektpräsentationen</text>
	<g>
		<path fill="#010202" d="M775.521,516.999c0.444,1.909,1.653,4.091,2.745,3.829c1.773-0.43,1.287-4.221,1.002-5.746
			c-1.266-6.768-4.42-11.67-9.277-14.167c-2.066-1.061-7.311-0.864-9.346,0c-2.812,1.194-4.962,7.025-5.833,6.396
			c-0.684-0.49-1.467-2.852-2.532-5.202c-0.639-1.415-1.816-3.279-3.195-2.563c-1.376,0.717-1.246,2.664-0.527,4.041
			c0,0,2.362,4.711,3.55,6.639c1.746,2.832,4.311,2.35,5.022,1.092c0.465-0.819,1.903-3.745,2.18-3.162
			c0.701,1.478-0.868,24.948-0.633,32.773c0.047,1.552,0.977,2.856,2.25,2.856c1.554,0,2.324-1.353,2.39-2.904
			c0.565-13.662-0.073-16.915,1.898-16.915c1.874,0,1.229,3.234,1.428,17.149c0.023,1.546,0.79,2.67,2.332,2.67
			c0.009,0,0.017,0,0.023,0c1.553-0.013,2.522-1.257,2.517-2.81c-0.023-6.771-1.651-31.721-0.924-32.808
			C771.975,506.09,774.911,514.356,775.521,516.999z"/>
		<path fill="#010202" d="M750.76,511.929v9.659h-57.488v-39.307h57.488v15.211c1.323,0.432,2.472,1.683,3.411,3.762
			c0.267,0.584,0.512,1.163,0.743,1.723v-22.774v-5.196c0-1.146-0.929-2.076-2.075-2.076h-23.945v-3.291
			c0-1.149-0.93-2.079-2.075-2.079h-9.431c-1.146,0-2.078,0.93-2.078,2.079v3.291h-24.117c-1.146,0-2.075,0.93-2.075,2.076v5.196
			v43.463c0,1.146,0.93,2.076,2.075,2.076h61.646c1.146,0,2.075-0.93,2.075-2.076v-9.296
			C753.343,514.269,751.868,513.405,750.76,511.929z"/>
		<path fill="#010202" d="M769.773,492.83c0-1.952-1.956-4.397-5.376-4.397c-2.972,0-4.398,2.403-4.398,5.376
			c0,2.932,2.935,4.398,4.398,4.398C765.862,498.208,769.773,498.697,769.773,492.83z"/>
		<path fill="#010202" d="M698.25,553.367c0-2.231-2.235-5.023-6.14-5.023c-3.393,0-5.019,2.744-5.019,6.139
			c0,3.35,3.345,5.021,5.019,5.021S698.25,560.061,698.25,553.367z"/>
		<path fill="#010202" d="M721.278,553.367c0-2.231-2.231-5.023-6.138-5.023c-3.39,0-5.017,2.744-5.017,6.139
			c0,3.35,3.345,5.021,5.017,5.021C716.815,559.504,721.278,560.061,721.278,553.367z"/>
		<path fill="#010202" d="M742.653,553.367c0-2.231-2.232-5.023-6.137-5.023c-3.393,0-5.02,2.744-5.02,6.139
			c0,3.35,3.346,5.021,5.02,5.021C738.188,559.504,742.653,560.061,742.653,553.367z"/>
		<path fill="#010202" d="M708.602,546.745c0-2.073-2.07-4.661-5.694-4.661c-3.147,0-4.656,2.545-4.656,5.694
			c0,3.107,3.106,4.659,4.656,4.659C704.459,552.438,708.602,552.957,708.602,546.745z"/>
		<path fill="#010202" d="M731.632,545.008c0-2.07-2.07-4.662-5.694-4.662c-3.147,0-4.659,2.547-4.659,5.695
			c0,3.105,3.105,4.661,4.659,4.661C727.489,550.702,731.632,551.219,731.632,545.008z"/>
		<path fill="#010202" d="M753.767,545.572c0-2.067-2.072-4.657-5.693-4.657c-3.148,0-4.658,2.546-4.658,5.69
			c0,3.111,3.104,4.662,4.658,4.662C749.623,551.268,753.767,551.788,753.767,545.572z"/>
		<path fill="#010202" d="M764.923,553.367c0-2.231-2.232-5.023-6.138-5.023c-3.39,0-5.021,2.744-5.021,6.139
			c0,3.35,3.347,5.021,5.021,5.021S764.923,560.061,764.923,553.367z"/>
		<path fill="#010202" d="M701.711,566.867c0-3.452-4.047-6.253-9.041-6.253c-4.993,0-9.042,2.801-9.042,6.253v3.504h18.086v-3.504
			H701.711z"/>
		<path fill="#010202" d="M724.742,566.867c0-3.452-4.047-6.253-9.04-6.253c-4.996,0-9.046,2.801-9.046,6.253v3.504h18.086V566.867z
			"/>
		<path fill="#010202" d="M746.117,566.867c0-3.452-4.05-6.253-9.044-6.253c-4.992,0-9.04,2.801-9.04,6.253v3.504h18.084V566.867z"
			/>
		<path fill="#010202" d="M768.389,566.867c0-3.452-4.05-6.253-9.044-6.253c-4.995,0-9.042,2.801-9.042,6.253v3.504h18.086V566.867z
			"/>
	</g>
	<g>
		<path fill="#010202" d="M814.498,764.701c-0.438-2.049-0.836-3.331-0.836-3.331l-26.332,7.056c0,0,0.296,1.311,0.94,3.302
			l-7.293,1.954l0.438,1.364c0.044,0.139,4.508,13.528,16.287,12.844c1.115,0.982,2.337,1.823,3.663,2.444l0.025-0.008
			c0.3,0.17,0.617,0.316,0.941,0.446c-0.143,0.362-0.181,0.799-0.062,1.246c0.253,0.938,1.063,1.536,1.813,1.335l2.344-0.627
			l1.216,4.53c-3.741,1.728-5.825,5.929-4.723,10.048l16.678-4.468c-1.104-4.118-5.006-6.717-9.114-6.34l-1.213-4.531l2.346-0.628
			c0.755-0.2,1.158-1.126,0.906-2.066c-0.117-0.445-0.372-0.808-0.679-1.052c0.216-0.272,0.416-0.556,0.584-0.85l0.029-0.006
			c0.843-1.203,1.476-2.54,1.954-3.95c10.544-5.299,7.716-19.127,7.684-19.269l-0.304-1.4L814.498,764.701z M784.511,775.562
			l4.667-1.249c1.24,3.287,3.152,7.384,5.854,10.761C788.9,784.099,785.683,778.26,784.511,775.562z M815.318,779.639
			c0.649-4.275,0.258-8.779-0.313-12.248l4.669-1.249C820.01,769.063,820.143,775.728,815.318,779.639z"/>
		<path fill="#010202" d="M756.98,785.015c6.542,0,11.845,5.303,11.845,11.845c0,6.539-5.303,11.841-11.845,11.841
			c-6.539,0-11.841-5.302-11.841-11.841C745.14,790.317,750.441,785.015,756.98,785.015z"/>
		<path fill="#010202" d="M774.67,830.942c4.21,0.301,6.313,1.428,9.246,1.428c2.927,0,4.731-1.804,7.665-4.734
			c2.93-2.93,10.336-10.209,10.336-10.209c1.571-1.771,1.285-4.208-0.426-5.876c-1.764-1.715-4.584-1.68-6.301,0.081l-0.003-0.003
			c0,0-7.892,7.667-9.245,9.018c-1.352,1.354-3.815,1.271-4.966,0.9c-3.424-1.1-8.786-2.705-8.786-2.705s18.26-9.546,21.868-11.537
			c3.604-1.988,3.839-5.003,2.429-7.839c-1.441-2.892-4.953-4.065-7.844-2.627v0.018c0,0-33.136,17.027-37.193,18.605
			c-4.059,1.579-6.087,8.118-6.313,17.584c-0.226,9.468-2.499,29.429-1.126,33.816c1.811,5.804,6.763,14.881,7.89,16.909
			c1.129,2.027-18.663,26.08-18.941,26.863c-1.582,2.449-1.055,5.74,1.305,7.526c2.452,1.85,5.921,1.382,7.802-1.027
			c0.049,0,19.453-24.096,21.596-26.239c3.091-3.091,1.767-8.701,0.639-11.407c-1.125-2.702-3.65-11.445-4.057-13.074
			c-0.752-3.007,3.859-5.185,8.582-1.127c4.718,4.058,12.152,9.696,12.152,9.696s2.254,1.804,1.134,5.411
			c-1.12,3.604-6.479,17.602-6.479,17.602c-0.811,2.945,0.875,6.015,3.817,6.882c2.979,0.877,6.099-0.824,6.976-3.804l-0.011-0.003
			c0.427-1.256,8.341-24.58,8.997-27.214c0.676-2.705-2.256-7.443-5.185-9.47c-2.931-2.027-16.457-13.076-17.359-13.753
			c-0.902-0.676-1.579-4.96-1.579-6.538C771.29,842.516,771.728,830.732,774.67,830.942z"/>
	</g>
</g>
</svg>
