<?xml version="1.0" encoding="utf-8"?>
<!-- Generator: Adobe Illustrator 16.0.0, SVG Export Plug-In . SVG Version: 6.00 Build 0)  -->
<!DOCTYPE svg PUBLIC "-//W3C//DTD SVG 1.1//EN" "http://www.w3.org/Graphics/SVG/1.1/DTD/svg11.dtd">
<svg version="1.1" id="Ebene_1" xmlns="http://www.w3.org/2000/svg" xmlns:xlink="http://www.w3.org/1999/xlink" x="0px" y="0px"
	 width="841.89px" height="1190.55px" viewBox="0 0 841.89 1190.55" enable-background="new 0 0 841.89 1190.55"
	 xml:space="preserve">
<g id="Page_1">
	<text transform="matrix(1 0 0 1 20.9131 45.001)" font-family="'Helvetica-Bold'" font-size="33.2232">Samstag 18. April</text>
	<g>
		<text transform="matrix(1 0 0 1 317.7295 45.001)" fill="#878787" font-family="'Helvetica-Bold'" font-size="27.1826">Saturday 18th April</text>
	</g>
	<text transform="matrix(1 0 0 1 180.2856 185.7993)"><tspan x="0" y="0" fill="#575756" font-family="'Helvetica'" font-size="18.1217">Erhalte beim Einlass deinen Teilnehmerpass und -tasche und solltest du</tspan><tspan x="0" y="21.746" fill="#575756" font-family="'Helvetica'" font-size="18.1217">noch kein Team gefunden haben, ist dies die richtige Zeit eins zu finden.</tspan></text>
	<text transform="matrix(1 0 0 1 180.2856 353.4258)"><tspan x="0" y="0" fill="#575756" font-family="'Helvetica'" font-size="18.1217">Unter den Sprechern: HackerStolz, Dr. Claudia Raabe (MAFINEX), Kai Utzinger</tspan><tspan x="0" y="21.746" fill="#575756" font-family="'Helvetica'" font-size="18.1217">(Uplink IT) &amp; Felix Kollmer (CloudRail).</tspan></text>
	<text transform="matrix(1 0 0 1 180.2856 675.0859)"><tspan x="0" y="0" fill="#575756" font-family="'Helvetica'" font-size="18.1217">Kostenloses Essensangebot über den ganzen Tag: Reichhaltiges Angebot für </tspan><tspan x="0" y="21.746" fill="#575756" font-family="'Helvetica'" font-size="18.1217">„Carnivore“ &amp; Veganer – über Verpflegung braucht ihr euch keine Gedanken </tspan><tspan x="0" y="43.492" fill="#575756" font-family="'Helvetica'" font-size="18.1217">machen.</tspan></text>
	<g>
		<g>
			
				<line fill="none" stroke="#9D9D9C" stroke-width="4" stroke-miterlimit="10" x1="84.174" y1="157.818" x2="84.174" y2="160.818"/>
			
				<line fill="none" stroke="#9D9D9C" stroke-width="4" stroke-miterlimit="10" stroke-dasharray="5.9591,5.9591" x1="84.174" y1="166.777" x2="84.174" y2="986.154"/>
			
				<line fill="none" stroke="#9D9D9C" stroke-width="4" stroke-miterlimit="10" x1="84.174" y1="989.135" x2="84.174" y2="992.135"/>
		</g>
	</g>
	<circle fill="#95C11F" cx="84.173" cy="157.818" r="66.091"/>
	<circle fill="#008E44" cx="84.173" cy="491.545" r="66.091"/>
	<circle fill="#85A128" cx="84.173" cy="324.681" r="40.863"/>
	<path fill="#006633" d="M125.036,658.406c0-22.566-18.296-40.861-40.862-40.861c-22.569,0-40.863,18.295-40.863,40.861
		c0,22.57,18.294,40.863,40.863,40.863C106.74,699.27,125.036,680.977,125.036,658.406z"/>
	<path fill="#2D7782" d="M125.036,825.271c0-22.568-18.296-40.865-40.862-40.865c-22.569,0-40.863,18.297-40.863,40.865
		c0,22.566,18.294,40.863,40.863,40.863C106.74,866.135,125.036,847.838,125.036,825.271z"/>
	<path fill="#2D2E83" d="M125.036,992.135c0-22.57-18.296-40.865-40.862-40.865c-22.569,0-40.863,18.295-40.863,40.865
		c0,22.566,18.294,40.861,40.863,40.861C106.74,1032.996,125.036,1014.701,125.036,992.135z"/>
	<text transform="matrix(1 0 0 1 33.9624 173.8081)" fill="#FFFFFF" font-family="'Helvetica-Bold'" font-size="39.2638">09:00</text>
	<text transform="matrix(1 0 0 1 53.2744 336.1401)" fill="#FFFFFF" font-family="'Helvetica-Bold'" font-size="24.1623">10:00</text>
	<text transform="matrix(1 0 0 1 53.2744 670.1484)" fill="#FFFFFF" font-family="'Helvetica-Bold'" font-size="24.1623">12:30</text>
	<text transform="matrix(1 0 0 1 53.2744 835.375)" fill="#FFFFFF" font-family="'Helvetica-Bold'" font-size="24.1623">18:00</text>
	<text transform="matrix(1 0 0 1 53.2744 1002.6465)" fill="#FFFFFF" font-family="'Helvetica-Bold'" font-size="24.1623">22:00</text>
	<text transform="matrix(1 0 0 1 33.9624 506.0391)" fill="#FFFFFF" font-family="'Helvetica-Bold'" font-size="39.2638">11:00</text>
	<text transform="matrix(1 0 0 1 180.2852 150.2671)" fill="#878787" font-family="'Helvetica-Bold'" font-size="18.1217">Onboarding, Breakfast, Teambuilding</text>
	<text transform="matrix(1 0 0 1 180.2852 121.8413)" font-family="'Helvetica-Bold'" font-size="18.1217">Registrierung, Frühstück &amp; Teambuilding</text>
	<g>
		<text transform="matrix(1 0 0 1 180.2852 317.7515)" fill="#878787" font-family="'Helvetica-Bold'" font-size="18.1217">Welcome Speeches &amp; Kick-off</text>
	</g>
	<text transform="matrix(1 0 0 1 180.2852 289.3257)" font-family="'Helvetica-Bold'" font-size="18.1217">Willkommensgruß der Veranstalter</text>
	<g>
		<text transform="matrix(1 0 0 1 180.2852 849.5889)" fill="#878787" font-family="'Helvetica-Bold'" font-size="18.1217">Dinner</text>
	</g>
	<text transform="matrix(1 0 0 1 180.2852 821.1631)" font-family="'Helvetica-Bold'" font-size="18.1217">Abendessen</text>
	<g>
		<text transform="matrix(1 0 0 1 180.2852 639.0566)" fill="#878787" font-family="'Helvetica-Bold'" font-size="18.1217">Lunch</text>
	</g>
	<text transform="matrix(1 0 0 1 180.2852 610.6309)" font-family="'Helvetica-Bold'" font-size="18.1217">Mittagessen</text>
	<g>
		<text transform="matrix(1 0 0 1 180.2852 1013.8379)" fill="#878787" font-family="'Helvetica-Bold'" font-size="18.1217">Codenight (location is open all night)</text>
	</g>
	<text transform="matrix(1 0 0 1 180.2852 985.4121)" font-family="'Helvetica-Bold'" font-size="18.1217">Codenight (ihr könnt die ganze Nacht im MAFINEX weiter coden)</text>
	<g>
		<text transform="matrix(1 0 0 1 180.2852 509.666)" fill="#878787" font-family="'Helvetica-Bold'" font-size="18.1217">Finish Idea Creation &amp; Coding</text>
	</g>
	<text transform="matrix(1 0 0 1 180.2852 481.2402)" font-family="'Helvetica-Bold'" font-size="18.1217">Startschuss Hackathon: Das Coden kann beginnen</text>
	<g>
		
			<rect x="600.544" y="121.04" transform="matrix(-0.8535 -0.521 0.521 -0.8535 1053.5701 541.03)" fill="#010202" width="4.564" height="2.793"/>
		
			<rect x="592.626" y="116.207" transform="matrix(-0.8537 -0.5208 0.5208 -0.8537 1041.5322 527.8169)" fill="#010202" width="4.564" height="2.795"/>
		<path fill="#010202" d="M627.857,102.197l-8.238-5.028c-0.712-0.435-1.572-0.57-2.385-0.373c-0.812,0.196-1.516,0.708-1.951,1.423
			c-0.37,0.605-0.952,1.03-1.642,1.197s-1.402,0.054-2.005-0.314c-1.251-0.762-1.646-2.4-0.884-3.649
			c0.907-1.487,0.437-3.429-1.05-4.338l-8.238-5.027c-1.488-0.908-3.428-0.438-4.337,1.049l-13.424,21.993
			c-0.255,0.417-1.191,1.956-1.455,2.386l-13.422,21.992c-0.435,0.714-0.57,1.572-0.373,2.386c0.196,0.813,0.708,1.515,1.422,1.951
			l8.24,5.029c1.487,0.908,3.428,0.438,4.338-1.05c0.761-1.25,2.397-1.646,3.646-0.883c1.249,0.762,1.646,2.398,0.882,3.649
			c-0.905,1.486-0.437,3.428,1.049,4.337l8.239,5.026c1.488,0.909,3.431,0.438,4.338-1.048l13.421-21.992
			c0.262-0.429,1.195-1.958,1.458-2.385l13.422-21.991C629.814,105.047,629.346,103.104,627.857,102.197z M612.793,126.882
			l-3.269-1.996l-1.456,2.387l3.268,1.994l-13.422,21.991l-8.238-5.028c1.672-2.739,0.809-6.313-1.931-7.985
			c-2.74-1.67-6.314-0.805-7.987,1.934l-8.236-5.028l13.422-21.993l3.268,1.995l1.456-2.386l-3.267-1.994l13.422-21.992l8.236,5.028
			v0c-1.671,2.739-0.807,6.312,1.932,7.986c2.739,1.671,6.313,0.806,7.984-1.933l8.238,5.026l-13.422,21.991L612.793,126.882z"/>
	</g>
	<g>
		<polygon fill="#010202" points="688.949,503.399 688.949,510.439 693.645,510.439 714.77,510.439 719.462,510.439 
			719.462,503.399 		"/>
		<path fill="#010202" d="M700.686,492.837c0-0.649-0.525-1.174-1.174-1.174c-0.517,0-0.944,0.339-1.101,0.808l-0.012-0.006
			l-2.079,6.238h-6.197c-0.646,0-1.174,0.525-1.174,1.174s0.528,1.174,1.174,1.174h7.887l2.616-7.843l-0.015-0.006
			C700.653,493.088,700.686,492.967,700.686,492.837z"/>
		<g>
			<path fill="#010202" d="M692.471,491.663h-10.107l-2.962-8.096l-0.015,0.006c-0.448-1.428-1.767-2.472-3.342-2.472
				c-0.566,0-1.094,0.15-1.568,0.386l-0.006-0.012c-8.067,4.032-12.51,13.069-12.51,25.445c0,1.944,1.575,3.519,3.522,3.519h10.562
				v11.733c0,1.947,1.575,3.521,3.52,3.521c1.943,0,3.521-1.578,3.521-3.521v-15.252c0-1.947-1.578-3.521-3.521-3.521h-10.412
				c0.428-5.062,1.92-10.518,5.884-13.904l3.602,5.566l0.009-0.003c0.387,0.767,1.174,1.301,2.092,1.301h11.735
				c1.295,0,2.345-1.053,2.345-2.348C694.818,492.716,693.769,491.663,692.471,491.663z"/>
			<circle fill="#010202" cx="685.431" cy="478.756" r="5.28"/>
		</g>
		<path fill="#010202" d="M718.288,498.704h-6.197l-2.076-6.238L710,492.471c-0.156-0.469-0.581-0.808-1.101-0.808
			c-0.648,0-1.174,0.525-1.174,1.174c0,0.13,0.036,0.251,0.074,0.366l-0.015,0.006l2.616,7.843h7.887
			c0.648,0,1.171-0.525,1.171-1.174S718.937,498.704,718.288,498.704z"/>
		<path fill="#010202" d="M722.98,473.477c2.917,0,5.283,2.362,5.283,5.28c0,2.914-2.366,5.279-5.283,5.279
			c-2.914,0-5.279-2.365-5.279-5.279C717.701,475.839,720.066,473.477,722.98,473.477z"/>
		<path fill="#010202" d="M733.944,481.476l-0.006,0.012c-0.476-0.236-1.006-0.386-1.569-0.386c-1.575,0-2.894,1.044-3.342,2.472
			l-0.018-0.006l-2.962,8.096H715.94c-1.295,0-2.345,1.05-2.345,2.348c0,1.295,1.05,2.348,2.345,2.348h11.735
			c0.918,0,1.705-0.534,2.092-1.304l0.009,0.006l3.604-5.566c3.961,3.386,5.453,8.843,5.881,13.904h-10.411
			c-1.947,0-3.522,1.575-3.522,3.519v15.255c0,1.944,1.575,3.521,3.522,3.521c1.943,0,3.519-1.578,3.519-3.521v-11.733h10.562
			c1.944,0,3.52-1.575,3.52-3.519C746.45,494.545,742.008,485.507,733.944,481.476z"/>
		<path fill="#010202" d="M704.207,469.955c-6.796,0-12.323-5.528-12.323-12.32c0-6.793,5.527-12.32,12.323-12.32
			s12.32,5.527,12.32,12.32C716.527,464.427,711.003,469.955,704.207,469.955z M704.207,447.66c-5.501,0-9.976,4.474-9.976,9.975
			c0,5.498,4.475,9.975,9.976,9.975c5.498,0,9.976-4.477,9.976-9.975C714.183,452.134,709.705,447.66,704.207,447.66z"/>
		<path fill="#010202" d="M710.073,452.939c0-0.646-0.524-1.171-1.174-1.171c-0.327,0-0.619,0.133-0.831,0.345l-2.688,2.69v-4.209
			c0-0.649-0.524-1.174-1.177-1.174c-0.646,0-1.174,0.525-1.174,1.174v7.041c0,0.649,0.528,1.174,1.174,1.174
			c0.327,0,0.619-0.133,0.832-0.348l4.692-4.689C709.941,453.559,710.073,453.267,710.073,452.939z"/>
	</g>
</g>
</svg>
