<?xml version="1.0"?>
<svg xmlns="http://www.w3.org/2000/svg" xmlns:xlink="http://www.w3.org/1999/xlink" height="100%" width="100%" viewBox="0 0 512 512">
  <circle cx="256" cy="256" r="256" fill="#dd4b39"/>
  <path fill="white" d="M271 224c-27 20-33 31-8 50 14 11 24 26 24 44 0 20-8 38-23 47l22 0 18 19-82 0c-52 0-77-31-77-65 0-34 24-62 70-62-7-14-4-27 8-37-80 0-97-35-97-62 0-34 40-55 88-55 66 0 92 35 92 63 0 23-9 39-35 58z m-95 96c-4 29 11 51 33 51 22-1 41-25 45-54 4-29-9-48-31-47-22 0-43 21-47 50z m38-202c-33 0-57 21-57 46 0 25 28 46 61 46 37 0 59-23 59-47 0-25-20-45-63-45z m161 224l0 38-19 0 0-38-38 0 0-19 38 0 0-38 19 0 0 38 38 0 0 19z" transform="scale(1, -1) translate(0,-512)"/>
</svg>
